<svg id="Слой_1" data-name="Слой 1" xmlns="http://www.w3.org/2000/svg" viewBox="0 0 90.23 15.49"><defs><style>.cls-1{fill:#db4437;}</style></defs><title>logo</title><path d="M10.27,8.7V.15h.86V8.7Z"/><path d="M13.24,8.7V.15h.86V7.87h6.3l-.07.83Z"/><path d="M22.41,8.7V.15h7.17L29.51,1H23.28V4h5.58l-.05.83H23.28v3h6.3l-.07.83Z"/><path d="M31.47,8.7v-1h1v1Z"/><path d="M34.5,8.7V.15h7.17L41.6,1H35.37V4H41l-.05.83H35.37v3h6.3l-.07.83Z"/><path d="M43.26,8.7l3.46-4.39L43.45.15h1l2.76,3.5L50,.15h1l-3.3,4.17L51.24,8.7h-1L47.26,5,44.32,8.7Z"/><path d="M52.91,8.7V.15L54,.08l1.1,0,1,0h.79a10,10,0,0,1,1.5.1,3.09,3.09,0,0,1,1.2.39,2.06,2.06,0,0,1,.79.86,3.44,3.44,0,0,1,.28,1.49,3.46,3.46,0,0,1-.28,1.5,2.06,2.06,0,0,1-.79.86,3.28,3.28,0,0,1-1.19.4,11.59,11.59,0,0,1-1.51.1l-1.39,0c-.56,0-1.15,0-1.75-.07V8.7Zm.87-3.93,1.76.07,1.36,0a10.57,10.57,0,0,0,1.16-.06A2.54,2.54,0,0,0,59,4.52a1.53,1.53,0,0,0,.61-.6,2.22,2.22,0,0,0,.23-1.08,2.21,2.21,0,0,0-.23-1.07A1.49,1.49,0,0,0,59,1.16a2.21,2.21,0,0,0-.93-.27A10.57,10.57,0,0,0,56.9.83l-1.37,0L53.78.92Z"/><path d="M62.45,8.7V.15h7.17L69.55,1H63.32V4H68.9l-.05.83H63.32v3h6.3l-.07.83Z"/><path d="M71.63,8.7V.15L72.75.08l1.11,0,1,0h.79a10.07,10.07,0,0,1,1.51.1,3,3,0,0,1,1.19.39,2.06,2.06,0,0,1,.79.86,3.3,3.3,0,0,1,.28,1.49A3.87,3.87,0,0,1,79.25,4a2.38,2.38,0,0,1-.42.79,1.84,1.84,0,0,1-.66.51,2.92,2.92,0,0,1-.85.27l1.91,3.08,0,.07-.86.11-2-3.14L76,5.7h-.39l-1.38,0c-.57,0-1.15,0-1.76-.07V8.7Zm.86-3.93,1.76.07,1.36,0a10.57,10.57,0,0,0,1.16-.06,2.59,2.59,0,0,0,.94-.28,1.6,1.6,0,0,0,.61-.6,2.23,2.23,0,0,0,.22-1.08,2.21,2.21,0,0,0-.22-1.07,1.56,1.56,0,0,0-.61-.61,2.21,2.21,0,0,0-.93-.27A10.63,10.63,0,0,0,75.61.83l-1.36,0L72.49.92Z"/><path d="M80.72,1V.15h8.09L88.74,1H85.25V8.7h-.86V1Z"/><path class="cls-1" d="M0,1V.15H8.09L8,1H4.53V8.7H3.67V1Z"/><path class="cls-1" d="M84,8.87l0,.06s.05.22,1,3.27,1.05,3.25,1.08,3.27a.16.16,0,0,0,.2,0l.62-1.27.6-1.24,1.32-.43c1.43-.46,1.39-.45,1.42-.53a.31.31,0,0,0,0-.09,21.6,21.6,0,0,0-3.06-1.56c-2.9-1.44-3-1.51-3.09-1.5Zm4.49,3.43a8.81,8.81,0,0,0-1.22.42l-1.08,2.22-.92-2.83-.92-2.85L87,10.58l2.66,1.32Z"/></svg>
