<svg version="1.1" xmlns="http://www.w3.org/2000/svg" xmlns:xlink="http://www.w3.org/1999/xlink" x="0px" y="0px" viewBox="0 0 1000 1000" enable-background="new 0 0 1000 1000" xml:space="preserve">
    <g>
        <path d="M45,850c-21,0-35-14-35-35V185c0-21,14-35,35-35h910c21,0,35,14,35,35v630c0,21-14,35-35,35H45z M80,780h840V220H80V780z"></path>
        <path d="M493,633c-7,0-14,0-21-7L24,213c-7-7-14-14-14-28c0-7,0-21,7-28c7,0,21-7,28-7s14,0,21,7l420,392l420-364c7-7,14-7,21-7s21,7,28,14s7,14,7,28c0,7-7,21-14,21L514,626C507,626,500,633,493,633z"></path>
    </g>
</svg>
