<svg version="1.1" xmlns="http://www.w3.org/2000/svg" xmlns:xlink="http://www.w3.org/1999/xlink" x="0px" y="0px" viewBox="0 0 1000 1000" enable-background="new 0 0 1000 1000" xml:space="preserve">
    <g>
        <g>
            <path d="M969.4,879.8L713.6,623.9c45.7-64,73.1-141.6,73.1-223.9c0-214.7-173.6-388.3-388.3-388.3C183.6,11.7,10,185.3,10,400.1c0,214.7,173.6,388.3,388.3,388.3c82.2,0,159.9-27.4,223.9-73.1l255.9,255.8c22.8,22.8,64,22.8,91.4,0l0,0C996.9,943.7,996.9,907.2,969.4,879.8z M398.3,697c-164.5,0-297-132.5-297-297c0-164.5,132.5-297,297-297c164.5,0,297,132.5,297,297C695.3,564.5,562.8,697,398.3,697z"/>
        </g>
    </g>
</svg>
