<?xml version="1.0" encoding="UTF-8"?><!DOCTYPE svg PUBLIC "-//W3C//DTD SVG 1.1//EN" "http://www.w3.org/Graphics/SVG/1.1/DTD/svg11.dtd"><svg xmlns="http://www.w3.org/2000/svg"><symbol id="icon-checked" viewBox="0 0 26 26">
    <path d="M.3 14c-.2-.2-.3-.5-.3-.7s.1-.5.3-.7l1.4-1.4c.4-.4 1-.4 1.4 0l.1.1 5.5 5.9c.2.2.5.2.7 0L22.8 3.3h.1c.4-.4 1-.4 1.4 0l1.4 1.4c.4.4.4 1 0 1.4l-16 16.6c-.2.2-.4.3-.7.3-.3 0-.5-.1-.7-.3L.5 14.3.3 14z"/>
</symbol><symbol id="icon-close" viewBox="0 0 21.9 21.9">
    <path d="M14.1 11.3c-.2-.2-.2-.5 0-.7l7.5-7.5c.2-.2.3-.5.3-.7s-.1-.5-.3-.7L20.2.3c-.2-.2-.5-.3-.7-.3-.3 0-.5.1-.7.3l-7.5 7.5c-.2.2-.5.2-.7 0L3.1.3C2.9.1 2.6 0 2.4 0s-.5.1-.7.3L.3 1.7c-.2.2-.3.5-.3.7s.1.5.3.7l7.5 7.5c.2.2.2.5 0 .7L.3 18.8c-.2.2-.3.5-.3.7s.1.5.3.7l1.4 1.4c.2.2.5.3.7.3s.5-.1.7-.3l7.5-7.5c.2-.2.5-.2.7 0l7.5 7.5c.2.2.5.3.7.3s.5-.1.7-.3l1.4-1.4c.2-.2.3-.5.3-.7s-.1-.5-.3-.7l-7.5-7.5z"/>
</symbol><symbol id="icon-facebook" viewBox="0 0 512 512">
    <path d="M448 0H64C28.704 0 0 28.704 0 64v384c0 35.296 28.704 64 64 64h192V336h-64v-80h64v-64c0-53.024 42.976-96 96-96h64v80h-32c-17.664 0-32-1.664-32 16v64h80l-32 80h-48v176h96c35.296 0 64-28.704 64-64V64c0-35.296-28.704-64-64-64z"/>
</symbol><symbol id="icon-instagram" viewBox="0 0 290 290">
    <path d="M250.626 0H39.374C17.663 0 0 17.663 0 39.374v211.252C0 272.338 17.663 290 39.374 290h211.252C272.337 290 290 272.338 290 250.626V39.374C290 17.663 272.337 0 250.626 0zM145 215.846c-35.762 0-64.856-29.094-64.856-64.856 0-35.761 29.095-64.856 64.856-64.856s64.856 29.095 64.856 64.856c0 35.762-29.094 64.856-64.856 64.856zm120.447-112.731H206.85C192.058 85.407 169.823 74.122 145 74.122s-47.058 11.286-61.85 28.993H24.553V46.804c0-14.313 11.645-25.957 25.958-25.957H239.49c14.313 0 25.958 11.644 25.958 25.957v56.311z"/>
    <path d="M145 109.296c-22.989 0-41.694 18.704-41.694 41.693 0 22.99 18.704 41.693 41.694 41.693s41.694-18.703 41.694-41.693c0-22.989-18.705-41.693-41.694-41.693z"/>
    <path d="M233.488 37.491h-25.093c-5.735 0-10.401 4.667-10.401 10.402v25.093c0 5.735 4.665 10.401 10.401 10.401h25.093c5.735 0 10.401-4.665 10.401-10.401V47.893c0-5.736-4.666-10.402-10.401-10.402z"/>
</symbol><symbol id="icon-logo" viewBox="0 0 452.6 79.9">
    <path d="M79.2 32.8c-.9-1.4-2.9-1.9-4.5-1.1l-10.9 5.8L61 39v13.9l2.6 1.4c.1 0 .1.1.2.1l10.7 5.7c.5.4 1.1.5 1.8.5 1.8 0 3.3-1.3 3.3-3V45.9l.1-11.6c0-.6-.1-1.1-.5-1.5z"/>
    <path d="M15.4 28.3c8.5 0 15.4-6.3 15.4-14.1S23.9 0 15.4 0 0 6.3 0 14.1C-.1 22 6.9 28.3 15.4 28.3zm0-20c3.5 0 6.3 2.6 6.3 5.8 0 3.3-2.9 5.8-6.3 5.8s-6.3-2.6-6.3-5.8c-.1-3.2 2.8-5.8 6.3-5.8z"/>
    <path d="M54.5 29.1c-2.5 1.1-5.3 1.8-8.2 1.8-3.6 0-7.1-1-10-2.7H25.4c-2.9 1.8-6.3 2.7-10 2.7-3 0-5.7-.6-8.2-1.8C5 30.2 3.4 32.5 3.4 35v21.4c0 4 3.5 7.1 7.8 7.1h39.4c4.3 0 7.8-3.3 7.8-7.1V35c-.2-2.5-1.7-4.8-3.9-5.9z"/>
    <path d="M46.2 28.3c8.5 0 15.4-6.3 15.4-14.1S54.8 0 46.2 0 30.8 6.3 30.8 14.1c0 7.9 6.9 14.2 15.4 14.2zm0-20c3.5 0 6.3 2.6 6.3 5.8 0 3.3-2.9 5.8-6.3 5.8s-6.3-2.6-6.3-5.8c0-3.2 2.8-5.8 6.3-5.8z"/>
    <g>
        <path d="M140.9 20.3c0 2.9-1.1 5.6-3.2 8L115 54.2c-3 3.5-6.5 5.3-10.3 5.3h-9l3.6-37.9H83l5.2-8.3h17c1.9 0 3.5.5 4.8 1.6 1.3 1.1 1.9 2.5 1.9 4.2v.7l-3.7 33.4 21.5-25c-2.2-.4-4-1.3-5.5-2.7-1.4-1.4-2.2-3.1-2.2-5.1 0-2.2.9-4 2.7-5.6 1.8-1.5 4-2.3 6.6-2.3 2.6 0 4.8.8 6.6 2.3 2.1 1.5 3 3.4 3 5.5z"/>
        <path d="M163.3 40.4l-3.1 8.3h-23.7l3.1-8.3h23.7z"/>
        <path d="M250.5 21.3c0 2.2-.9 4-2.8 5.5-1.8 1.5-4 2.3-6.6 2.3s-4.8-.8-6.6-2.3c-1.8-1.5-2.7-3.4-2.7-5.5 0-.5.1-1.2.3-2-1.1-.1-1.7-.1-2-.1-3.6 0-5.3 1.4-5.3 4.2 0 1.4 1 4.6 3.1 9.6 2.1 4.9 3.1 8.8 3.1 11.6 0 6-3.6 10.5-10.7 13.5-5.3 2.2-11.5 3.3-18.6 3.3-6.5 0-12.2-.8-17.3-2.5-7.1-2.4-10.6-6-10.6-10.9 0-7.1 6.5-10.7 19.5-10.7h13.4l2.6 5.3H199c-2.6 0-4.9.4-6.9 1.3-2.5 1.1-3.8 2.8-3.8 5 0 2.5 1.7 4.4 5.2 5.8 2.7 1.1 5.6 1.6 8.6 1.6 3.9 0 7.1-.8 9.7-2.4 3-1.8 4.5-4.5 4.5-7.9 0-2.4-1-5.8-2.9-10.2-1.9-4.4-2.9-7.9-2.9-10.3 0-8 7.3-12 21.8-12h8.7c2.4 0 4.5.8 6.4 2.3 2.2 1.4 3.1 3.3 3.1 5.5z"/>
        <path d="M272.1 54.2c-1.1 3.5-4 5.3-8.8 5.3h-17.9c-3.5 0-5.2-1.1-5.2-3.4 0-.6.1-1.2.4-1.8l4.5-11.8h-5.8l2.2-5.3c4.1-1 7.1-2.2 9.1-3.8 2.3-1.7 4.7-4.9 7.2-9.4h6.9l-5 13.2h9.1c-1.5 3.5-4.4 5.3-8.9 5.3h-2.3l-4.4 11.8h18.9z"/>
        <path d="M318.8 54.2c-.5 1.8-1.6 3.2-3.2 4.1-1.3.7-2.7 1.1-4.2 1.1h-14.7c-3.4 0-5.2-1-5.2-3.1-1.8 2.1-4.3 3.1-7.4 3.1h-6.2c-1.9 0-3.4-.5-4.4-1.4-1-.9-1.5-2-1.5-3.4 0-.8.2-1.6.5-2.4l5.9-15.1h12.8l-6.6 17.1h7.1l6.5-17.1h12.6l-6.4 17.1h14.4z"/>
        <path d="M365.6 54.2c-1.2 3.5-4 5.3-8.6 5.3h-13.4c-3.9 0-5.8-1.1-5.7-3.4-2.6 2.8-6 4.2-10.4 4.2-2.8 0-5.1-.7-6.9-2.2-1.8-1.5-2.7-3.6-2.7-6.2 0-4.7 2.1-8.5 6.2-11.2 3.6-2.3 8.1-3.5 13.4-3.5h7.3l6.6-17.3h12.8l-13.1 34.4h14.5zm-22.7-11.8H334l-2.7 7.1c-.2.7-.4 1.2-.4 1.8 0 1.5 1 2.4 3 2.8.7.1 2.2.2 4.5.2l4.5-11.9z"/>
        <path d="M392.3 54.2c-.6 1.9-1.9 3.3-3.8 4.3-1.4.7-2.9 1-4.5 1h-13.9c-3.4 0-5-1.3-5-3.9 0-.7.2-1.5.5-2.4l6.1-16h12.8L378 54.3h14.3zm-2.5-30.5c0 2.2-.9 4-2.7 5.6-1.8 1.5-4 2.3-6.6 2.3-2.6 0-4.8-.8-6.6-2.3-1.8-1.5-2.7-3.4-2.7-5.6 0-2.2.9-4 2.7-5.5 1.8-1.5 4-2.3 6.6-2.3 2.6 0 4.7.8 6.6 2.3 1.7 1.5 2.7 3.4 2.7 5.5z"/>
        <path d="M452.1 37.2c-.9 3.5-3.8 5.3-8.4 5.3h-22c.8.5 1.4 1.4 1.9 2.6.5 1.3.7 2.4.6 3.3-.3 3.7-2.1 6.5-5.2 8.6-3 2-6.8 3-11.6 3-5.5 0-9.8-1-12.8-3.1-2.6-1.8-4-4.3-4-7.3 0-.6.1-1.2.2-1.8.6-3.3 2.4-5.9 5.3-7.8 3.1-2 7.2-3 12.4-3h43.6zm-38.3 5.2h-8.1l-3.2 8.4c-.2.4-.2.9-.2 1.2 0 1.9 1.9 2.8 5.6 2.8h1.2l4.7-12.4z"/>
    </g>
    <path d="M0 75.7h452.6v4.2H0z"/>
</symbol><symbol id="icon-twitter" viewBox="0 0 510 510">
    <path d="M459 0H51C22.95 0 0 22.95 0 51v408c0 28.05 22.95 51 51 51h408c28.05 0 51-22.95 51-51V51c0-28.05-22.95-51-51-51zm-58.65 186.15c-2.55 117.3-76.5 198.9-188.7 204-45.9 2.55-79.05-12.75-109.65-30.6 33.15 5.101 76.5-7.649 99.45-28.05-33.15-2.55-53.55-20.4-63.75-48.45 10.2 2.55 20.4 0 28.05 0-30.6-10.2-51-28.05-53.55-68.85 7.65 5.1 17.85 7.65 28.05 7.65-22.95-12.75-38.25-61.2-20.4-91.8 33.15 35.7 73.95 66.3 140.25 71.4-17.85-71.4 79.051-109.65 117.301-61.2 17.85-2.55 30.6-10.2 43.35-15.3-5.1 17.85-15.3 28.05-28.05 38.25 12.75-2.55 25.5-5.1 35.7-10.2-2.551 12.75-15.301 22.95-28.051 33.15z"/>
</symbol><symbol id="icon-vkontakte" viewBox="0 0 96 96">
    <path d="M53.174 52.908c-1.539-.896-3.678-.896-5.416-.896h-5.707v11.76h5.238c1.939 0 4.412.139 6.084-1.035 1.535-1.033 2.404-3.061 2.404-4.992 0-1.794-1.068-3.94-2.603-4.837zm-2.153-10.043c1.27-.967 1.936-2.691 1.936-4.279 0-1.725-.801-3.381-2.27-4.277-1.537-.896-4.346-.689-6.15-.689h-2.486v10.35h3.289c1.871-.001 4.078.137 5.681-1.105zM79.125 0H16.873C7.555 0 0 7.555 0 16.875v62.25C0 88.443 7.555 96 16.873 96h62.252C88.443 96 96 88.443 96 79.125v-62.25C96 7.555 88.443 0 79.125 0zM50.604 72.535H30.992V25.201H52.42c6.207 0 11.934 3.951 11.934 10.92 0 5.381-3.004 9.066-6.836 10.211v.139c5.682 1.174 9.74 4.26 9.74 11.705 0 6.89-4.692 14.359-16.654 14.359z"/>
</symbol></svg>