<?xml version="1.0" encoding="UTF-8"?><!DOCTYPE svg PUBLIC "-//W3C//DTD SVG 1.1//EN" "http://www.w3.org/Graphics/SVG/1.1/DTD/svg11.dtd"><svg xmlns="http://www.w3.org/2000/svg"><defs>
        <style>
            .cls-1{fill:#fff;fill-rule:evenodd}
        </style>
    
        <style>
            .cls-1{fill:#00bdca;fill-rule:evenodd}
        </style>
    
        <style>
            .cls-1{fill:#00bdca;fill-rule:evenodd}
        </style>
    
        <style>
            .cls-1{fill:#00bdca;fill-rule:evenodd}
        </style>
    
        <style>
            .cls-1{fill:#00bdca;fill-rule:evenodd}
        </style>
    
        <style>
            .cls-1{fill:#00bdca;fill-rule:evenodd}
        </style>
    
        <style>
            .cls-1{fill:#00bdca;fill-rule:evenodd}
        </style>
    
        <style>
            .cls-1{fill:#fff;fill-rule:evenodd}
        </style>
    
        <style>
            .cls-1{fill:#fff;fill-rule:evenodd}
        </style>
    
        <style>
            .cls-1{fill:#fff;fill-rule:evenodd}
        </style>
    
        <style>
            .cls-1{fill:#fff;fill-rule:evenodd}
        </style>
    
        <style>
            .cls-1{fill:#fff;fill-rule:evenodd}
        </style>
    
        <style>
            .cls-1{fill:#fff;fill-rule:evenodd}
        </style>
    
        <style>
            .cls-1{fill:#1d354e;fill-rule:evenodd}
        </style>
    </defs><symbol id="icon-arrow" viewBox="0 0 15.969 10">
    
    <path id="Rounded_Rectangle_20" data-name="Rounded Rectangle 20" class="cls-1" d="M485.22 5066.27l1.037-1.06a.726.726 0 0 1 1.036 0l7.257 7.43a.762.762 0 0 1 0 1.06l-1.036 1.06a.71.71 0 0 1-1.037 0l-7.257-7.42a.772.772 0 0 1 0-1.07zm6.22 6.37l7.257-7.43a.727.727 0 0 1 1.037 0l1.037 1.06a.774.774 0 0 1 0 1.07l-7.257 7.42a.71.71 0 0 1-1.037 0l-1.037-1.06a.762.762 0 0 1 0-1.06z" transform="translate(-485.031 -5065)"/>
</symbol><symbol id="icon-Shape39" viewBox="0 0 47.657 47.78">
    
    <path class="cls-1" d="M23.804 47.79a22.405 22.405 0 1 1 22.333-22.41 22.4 22.4 0 0 1-22.333 22.41zm0-41.83A19.42 19.42 0 1 0 43.16 25.38 19.415 19.415 0 0 0 23.804 5.96zM1.47 47.79a1.5 1.5 0 0 1-1.052-2.55l6.091-6.11a1.473 1.473 0 0 1 2.1 0 1.493 1.493 0 0 1 0 2.11l-6.091 6.11a1.489 1.489 0 0 1-1.048.44zm44.667 0a1.488 1.488 0 0 1-1.052-.44l-6.092-6.11a1.493 1.493 0 0 1 0-2.11 1.474 1.474 0 0 1 2.106 0l6.091 6.11a1.5 1.5 0 0 1-1.053 2.55zM1.47 9.82A1.5 1.5 0 0 1 .3 7.4 29.978 29.978 0 0 1 8.452.2a1.492 1.492 0 0 1 1.532 2.56 26.975 26.975 0 0 0-7.343 6.48 1.478 1.478 0 0 1-1.171.58zm44.669 0a1.477 1.477 0 0 1-1.172-.58 26.954 26.954 0 0 0-7.345-6.48A1.492 1.492 0 0 1 39.154.2a29.982 29.982 0 0 1 8.153 7.2 1.495 1.495 0 0 1-1.168 2.42zM23.804 26.88a1.493 1.493 0 0 1-1.489-1.5V11.94a1.489 1.489 0 1 1 2.978 0v13.44a1.494 1.494 0 0 1-1.489 1.5zm-8.932 5.97a1.485 1.485 0 0 1-1.24-.66 1.508 1.508 0 0 1 .412-2.08l8.933-5.97a1.49 1.49 0 0 1 2.066.41 1.506 1.506 0 0 1-.412 2.08l-8.934 5.97a1.482 1.482 0 0 1-.825.25z"/>
</symbol><symbol id="icon-Shape40" viewBox="0 0 48 34.5">
    
    <path class="cls-1" d="M6 34.5a6 6 0 1 1 6-6 6.005 6.005 0 0 1-6 6zm0-9a3 3 0 1 0 3 3 3 3 0 0 0-3-3zm12-6a6 6 0 1 1 6-6 6.006 6.006 0 0 1-6 6zm0-9a3 3 0 1 0 3 3 3 3 0 0 0-3-3zM42 12a6 6 0 1 1 6-6 6.005 6.005 0 0 1-6 6zm0-9a3 3 0 1 0 3 3 3 3 0 0 0-3-3zM30 28.5a6 6 0 1 1 6-6 6.005 6.005 0 0 1-6 6zm0-9a3 3 0 1 0 3 3 3 3 0 0 0-3-3zm-3.668 1.75a1.507 1.507 0 0 1-.9-.3l-4.666-3.5a1.5 1.5 0 1 1 1.8-2.4l4.667 3.5a1.5 1.5 0 0 1-.903 2.7zm6.3-.88a1.453 1.453 0 0 1-.88-.29 1.494 1.494 0 0 1-.332-2.09l6.727-9.25a1.5 1.5 0 0 1 2.425 1.76l-6.726 9.26a1.5 1.5 0 0 1-1.213.61zm-23.7 5.96a1.5 1.5 0 0 1-1.171-2.44l6.13-7.66a1.5 1.5 0 0 1 2.341 1.87l-6.129 7.67a1.525 1.525 0 0 1-1.169.56z"/>
</symbol><symbol id="icon-Shape41" viewBox="0 0 48 48">
    
    <path class="cls-1" d="M37.5 43.5H10.49a6 6 0 0 1-5.99-6V10.49a6 6 0 0 1 5.99-5.99H37.5a6 6 0 0 1 6 5.99V37.5a6 6 0 0 1-6 6zm-27.01-36a2.992 2.992 0 0 0-2.99 2.99V37.5a3 3 0 0 0 2.99 3H37.5a3.009 3.009 0 0 0 3-3V10.49a3 3 0 0 0-3-2.99H10.49zM29.25 33h-10.5A3.751 3.751 0 0 1 15 29.25v-10.5A3.751 3.751 0 0 1 18.75 15h10.5A3.751 3.751 0 0 1 33 18.75v10.5A3.751 3.751 0 0 1 29.25 33zm-10.5-15a.755.755 0 0 0-.75.75v10.5a.762.762 0 0 0 .75.75h10.5a.762.762 0 0 0 .75-.75v-10.5a.755.755 0 0 0-.75-.75h-10.5zM13.5 7.5A1.5 1.5 0 0 1 12 6V1.5A1.5 1.5 0 0 1 13.5 0 1.5 1.5 0 0 1 15 1.5V6a1.5 1.5 0 0 1-1.5 1.5zm21 0A1.5 1.5 0 0 1 33 6V1.5A1.5 1.5 0 0 1 34.5 0 1.5 1.5 0 0 1 36 1.5V6a1.5 1.5 0 0 1-1.5 1.5zM24 7.5A1.5 1.5 0 0 1 22.5 6V1.5A1.5 1.5 0 0 1 24 0a1.5 1.5 0 0 1 1.5 1.5V6A1.5 1.5 0 0 1 24 7.5zM13.5 48a1.5 1.5 0 0 1-1.5-1.5V42a1.5 1.5 0 0 1 1.5-1.5A1.5 1.5 0 0 1 15 42v4.5a1.5 1.5 0 0 1-1.5 1.5zm21 0a1.5 1.5 0 0 1-1.5-1.5V42a1.5 1.5 0 0 1 1.5-1.5A1.5 1.5 0 0 1 36 42v4.5a1.5 1.5 0 0 1-1.5 1.5zM24 48a1.5 1.5 0 0 1-1.5-1.5V42a1.5 1.5 0 0 1 1.5-1.5 1.5 1.5 0 0 1 1.5 1.5v4.5A1.5 1.5 0 0 1 24 48zM1.5 36a1.5 1.5 0 1 1 0-3h4.44a1.5 1.5 0 1 1 0 3H1.5zm0-21a1.5 1.5 0 1 1 0-3h4.44a1.5 1.5 0 1 1 0 3H1.5zm0 10.5a1.5 1.5 0 1 1 0-3l4.44-.01A1.507 1.507 0 0 1 7.44 24a1.49 1.49 0 0 1-1.5 1.49l-4.44.01zm45 10.5H42a1.5 1.5 0 0 1 0-3h4.5a1.5 1.5 0 0 1 0 3zM42 15a1.5 1.5 0 0 1 0-3h4.5a1.5 1.5 0 0 1 0 3H42zm0 10.5a1.5 1.5 0 0 1 0-3h4.5a1.5 1.5 0 0 1 0 3H42z"/>
</symbol><symbol id="icon-Shape42" viewBox="0 0 48 48">
    
    <path class="cls-1" d="M44.25 48H3.75a3.76 3.76 0 0 1-3.752-3.75V3.75A3.753 3.753 0 0 1 3.75 0h40.5A3.751 3.751 0 0 1 48 3.75v40.5A3.758 3.758 0 0 1 44.25 48zM3.75 3a.755.755 0 0 0-.75.75v40.5a.755.755 0 0 0 .75.75h40.5a.755.755 0 0 0 .75-.75V3.75a.762.762 0 0 0-.75-.75H3.75zM27 30c-.05 0-.1-.01-.15-.01a1.5 1.5 0 0 1-1.32-1.18l-3.38-15.79-4.24 12.07a1.475 1.475 0 0 1-1.35 1 1.5 1.5 0 0 1-1.43-.87l-3.41-7.51-.81 1.15a1.5 1.5 0 0 1-1.23.64H1.5a1.5 1.5 0 1 1 0-3h7.4l1.87-2.67a1.495 1.495 0 0 1 2.59.25l2.96 6.5L21.08 7a1.5 1.5 0 0 1 2.88.18l3.52 16.43 4.14-9.51a1.564 1.564 0 0 1 1.41-.9 1.486 1.486 0 0 1 1.37.95l1.8 4.64.79-1.49a1.505 1.505 0 0 1 1.33-.8h8.18a1.5 1.5 0 0 1 0 3h-7.28l-1.9 3.6a1.505 1.505 0 0 1-1.41.79 1.487 1.487 0 0 1-1.31-.95l-1.68-4.31-4.55 10.46A1.49 1.49 0 0 1 27 30zm19.5 6h-45a1.5 1.5 0 1 1 0-3h45a1.5 1.5 0 0 1 0 3zm-6 3a1.5 1.5 0 1 1-1.5 1.5 1.5 1.5 0 0 1 1.5-1.5zM36 39a1.5 1.5 0 1 1-1.5 1.5A1.5 1.5 0 0 1 36 39z"/>
</symbol><symbol id="icon-Shape43" viewBox="0 0 48 48">
    
    <path class="cls-1" d="M44.24 48H3.75a3.762 3.762 0 0 1-3.752-3.76V11.25A3.753 3.753 0 0 1 3.75 7.5h40.49A3.76 3.76 0 0 1 48 11.25v32.99A3.768 3.768 0 0 1 44.24 48zM3.75 10.5a.755.755 0 0 0-.75.75v32.99a.758.758 0 0 0 .75.76h40.49a.76.76 0 0 0 .76-.76V11.25a.758.758 0 0 0-.76-.75H3.75zm42.75 24h-45a1.5 1.5 0 1 1 0-3h45a1.5 1.5 0 0 1 0 3zM33 9h-3V3.86a.789.789 0 0 0-.57-.86H18.56a.793.793 0 0 0-.56.86V9h-3V3.86A3.724 3.724 0 0 1 18.56 0h10.87A3.726 3.726 0 0 1 33 3.86V9zm-9 18a1.6 1.6 0 0 1-1.07-.44 1.551 1.551 0 0 1-.43-1.06 1.5 1.5 0 1 1 3 0A1.5 1.5 0 0 1 24 27z"/>
</symbol><symbol id="icon-Shape44" viewBox="0 0 48 46.5">
    
    <path class="cls-1" d="M5.7 31.8a1.5 1.5 0 0 1-1.464-1.17 20.5 20.5 0 0 1-.486-4.38A20.206 20.206 0 0 1 17.626 7.04a1.5 1.5 0 1 1 .945 2.84 17.2 17.2 0 0 0-11.4 20.1 1.5 1.5 0 0 1-1.141 1.79 1.814 1.814 0 0 1-.33.03zM24 46.5a20.193 20.193 0 0 1-13.347-5.05 1.5 1.5 0 1 1 1.979-2.25 17.177 17.177 0 0 0 22.736 0 1.5 1.5 0 1 1 1.979 2.25A20.187 20.187 0 0 1 24 46.5zm18.3-14.7a1.8 1.8 0 0 1-.325-.03 1.5 1.5 0 0 1-1.143-1.79 17.187 17.187 0 0 0-11.4-20.09 1.501 1.501 0 0 1 .944-2.85 20.191 20.191 0 0 1 13.387 23.59A1.492 1.492 0 0 1 42.3 31.8zM7.5 43.5A7.5 7.5 0 1 1 15 36a7.512 7.512 0 0 1-7.5 7.5zm0-12A4.5 4.5 0 1 0 12 36a4.506 4.506 0 0 0-4.5-4.5zM24 15a7.5 7.5 0 1 1 7.5-7.5A7.512 7.512 0 0 1 24 15zm0-12a4.5 4.5 0 1 0 4.5 4.5A4.506 4.506 0 0 0 24 3zm16.5 40.5A7.5 7.5 0 1 1 48 36a7.512 7.512 0 0 1-7.5 7.5zm0-12A4.5 4.5 0 1 0 45 36a4.506 4.506 0 0 0-4.5-4.5z"/>
</symbol><symbol id="icon-Shape45" viewBox="0 0 48 48">
    
    <path class="cls-1" d="M28.5 15h-18a1.5 1.5 0 0 1 0-3h18a1.5 1.5 0 1 1 0 3zm0 6h-18a1.5 1.5 0 0 1 0-3h18a1.5 1.5 0 1 1 0 3zm0 6h-18a1.5 1.5 0 0 1 0-3h18a1.5 1.5 0 1 1 0 3zm-9 6h-9a1.5 1.5 0 0 1 0-3h9a1.5 1.5 0 1 1 0 3zM42 42a1.5 1.5 0 0 1-1.5-1.5V15.68a1.5 1.5 0 0 1 3 0V40.5A1.5 1.5 0 0 1 42 42zm0 6a5.547 5.547 0 0 1-1-.09 1.364 1.364 0 0 1-.5.09H6a6.005 6.005 0 0 1-6-6V3.74A3.749 3.749 0 0 1 3.747 0h31.506A3.75 3.75 0 0 1 39 3.74V42a3 3 0 0 0 6 0V18a1.5 1.5 0 0 1 3 0v24a6.005 6.005 0 0 1-6 6zM3.747 3A.743.743 0 0 0 3 3.74V42a3.006 3.006 0 0 0 3 3h30.8a5.977 5.977 0 0 1-.805-3V3.74a.744.744 0 0 0-.747-.74H3.745z"/>
</symbol><symbol id="icon-Shape46" viewBox="0 0 48 48">
    
    <path class="cls-1" d="M46.5 48h-45a1.5 1.5 0 1 1 0-3h45a1.5 1.5 0 0 1 0 3zM33 48a1.5 1.5 0 0 1-1.5-1.5v-42a1.5 1.5 0 0 0-3 0v42a1.5 1.5 0 0 1-3 0v-42a4.5 4.5 0 0 1 9 0v42A1.5 1.5 0 0 1 33 48zm12 0a1.5 1.5 0 0 1-1.5-1.5v-15a1.5 1.5 0 0 0-3 0v15a1.5 1.5 0 0 1-3 0v-15a4.5 4.5 0 0 1 9 0v15A1.5 1.5 0 0 1 45 48zM9 48a1.5 1.5 0 0 1-1.5-1.5v-15a1.5 1.5 0 0 0-3 0v15a1.5 1.5 0 0 1-3 0v-15a4.5 4.5 0 0 1 9 0v15A1.5 1.5 0 0 1 9 48zm12 0a1.5 1.5 0 0 1-1.5-1.5V18a1.5 1.5 0 0 0-3 0v28.5a1.5 1.5 0 0 1-3 0V18a4.5 4.5 0 0 1 9 0v28.5A1.5 1.5 0 0 1 21 48z"/>
</symbol><symbol id="icon-Shape47" viewBox="0 0 48 48">
    
    <path class="cls-1" d="M10.5 12h-9A1.506 1.506 0 0 1 0 10.5V6a6 6 0 0 1 12 0v4.5a1.506 1.506 0 0 1-1.5 1.5zM3 9h6V6a3 3 0 0 0-6 0v3zm37.5 30a1.5 1.5 0 0 1-1.5-1.5V6a3 3 0 0 0-3-3 1.5 1.5 0 0 1 0-3 6.005 6.005 0 0 1 6 6v31.5a1.5 1.5 0 0 1-1.5 1.5zM15 48a6.005 6.005 0 0 1-6-6v-4.5a1.5 1.5 0 0 1 3 0V42a3 3 0 0 0 6 0v-4.5a1.5 1.5 0 1 1 3 0V42a6.005 6.005 0 0 1-6 6zm27 0a1.5 1.5 0 0 1 0-3 3.006 3.006 0 0 0 3-3v-4.5a1.5 1.5 0 0 1 3 0V42a6.005 6.005 0 0 1-6 6zM36 3H6a1.5 1.5 0 0 1 0-3h30a1.5 1.5 0 1 1 0 3zm6 45H15a1.5 1.5 0 0 1 0-3h27a1.5 1.5 0 0 1 0 3zm-31.5-9A1.5 1.5 0 0 1 9 37.5v-27a1.5 1.5 0 0 1 3 0v27a1.5 1.5 0 0 1-1.5 1.5zm36 0h-27a1.5 1.5 0 0 1 0-3h27a1.5 1.5 0 0 1 0 3zm-12-27h-18a1.5 1.5 0 0 1 0-3h18a1.5 1.5 0 1 1 0 3zm0 6h-18a1.5 1.5 0 0 1 0-3h18a1.5 1.5 0 1 1 0 3zm0 6h-18a1.5 1.5 0 0 1 0-3h18a1.5 1.5 0 1 1 0 3zm-9 6h-9a1.5 1.5 0 0 1 0-3h9a1.5 1.5 0 1 1 0 3z"/>
</symbol><symbol id="icon-Shape48" viewBox="0 0 48 48">
    
    <path class="cls-1" d="M46.5 42a1.5 1.5 0 0 1-1.5-1.5V3.74a.747.747 0 0 0-.75-.74H14.24a.738.738 0 0 0-.74.74V37.5a1.5 1.5 0 0 1-3 0V3.74A3.747 3.747 0 0 1 14.24 0h30.01A3.749 3.749 0 0 1 48 3.74V40.5a1.5 1.5 0 0 1-1.5 1.5zm-6 6h-33A7.511 7.511 0 0 1 0 40.5v-.75A3.753 3.753 0 0 1 3.752 36h30a3.751 3.751 0 0 1 3.75 3.75v.75a1.5 1.5 0 0 1-3 0v-.75a.749.749 0 0 0-.75-.75h-30a.749.749 0 0 0-.75.75v.75a4.507 4.507 0 0 0 4.5 4.5h33a1.5 1.5 0 0 1-.002 3zm-18-30a1.5 1.5 0 0 1-1.06-.44l-3-3a1.5 1.5 0 0 1 2.12-2.12l1.78 1.77L25.8 9.6a1.5 1.5 0 1 1 2.4 1.8l-4.5 6a1.517 1.517 0 0 1-1.1.59zm0 12a1.5 1.5 0 0 1-1.06-.44l-3-3a1.5 1.5 0 0 1 2.12-2.12l1.78 1.77 3.46-4.61a1.5 1.5 0 1 1 2.4 1.8l-4.5 6a1.517 1.517 0 0 1-1.1.59zM39 15h-6a1.5 1.5 0 0 1 0-3h6a1.5 1.5 0 0 1 0 3zm0 12h-6a1.5 1.5 0 0 1 0-3h6a1.5 1.5 0 0 1 0 3zm2.25 21a1.5 1.5 0 0 1 0-3c2.07 0 3.75-2.02 3.75-4.5a1.5 1.5 0 0 1 3 0c0 4.13-3.03 7.5-6.75 7.5zm0 0a6.858 6.858 0 0 1-6.4-5.12 7.975 7.975 0 0 1-.35-2.38 1.5 1.5 0 0 1 3 0 5.062 5.062 0 0 0 .22 1.51A3.882 3.882 0 0 0 41.25 45a1.5 1.5 0 0 1 0 3z"/>
</symbol><symbol id="icon-Shape49" viewBox="0 0 48 42">
    
    <path class="cls-1" d="M44.25 42H3.75a3.753 3.753 0 0 1-3.752-3.75V3.75A3.753 3.753 0 0 1 3.75 0h40.5A3.751 3.751 0 0 1 48 3.75v34.5A3.751 3.751 0 0 1 44.25 42zM3.75 3a.743.743 0 0 0-.75.75v34.5a.749.749 0 0 0 .75.75h40.5a.755.755 0 0 0 .75-.75V3.75a.749.749 0 0 0-.75-.75H3.75zm42.75 9h-45a1.5 1.5 0 1 1 0-3h45a1.5 1.5 0 0 1 0 3zM6 7.5a1.6 1.6 0 0 1-1.07-.44A1.551 1.551 0 0 1 4.5 6a1.5 1.5 0 1 1 3 0A1.5 1.5 0 0 1 6 7.5zm4.5 0a1.6 1.6 0 0 1-1.07-.44A1.551 1.551 0 0 1 9 6a1.5 1.5 0 1 1 3 0 1.5 1.5 0 0 1-1.5 1.5zM33 33a1.5 1.5 0 0 1-1.06-2.56l4.41-4.41a.754.754 0 0 0 0-1.06l-4.41-4.41a1.5 1.5 0 0 1 2.12-2.12l4.41 4.41a3.754 3.754 0 0 1 0 5.3l-4.41 4.41A1.508 1.508 0 0 1 33 33zm-18 0a1.491 1.491 0 0 1-1.06-.44l-4.41-4.41a3.754 3.754 0 0 1 0-5.3l4.41-4.41a1.5 1.5 0 0 1 2.12 2.12l-4.41 4.41a.754.754 0 0 0 0 1.06l4.41 4.41a1.491 1.491 0 0 1 0 2.12A1.508 1.508 0 0 1 15 33zm6 1.5a1.551 1.551 0 0 1-.56-.11 1.5 1.5 0 0 1-.83-1.95l6-15a1.5 1.5 0 1 1 2.78 1.12l-6 15a1.5 1.5 0 0 1-1.39.94z"/>
</symbol><symbol id="icon-Shape50" viewBox="0 0 47.719 47.88">
    
    <path class="cls-1" d="M19.26 40.27a1.494 1.494 0 0 1-1.055-.44L8.012 29.61a1.5 1.5 0 0 1 0-2.12L30.485 4.96c2.937-2.95 5.1-4.21 7.724-4.5l3.744-.42A5.209 5.209 0 0 1 47.69 5.8l-.416 3.75c-.291 2.63-1.551 4.8-4.488 7.74L20.315 39.83a1.5 1.5 0 0 1-1.055.44zm-8.082-11.72l8.082 8.11 21.419-21.48c2.772-2.78 3.456-4.4 3.632-5.96l.414-3.75a2.22 2.22 0 0 0-2.443-2.46l-3.744.42c-1.561.17-3.169.86-5.943 3.64zm15.663 19.32a1.491 1.491 0 0 1-1.054-.44l-7.458-7.48a1.492 1.492 0 1 1 2.109-2.11l6.4 6.42 1.936-1.94a3.576 3.576 0 0 0 1.047-2.54V26.93a1.492 1.492 0 1 1 2.983 0v12.85a6.524 6.524 0 0 1-1.922 4.65l-2.989 3a1.5 1.5 0 0 1-1.052.44zM14.163 35.16a1.5 1.5 0 0 1-1.054-2.56l9.695-9.72A1.5 1.5 0 0 1 24.913 25l-9.695 9.72a1.5 1.5 0 0 1-1.055.44zM1.485 47.87a1.471 1.471 0 0 1-1.1-.49 1.489 1.489 0 0 1-.317-1.47l4.412-13.4a1.478 1.478 0 0 1 1.885-.95 1.5 1.5 0 0 1 .948 1.89L3.735 44.31l10.708-2.51a1.5 1.5 0 0 1 .679 2.92l-13.3 3.11zm38.268-35.38a1.5 1.5 0 0 1-1.055-.44l-2.982-2.99a1.495 1.495 0 0 1 2.108-2.12l2.983 2.99a1.5 1.5 0 0 1-1.054 2.56zM8.943 29.92a1.456 1.456 0 0 1-1.055-.44L.431 22.01a1.5 1.5 0 0 1 0-2.12l2.991-3a6.5 6.5 0 0 1 4.637-1.92h12.816a1.5 1.5 0 0 1 0 2.99H8.059a3.534 3.534 0 0 0-2.528 1.05l-1.936 1.94 6.4 6.42a1.491 1.491 0 0 1 0 2.11 1.454 1.454 0 0 1-1.052.44z"/>
</symbol><symbol id="icon-Shape51" viewBox="0 0 22.938 20">
    
    <path class="cls-1" d="M.369 9.59l5.3 1.97 2.051 6.59a.626.626 0 0 0 .991.3l2.953-2.41a.893.893 0 0 1 1.075-.03l5.328 3.87a.629.629 0 0 0 .978-.38l3.9-18.75a.624.624 0 0 0-.835-.71L.36 8.42a.626.626 0 0 0 .009 1.17zm7.021.92l10.356-6.37a.183.183 0 0 1 .219.29l-8.549 7.93a1.763 1.763 0 0 0-.548 1.06l-.292 2.15a.267.267 0 0 1-.522.04l-1.12-3.93a1.034 1.034 0 0 1 .46-1.17z"/>
</symbol></svg>