<?xml version="1.0" encoding="UTF-8"?><!DOCTYPE svg PUBLIC "-//W3C//DTD SVG 1.1//EN" "http://www.w3.org/Graphics/SVG/1.1/DTD/svg11.dtd"><svg xmlns="http://www.w3.org/2000/svg"><defs>
        <style>
            .cls-1{fill:#2f2f2f;fill-rule:evenodd}
        </style>
    
        <style>
            .cls-1{fill:#0099d2;fill-rule:evenodd}
        </style>
    
        <style>
            .cls-1{fill:#fff;fill-rule:evenodd}
        </style>
    
        <style>
            .cls-1{fill:#919191;fill-rule:evenodd}
        </style>
    
        <style>
            .cls-1{fill:#0099d2;fill-rule:evenodd}
        </style>
    
        <style>
            .cls-1{fill:#fff;fill-rule:evenodd}
        </style>
    </defs><symbol id="icon-account" viewBox="0 0 44 44.125">
    
    <path class="cls-1" d="M22 6.606a9.336 9.336 0 0 0-9.31 9.337 13.394 13.394 0 0 0 2.63 7.585c1.86 2.546 4.23 3.948 6.68 3.948s4.82-1.4 6.68-3.948a13.394 13.394 0 0 0 2.63-7.585A9.336 9.336 0 0 0 22 6.606zm0 18.879c-1.77 0-3.62-1.142-5.08-3.134a11.556 11.556 0 0 1-2.24-6.407 7.32 7.32 0 1 1 14.64 0c0 4.206-3.44 9.542-7.32 9.542zM22 0a22.069 22.069 0 1 0 22 22.069A22.06 22.06 0 0 0 22 0zm0 42.148a19.86 19.86 0 0 1-10.82-3.192 10.867 10.867 0 0 1 3.82-7.89 2.868 2.868 0 0 1 3.36-.214 6.7 6.7 0 0 0 7.28 0 2.86 2.86 0 0 1 3.35.207 10.848 10.848 0 0 1 3.83 7.9A19.864 19.864 0 0 1 22 42.147zm12.69-4.561a12.884 12.884 0 0 0-4.41-8.048 4.852 4.852 0 0 0-5.67-.39 4.741 4.741 0 0 1-5.22 0 4.855 4.855 0 0 0-5.68.4 12.866 12.866 0 0 0-4.4 8.038 20.019 20.019 0 1 1 25.38 0zm0 0"/>
</symbol><symbol id="icon-arms" viewBox="0 0 46 40">
    
    <path id="&#x424;&#x438;&#x433;&#x443;&#x440;&#x430;_628" data-name="&#x424;&#x438;&#x433;&#x443;&#x440;&#x430; 628" class="cls-1" d="M821.083 1788.31l-9.364-9.39a3.137 3.137 0 0 0-4.439 0l-2.2 2.21a3.09 3.09 0 0 0-.731 1.16l-10.3-1.85a8.6 8.6 0 0 0-10.083 6.74l-.475 2.36a4.813 4.813 0 1 0 9.435 1.91l.291-1.45 4.617.41 12.057 12.09 2.185 2.19a1.137 1.137 0 0 1-1.605 1.61l-5.853-5.87a1.045 1.045 0 1 0-1.477 1.48l5.854 5.87a1.145 1.145 0 0 1 .333.81 1.122 1.122 0 0 1-.333.8 1.141 1.141 0 0 1-1.605 0l-5.853-5.87a1.045 1.045 0 0 0-1.477 1.48l5.853 5.87a1.141 1.141 0 0 1 0 1.61 1.141 1.141 0 0 1-1.605 0l-5.853-5.87a1.045 1.045 0 1 0-1.477 1.48l5.854 5.87a1.137 1.137 0 0 1-1.605 1.61l-23.446-23.51a1.045 1.045 0 0 0-1.477 1.48l5.712 5.73-1.641 1.64a2.863 2.863 0 0 0 0 4.04l.535.53a2.871 2.871 0 0 1 2.547 2.56l.535.53a2.777 2.777 0 0 0 1.727.82 2.829 2.829 0 0 0 .819 1.74l.536.53a2.8 2.8 0 0 0 1.726.82 2.845 2.845 0 0 0 .819 1.74l.536.53a2.828 2.828 0 0 0 4.023 0l1.64-1.64 3.933 3.94a45.819 45.819 0 0 1 10.721-6.18 3.209 3.209 0 0 1 3.081-3.09 3.241 3.241 0 0 0 0-4.57l-1.447-1.45 5.294-5.31 3.682-3.69a3.157 3.157 0 0 0 0-4.45zm-39.23 15.16a.77.77 0 0 1 0-1.08l1.538-1.54 1.605 1.61-1.538 1.54a.749.749 0 0 1-1.07 0zm3.081 3.09a.77.77 0 0 1 0-1.08l1.538-1.54 1.605 1.61-1.538 1.54a.747.747 0 0 1-1.069 0zm3.081 3.09a.77.77 0 0 1 0-1.08l1.539-1.54 1.605 1.61-1.539 1.54a.747.747 0 0 1-1.069 0zm4.687 3.62a.749.749 0 0 1-1.07 0l-.535-.53a.77.77 0 0 1 0-1.08l1.539-1.54 1.605 1.61zm17.928-12.99l-11.588-11.62a1.05 1.05 0 0 0-.647-.3l-5.926-.52a.286.286 0 0 0-.092-.01 1.047 1.047 0 0 0-1.022.84l-.475 2.37a2.724 2.724 0 0 1-3.209 2.13 2.676 2.676 0 0 1-1.731-1.16 2.724 2.724 0 0 1-.4-2.05l.474-2.37a6.5 6.5 0 0 1 7.649-5.09h.022l10.146 1.82 11.356 11.39zm8.976-9l-2.943 2.95-10.107-10.13a1.062 1.062 0 0 1-.308-.75 1.039 1.039 0 0 1 .308-.74l2.2-2.21a1.044 1.044 0 0 1 1.485 0l9.364 9.39a1.055 1.055 0 0 1 0 1.49zm0 0l-1.484-.33a1.044 1.044 0 1 1-1.044-1.05 1.047 1.047 0 0 1 1.044 1.05zm0 0" transform="translate(-776.031 -1778)"/>
</symbol><symbol id="icon-arrow-up" viewBox="0 0 28.12 16.224">
    
    <path class="cls-1" d="M28.12 12.884a3.214 3.214 0 0 1-.96 2.28 3.625 3.625 0 0 1-4.93.12l-8.2-7.41-8.14 7.4a3.614 3.614 0 0 1-4.93-.1 3.2 3.2 0 0 1 .11-4.68L11.61.906a3.62 3.62 0 0 1 4.81-.009l10.61 9.587a3.224 3.224 0 0 1 1.09 2.4zm0 0"/>
</symbol><symbol id="icon-arrow" viewBox="0 0 32 60">
    
    <path id="&#x424;&#x438;&#x433;&#x443;&#x440;&#x430;_21_&#x43A;&#x43E;&#x43F;&#x438;&#x44F;_8" data-name="&#x424;&#x438;&#x433;&#x443;&#x440;&#x430; 21 &#x43A;&#x43E;&#x43F;&#x438;&#x44F; 8" class="cls-1" d="M1366.85 424l-27.38 27.1a1.686 1.686 0 0 0 0 2.4 1.727 1.727 0 0 0 2.43 0l28.6-28.305a1.685 1.685 0 0 0 0-2.4l-28.6-28.295a1.726 1.726 0 0 0-1.21-.5 1.7 1.7 0 0 0-1.2 2.9zm0 0" transform="translate(-1339 -394)"/>
</symbol><symbol id="icon-basket" viewBox="0 0 44 44">
    <style>
        .st0{fill:#2f2f2f}.st1{fill:#fff}
    </style>
    <circle class="st0" cx="22" cy="22" r="22"/>
    <circle class="st1" cx="22" cy="22" r="20"/>
    <path class="st0" d="M36.8 22.9l-3.2 10.2c-1 2.4-3.3 4.1-5.8 4.1H16c-2.6 0-4.8-1.6-5.6-4.1L7.2 22.9c-.6-1.8-.2-3.7.9-5.2s2.9-2.4 4.8-2.4h18.2c1.9 0 3.6.9 4.8 2.4 1.1 1.5 1.4 3.4.9 5.2z"/>
    <path class="st1" d="M35.1 23.4L32.2 32c-.9 2-2.9 3.5-5.1 3.5H16.7c-2.3 0-4.2-1.4-4.9-3.5L9 23.4c-.5-1.5-.2-3.2.8-4.4 1-1.3 2.6-2 4.2-2h16c1.7 0 3.2.8 4.2 2s1.3 2.8.9 4.4z"/>
    <path class="st0" d="M32.5 11.2v5.6h-21v-5.6c0-3.3 2.8-5.9 6.1-5.9h8.7c3.5 0 6.2 2.6 6.2 5.9z"/>
    <path class="st1" d="M30.6 11.1V15H13.5v-3.8c0-2.3 2.3-4.1 5-4.1h7.1c2.8 0 5 1.8 5 4z"/>
</symbol><symbol id="icon-logo" viewBox="0 0 69.5 88.5">
    <style>
        .st0{fill:#919191}.st1{fill:#0099d2}.st2{fill:#2f2f2f}
    </style>
    <path id="&#x424;&#x438;&#x433;&#x443;&#x440;&#x430;_629_&#x43A;&#x43E;&#x43F;&#x438;&#x44F;_3" class="st0" d="M31.3 25.8c-.7 6.4-1.4 12.8-2.1 19.1-.7 6.4-1.4 12.8-2.1 19.1-.8 6.7-4 12.8-9.1 17.2-4.9 4.6-11.3 7.2-18 7.3.7-6.4 1.4-12.7 2.1-19.1s1.4-12.8 2.1-19.1c.8-6.7 4-12.8 9-17.2 5-4.7 11.4-7.2 18.1-7.3zM4.2 50.2h24.4c.4-4.1.9-8.1 1.3-12.2s.9-8.1 1.3-12.2H29.4l-.6.1c-.2 0-.4 0-.6.1l-.6.1c-.2 0-.4.1-.6.1-.2 0-.4.1-.6.1s-.5.1-.7.1-.4.1-.6.1-.4.1-.6.2c-.2.1-.4.1-.6.2l-.6.2c-.2.1-.4.1-.6.2-.2.1-.4.1-.6.2-.2.1-.4.1-.6.2s-.4.2-.6.2-.4.2-.6.3l-.6.3-.6.3-.6.3c-.2.1-.4.2-.5.3s-.4.2-.5.3c-.2.1-.4.2-.5.3-.2.1-.4.2-.5.3s-.3.2-.5.3c-.2.1-.3.2-.5.4s-.3.2-.5.4c-.2.1-.3.3-.5.4-.2.1-.3.3-.5.4-.2.1-.3.3-.5.4-.2.1-.3.3-.5.4-.2.1 0 .3-.2.4-.2.1-.3.3-.4.4-.2.1-.3.3-.4.4-.1.1-.3.3-.4.5-.1.1-.3.3-.4.5s-.3.3-.4.5c-.1.2-.3.3-.4.5s-.4.2-.5.4-.3.3-.4.5c-.1.2-.2.3-.4.5s-.2.3-.4.5c-.1.2-.2.3-.3.5s-.2.3-.3.5-.2.4-.3.5-.2.3-.3.5-.2.4-.3.5-.2.5-.3.7l-.3.6-.3.6c-.1.2-.2.4-.2.6s-.1.3-.2.5-.1.4-.2.6-.1.4-.2.6-.1.4-.2.6-.1.4-.2.6c-.1.1-.1.3-.2.5s-.1.4-.2.6-.1.4-.1.6c-.1.2-.1.4-.1.6s-.1.4-.1.6-.1.5-.1.7 0 .4-.1.6z"/>
    <path id="&#x424;&#x438;&#x433;&#x443;&#x440;&#x430;_629_&#x43A;&#x43E;&#x43F;&#x438;&#x44F;_2" class="st1" d="M9.5 0h38.2C54-.1 59.9 2.5 64.1 7.2c4.1 4.7 6 11 5.3 17.2H31.2c-6.3.1-12.2-2.5-16.4-7.2-4.1-4.7-6.1-11-5.3-17.2z"/>
    <path id="&#x424;&#x438;&#x433;&#x443;&#x440;&#x430;_629_&#x43A;&#x43E;&#x43F;&#x438;&#x44F;_4" class="st0" d="M4.4 50.2h38.1c6.6-.1 13-2.6 17.9-7.2 5-4.4 8.2-10.6 9-17.2H31.3c-6.6.1-13 2.6-17.9 7.2-5 4.4-8.2 10.5-9 17.2zm0 0h24.3c.4-4.1.9-8.1 1.3-12.2s.9-8.1 1.3-12.2H29.5l-.6.1c-.2 0-.4 0-.6.1l-.6.1c-.2 0-.4.1-.6.1-.2 0-.4.1-.6.1s-.4.1-.6.1-.4.1-.6.1c-.2.1-.4.1-.6.2-.2.1-.4.1-.6.2l-.6.2c-.2.1-.4.1-.6.2-.2.1-.4.1-.6.2-.2.1-.4.1-.6.2s-.4.2-.6.2-.4.2-.6.3-.3.2-.5.3l-.6.3c-.2.1-.4.2-.5.3-.2.1-.4.2-.5.3s-.4.2-.5.3c-.2.1-.4.2-.5.3-.2.1-.4.2-.5.3-.2.1-.3.2-.5.3-.2.1-.3.2-.5.4s-.3.2-.5.4c-.2.1-.3.3-.5.4-.2.1-.3.3-.5.4-.2.1-.3.3-.5.4-.2.1-.3.3-.5.4-.2.1-.3.3-.4.4-.2.1-.3.3-.4.4-.2.1-.3.3-.4.4-.1.1-.3.3-.4.5-.1.1-.3.3-.4.5-.1.2-.3.3-.4.5-.1.2-.3.3-.4.5-.1.2-.3.3-.4.5-.1.2-.3.3-.4.5-.1.2-.2.3-.4.5s-.4.2-.5.4c-.1.2-.2.3-.3.5s-.2.3-.3.5-.2.4-.3.5c-.1.2-.2.3-.3.5s-.2.4-.3.5-.3.5-.4.7l-.3.6-.3.6c-.1.2-.2.4-.2.6s-.1.3-.2.5-.1.4-.2.6c-.1.2-.1.4-.2.6-.1.2-.1.4-.2.6-.1.2-.1.4-.2.6-.1.2-.1.4-.2.6s0 .3-.1.5-.1.4-.1.6c-.1.2-.1.4-.1.6 0 .2-.1.4-.1.6 0 .2-.1.4-.1.6s-.1.5-.1.7z"/>
    <path id="&#x424;&#x438;&#x433;&#x443;&#x440;&#x430;_629_&#x43A;&#x43E;&#x43F;&#x438;&#x44F;_5" class="st2" d="M4.2 50.2h24.4c.4-4.1.9-8.1 1.3-12.2s.9-8.2 1.3-12.2H29.4l-.6.1c-.2 0-.4 0-.6.1l-.6.1c-.2 0-.4.1-.6.1-.2 0-.4.1-.6.1s-.4.1-.6.1-.4.1-.6.1-.4.1-.6.2c-.2.1-.4.1-.6.2l-.6.2c-.2.1-.4.1-.6.2-.2.1-.4.1-.6.2-.2.1-.4.1-.6.2s-.4.2-.6.2-.4.2-.6.3l-.6.3-.6.3-.6.3c-.2.1-.4.2-.5.3-.2.1-.4.2-.5.3-.2.1-.4.2-.5.3-.2.1-.4.2-.5.3s-.3.2-.5.3c-.2.1-.3.2-.5.4s-.3.2-.5.4c-.2.1-.3.3-.5.4-.2.1-.3.3-.5.4-.2.1-.3.3-.5.4-.2.1-.3.3-.5.4-.2.1-.1.3-.3.4-.2.1-.3.3-.4.4-.2.1-.3.3-.4.4-.1.1-.3.3-.4.5-.1.1-.3.3-.4.5s-.3.3-.4.5c-.1.2-.3.3-.4.5-.1.2-.3.3-.4.5s-.3.3-.4.5c-.1.2-.2.3-.4.5s-.2.3-.4.5c-.1.2-.2.3-.3.5s-.2.3-.3.5-.2.4-.3.5c-.1.2-.2.4-.3.5s-.2.4-.3.5l-.3.6-.3.6-.3.6c-.1.2-.2.4-.2.6-.2.1-.2.3-.3.5-.1.2-.1.4-.2.6-.1.2-.1.4-.2.6s-.2.4-.2.6-.1.4-.2.6c-.1.2-.1.4-.2.6s-.1.4-.2.6c-.1.2-.1.4-.1.6-.1.2-.1.4-.1.6s-.1.4-.1.6-.1.4-.1.6 0 .5-.1.6z"/>
</symbol><symbol id="icon-plus" viewBox="0 0 401.994 401.994">
    <path d="M394 154.175c-5.331-5.33-11.806-7.994-19.417-7.994H255.811V27.406c0-7.611-2.666-14.084-7.994-19.414C242.488 2.666 236.02 0 228.398 0h-54.812c-7.612 0-14.084 2.663-19.414 7.993-5.33 5.33-7.994 11.803-7.994 19.414v118.775H27.407c-7.611 0-14.084 2.664-19.414 7.994S0 165.973 0 173.589v54.819c0 7.618 2.662 14.086 7.992 19.411 5.33 5.332 11.803 7.994 19.414 7.994h118.771V374.59c0 7.611 2.664 14.089 7.994 19.417 5.33 5.325 11.802 7.987 19.414 7.987h54.816c7.617 0 14.086-2.662 19.417-7.987 5.332-5.331 7.994-11.806 7.994-19.417V255.813h118.77c7.618 0 14.089-2.662 19.417-7.994 5.329-5.325 7.994-11.793 7.994-19.411v-54.819c-.002-7.616-2.661-14.087-7.993-19.414z"/>
</symbol><symbol id="icon-present" viewBox="0 0 34 34">
    
    <path id="&#x424;&#x438;&#x433;&#x443;&#x440;&#x430;_630" data-name="&#x424;&#x438;&#x433;&#x443;&#x440;&#x430; 630" class="cls-1" d="M543.012 1928.97h-4.054a4.979 4.979 0 0 0-3.982-7.97 4.47 4.47 0 0 0-3.838 1.86 19.581 19.581 0 0 0-2.138 4.43 19.624 19.624 0 0 0-2.138-4.43 4.472 4.472 0 0 0-3.839-1.86 4.979 4.979 0 0 0-3.981 7.97h-4.054a2.991 2.991 0 0 0-2.988 2.99v1.99a3 3 0 0 0 1.992 2.82v15.24a2.992 2.992 0 0 0 2.988 2.99h24.039a2.992 2.992 0 0 0 2.989-2.99v-15.24a3 3 0 0 0 1.992-2.82v-1.99a2.992 2.992 0 0 0-2.988-2.99zm-8.036-5.98a2.99 2.99 0 0 1 0 5.98h-4.5l.348-.88c1.53-3.87 2.11-5.1 4.152-5.1zm-3.984 30.02h-3.984v-22.05h3.984v22.05zm-10.957-27.03a2.992 2.992 0 0 1 2.988-2.99c2.042 0 2.623 1.23 4.149 5.1.109.28.226.57.348.88h-4.5a2.992 2.992 0 0 1-2.985-2.99zm-6.043 5.98a1 1 0 0 1 1-1h10.028v3.99h-10.032a1 1 0 0 1-1-1v-1.99zm1.992 20.05v-15.07h9.032v16.07h-8.036a1 1 0 0 1-.996-1zm25.035 1h-8.035v-16.07h9.032v15.07a1 1 0 0 1-.997 1zm2.989-19.06a1 1 0 0 1-1 1h-10.024v-3.99h10.028a1 1 0 0 1 1 1v1.99z" transform="translate(-512 -1921)"/>
</symbol><symbol id="icon-search" viewBox="0 0 13 13">
    
    <path id="glass" class="cls-1" d="M1004.71 76.3l-2.68-2.68a5.324 5.324 0 0 0 .97-3.12 5.564 5.564 0 0 0-.43-2.137 5.5 5.5 0 0 0-7.207-2.93 5.39 5.39 0 0 0-2.929 2.93 5.488 5.488 0 0 0 0 4.273 5.392 5.392 0 0 0 2.929 2.931 5.5 5.5 0 0 0 5.257-.536l2.68 2.673a.913.913 0 0 0 .7.3 1 1 0 0 0 .71-1.7zm-4.738-3.325A3.488 3.488 0 1 1 1001 70.5a3.368 3.368 0 0 1-1.028 2.472zm0 0" transform="translate(-992 -65)"/>
</symbol></svg>