<?xml version="1.0" encoding="UTF-8"?><!DOCTYPE svg PUBLIC "-//W3C//DTD SVG 1.1//EN" "http://www.w3.org/Graphics/SVG/1.1/DTD/svg11.dtd"><svg xmlns="http://www.w3.org/2000/svg"><defs>
        <style>
            .cls-1{fill:#fff;fill-rule:evenodd}
        </style>
    </defs><symbol id="icon-arrow" viewBox="0 0 26 13">
    
    <path id="arrow" class="cls-1" d="M948.057 612l12.918 7.044 13.033-7-.049 5.956-13.033 7-12.918-7.044z" transform="translate(-948 -612)"/>
</symbol><symbol id="icon-calendar" viewBox="0 0 480 480">
    <path d="M412 16h-24V8a8 8 0 0 0-16 0v8h-16V8a8 8 0 0 0-16 0v8h-16V8a8 8 0 0 0-16 0v8h-16V8a8 8 0 0 0-16 0v8H164V8a8 8 0 0 0-16 0v8h-16V8a8 8 0 0 0-16 0v8h-16V8a8 8 0 0 0-16 0v8H68V8a8 8 0 0 0-16 0v8H28a8 8 0 0 0-8 8v376a8 8 0 0 0 8 8h232.4a8 8 0 0 0 8-8.56l-.064-.928c-.176-2.16-.336-4.32-.336-6.512.026-7.918.96-15.807 2.784-23.512 1.78-7.67 4.44-15.109 7.928-22.168.344-.704.656-1.416 1.016-2.112 1.064-2.032 2.216-4 3.408-5.96.376-.616.744-1.248 1.136-1.856a101.155 101.155 0 0 1 4.096-5.944c.296-.408.6-.8.904-1.216a116.91 116.91 0 0 1 4.984-6.08l.24-.264a105.42 105.42 0 0 1 41.848-28.488l1.408-.52c2.16-.76 4.352-1.432 6.568-2.056 1-.28 2.016-.536 3.032-.8 1.872-.464 3.752-.896 5.656-1.256 1.6-.296 3.264-.52 4.904-.744 1.448-.208 2.88-.44 4.344-.576 3.2-.304 6.456-.496 9.744-.496 2.168 0 4.304.168 6.4.312l1 .072h.2c10.1.759 20.036 2.982 29.496 6.6A8 8 0 0 0 420 287.488V24a8 8 0 0 0-8-8zM268.432 331.704c-.28.456-.576.888-.832 1.344-1.152 2.024-2.192 4.112-3.2 6.208-.568 1.152-1.144 2.296-1.672 3.472a115.17 115.17 0 0 0-2.456 5.88c-.08.2-.168.384-.248.584V312h22.808a120.829 120.829 0 0 0-14.4 19.704zM308 290.672a120.643 120.643 0 0 0-8 5.552V296h-40v-48h48v42.672zM308 232h-48v-48h48v48zm0-64h-48v-48h48v48zm64 16v48h-48v-48h48zm-48-16v-48h48v48h-48zm48.016 104c-3.744 0-7.44.216-11.104.56-1.6.144-3.096.392-4.648.592-1.96.264-3.912.536-5.84.896s-4.048.8-6.048 1.288c-1.224.296-2.448.608-3.664.944-2.4.656-4.8 1.368-7.2 2.168-.304.112-.6.232-.904.336-2.912 1.016-5.792 2.08-8.592 3.304V248h48v24zM404 276.416a118.885 118.885 0 0 0-16-3.32V112a8 8 0 0 0-8-8H60a8 8 0 0 0-8 8v256a8 8 0 0 0 8 8h193.192A119.982 119.982 0 0 0 252 392H36V88h368v188.416zM196 296v-48h48v48h-48zm48 16v48h-48v-48h48zm-48-80v-48h48v48h-48zm0-64v-48h48v48h-48zm-64 128v-48h48v48h-48zm48 16v48h-48v-48h48zm-48-80v-48h48v48h-48zm0-64v-48h48v48h-48zM68 296v-48h48v48H68zm48 16v48H68v-48h48zm-48-80v-48h48v48H68zm0-64v-48h48v48H68zm336-96H36V32h16v8a8 8 0 0 0 16 0v-8h16v8a8 8 0 0 0 16 0v-8h16v8a8 8 0 0 0 16 0v-8h16v8a8 8 0 0 0 16 0v-8h112v8a8 8 0 0 0 16 0v-8h16v8a8 8 0 0 0 16 0v-8h16v8a8 8 0 0 0 16 0v-8h16v8a8 8 0 0 0 16 0v-8h16v40z"/>
    <path d="M372 304c-48.601 0-88 39.399-88 88s39.399 88 88 88 88-39.399 88-88c-.057-48.577-39.423-87.943-88-88zm0 160c-39.764 0-72-32.236-72-72 0-39.765 32.236-72 72-72 39.765 0 72 32.235 72 72-.044 39.746-32.254 71.956-72 72z"/>
    <path d="M417.46 346.344a8 8 0 0 0-11.116 0L372 380.688l-18.344-18.344a8 8 0 0 0-11.312.196 8 8 0 0 0 0 11.116l24 24a8 8 0 0 0 11.312 0l40-40a8 8 0 0 0-.196-11.312z"/>
</symbol><symbol id="icon-call" viewBox="0 0 411.595 411.595">
    <path d="M284.395 215.803c-.8 1.2-.8 2.4-1.2 4-.4 5.2 3.6 10 8.8 10.4 5.2.4 10-3.6 10.4-8.8 0-1.2 0-2.4.4-4.4v-4.4c0-11.6-2-22.8-5.6-33.6-4.8-14-13.2-26.4-23.2-36.8-12.4-12.4-27.6-21.2-44.8-26-8-2-16.8-3.2-25.2-3.2-2.8 0-5.6 0-8.8.4l-8.4 1.2c-5.2.8-8.8 6-7.6 10.8.8 5.2 6 8.8 10.8 7.6 2.4-.4 4.4-.8 6.8-.8h1.2c2 0 4-.4 6-.4 22 0 42.4 8.8 56.8 23.6 14.4 14.4 23.2 34 23.6 56v4.4z"/>
    <path d="M337.195 224.603c-.4 5.2 3.6 10 8.8 10.4 5.2.4 10-3.6 10.4-8.8.4-4.4.4-8.8.4-13.2 0-8.8-.8-17.2-2-25.6-5.2-32-20.8-60.8-42.8-82.8-25.2-25.2-58.8-41.6-96-44.4-4-.4-8.4-.4-12.4-.4-4.4 0-8.8 0-13.2.4-4.4.4-8.8.8-13.2 1.6-5.2.8-8.8 6-7.6 10.8.8 5.2 6 8.8 10.8 7.6 2.8-.4 5.2-.8 8-1.2 1.2 0 2.4-.4 3.6-.4 4-.4 8-.4 11.6-.4 13.6 0 26.4 2 38.8 5.6 21.6 6.4 40.8 18 56.4 33.6 12.8 12.8 23.2 28.4 30 45.2 6 15.2 9.6 32 9.6 49.6v4c-.8 3.2-1.2 5.6-1.2 8.4z"/>
    <path d="M350.795 66.203c-38-38-90-61.2-147.6-61.2-6 0-12 .4-18 .8s-12 1.2-18 2.4c-5.2.8-8.8 6-7.6 10.8.8 5.2 6 8.8 10.8 7.6 2.8-.4 5.2-.8 8-1.2 2.8-.4 5.6-.8 8.4-.8 5.6-.4 10.8-.8 16.4-.8 52 0 99.2 21.2 133.6 55.2 34 34 55.2 81.2 55.2 133.6v8.8c0 2.4-.4 4.8-.4 7.6-.4 5.2 3.6 10 8.8 10.4 5.2.4 10-3.6 10.4-8.8.4-6 .8-12 .8-17.6 0-57.2-23.2-109.2-60.8-146.8z"/>
    <path d="M396.795 308.603l-70.8-38c-23.6-12.8-24.4-4.4-49.2 22-6 6.4-17.2 23.2-30.4 20-27.6-6.8-79.2-47.2-96-65.6-8-8.8-42.4-50.8-42.8-64.4-.8-20.8 44.8-31.2 30-70.8l-31.6-70.8c-29.6-68-112.4 40.8-105.6 91.6 17.6 125.2 237.2 327.6 359.6 260.8 27.2-15.2 64-68.4 36.8-84.8z"/>
</symbol><symbol id="icon-drawing-house-plan" viewBox="0 0 475.902 475.902">
    <g>
        <path d="M13.734 51.167l.016.016c.26.61.545.878.545.878l.179-.187 121.847 116.539v307.488h327.663V18.669H136.321v53.405L61.855.86l-.366.382C59.018.34 45.094-4.806 25.707 15.467s-12.981 33.27-11.973 35.7zM353.354 336.7h69.987v98.559h-69.987V336.7zm0-184.925h69.987v176.796h-69.987V151.775zm0-92.463h11.177v84.334h-11.177V59.312zm37.529 0h11.177v84.334h-11.177V59.312zm32.458 84.334H410.189V59.312h13.152v84.334zm-40.586 0h-10.096V59.312h10.096v84.334zm-37.53 0h-10.161V59.312h10.161v84.334zm-29.466-84.334h11.177v84.334h-11.177V59.312zm-138.795 0h130.667v84.334h-42.675v8.129h80.27v283.484h-53.852v-18.85h-16.257v18.85h-98.153V283.864h12.803v-16.257h-12.803v-60.322l7.34 7.023c1.796-8.99 8.348-20.053 16.639-29.515 10.006-11.437 21.573-19.622 30.376-21.858l-54.356-51.99V59.312z"/>
        <path d="M204.455 187.191c-11.453 13.315-15.818 24.768-16.038 30.539-.065 1.756 3.877 3.983 4.576 3.983h.041l9.307 1.114 6.934.829 31.653 3.796c0-.016-.016-.033-.016-.057-.187-2.365.894-5.121 2.967-7.56 1.008-1.179 3.65-3.796 6.942-4.032l-9.031-30.807-1.951-6.657-2.43-8.307c.146-1.829-1.951-4.178-2.536-4.178-5.862.008-18.51 7.486-30.418 21.337zm26.125-11.559l1.463 4.999 1.951 6.657 7.064 24.093a21.87 21.87 0 0 0-3.365 3.195 23.036 23.036 0 0 0-2.731 3.975l-24.719-2.959-6.934-.829-5.918-.707c1.626-4.991 5.69-12.794 13.225-21.557 7.99-9.307 15.379-14.485 19.964-16.867z"/>
        <path d="M246.227 227.582c.041.057.041.146.089.195l7.332 6.137c.471.39 2.203.951 3.853.951 1.105 0 2.17-.252 2.788-.967 1.544-1.78-.26-5.788-1.049-6.446l-7.332-6.137c-.171-.146-.398-.211-.667-.211-.049 0-.106.024-.154.033-.935.081-2.26.902-3.398 2.219-1.445 1.665-2.023 3.454-1.462 4.226z"/>
        <path d="M275.116 293.57h16.257v-25.963h-27.539v16.257h11.282z"/>
        <path d="M215.062 267.607h23.475v16.257h-23.475z"/>
        <path d="M275.116 318.866h16.257v23.475h-16.257z"/>
        <path d="M275.116 367.637h16.257v23.475h-16.257z"/>
    </g>
</symbol><symbol id="icon-logo" viewBox="0 0 629.8 629.6">
    <path d="M292.49.18c-25 2.5-37 4.5-56.5 9.4-50.5 12.7-99.9 40.1-138 76.6-52 49.8-84.2 111.7-95 182.9-2.7 17.8-3.8 54.7-2.1 73.2 5.7 62.1 28.8 120 67.1 168.3 10.7 13.5 37.5 40.3 51 51 48.2 38.3 106.2 61.4 168.3 67.1 18.8 1.7 54.5.7 73.2-2.1 135.2-20.2 242.3-124.7 265-258.5 6.4-37.7 5.8-79.4-1.6-115.4-12.7-62-41.7-116-86.4-160.6-49.8-49.9-111.4-80.3-182.1-90-11.3-1.6-53.5-2.8-62.9-1.9zm39 29.4c70.7 4.5 133.1 32.2 183.3 81.4 78.1 76.5 105.6 190.1 71.1 293.9-44.3 133.3-179.3 214.6-317.9 191.6-47.9-7.9-94-28.6-132.5-59.4-44-35.1-79-87.6-94.9-142.2-7.9-27.1-11-50-11-80.3 0-30.5 3.1-52.7 11-80 33.5-114.9 136.4-197.3 255.7-204.9 18-1.2 17.9-1.2 35.2-.1z"/>
    <path d="M70.71 205.21c-8.9 2.2-10.2 10.7-2.3 15.2 2.2 1.2 4.3 3 4.6 4 1.7 4.1.3 66.5-1.6 72.8-.3 1.1-2.7 3.2-5.3 4.5-4.1 2.2-4.7 2.9-5 6.1-.2 2.7.3 4.4 2.1 6.5l2.4 2.8 34.4.2c37.9.3 40.7 0 52.1-5.7 16.4-8.3 26.8-28.2 26.8-51.3-.1-29.6-14.3-50.2-38.2-55.2-8-1.7-63.1-1.6-70 .1zm51.7 17.6c8.9 2.5 14.5 12.4 16.6 29.1 2.7 21.8-1.8 40.6-10.8 46-3.5 2.1-9.6 3.2-12.7 2.4-5.7-1.4-5.6-.6-5.6-40.1 0-33.6.1-36.5 1.8-37.4 2.2-1.4 5.8-1.3 10.7 0z"/>
    <path d="M217.91 228.11c-7 2-12.8 5.4-18.2 10.4-9.4 8.8-13.8 19.7-13.8 34.1 0 14.2 3.6 23.7 12.6 33.2 20.4 21.3 57.7 15.3 70.9-11.4 4.5-9.2 6-17.7 4.5-27-2.6-16.9-12.2-30.6-25.8-37-5.8-2.7-7.9-3.2-16.2-3.4-5.6-.1-11.3.3-14 1.1zm11.1 19.1c7.3 3.8 13.7 19.1 14.7 34.9.4 7.3.2 9.5-1.3 12.2-3.2 6-9.9 6.7-14.9 1.7-4.9-4.9-10.6-20.2-12.1-32.8-.9-7 1.4-13.8 5.3-16 3.5-1.8 4.7-1.8 8.3 0z"/>
    <path d="M286.61 228.41c-.8 1-2.9 4.7-4.6 8.3-4.1 8.6-4.3 15.5-.5 19.9 2.9 3.5 6.3 4 8.6 1.3.8-.9 2.8-4.1 4.4-7.1 3-5.6 6.6-8.1 11.9-8.1 3.4 0 6.5 1.7 6.5 3.6 0 .8-7.4 15.3-16.5 32.3-9.1 16.9-16.5 31.9-16.5 33.2 0 4.8.6 4.9 30.4 4.9 17.8 0 30.1.4 33.8 1.2 5.7 1.2 5.8 1.2 8.8-1.7 6.6-6.3 9.4-23.2 4.9-28.9-1.7-2.2-2.8-2.7-5.8-2.4-3.3.3-3.8.8-6.3 5.9-1.5 3.1-3.8 6.6-5.3 7.7-3.2 2.5-11.9 3.8-15.9 2.3-2.4-1-2.7-1.5-2.2-3.7.4-1.5 7.7-16 16.3-32.3 9.2-17.4 15.6-30.8 15.6-32.4 0-1.5-.7-3.5-1.6-4.4-1.4-1.5-3.9-1.5-26.9-.4-18.2.9-26.8.9-30.7.2-6.8-1.4-6.5-1.4-8.4.6z"/>
    <path d="M371.01 228.21c-6 1.9-9.1 5-9.1 9.2 0 3 .5 3.6 4.3 5.2 5 2.2 4 .2 21.2 42.1 7.6 18.7 13.3 31.2 14.6 32.2 3.3 2.8 9 2.3 12.2-1 1.5-1.5 9.3-17.7 18.2-37.7 8.6-19.3 16.5-35.8 17.6-36.8 1.2-.9 3.1-1.7 4.4-1.7 3.1 0 5.7-3.2 5.3-6.7-.5-4.9-5.3-6.5-18.5-6.1-9.5.3-11.6.6-14 2.4-4 3-4.1 6-.3 9.9l3.1 3.2-4.6 11.5c-5.6 14-8.6 17.8-11.3 14.5-1.2-1.5-10.2-24-10.2-25.6 0-.6 1.1-2 2.4-3.3s2.6-3.1 2.9-4c.9-2.7-2.8-6.4-7.7-7.7-6.1-1.5-25.1-1.3-30.5.4z"/>
    <path d="M472.91 228.01c-6.6 1.5-9.6 3.1-11 5.7-1.4 2.5-.3 4.9 3.8 8.5 4.5 3.9 5.1 7.8 5.1 30.5-.1 24-.7 28.1-4.8 32.4-4 4.1-3.9 7.9.2 11 2.6 1.9 4.2 2.1 17 2.1 15.6 0 20.4-1.1 23.7-5.2 2.9-3.7 2.5-5-2.2-9.4-4.3-3.9-4.3-3.9-5-12.6-.9-12.5-.9-30.5.1-39.2.8-6.9 1.2-7.6 5-11.1 2.3-2.1 4.1-4.3 4.1-5 0-2.3-2.1-5-5.3-6.7-4.2-2.2-22.9-2.8-30.7-1z"/>
    <path d="M520.51 228.41c-5.8 2.1-9.6 6.4-8 9.1.6.9 2.8 2.7 4.9 3.9s4.2 2.8 4.6 3.6c1.1 1.9 1.6 53.6.6 56.5-.5 1.2-2.6 3.4-4.8 4.8-4.4 2.7-5.1 6-2.1 8.7 1.6 1.5 4.8 1.7 24.1 1.7 12.2 0 25.4.5 29.2 1.1 3.9.6 8.1.8 9.4.5 5.1-1.3 11.6-18.1 9.6-25.2-1.3-4.6-3.8-7.4-6.6-7.4s-4.1 1.5-5 5.8c-1.5 7.3-10.5 12.5-18.5 10.7-5.8-1.3-6-2.3-6-31.5 0-14.6.4-27 .8-27.6s2.1-1.9 3.9-2.7c3.4-1.8 4.8-4.6 3.8-7.7-1.3-4.1-6-5.4-21-5.7-11.4-.3-14.9 0-18.9 1.4z"/>
    <path d="M216.41 353.11c-.5.3-2.7.7-4.7 1.1-5.6.9-9.8 4.9-9.8 9.2 0 2.8.9 4.3 4.5 7.9 3 2.9 4.6 5.3 4.7 7.1.1 1.5.2 14.7.2 29.3.2 29.5.7 32.5 7 41.7 4.2 6.1 13.6 12.6 22.4 15.4 9 2.9 26.9 3.7 36.9 1.6 15-3.2 26.8-11.7 31.9-23.1 2.8-6.1 2.8-6.2 3.6-36.6.4-16.8 1-31.5 1.3-32.7s2.5-3.6 5-5.3c3.7-2.5 4.5-3.7 4.5-6.1 0-7.8-3.9-9.4-22.5-9.4-11.5 0-14.6.3-17.2 1.8-7 3.7-6.8 9.2.4 13.8 2.6 1.6 5.2 3.7 5.7 4.6 1.5 2.7 2 46.9.6 53.6-1.6 8-6.2 13.1-13.7 15.3-11.5 3.4-21.2-.8-26.9-11.6-1.7-3.2-1.9-5.8-1.7-27.8 0-13.3.4-25.4.7-26.7.4-1.4 2.4-3.6 4.7-5 5.3-3.4 6.5-6.6 4.2-11.4-2.6-5.2-6.7-6.3-25.3-6.7-8.5-.2-15.9-.2-16.5 0z"/>
    <path d="M367.71 354.71c-6.3 3.4-7.8 6.6-8.8 18.7-1 12.6-1.8 15.1-13.9 43.4-11.9 27.8-13.5 30.7-19 33.6-6.3 3.3-7.1 4.2-7.1 7.7 0 4.6 2.3 7.2 7.4 8.5 5.8 1.4 22.4 1.4 28.2 0 5-1.3 9.4-5.7 9.4-9.5 0-2.9-3-6.1-6.4-7-3.2-.8-3.7-2.3-2.1-6.1 1.2-2.8 1.9-3.2 7.1-3.9 7.9-.9 25.4.4 28.2 2.2 3.5 2.3 3 6.8-.9 8.4-6.2 2.6-7.3 8.4-2.5 12.9 3.1 2.9 11.2 4.1 28.3 4.1 16.7 0 23.4-1.2 27.4-4.9 4.2-3.8 4.7-7.4 1.5-10.5-1.4-1.5-3.4-2.6-4.6-2.6-2.8 0-4.5-3-15.1-27.5-19.6-45.2-28.7-61.1-38.2-66.5-6.3-3.6-13.2-4-18.9-1zm9 45.7c3.1 4.5 8.2 15.1 8.2 17.2 0 2.6-1.8 3.1-11.6 3.1-10.5 0-10.8-.5-7-11.4 4.1-11.8 6.7-14.1 10.4-8.9z"/>
</symbol><symbol id="icon-mail-click" viewBox="0 0 371.291 371.291">
    <path d="M361.291 25.645H10c-5.523 0-10 4.477-10 10v225.421c0 5.523 4.477 10 10 10h124.113c-2.196 13.304-7.263 36.951-18.034 60.406a10 10 0 0 0 9.087 14.174h120.957a9.998 9.998 0 0 0 9.087-14.174c-10.734-23.375-15.815-47.075-18.023-60.406H361.29c5.523 0 10-4.477 10-10V35.645c.001-5.522-4.476-10-9.999-10zm-10 225.421h-18.905v-3.732c0-5.523-4.477-10-10-10s-10 4.477-10 10v3.732h-12.612v-3.732c0-5.523-4.477-10-10-10s-10 4.477-10 10v3.732H20V45.645h331.291v205.421z"/>
    <path d="M135.249 192.262h96.123l-3.27-12.942a15.075 15.075 0 0 1 3.937-14.28 14.906 14.906 0 0 1 13.116-4.177v-48.489c0-5.576-4.535-10.112-10.111-10.112h-99.795c-5.577 0-10.113 4.536-10.113 10.112v69.774c0 5.577 4.536 10.114 10.113 10.114zm84.794-76.372l-34.897 25.592-34.894-25.592h69.791z"/>
    <path d="M242.216 171.374a4.966 4.966 0 0 0-3.536 1.464 5.025 5.025 0 0 0-1.174 5.212l6.12 17.205a5.01 5.01 0 0 0 4.711 3.326 5.002 5.002 0 0 0 4.917-4.098l10.431 10.428a4.955 4.955 0 0 0 3.535 1.465 4.958 4.958 0 0 0 3.535-1.464 4.956 4.956 0 0 0 1.466-3.536 4.955 4.955 0 0 0-1.466-3.535l-10.124-10.127a5.013 5.013 0 0 0 4.199-3.297 4.968 4.968 0 0 0-.196-3.824 4.97 4.97 0 0 0-2.84-2.565l-17.902-6.366a5.01 5.01 0 0 0-1.676-.288z"/>
</symbol><symbol id="icon-mail" viewBox="0 0 485.211 485.211">
    <path d="M485.211 363.906c0 10.637-2.992 20.498-7.785 29.174L324.225 221.67l151.54-132.584c5.895 9.355 9.446 20.344 9.446 32.219v242.601zM242.606 252.793l210.863-184.5c-8.653-4.737-18.397-7.642-28.908-7.642H60.651c-10.524 0-20.271 2.905-28.889 7.642l210.844 184.5zm58.787-11.162l-48.809 42.734a15.145 15.145 0 0 1-9.978 3.729c-3.57 0-7.125-1.242-9.98-3.729l-48.82-42.736L28.667 415.23c9.299 5.834 20.197 9.329 31.983 9.329h363.911c11.784 0 22.687-3.495 31.983-9.329L301.393 241.631zM9.448 89.085C3.554 98.44 0 109.429 0 121.305v242.602c0 10.637 2.978 20.498 7.789 29.174l153.183-171.44L9.448 89.085z"/>
</symbol><symbol id="icon-marker" viewBox="0 0 512 512">
    <path d="M256 0C167.641 0 96 71.625 96 160c0 24.75 5.625 48.219 15.672 69.125C112.234 230.313 256 512 256 512l142.594-279.375C409.719 210.844 416 186.156 416 160 416 71.625 344.375 0 256 0zm0 256c-53.016 0-96-43-96-96s42.984-96 96-96c53 0 96 43 96 96s-43 96-96 96z"/>
</symbol><symbol id="icon-ok" viewBox="0 0 45.102 45.102">
    <path d="M17.021 44.403c.427.45.995.698 1.601.698a2.18 2.18 0 0 0 1.672-.791c8.155-9.735 19.136-21.879 23.248-24.062.906-.482 1.515-1.456 1.515-2.423V1.933C45.056.678 44.137 0 43.272 0c-.314 0-.795.086-1.283.494-3.067 2.556-17.81 15.301-22.718 27.964l-4.691-7.624c-.63-1.02-2.088-1.386-3.122-.783L1.102 26.075c-.599.349-.981.924-1.046 1.579-.065.654.194 1.294.714 1.755 2.139 1.9 12.977 11.543 16.251 14.994zm-4.643-21.419l5.636 9.16c.378.613.96.965 1.597.965.613 0 1.437-.375 1.736-1.432C24.438 20.776 36.79 9.016 42.054 4.387V17.64c-5.462 2.98-18.68 18.348-23.482 24.054-3.429-3.461-11.281-10.499-14.85-13.674l8.656-5.036z"/>
</symbol><symbol id="icon-road-ad" viewBox="0 0 384.482 384.482">
    <path d="M374.482 26.377H10c-5.523 0-10 4.477-10 10s4.477 10 10 10h3.241v179.688c0 5.523 4.477 10 10 10h31v117.041a5 5 0 0 0 5 5h41.333a5 5 0 0 0 5-5V236.064h173.334v117.041a5 5 0 0 0 5 5h41.333a5 5 0 0 0 5-5V236.064h31c5.523 0 10-4.477 10-10V46.377h3.241c5.523 0 10-4.477 10-10s-4.477-10-10-10zm-23.241 189.687h-318V46.377h45v6.86h-7.333c-5.523 0-10 4.477-10 10s4.477 10 10 10h34.666c5.523 0 10-4.477 10-10s-4.477-10-10-10h-7.333v-6.86h84v6.86h-7.333c-5.523 0-10 4.477-10 10s4.477 10 10 10h34.666c5.523 0 10-4.477 10-10s-4.477-10-10-10h-7.333v-6.86h84v6.86h-7.333c-5.523 0-10 4.477-10 10s4.477 10 10 10h34.666c5.523 0 10-4.477 10-10s-4.477-10-10-10h-7.333v-6.86h45v169.687z"/>
    <path d="M167.145 112.836a3.502 3.502 0 0 0-3.275-2.266h-.007l-5.898.012a3.499 3.499 0 0 0-3.273 2.279l-20.501 55.082a3.5 3.5 0 0 0 3.28 4.721h5.336a3.5 3.5 0 0 0 3.28-2.279l6.063-16.29h17.72l6.145 16.304a3.5 3.5 0 0 0 3.275 2.266H184.653a3.5 3.5 0 0 0 3.127-5.073l-20.635-54.756zm-10.531 29.259l4.339-11.658 4.393 11.658h-8.732z"/>
    <path d="M218.903 110.331h-22.171a3.5 3.5 0 0 0-3.5 3.5v54.999a3.5 3.5 0 0 0 3.5 3.5h22.171c17.43 0 31.609-13.89 31.609-30.964.001-17.113-14.179-31.035-31.609-31.035zm0 49.999h-13.671v-37.999h13.671c10.813 0 19.609 8.539 19.609 19.035.001 10.457-8.796 18.964-19.609 18.964z"/>
</symbol><symbol id="icon-signing-the-contract" viewBox="0 0 47 47">
    <path d="M26.198 8.368H10.176a2.137 2.137 0 0 0 0 4.272h16.022a2.136 2.136 0 1 0 0-4.272z"/>
    <path d="M28.334 18.515c0-1.18-.955-2.136-2.137-2.136H10.176a2.137 2.137 0 0 0 0 4.273h16.022a2.136 2.136 0 0 0 2.136-2.137z"/>
    <path d="M18.188 28.663a2.136 2.136 0 0 0 0-4.273h-8.012a2.137 2.137 0 0 0 0 4.273h8.012z"/>
    <path d="M34.314 35.93l-2.241 1.479v5.318H4.301V4.273h27.772v8.442l4.273-7.401V2.136C36.346.956 35.389 0 34.209 0H2.164C.984 0 .028.957.028 2.136v42.729c0 1.18.956 2.136 2.136 2.136h32.045a2.137 2.137 0 0 0 2.138-2.136V33.09l-1.021 1.766a3.22 3.22 0 0 1-1.012 1.074z"/>
    <path d="M46.947 9.894c-.044-.192-.495-1.918-3.213-3.488-2.718-1.569-4.438-1.097-4.628-1.038a1.07 1.07 0 0 0-.604.485L25.15 28.979a1.08 1.08 0 0 0-.142.472l-.5 8.345a1.07 1.07 0 0 0 .531.989c.352.202.785.188 1.123-.033l6.977-4.606c.139-.09.254-.213.337-.356l13.353-23.13c.134-.232.175-.504.118-.766zM28.854 35.055a9.396 9.396 0 0 0-1.191-.809 9.545 9.545 0 0 0-1.297-.628l.149-2.502c.557.073 1.383.299 2.432.903 1.048.605 1.655 1.209 1.999 1.654l-2.092 1.382z"/>
    <path d="M14.922 38.534c.07.429.565.562.896.7.32.135.702-.121.968-.25 1.63-.793 3.838.139 5.584.139 1.033 0 1.033-1.602 0-1.602-2.036 0-3.73-.515-5.748-.182 0-.117-.043-.275-.169-.49-.377-.645-.857-.828-1.338-.75-.032-.076-.063-.152-.108-.229a.745.745 0 0 0-.5-.352c.563-.984.926-2.025.557-2.867-.113-.256-.434-.387-.692-.397-1.07-.04-1.988 1.083-2.676 1.757-1.721 1.687-3.237 3.602-4.704 5.508-.63.819.763 1.615 1.383.81 1.3-1.688 2.677-3.327 4.159-4.86a26.77 26.77 0 0 1-1.135 1.715c-.57.881.791 1.631 1.383.809a1.8 1.8 0 0 1 .516-.503l-.119.296.006.002c-.031.064-.062.128-.087.189-.358.897.979 1.308 1.465.616.123-.174.237-.36.34-.555-.007.134-.01.314.019.496z"/>
</symbol><symbol id="icon-telephone" viewBox="0 0 34.546 34.546">
    <path d="M29.33 19.339c-2.326-.545-5.3-1.969-6.377-3.737-.603-.984-.666-2.094-.179-3.042.027-.051.074-.128.109-.188-.028-.209.021-.486.172-.847l.02-.044H11.122l.014.032.001.002c.268.418.502.792.627 1.033.495.961.431 2.07-.17 3.055-1.08 1.77-4.053 3.193-6.381 3.738L4.57 30.124c-.07 1.183.705 2.149 1.723 2.149h21.958c1.018 0 1.792-.967 1.721-2.149l-.642-10.785zm-15.647 7.426h-2.062a.689.689 0 0 1 0-1.376h2.062a.69.69 0 0 1 0 1.376zm0-2.622h-2.062a.688.688 0 1 1 0-1.375h2.062a.687.687 0 1 1 0 1.375zm0-2.622h-2.062a.688.688 0 1 1 0-1.376h2.062a.69.69 0 0 1 0 1.376zm4.621 5.244h-2.061a.689.689 0 0 1 0-1.376h2.062a.69.69 0 0 1 .688.688.691.691 0 0 1-.689.688zm0-2.622h-2.061a.688.688 0 1 1 0-1.375h2.062a.687.687 0 1 1-.001 1.375zm0-2.622h-2.061a.688.688 0 1 1 0-1.376h2.062a.69.69 0 0 1 .688.688.691.691 0 0 1-.689.688zm4.62 5.244h-2.062a.688.688 0 0 1 0-1.376h2.062a.688.688 0 1 1 0 1.376zm0-2.622h-2.062a.688.688 0 0 1 0-1.375h2.062a.686.686 0 1 1 0 1.375zm0-2.622h-2.062a.688.688 0 0 1 0-1.376h2.062a.688.688 0 1 1 0 1.376zm11.448-8.407c-.043.216-.045.441-.13.646-.497 1.202-1.429 2.197-2.115 3.305-.885 1.414-8.406-1.634-7.437-3.521.365-.698 1.789-2.626 1.896-3.401.098-.692-.818-1.233-1.664-1.302-2.232-.181-5.083-.017-7.452-.002v.002l-.198-.001-.197.001v-.002c-2.369-.015-5.22-.178-7.452.002-.846.069-1.762.61-1.665 1.302.108.775 1.531 2.703 1.896 3.401.971 1.887-6.55 4.935-7.435 3.521C1.731 15.957.801 14.962.303 13.76c-.084-.205-.086-.43-.129-.646-1.104-4.93 3.148-9.96 9.551-10.476 2.445-.198 4.896-.31 7.35-.354v-.012c.066.001.131.005.197.006.065-.001.131-.005.198-.006v.012c2.452.044 4.903.156 7.35.354 6.402.515 10.654 5.547 9.552 10.476z"/>
</symbol><symbol id="icon-viber" viewBox="0 0 495 495">
    <path d="M247.5 0v40H455v415H247.5v40H495V0z"/>
    <path d="M40 455V40h207.5V0H0v495h247.5v-40z"/>
    <path d="M185.428 309.197c36.332 36.332 80.711 64.548 132.199 85.521 35.751 14.563 65.944-.643 78.29-37.357 2.216-6.591 2.37-13.043-.014-19.522-5.76-15.657-60.331-55.305-76.661-56.194-12.523-.681-19.306 7.829-25.037 16.275-10.838 15.953-24.576 16.042-39.899 9.224-15.419-6.862-28.91-15.662-40.037-26.79-11.127-11.127-19.928-24.618-26.79-40.037-6.818-15.323-6.729-29.061 9.225-39.898 8.446-5.731 16.955-12.514 16.274-25.037-.889-16.329-40.537-70.901-56.194-76.66-6.479-2.384-12.931-2.229-19.522-.014-36.714 12.346-51.92 42.54-37.357 78.29 20.975 51.488 49.191 95.867 85.523 132.199z"/>
    <path d="M256.163 117.035a100.449 100.449 0 0 1 24.42-.841c25.271 2.19 49.319 13.528 67.715 31.924 17.844 17.843 28.819 40.917 30.905 64.971a95.171 95.171 0 0 1-1.028 24.484c-.993 5.714 2.835 11.15 8.548 12.142.608.105 1.213.157 1.81.157 5.01 0 9.445-3.6 10.332-8.705a116.153 116.153 0 0 0 1.261-29.892c-2.513-28.971-15.645-56.674-36.978-78.007-21.886-21.885-50.563-35.379-80.75-37.997-9.903-.858-19.837-.515-29.523 1.022-5.728.909-9.634 6.288-8.726 12.016.907 5.727 6.28 9.633 12.014 8.726z"/>
    <path d="M353.181 240.643c.449.057.895.084 1.337.084 5.209 0 9.729-3.875 10.402-9.178a81.394 81.394 0 0 0 .335-17.25c-1.803-20.777-11.341-40.765-26.857-56.281-16.068-16.069-37.029-25.97-59.022-27.877a86.98 86.98 0 0 0-18.474.36c-5.752.735-9.819 5.994-9.084 11.747.734 5.753 6.009 9.815 11.746 9.084a65.91 65.91 0 0 1 13.997-.269c17.076 1.48 33.408 9.224 45.987 21.804 12.028 12.027 19.409 27.385 20.785 43.245a60.425 60.425 0 0 1-.245 12.791c-.731 5.753 3.34 11.009 9.093 11.74z"/>
    <path d="M319.272 234.411c.242.017.483.025.724.025 5.474 0 10.088-4.245 10.465-9.787a47.618 47.618 0 0 0-.074-7.327c-2.333-26.909-26.067-49.887-54.034-52.312a53.782 53.782 0 0 0-6.796-.159c-5.795.239-10.298 5.13-10.059 10.924s5.137 10.29 10.924 10.058a32.393 32.393 0 0 1 4.117.099c17.503 1.517 33.497 16.723 34.926 33.203.12 1.386.135 2.761.045 4.087-.395 5.786 3.976 10.796 9.762 11.189z"/>
</symbol></svg>