<svg xmlns="http://www.w3.org/2000/svg" width="44" height="44.125" viewBox="0 0 44 44.125">
<defs>
    <style>
      .cls-1 {
        fill: #2f2f2f;
        fill-rule: evenodd;
      }
    </style>
  </defs>
  <path class="cls-1" d="M1265,44.606a9.336,9.336,0,0,0-9.31,9.337,13.394,13.394,0,0,0,2.63,7.585c1.86,2.546,4.23,3.948,6.68,3.948s4.82-1.4,6.68-3.948a13.394,13.394,0,0,0,2.63-7.585,9.336,9.336,0,0,0-9.31-9.337h0Zm0,18.879c-1.77,0-3.62-1.142-5.08-3.134a11.556,11.556,0,0,1-2.24-6.407,7.32,7.32,0,1,1,14.64,0c0,4.206-3.44,9.542-7.32,9.542h0Zm0,0M1265,38a22.069,22.069,0,1,0,22,22.069A22.06,22.06,0,0,0,1265,38h0Zm0,42.148a19.86,19.86,0,0,1-10.82-3.192,10.867,10.867,0,0,1,3.82-7.89,2.868,2.868,0,0,1,3.36-.214,6.7,6.7,0,0,0,7.28,0,2.86,2.86,0,0,1,3.35.207,10.848,10.848,0,0,1,3.83,7.9A19.864,19.864,0,0,1,1265,80.147h0Zm12.69-4.561a12.884,12.884,0,0,0-4.41-8.048,4.852,4.852,0,0,0-5.67-.39,4.741,4.741,0,0,1-5.22,0,4.855,4.855,0,0,0-5.68.4,12.866,12.866,0,0,0-4.4,8.038,20.019,20.019,0,1,1,25.38,0h0Zm0,0" transform="translate(-1243 -38)"/>
</svg>
