<svg xmlns="http://www.w3.org/2000/svg" width="46" height="40" viewBox="0 0 46 40">
<defs>
    <style>
      .cls-1 {
        fill: #0099d2;
        fill-rule: evenodd;
      }
    </style>
  </defs>
  <path id="Фигура_628" data-name="Фигура 628" class="cls-1" d="M821.083,1788.31l-9.364-9.39a3.137,3.137,0,0,0-4.439,0l-2.2,2.21a3.09,3.09,0,0,0-.731,1.16l-10.3-1.85h0a8.6,8.6,0,0,0-10.083,6.74l-0.475,2.36a4.813,4.813,0,1,0,9.435,1.91l0.291-1.45,4.617,0.41,12.057,12.09,2.185,2.19a1.137,1.137,0,0,1-1.605,1.61l-5.853-5.87a1.045,1.045,0,1,0-1.477,1.48l5.854,5.87a1.145,1.145,0,0,1,.333.81,1.122,1.122,0,0,1-.333.8,1.141,1.141,0,0,1-1.605,0l-5.853-5.87a1.045,1.045,0,0,0-1.477,1.48l5.853,5.87a1.141,1.141,0,0,1,0,1.61,1.141,1.141,0,0,1-1.605,0l-5.853-5.87a1.045,1.045,0,1,0-1.477,1.48l5.854,5.87a1.137,1.137,0,0,1-1.605,1.61l-23.446-23.51a1.045,1.045,0,0,0-1.477,1.48l5.712,5.73-1.641,1.64a2.863,2.863,0,0,0,0,4.04l0.535,0.53a2.871,2.871,0,0,1,2.547,2.56l0.535,0.53a2.777,2.777,0,0,0,1.727.82,2.829,2.829,0,0,0,.819,1.74l0.536,0.53a2.8,2.8,0,0,0,1.726.82,2.845,2.845,0,0,0,.819,1.74l0.536,0.53a2.828,2.828,0,0,0,4.023,0l1.64-1.64,3.933,3.94a45.819,45.819,0,0,1,10.721-6.18,3.209,3.209,0,0,1,3.081-3.09,3.241,3.241,0,0,0,0-4.57l-1.447-1.45,5.294-5.31,3.682-3.69a3.157,3.157,0,0,0,0-4.45h0Zm-39.23,15.16a0.77,0.77,0,0,1,0-1.08l1.538-1.54,1.605,1.61-1.538,1.54a0.749,0.749,0,0,1-1.07,0Zm3.081,3.09a0.77,0.77,0,0,1,0-1.08l1.538-1.54,1.605,1.61-1.538,1.54a0.747,0.747,0,0,1-1.069,0Zm3.081,3.09a0.77,0.77,0,0,1,0-1.08l1.539-1.54,1.605,1.61-1.539,1.54a0.747,0.747,0,0,1-1.069,0Zm4.687,3.62a0.749,0.749,0,0,1-1.07,0l-0.535-.53a0.77,0.77,0,0,1,0-1.08l1.539-1.54,1.605,1.61Zm17.928-12.99-11.588-11.62a1.05,1.05,0,0,0-.647-0.3l-5.926-.52a0.286,0.286,0,0,0-.092-0.01,1.047,1.047,0,0,0-1.022.84l-0.475,2.37a2.724,2.724,0,0,1-3.209,2.13,2.676,2.676,0,0,1-1.731-1.16,2.724,2.724,0,0,1-.4-2.05l0.474-2.37a6.5,6.5,0,0,1,7.649-5.09h0.022l10.146,1.82,11.356,11.39Zm8.976-9-2.943,2.95-10.107-10.13a1.062,1.062,0,0,1-.308-0.75,1.039,1.039,0,0,1,.308-0.74l2.2-2.21a1.044,1.044,0,0,1,1.485,0l9.364,9.39a1.055,1.055,0,0,1,0,1.49h0Zm0,0-1.484-.33a1.044,1.044,0,1,1-1.044-1.05,1.047,1.047,0,0,1,1.044,1.05h0Zm0,0" transform="translate(-776.031 -1778)"/>
</svg>
