<?xml version="1.0" encoding="utf-8"?>
<!-- Generator: Adobe Illustrator 22.0.0, SVG Export Plug-In . SVG Version: 6.00 Build 0)  -->
<svg version="1.1" id="Слой_1" xmlns="http://www.w3.org/2000/svg" xmlns:xlink="http://www.w3.org/1999/xlink" x="0px" y="0px"
	 viewBox="0 0 44 44" style="enable-background:new 0 0 44 44;" xml:space="preserve">
<style type="text/css">
	.st0{fill:#2F2F2F;}
	.st1{fill:#FFFFFF;}
</style>
<g>
	<circle class="st0" cx="22" cy="22" r="22"/>
	<circle class="st1" cx="22" cy="22" r="20"/>
	<path class="st0" d="M36.8,22.9l-3.2,10.2c-1,2.4-3.3,4.1-5.8,4.1H16c-2.6,0-4.8-1.6-5.6-4.1L7.2,22.9c-0.6-1.8-0.2-3.7,0.9-5.2
		c1.1-1.5,2.9-2.4,4.8-2.4h18.2c1.9,0,3.6,0.9,4.8,2.4C37,19.2,37.3,21.1,36.8,22.9z"/>
	<path class="st1" d="M35.1,23.4L32.2,32c-0.9,2-2.9,3.5-5.1,3.5H16.7c-2.3,0-4.2-1.4-4.9-3.5L9,23.4c-0.5-1.5-0.2-3.2,0.8-4.4
		c1-1.3,2.6-2,4.2-2h16c1.7,0,3.2,0.8,4.2,2C35.2,20.2,35.5,21.8,35.1,23.4z"/>
	<path class="st0" d="M32.5,11.2v5.6h-21v-5.6c0-3.3,2.8-5.9,6.1-5.9h8.7C29.8,5.3,32.5,7.9,32.5,11.2z"/>
	<path class="st1" d="M30.6,11.1V15H13.5v-3.8c0-2.3,2.3-4.1,5-4.1h7.1C28.4,7.1,30.6,8.9,30.6,11.1z"/>
</g>
</svg>
