<?xml version="1.0" encoding="utf-8"?>
<!-- Generator: Adobe Illustrator 22.0.0, SVG Export Plug-In . SVG Version: 6.00 Build 0)  -->
<svg version="1.1" id="Слой_1" xmlns="http://www.w3.org/2000/svg" xmlns:xlink="http://www.w3.org/1999/xlink" x="0px" y="0px"
	 viewBox="0 0 69.5 88.5" style="enable-background:new 0 0 69.5 88.5;" xml:space="preserve">
<style type="text/css">
	.st0{fill:#919191;}
	.st1{fill:#0099D2;}
	.st2{fill:#2F2F2F;}
</style>
<g>
	<path id="Фигура_629_копия_3" class="st0" d="M31.3,25.8c-0.7,6.4-1.4,12.8-2.1,19.1c-0.7,6.4-1.4,12.8-2.1,19.1
		c-0.8,6.7-4,12.8-9.1,17.2c-4.9,4.6-11.3,7.2-18,7.3l0,0c0.7-6.4,1.4-12.7,2.1-19.1s1.4-12.8,2.1-19.1c0.8-6.7,4-12.8,9-17.2
		C18.2,28.4,24.6,25.9,31.3,25.8L31.3,25.8L31.3,25.8z M4.2,50.2h24.4c0.4-4.1,0.9-8.1,1.3-12.2s0.9-8.1,1.3-12.2
		c-0.2,0-0.4,0-0.6,0s-0.4,0-0.6,0s-0.4,0-0.6,0l-0.6,0.1c-0.2,0-0.4,0-0.6,0.1l-0.6,0.1c-0.2,0-0.4,0.1-0.6,0.1l0,0
		c-0.2,0-0.4,0.1-0.6,0.1s-0.5,0.1-0.7,0.1s-0.4,0.1-0.6,0.1s-0.4,0.1-0.6,0.2l0,0c-0.2,0.1-0.4,0.1-0.6,0.2l-0.6,0.2
		c-0.2,0.1-0.4,0.1-0.6,0.2l0,0c-0.2,0.1-0.4,0.1-0.6,0.2l0,0c-0.2,0.1-0.4,0.1-0.6,0.2s-0.4,0.2-0.6,0.2s-0.4,0.2-0.6,0.3
		s-0.4,0.2-0.6,0.3s-0.4,0.2-0.6,0.3s-0.4,0.2-0.6,0.3l0,0c-0.2,0.1-0.4,0.2-0.5,0.3s-0.4,0.2-0.5,0.3l0,0c-0.2,0.1-0.4,0.2-0.5,0.3
		c-0.2,0.1-0.4,0.2-0.5,0.3s-0.3,0.2-0.5,0.3l0,0c-0.2,0.1-0.3,0.2-0.5,0.4s-0.3,0.2-0.5,0.4l0,0c-0.2,0.1-0.3,0.3-0.5,0.4l0,0
		c-0.2,0.1-0.3,0.3-0.5,0.4l0,0c-0.2,0.1-0.3,0.3-0.5,0.4l0,0c-0.2,0.1-0.3,0.3-0.5,0.4c-0.2,0.1,0,0.3-0.2,0.4l0,0
		c-0.2,0.1-0.3,0.3-0.4,0.4l0,0c-0.2,0.1-0.3,0.3-0.4,0.4l0,0c-0.1,0.1-0.3,0.3-0.4,0.5l0,0c-0.1,0.1-0.3,0.3-0.4,0.5
		s-0.3,0.3-0.4,0.5l0,0c-0.1,0.2-0.3,0.3-0.4,0.5s-0.4,0.2-0.5,0.4s-0.3,0.3-0.4,0.5l0,0c-0.1,0.2-0.2,0.3-0.4,0.5s-0.2,0.3-0.4,0.5
		l0,0c-0.1,0.2-0.2,0.3-0.3,0.5s-0.2,0.3-0.3,0.5s-0.2,0.4-0.3,0.5s-0.2,0.3-0.3,0.5s-0.2,0.4-0.3,0.5S7,41.1,6.9,41.3l0,0
		c-0.1,0.2-0.2,0.4-0.3,0.6l0,0c-0.1,0.2-0.2,0.4-0.3,0.6s-0.2,0.4-0.2,0.6S6,43.4,5.9,43.6l0,0c-0.1,0.2-0.1,0.4-0.2,0.6
		s-0.1,0.4-0.2,0.6s-0.1,0.4-0.2,0.6S5.2,45.8,5.1,46l0,0C5,46.1,5,46.3,4.9,46.5s-0.1,0.4-0.2,0.6s-0.1,0.4-0.1,0.6
		c-0.1,0.2-0.1,0.4-0.1,0.6s-0.1,0.4-0.1,0.6s-0.1,0.5-0.1,0.7S4.3,50,4.2,50.2L4.2,50.2L4.2,50.2z"/>
	<path id="Фигура_629_копия_2" class="st1" d="M9.5,0h38.2C54-0.1,59.9,2.5,64.1,7.2c4.1,4.7,6,11,5.3,17.2H31.2
		c-6.3,0.1-12.2-2.5-16.4-7.2C10.7,12.5,8.7,6.2,9.5,0L9.5,0z"/>
	<path id="Фигура_629_копия_4" class="st0" d="M4.4,50.2h38.1c6.6-0.1,13-2.6,17.9-7.2c5-4.4,8.2-10.6,9-17.2H31.3
		c-6.6,0.1-13,2.6-17.9,7.2C8.4,37.4,5.2,43.5,4.4,50.2L4.4,50.2z M4.4,50.2h24.3c0.4-4.1,0.9-8.1,1.3-12.2s0.9-8.1,1.3-12.2
		c-0.2,0-0.4,0-0.6,0s-0.4,0-0.6,0s-0.4,0-0.6,0l-0.6,0.1c-0.2,0-0.4,0-0.6,0.1l-0.6,0.1c-0.2,0-0.4,0.1-0.6,0.1l0,0
		c-0.2,0-0.4,0.1-0.6,0.1s-0.4,0.1-0.6,0.1s-0.4,0.1-0.6,0.1c-0.2,0.1-0.4,0.1-0.6,0.2l0,0c-0.2,0.1-0.4,0.1-0.6,0.2l-0.6,0.2
		c-0.2,0.1-0.4,0.1-0.6,0.2l0,0c-0.2,0.1-0.4,0.1-0.6,0.2l0,0c-0.2,0.1-0.4,0.1-0.6,0.2s-0.4,0.2-0.6,0.2s-0.4,0.2-0.6,0.3
		s-0.3,0.2-0.5,0.3s-0.4,0.2-0.6,0.3S19,29,18.9,29.1l0,0c-0.2,0.1-0.4,0.2-0.5,0.3s-0.4,0.2-0.5,0.3l0,0c-0.2,0.1-0.4,0.2-0.5,0.3
		c-0.2,0.1-0.4,0.2-0.5,0.3c-0.2,0.1-0.3,0.2-0.5,0.3l0,0c-0.2,0.1-0.3,0.2-0.5,0.4s-0.3,0.2-0.5,0.4l0,0c-0.2,0.1-0.3,0.3-0.5,0.4
		l0,0c-0.2,0.1-0.3,0.3-0.5,0.4l0,0c-0.2,0.1-0.3,0.3-0.5,0.4l0,0c-0.2,0.1-0.3,0.3-0.5,0.4c-0.2,0.1-0.3,0.3-0.4,0.4l0,0
		c-0.2,0.1-0.3,0.3-0.4,0.4l0,0c-0.2,0.1-0.3,0.3-0.4,0.4l0,0c-0.1,0.1-0.3,0.3-0.4,0.5l0,0c-0.1,0.1-0.3,0.3-0.4,0.5
		c-0.1,0.2-0.3,0.3-0.4,0.5l0,0c-0.1,0.2-0.3,0.3-0.4,0.5c-0.1,0.2-0.3,0.3-0.4,0.5c-0.1,0.2-0.3,0.3-0.4,0.5l0,0
		c-0.1,0.2-0.2,0.3-0.4,0.5S9,37.9,8.9,38.1l0,0c-0.1,0.2-0.2,0.3-0.3,0.5s-0.2,0.3-0.3,0.5S8.1,39.5,8,39.6
		c-0.1,0.2-0.2,0.3-0.3,0.5s-0.2,0.4-0.3,0.5S7.1,41.1,7,41.3l0,0c-0.1,0.2-0.2,0.4-0.3,0.6l0,0c-0.1,0.2-0.2,0.4-0.3,0.6
		c-0.1,0.2-0.2,0.4-0.2,0.6S6.1,43.4,6,43.6l0,0c-0.1,0.2-0.1,0.4-0.2,0.6c-0.1,0.2-0.1,0.4-0.2,0.6c-0.1,0.2-0.1,0.4-0.2,0.6
		c-0.1,0.2-0.1,0.4-0.2,0.6l0,0c-0.1,0.2-0.1,0.4-0.2,0.6s0,0.3-0.1,0.5s-0.1,0.4-0.1,0.6c-0.1,0.2-0.1,0.4-0.1,0.6
		c0,0.2-0.1,0.4-0.1,0.6c0,0.2-0.1,0.4-0.1,0.6S4.4,50,4.4,50.2L4.4,50.2L4.4,50.2z"/>
	<path id="Фигура_629_копия_5" class="st2" d="M4.2,50.2h24.4c0.4-4.1,0.9-8.1,1.3-12.2s0.9-8.2,1.3-12.2
		c-0.2,0-0.4,0-0.6,0s-0.4,0-0.6,0s-0.4,0-0.6,0l-0.6,0.1c-0.2,0-0.4,0-0.6,0.1l-0.6,0.1c-0.2,0-0.4,0.1-0.6,0.1l0,0
		c-0.2,0-0.4,0.1-0.6,0.1s-0.4,0.1-0.6,0.1s-0.4,0.1-0.6,0.1s-0.4,0.1-0.6,0.2l0,0c-0.2,0.1-0.4,0.1-0.6,0.2l-0.6,0.2
		c-0.2,0.1-0.4,0.1-0.6,0.2l0,0c-0.2,0.1-0.4,0.1-0.6,0.2l0,0c-0.2,0.1-0.4,0.1-0.6,0.2s-0.4,0.2-0.6,0.2s-0.4,0.2-0.6,0.3
		s-0.4,0.2-0.6,0.3c-0.2,0.1-0.4,0.2-0.6,0.3c-0.2,0.1-0.4,0.2-0.6,0.3l0,0c-0.2,0.1-0.4,0.2-0.5,0.3c-0.2,0.1-0.4,0.2-0.5,0.3l0,0
		c-0.2,0.1-0.4,0.2-0.5,0.3c-0.2,0.1-0.4,0.2-0.5,0.3s-0.3,0.2-0.5,0.3l0,0c-0.2,0.1-0.3,0.2-0.5,0.4s-0.3,0.2-0.5,0.4l0,0
		c-0.2,0.1-0.3,0.3-0.5,0.4l0,0c-0.2,0.1-0.3,0.3-0.5,0.4l0,0c-0.2,0.1-0.3,0.3-0.5,0.4l0,0c-0.2,0.1-0.3,0.3-0.5,0.4
		c-0.2,0.1-0.1,0.3-0.3,0.4l0,0c-0.2,0.1-0.3,0.3-0.4,0.4l0,0c-0.2,0.1-0.3,0.3-0.4,0.4l0,0c-0.1,0.1-0.3,0.3-0.4,0.5l0,0
		c-0.1,0.1-0.3,0.3-0.4,0.5s-0.3,0.3-0.4,0.5l0,0c-0.1,0.2-0.3,0.3-0.4,0.5c-0.1,0.2-0.3,0.3-0.4,0.5S9.7,37,9.6,37.2l0,0
		c-0.1,0.2-0.2,0.3-0.4,0.5S9,38,8.8,38.2l0,0c-0.1,0.2-0.2,0.3-0.3,0.5S8.3,39,8.2,39.2S8,39.6,7.9,39.7c-0.1,0.2-0.2,0.4-0.3,0.5
		s-0.2,0.4-0.3,0.5c-0.1,0.2-0.2,0.4-0.3,0.6l0,0c-0.1,0.2-0.2,0.4-0.3,0.6l0,0c-0.1,0.2-0.2,0.4-0.3,0.6c-0.1,0.2-0.2,0.4-0.2,0.6
		C6,43.2,6,43.4,5.9,43.6l0,0c-0.1,0.2-0.1,0.4-0.2,0.6c-0.1,0.2-0.1,0.4-0.2,0.6s-0.2,0.4-0.2,0.6S5.2,45.8,5.1,46l0,0
		C5,46.2,5,46.4,4.9,46.6S4.8,47,4.7,47.2c-0.1,0.2-0.1,0.4-0.1,0.6c-0.1,0.2-0.1,0.4-0.1,0.6S4.4,48.8,4.4,49s-0.1,0.4-0.1,0.6
		S4.3,50.1,4.2,50.2L4.2,50.2L4.2,50.2z"/>
</g>
</svg>
