<svg xmlns="http://www.w3.org/2000/svg" width="34" height="34" viewBox="0 0 34 34">
<defs>
    <style>
      .cls-1 {
        fill: #0099d2;
        fill-rule: evenodd;
      }
    </style>
  </defs>
  <path id="Фигура_630" data-name="Фигура 630" class="cls-1" d="M543.012,1928.97h-4.054a4.979,4.979,0,0,0-3.982-7.97,4.47,4.47,0,0,0-3.838,1.86,19.581,19.581,0,0,0-2.138,4.43,19.624,19.624,0,0,0-2.138-4.43,4.472,4.472,0,0,0-3.839-1.86,4.979,4.979,0,0,0-3.981,7.97h-4.054a2.991,2.991,0,0,0-2.988,2.99v1.99a3,3,0,0,0,1.992,2.82v15.24a2.992,2.992,0,0,0,2.988,2.99h24.039a2.992,2.992,0,0,0,2.989-2.99v-15.24a3,3,0,0,0,1.992-2.82v-1.99A2.992,2.992,0,0,0,543.012,1928.97Zm-8.036-5.98a2.99,2.99,0,0,1,0,5.98h-4.5c0.122-.31.238-0.6,0.348-0.88C532.354,1924.22,532.934,1922.99,534.976,1922.99Zm-3.984,30.02h-3.984v-22.05h3.984v22.05Zm-10.957-27.03a2.992,2.992,0,0,1,2.988-2.99c2.042,0,2.623,1.23,4.149,5.1,0.109,0.28.226,0.57,0.348,0.88h-4.5A2.992,2.992,0,0,1,520.035,1925.98Zm-6.043,5.98a1,1,0,0,1,1-1h10.028v3.99H514.988a1,1,0,0,1-1-1v-1.99Zm1.992,20.05v-15.07h9.032v16.07H516.98A1,1,0,0,1,515.984,1952.01Zm25.035,1h-8.035v-16.07h9.032v15.07A1,1,0,0,1,541.019,1953.01Zm2.989-19.06a1,1,0,0,1-1,1H532.984v-3.99h10.028a1,1,0,0,1,1,1v1.99Z" transform="translate(-512 -1921)"/>
</svg>
