<svg id="Слой_1" data-name="Слой 1" xmlns="http://www.w3.org/2000/svg" viewBox="0 0 83.82 82.25"><defs><style>.cls-1{stroke:#000;}.cls-1,.cls-2{stroke-linecap:round;stroke-miterlimit:10;}.cls-2{fill:#fff;stroke:#fff;}</style></defs><title>clasic</title><path class="cls-1" d="M604.11,263.47,565,286.83a1.53,1.53,0,0,0,.79,2.84H644a1.53,1.53,0,0,0,.78-2.84l-39.07-23.36A1.53,1.53,0,0,0,604.11,263.47Z" transform="translate(-562.99 -262.75)"/><rect class="cls-1" x="0.5" y="72.75" width="82.82" height="9" rx="1.04" ry="1.04"/><rect class="cls-1" x="2.05" y="29.75" width="10" height="40" rx="1.04" ry="1.04"/><rect class="cls-1" x="16.01" y="29.75" width="10" height="40" rx="1" ry="1"/><rect class="cls-1" x="29.68" y="29.75" width="10" height="40" rx="1.01" ry="1.01"/><rect class="cls-1" x="43.68" y="29.75" width="10" height="40" rx="1.03" ry="1.03"/><rect class="cls-1" x="57.68" y="29.83" width="10" height="40" rx="1.01" ry="1.01"/><rect class="cls-1" x="71.51" y="29.83" width="10" height="40" rx="1.02" ry="1.02"/><circle class="cls-2" cx="41.91" cy="14.41" r="5.61"/></svg>