<svg id="Слой_1" data-name="Слой 1" xmlns="http://www.w3.org/2000/svg" viewBox="0 0 41 18.98"><defs><style>.cls-1{font-size:12px;font-family:Italianno-Regular, Italianno;}</style></defs><title>senkov-logo</title><path d="M23.58,3.94,26,4h5.55l-.51.68H29.4A11.81,11.81,0,0,1,30,9.25a30.93,30.93,0,0,1-1,7.84A76.6,76.6,0,0,1,35.75,8c1-1.1,1.92-2,2.75-2.78A13.26,13.26,0,0,1,41,3.44a4.74,4.74,0,0,1,2.22-.72c.65,0,1,.17,1.15.49a1.64,1.64,0,0,1,.1.49,1.84,1.84,0,0,1-.1.52,4.72,4.72,0,0,1-.18.53,3.54,3.54,0,0,1-.23.53l-.2.46q-.06.13-.3.09l-.08-.08a4.43,4.43,0,0,0,.2-1.19c0-.73-.32-1.09-1-1.09-.84,0-2,.64-3.43,1.92a47.87,47.87,0,0,0-7.33,8.18,42.28,42.28,0,0,0-3.21,4.84,1.55,1.55,0,0,0-.08.23.68.68,0,0,1-.12.26,1.77,1.77,0,0,1-.49.26,2.11,2.11,0,0,1-.59.18.43.43,0,0,1-.27-.08c-.14-.07-.12-.31.07-.72a44.51,44.51,0,0,0,1.5-7.22c.24-2.14.36-3.7.36-4.66a11.14,11.14,0,0,0-.12-2H25.73c-2.53,0-3.79.62-3.79,1.86a2,2,0,0,0,.31,1.14L22,7.87l-.34-.6A4.12,4.12,0,0,1,21.05,6v-.3a1.48,1.48,0,0,1,.36-1.12A3.09,3.09,0,0,1,23.58,3.94Z" transform="translate(-4.25 -2.72)"/><path d="M31.25,18.84a1.36,1.36,0,0,1-.73.25c-.22,0-.33-.08-.33-.23a1.31,1.31,0,0,1,.12-.48c.05-.13.38-.8,1-2a14.55,14.55,0,0,0-1.13,1.34q-.09.12-.09,0a.27.27,0,0,1,.06-.17c.57-.7,1-1.27,1.31-1.72a1.64,1.64,0,0,0,.72-.19c.08-.07.12-.07.13,0a.21.21,0,0,1,0,.11l-1,1.81a3,3,0,0,0-.41,1.06.16.16,0,0,0,.13.17h0c.25,0,.7-.38,1.34-1.15l.27-.3c.09.09-.14.45-.71,1.06A2.56,2.56,0,0,1,31.25,18.84Zm1.3-4.38c-.19,0-.29-.11-.29-.31a.32.32,0,0,1,.17-.26.57.57,0,0,1,.28-.11.23.23,0,0,1,.2.11.33.33,0,0,1,.07.16.35.35,0,0,1-.15.31.57.57,0,0,1-.28.11Z" transform="translate(-4.25 -2.72)"/><path d="M35.48,15.72c.17,0,.26.07.26.21a.6.6,0,0,1-.1.32l-.12.23v.07h0a.48.48,0,0,0-.37-.23,1.54,1.54,0,0,0-.95.6,6,6,0,0,0,.49,1.76.4.4,0,0,0,.35.15c.3,0,.83-.49,1.58-1.46a.11.11,0,0,1,0,.13,1,1,0,0,1-.17.28,7,7,0,0,1-1.1,1.15,1,1,0,0,1-.65.27.67.67,0,0,1-.52-.21,5.3,5.3,0,0,1-.48-1.54A5.28,5.28,0,0,0,32.77,19c0,.1-.15.15-.33.16s-.26,0-.26-.06a.29.29,0,0,1,0-.13l.31-.71c.17-.4.3-.68.36-.83l.33-.73c.15-.34.28-.62.39-.83.41-.78.69-1.31.85-1.6a6.74,6.74,0,0,1,1.31-1.74,2.3,2.3,0,0,1,1.52-.8.67.67,0,0,1,.34.1.33.33,0,0,1,.15.3v.34h-.11c0-.22-.15-.32-.46-.32a2.22,2.22,0,0,0-.88.17,2.27,2.27,0,0,0-.75.51,5.62,5.62,0,0,0-.66.88A23.24,23.24,0,0,0,33,17.83a8.22,8.22,0,0,1,.52-.65.41.41,0,0,1,.07-.34l.21-.25.15-.16v.21C34.65,16,35.13,15.72,35.48,15.72Z" transform="translate(-4.25 -2.72)"/><path d="M37.25,15.72h.37a8.84,8.84,0,0,0,.94-1.67,1.77,1.77,0,0,0,.69-.33c.06-.07.11-.1.13-.1h0s0,.06-.1.14a4.16,4.16,0,0,0-.47.71,11.83,11.83,0,0,0-.71,1.25h1.15l-.08.06-.16.06h-.35q-.58,0-.72.24a9.18,9.18,0,0,0-.48,1c-.41,1-.48,1.51-.19,1.51s.71-.38,1.37-1.15l.23-.29a.21.21,0,0,1,0,.11.5.5,0,0,1-.13.26c-.74.95-1.4,1.42-2,1.42-.19,0-.29-.08-.29-.23a4.12,4.12,0,0,1,.47-1.22L37.57,16c-.82,1-1.24,1.5-1.25,1.53s-.09.07-.09,0a.27.27,0,0,1,.06-.17c.55-.68.92-1.15,1.13-1.43l-.65.06c-.08,0,0-.06.09-.19a.46.46,0,0,1,.3-.19Z" transform="translate(-4.25 -2.72)"/><path d="M41.58,16.18a3,3,0,0,1-.64,1.59,3.89,3.89,0,0,1-.46.53,1.84,1.84,0,0,0,1.46-.89H42a.22.22,0,0,1,0,.16,1.77,1.77,0,0,1-1.4.86h-.21a2.13,2.13,0,0,1-1.51.63c-.33,0-.5-.14-.5-.42A2.85,2.85,0,0,1,39,17a3,3,0,0,1,1-1,2.13,2.13,0,0,1,1.08-.4.41.41,0,0,1,.46.36h0A.25.25,0,0,1,41.58,16.18Zm-.57,0c0-.19-.07-.29-.22-.29a.92.92,0,0,0-.27.08,1.54,1.54,0,0,0-.51.4,3.91,3.91,0,0,0-.59.81,2.94,2.94,0,0,0-.51,1.27c0,.28.07.41.21.41a.73.73,0,0,0,.38-.11,1.44,1.44,0,0,0,.32-.23,5.94,5.94,0,0,0,.78-1.08A2.41,2.41,0,0,0,41,16.19Z" transform="translate(-4.25 -2.72)"/><path d="M44.94,16.72c0-.37-.11-.55-.34-.55s-.55.24-1,.73a5.47,5.47,0,0,0-1,1.56l-.25.67a.89.89,0,0,0-.28.07l-.23.07v-.1l.21-.47c.1-.24.22-.55.36-.92.28-.7.47-1.17.57-1.39a14.73,14.73,0,0,0-1.16,1.33c0,.08-.08.07-.08,0a.27.27,0,0,1,.06-.17c.57-.7,1-1.27,1.31-1.72a1.83,1.83,0,0,0,.69-.16l.12-.09v.05a.14.14,0,0,1-.06.13c-.06.05-.32.54-.81,1.43a6.07,6.07,0,0,1,.82-1,1.38,1.38,0,0,1,.86-.48.43.43,0,0,1,.46.3.21.21,0,0,1,.05.13.67.67,0,0,1-.05.37,1.62,1.62,0,0,1-.19.37.15.15,0,0,1-.12.07h0A.86.86,0,0,0,44.94,16.72Z" transform="translate(-4.25 -2.72)"/><text class="cls-1" transform="translate(0 13.58)">Senkov</text></svg>