<svg xmlns="http://www.w3.org/2000/svg" width="15.969" height="10" viewBox="0 0 15.969 10">
  <metadata><?xpacket begin="﻿" id="W5M0MpCehiHzreSzNTczkc9d"?>
<x:xmpmeta xmlns:x="adobe:ns:meta/" x:xmptk="Adobe XMP Core 5.6-c142 79.160924, 2017/07/13-01:06:39        ">
   <rdf:RDF xmlns:rdf="http://www.w3.org/1999/02/22-rdf-syntax-ns#">
      <rdf:Description rdf:about=""/>
   </rdf:RDF>
</x:xmpmeta>
                                                                                                    
                                                                                                    
                                                                                                    
                                                                                                    
                                                                                                    
                                                                                                    
                                                                                                    
                                                                                                    
                                                                                                    
                                                                                                    
                                                                                                    
                                                                                                    
                                                                                                    
                                                                                                    
                                                                                                    
                                                                                                    
                                                                                                    
                                                                                                    
                                                                                                    
                                                                                                    
                           
<?xpacket end="w"?></metadata>
<defs>
    <style>
      .cls-1 {
        fill: #fff;
        fill-rule: evenodd;
      }
    </style>
  </defs>
  <path id="Rounded_Rectangle_20" data-name="Rounded Rectangle 20" class="cls-1" d="M485.22,5066.27l1.037-1.06a0.726,0.726,0,0,1,1.036,0l7.257,7.43a0.762,0.762,0,0,1,0,1.06l-1.036,1.06a0.71,0.71,0,0,1-1.037,0l-7.257-7.42A0.772,0.772,0,0,1,485.22,5066.27Zm6.22,6.37,7.257-7.43a0.727,0.727,0,0,1,1.037,0l1.037,1.06a0.774,0.774,0,0,1,0,1.07l-7.257,7.42a0.71,0.71,0,0,1-1.037,0l-1.037-1.06A0.762,0.762,0,0,1,491.44,5072.64Z" transform="translate(-485.031 -5065)"/>
</svg>
