<svg xmlns="http://www.w3.org/2000/svg" width="22.938" height="20" viewBox="0 0 22.938 20">
  <metadata><?xpacket begin="﻿" id="W5M0MpCehiHzreSzNTczkc9d"?>
<x:xmpmeta xmlns:x="adobe:ns:meta/" x:xmptk="Adobe XMP Core 5.6-c142 79.160924, 2017/07/13-01:06:39        ">
   <rdf:RDF xmlns:rdf="http://www.w3.org/1999/02/22-rdf-syntax-ns#">
      <rdf:Description rdf:about=""/>
   </rdf:RDF>
</x:xmpmeta>
                                                                                                    
                                                                                                    
                                                                                                    
                                                                                                    
                                                                                                    
                                                                                                    
                                                                                                    
                                                                                                    
                                                                                                    
                                                                                                    
                                                                                                    
                                                                                                    
                                                                                                    
                                                                                                    
                                                                                                    
                                                                                                    
                                                                                                    
                                                                                                    
                                                                                                    
                                                                                                    
                           
<?xpacket end="w"?></metadata>
<defs>
    <style>
      .cls-1 {
        fill: #1d354e;
        fill-rule: evenodd;
      }
    </style>
  </defs>
  <path class="cls-1" d="M564.4,5936.59l5.3,1.97,2.051,6.59a0.626,0.626,0,0,0,.991.3l2.953-2.41a0.893,0.893,0,0,1,1.075-.03l5.328,3.87a0.629,0.629,0,0,0,.978-0.38l3.9-18.75a0.624,0.624,0,0,0-.835-0.71l-21.75,8.38A0.626,0.626,0,0,0,564.4,5936.59Zm7.021,0.92,10.356-6.37a0.183,0.183,0,0,1,.219.29l-8.549,7.93a1.763,1.763,0,0,0-.548,1.06l-0.292,2.15a0.267,0.267,0,0,1-.522.04l-1.12-3.93A1.034,1.034,0,0,1,571.425,5937.51Z" transform="translate(-564.031 -5927)"/>
</svg>
