<?xml version="1.0" encoding="UTF-8"?><!DOCTYPE svg PUBLIC "-//W3C//DTD SVG 1.1//EN" "http://www.w3.org/Graphics/SVG/1.1/DTD/svg11.dtd"><svg xmlns="http://www.w3.org/2000/svg"><defs>
        <style>
            .cls-1{fill-rule:evenodd}
        </style>
    
        <style>
            .cls-1{fill-rule:evenodd}
        </style>
    </defs><symbol id="icon-calendar" viewBox="0 0 97.56 97.531">
    
    <path class="cls-1" d="M67.64 24.424v-3.888h-1.76v3.888h-6.35v-3.888h-1.76v3.888H50.7v-3.888h-1.76v3.888h-7.35v-3.888h-1.76v3.888h-7.05v-3.888h-1.76v3.888h-6.28V73.16h48.08V24.424h-5.18zm3.58 47.136H26.34v-33.7h44.88v33.7zm0-35.294H26.34V26.024h4.68v4.053h1.76v-4.053h7.05v4.053h1.76v-4.053h7.34v4.053h1.77v-4.053h7.07v4.053h1.76v-4.053h6.35v4.053h1.76v-4.053h3.58v10.242zm0 0L49.2 47.604h-.04l-2 1.08-.3-1.185 2.51-1.347h1.33V63.27h-1.5V47.604zm4.09 15.666v-1.507h-6.68v1.507h6.68zM48.78 1.294A47.468 47.468 0 1 1 1.31 48.762 47.526 47.526 0 0 1 48.78 1.294m0-1.3a48.768 48.768 0 1 0 48.77 48.769A48.772 48.772 0 0 0 48.78-.007z"/>
</symbol><symbol id="icon-hends" viewBox="0 0 97.56 97.531">
    
    <path class="cls-1" d="M77.55 45.895a.774.774 0 0 0-1.09-.06l-1.5 1.353-8.17-8.1a.768.768 0 0 0-1.08 1.091l8.1 8.037-4.01 3.6-13.35-13.521 13.27-12.547a.767.767 0 0 0-1.05-1.117l-13.84 13.09a.755.755 0 0 0-.24.544.8.8 0 0 0 .22.551l1.23 1.245-2.71 2.834-5.22-.555a.73.73 0 0 0-.62.217l-2.12 2.1-3.95-3.9 1.33-1.345a.8.8 0 0 0 .22-.551.748.748 0 0 0-.24-.544L28.89 25.231a.766.766 0 1 0-1.05 1.116l9.33 8.832L23.5 48.591l-2.4-2.16a.778.778 0 0 0-1.09.061.766.766 0 0 0 .06 1.084l7.21 6.47a.752.752 0 0 0 .51.194.736.736 0 0 0 .54-.224l1.31-1.323 7.18 7.081-1.32 1.338a.773.773 0 0 0 .01 1.083l2.69 2.692 2.69 2.662 2.69 2.688 2.7 2.692a.757.757 0 0 0 .54.225.774.774 0 0 0 .54-.225l1.39-1.4 1.42 1.4a.766.766 0 0 0 .54.222.757.757 0 0 0 .54-.225l2.15-2.149.32.314a.756.756 0 0 0 1.08 0l2.15-2.146.32.318a.774.774 0 0 0 .54.225.757.757 0 0 0 .54-.225l2.15-2.152.32.319a.773.773 0 0 0 .54.224.756.756 0 0 0 .54-.224l2.7-2.692a.768.768 0 0 0 0-1.086l-4-4 7.22-7.662 1.4 1.417a.763.763 0 0 0 .55.229.752.752 0 0 0 .51-.2l7.21-6.466a.772.772 0 0 0 .06-1.088zm-38.83.427a3.357 3.357 0 0 1-5.38 2.681l4.7-4.7a3.4 3.4 0 0 1 .68 2.023zm.41-3.111l1.28-1.281.69.682-1.41 1.447a4.353 4.353 0 0 0-.56-.848zm-11.37 9.207l-3.11-2.8 13.64-13.387 2.82 2.662zm4.49-2.328a4.439 4.439 0 0 0 .88.577c-.25.251-.5.514-.75.773-.31.314-.6.622-.89.918l-.76-.746zm5.67 10.763l1.61 1.589-.8.81-1.6-1.605zm3.51 5.071l-1.6-1.585.8-.81 1.61 1.585zm1.9.27l1.62 1.593-.83.825-1.6-1.6zm3.49 5.109l-1.61-1.6.83-.832 1.62 1.6zm14.54-5.5l-.31-.318-3.1-3.1-.95-.941a.761.761 0 0 0-1.08 0 .77.77 0 0 0 0 1.088l3.5 3.5-1.61 1.609-4.36-4.36a.761.761 0 0 0-1.08 0 .748.748 0 0 0 0 1.084l.94.945 2.55 2.555-1.6 1.609-3.42-3.418-.94-.942a.774.774 0 0 0-1.09 0 .765.765 0 0 0 0 1.084l1.77 1.765 1.74 1.736-1.62 1.608-18.12-17.876c.29-.3.59-.607.9-.926.46-.468.9-.924 1.3-1.329a4.24 4.24 0 0 0 .58.037 4.9 4.9 0 0 0 4.9-4.893 4 4 0 0 0-.05-.6l1.99-2.032 2.07 2.055-7.24 7.186a.76.76 0 0 0-.23.588.774.774 0 0 0 .29.559c.18.142 4.38 3.325 11.68-4.071l14.2 14.192zm-1.85-7.231L49.3 48.364a.715.715 0 0 0-.55-.224.764.764 0 0 0-.55.24c-4.71 5.011-7.86 5.165-9.28 4.835l9.39-9.315 3.68.394-.55.577a.768.768 0 1 0 1.11 1.061l4.41-4.615 9.69 9.687zm1.35-22.041a2.4 2.4 0 1 0 2.39-2.4 2.4 2.4 0 0 0-2.39 2.4zm3.26 0a.865.865 0 1 1-.87-.862.87.87 0 0 1 .87.862zM48.78 1.294A47.468 47.468 0 1 1 1.31 48.762 47.526 47.526 0 0 1 48.78 1.294m0-1.3a48.768 48.768 0 1 0 48.77 48.769A48.772 48.772 0 0 0 48.78-.007z"/>
</symbol><symbol id="icon-picture" viewBox="0 0 98.000000 98.000000">
    <path d="M38.3 1.5C20.9 5.3 6.2 19.8 1.5 37.5c-4.2 16.3.7 33.8 12.9 45.9C24.3 93.3 35.5 98 49 98c27 0 49-22.1 49-49.3C98 26.8 81 6.1 59.3 1.5c-8.2-1.8-12.9-1.8-21 0zm22 2C77.6 8 91 21.6 95 38.9c1.7 7.3.8 20.1-2 27.4-4.4 11.5-15 22.2-26.8 26.8-8.5 3.4-23 3.8-31.5 1C14.7 87.4 2 69.9 2 49 2.1 18.6 31.2-4.1 60.3 3.5z"/>
    <path d="M24 41.4v17.4l3 .7c1.6.4 3.4 1.3 3.8 2.2 1 1.7 31.4 12.5 32.3 11.5.6-.7 10.9-29.8 10.9-30.8 0-.3-1.3-1-3-1.5-2.2-.8-3-1.7-3-3.4 0-1.9-.8-2.5-4.9-3.5-4.9-1.2-5-1.2-5.3-5.3l-.3-4.2-16.7-.3L24 24v17.4zm32 .1V57H41c-14.3 0-15-.1-15-2s.7-2 14.5-2H55V27.1l-14.7-.4-14.8-.3 15.3-.2L56 26v15.5zm-2-2.9v9.7l-2.5-2.7c-2-2.2-2.8-2.5-4.4-1.6-1.1.5-2.3 2-2.6 3.1-.6 1.9-1 1.6-3.4-2.6-4.5-8.3-7.5-8.3-11.2 0l-1.8 4v-9.8L28 29h26v9.6zm8.9-3c2.4.5 3.1 1.2 3 2.8-.1 1.5-.2 1.7-.6.4-.2-.9-2.1-2.1-4.1-2.6-4.2-1.1-3-1.5 1.7-.6zm.1 3.8c0 .6-1.1 4.9-2.4 9.6l-2.5 8.5V47.4L58 37.3l2.5.5c1.4.2 2.5.9 2.5 1.6zM38.5 43c.8 1.6 2 4.1 2.5 5.5.9 2.5.9 2.5-5 2.5-6.8 0-7-.3-4-6.8 2.2-4.9 4.4-5.4 6.5-1.2zm31-.2c-.3.3-1.1 0-1.8-.7-.9-1-.8-1.1.6-.5 1 .3 1.5.9 1.2 1.2zm1.6 2.9c-1.2 2-1.4 1.4-.5-1.2.4-.9.9-1.4 1.1-1.1.3.2 0 1.3-.6 2.3zm-2.8-1c.2.5-1.1 4.8-2.9 9.8C61.6 65 61 64 64.1 52.2c2-7.5 3.1-9.5 4.2-7.5zm-17.7 2c2.3 3 1.6 4.3-2.1 4.3s-4.2-.9-2.3-4c1.6-2.5 2.7-2.5 4.4-.3zm13.1.5c-.3.8-.6.5-.6-.6-.1-1.1.2-1.7.5-1.3.3.3.4 1.2.1 1.9zm-1 4c-.3.8-.6.5-.6-.6-.1-1.1.2-1.7.5-1.3.3.3.4 1.2.1 1.9zm-10.4 9.5c5 1.4 6 1.4 6.9.2.7-1 .8-.5.3 1.6-.4 1.6-.8 3.1-1 3.3-.1.2-6.1-1.3-13.1-3.2l-12.9-3.5h6.9c3.8-.1 9.6.6 12.9 1.6zm-6.8 3.8C56.4 67.6 63 68.4 63 66.8c0-.6.3-.9.6-.6.3.4 0 1.7-.8 3.1l-1.3 2.5L48 66.9c-15.1-5.4-15.9-6.1-2.5-2.4z"/>
    <path d="M43.3 33.6c-.6 1.7.6 4.5 2.3 5.1 2.1.7 4.7-2.3 4-4.5-.9-2.7-5.3-3-6.3-.6zm5.1.9c.3.9-.1 1.8-1 2.2-1.9.7-3.9-1.1-3-2.6 1-1.6 3.3-1.3 4 .4z"/>
</symbol></svg>