<?xml version="1.0" encoding="UTF-8"?><!DOCTYPE svg PUBLIC "-//W3C//DTD SVG 1.1//EN" "http://www.w3.org/Graphics/SVG/1.1/DTD/svg11.dtd"><svg xmlns="http://www.w3.org/2000/svg"><symbol id="icon-boy" viewBox="0 0 36.000000 46.000000">
    <path d="M13.3 2C9.6 4.2 8 6.8 8 10.4c0 1.4-.5 2.8-1 3.1-2.1 1.3-.9 4.3 3.8 9.3 6.5 7 10.1 6.7 16.1-1.5 2.7-3.7 2.9-4.6 2.4-9.7-.5-4.8-1.1-6.1-4-8.6-3.9-3.5-7.5-3.8-12-1zM25 11c2.6 6.4-1.8 14.5-7.6 13.8-3.4-.4-7.4-5.7-7.4-9.9 0-2.5.4-2.9 2.8-2.9 1.5 0 4.3-.9 6.2-1.9 4.6-2.6 4.6-2.6 6 .9z"/>
    <path d="M8.3 27.1c-1.7.5-4.3 2.3-5.8 4C.3 33.8-.1 35 .2 39.9l.3 5.6 7.2.3 7.1.3 1-4.8c2-9.6-1.3-15.8-7.5-14.2z"/>
    <path d="M22.4 28.3c-2.8 2.4-3.5 7.7-2 14.5l.8 3.3 7.1-.3 7.2-.3.3-5.6c.2-4.8-.1-6.1-2.3-8.7-1.4-1.6-3.9-3.5-5.5-4.1-2.6-.8-3.4-.7-5.6 1.2z"/>
</symbol><symbol id="icon-girl" viewBox="0 0 38.000000 46.000000">
    <path d="M11.5 3.3C7.4 7.4 5.6 13.7 6.3 20.9c.5 4.7.3 5.8-1.8 8.3C2 32.2-.7 41.8.3 44.4.9 45.8 3.4 46 19 46s18.1-.2 18.7-1.6c1-2.6-1.7-12.2-4.2-15.2-2.1-2.5-2.3-3.6-1.8-8.3.7-7.2-1.1-13.5-5.2-17.6C23.8.6 22.4 0 19 0c-3.4 0-4.8.6-7.5 3.3zm13.4 7.3c2.7 4.5 2.6 5.6-.5 9.3-3.7 4.4-8.7 4.4-11.4-.2-3.7-6.1-2-9 7-11.8 1.4-.4 2.6-.8 2.7-.8 0-.1 1 1.5 2.2 3.5zm-1.3 17.1c1.9 2.5 1.8 2.9-1.6 4.3-2.4 1-3.6 1-6 0-3.4-1.4-3.4-1.4-1.8-4 1.6-2.6 7.5-2.7 9.4-.3z"/>
</symbol><symbol id="icon-heart" viewBox="0 0 38.000000 32.000000">
    <path d="M4.9 1.5C1.6 3.3-.4 7.9.5 12c.8 3.6 13.6 18 17.3 19.5 2.2.9 3.1.2 10.7-7.6 8.9-9.3 10.6-12.8 8.5-18C35.7 2.8 31.5 0 28.2 0c-1.1 0-3.6 1.1-5.6 2.5L19 4.9l-3.6-2.4C11.2-.3 8.7-.6 4.9 1.5z"/>
</symbol></svg>