<svg data-name="Слой 1" xmlns="http://www.w3.org/2000/svg" width="137.22" height="61.75" viewBox="0 0 137.22 61.75"><defs><style>.cls-1{fill:#fff;}</style></defs><title>logo</title><path class="cls-1" d="M707.51,290.87c0-13.54,10.35-21.4,22.87-21.4a21.9,21.9,0,0,1,14.81,5.3l-5.59,5.92a13.12,13.12,0,0,0-8.86-3.25c-7.22,0-12.36,4.94-12.36,13.12,0,8.39,4.37,13.27,13.21,13.27a9.49,9.49,0,0,0,5-1.21v-7.05h-7.78V288H746v18.82c-3.23,2.76-8.94,4.95-15.48,4.95C717.57,311.8,707.51,304.62,707.51,290.87Z" transform="translate(-707.51 -269.47)"/><path class="cls-1" d="M756.74,270.22h11.57l7.62,18.14c.94,2.41,1.76,5,2.7,7.54h.29c.94-2.51,1.73-5.13,2.67-7.54L789,270.22h11.58v40.83h-9.66v-15a129.42,129.42,0,0,1,1.35-13.87H792l-3.85,9.66-6.63,15.64h-5.89l-6.65-15.64-3.74-9.66h-.29a129.42,129.42,0,0,1,1.35,13.87v15h-9.51Z" transform="translate(-707.51 -269.47)"/><path class="cls-1" d="M809.67,305.9l6.09-6.34a20.21,20.21,0,0,0,11.53,4.27c4.43,0,6.6-1.52,6.6-3.94s-2.67-3.39-6.77-4.86l-6.1-2.26c-4.86-1.72-9.47-5.2-9.47-11.13,0-6.77,7-12.17,16.71-12.17a23.48,23.48,0,0,1,15.1,5.35L838,280.64a16.75,16.75,0,0,0-9.75-3.2c-3.65,0-6,1.33-6,3.66,0,2.5,3.07,3.41,7.16,4.83l6,2.11c5.73,2,9.31,5.34,9.31,11.11,0,6.78-6.49,12.65-17.68,12.65A28.11,28.11,0,0,1,809.67,305.9Z" transform="translate(-707.51 -269.47)"/><path class="cls-1" d="M712,325.12c0-3.95,3-6.24,6.67-6.24a6.41,6.41,0,0,1,4.32,1.54l-1.63,1.73a3.81,3.81,0,0,0-2.59-.95,3.5,3.5,0,0,0-3.6,3.83c0,2.44,1.27,3.87,3.85,3.87a2.75,2.75,0,0,0,1.45-.36v-2.05h-2.27v-2.2h5v5.49a7.24,7.24,0,0,1-4.52,1.44C714.9,331.22,712,329.13,712,325.12Z" transform="translate(-707.51 -269.47)"/><path class="cls-1" d="M741.8,319.1h4.93c2.9,0,5.28.87,5.28,3.7s-2.38,3.92-5.28,3.92H744.9V331h-3.1Zm4.68,5.48c1.63,0,2.5-.61,2.5-1.78s-.87-1.57-2.5-1.57H744.9v3.35Zm-.31,1.43,2.14-1.73,4.36,6.72h-3.46Z" transform="translate(-707.51 -269.47)"/><path class="cls-1" d="M769.82,325c0-3.89,2.53-6.12,6.22-6.12s6.21,2.24,6.21,6.12a6.22,6.22,0,1,1-12.43,0Zm9.26,0c0-2.39-1.17-3.8-3-3.8s-3,1.41-3,3.8,1.18,3.9,3,3.9S779.08,327.38,779.08,325Z" transform="translate(-707.51 -269.47)"/><path class="cls-1" d="M800.55,325.48V319.1h3.1v6.66c0,2.33.84,3.14,2.37,3.14s2.43-.81,2.43-3.14V319.1h3v6.38c0,4-1.87,5.74-5.41,5.74S800.55,329.48,800.55,325.48Z" transform="translate(-707.51 -269.47)"/><path class="cls-1" d="M830.38,319.1h4.7c3,0,5.44.93,5.44,3.83s-2.46,4-5.35,4h-1.7v4h-3.09Zm4.6,5.72c1.7,0,2.51-.66,2.51-1.89s-.92-1.7-2.59-1.7h-1.43v3.59Z" transform="translate(-707.51 -269.47)"/></svg>