<svg xmlns="http://www.w3.org/2000/svg" width="19.358" height="21.859" viewBox="0 0 19.358 21.859">
  <g id="pdf-file-format-symbol" transform="translate(-31.504)">
    <path id="Path_31" data-name="Path 31" d="M118.564,259.481c0-.589-.409-.94-1.13-.94a2.468,2.468,0,0,0-.6.057v1.89a2.243,2.243,0,0,0,.484.038C118.089,260.526,118.564,260.136,118.564,259.481Z" transform="translate(-81.946 -248.281)" fill="#fff"/>
    <path id="Path_32" data-name="Path 32" d="M257.012,259.019a3.008,3.008,0,0,0-.656.057v4.188a2.624,2.624,0,0,0,.5.029,1.984,1.984,0,0,0,2.165-2.241A1.836,1.836,0,0,0,257.012,259.019Z" transform="translate(-215.929 -248.74)" fill="#fff"/>
    <path id="Path_33" data-name="Path 33" d="M49.637,7.819h-.525V5.286a.369.369,0,0,0,0-.048.421.421,0,0,0-.1-.278L44.791.147l0,0A.426.426,0,0,0,44.7.072L44.675.055A.442.442,0,0,0,44.59.02L44.567.012a.428.428,0,0,0-.1-.012H34.111a.858.858,0,0,0-.857.857V7.819h-.525A1.225,1.225,0,0,0,31.5,9.044v6.371a1.225,1.225,0,0,0,1.225,1.225h.525V21a.858.858,0,0,0,.857.857H48.255A.858.858,0,0,0,49.112,21V16.64h.525a1.225,1.225,0,0,0,1.225-1.225V9.044A1.225,1.225,0,0,0,49.637,7.819ZM34.111.857H44.04V5.243a.429.429,0,0,0,.429.429h3.786V7.819H34.111ZM44.634,12.264a3.244,3.244,0,0,1-1.064,2.593,4.592,4.592,0,0,1-2.952.826,12.581,12.581,0,0,1-1.643-.095V9.3a12.95,12.95,0,0,1,1.957-.133,4.121,4.121,0,0,1,2.621.684A2.832,2.832,0,0,1,44.634,12.264ZM33.456,15.616V9.3a11.9,11.9,0,0,1,1.956-.133,3.068,3.068,0,0,1,1.956.513,1.87,1.87,0,0,1,.683,1.481,2.043,2.043,0,0,1-.588,1.519,2.967,2.967,0,0,1-2.08.674,3.624,3.624,0,0,1-.493-.029v2.289H33.456Zm14.8,5.153H34.111V16.64H48.255v4.129ZM49.5,10.4h-2.46v1.462h2.3v1.178h-2.3v2.574H45.585v-6.4H49.5Z" transform="translate(0)" fill="#fff"/>
  </g>
</svg>
