<svg xmlns="http://www.w3.org/2000/svg" width="27.22" height="17" viewBox="0 0 27.22 17">
  <metadata><?xpacket begin="﻿" id="W5M0MpCehiHzreSzNTczkc9d"?>
<x:xmpmeta xmlns:x="adobe:ns:meta/" x:xmptk="Adobe XMP Core 5.6-c142 79.160924, 2017/07/13-01:06:39        ">
   <rdf:RDF xmlns:rdf="http://www.w3.org/1999/02/22-rdf-syntax-ns#">
      <rdf:Description rdf:about=""/>
   </rdf:RDF>
</x:xmpmeta>
                                                                                                    
                                                                                                    
                                                                                                    
                                                                                                    
                                                                                                    
                                                                                                    
                                                                                                    
                                                                                                    
                                                                                                    
                                                                                                    
                                                                                                    
                                                                                                    
                                                                                                    
                                                                                                    
                                                                                                    
                                                                                                    
                                                                                                    
                                                                                                    
                                                                                                    
                                                                                                    
                           
<?xpacket end="w"?></metadata>
<defs>
    <style>
      .cls-1 {
        fill: #d4d4d4;
        fill-rule: evenodd;
      }
    </style>
  </defs>
  <path id="icon" class="cls-1" d="M1862.61,394.764h-6.77v-1.6h6.77v1.6h0Zm-11.27,6.563a4.126,4.126,0,0,1,.65,2.344,4.5,4.5,0,0,1-.74,2.553,4.6,4.6,0,0,1-1.19,1.256A34.12,34.12,0,0,1,1847,409h-9V392h8a6.278,6.278,0,0,1,4.69,2.2,3.962,3.962,0,0,1,.77,2.443,3.446,3.446,0,0,1-.78,2.356,3.9,3.9,0,0,1-1.28.911A3.727,3.727,0,0,1,1851.34,401.327ZM1842,399h4a2.345,2.345,0,0,0,1.43-.588,1.5,1.5,0,0,0,.68-1.407,1.427,1.427,0,0,0-.9-1.477A7.627,7.627,0,0,0,1845,395h-3v4Zm6.45,4.443a1.7,1.7,0,0,0-1.07-1.714A2.7,2.7,0,0,0,1846,401h-4v5h4a2.414,2.414,0,0,0,1.35-.559A2,2,0,0,0,1848.45,403.442Zm16.67-2.6a14.04,14.04,0,0,1,.1,2.276h-8.76a2.711,2.711,0,0,0,1.26,2.418,3.276,3.276,0,0,0,1.73.431,2.745,2.745,0,0,0,1.75-.526,2.487,2.487,0,0,0,.64-0.786h3.22a3.688,3.688,0,0,1-1.17,2.071,6.014,6.014,0,0,1-4.53,1.674,6.793,6.793,0,0,1-4.24-1.411q-1.83-1.414-1.83-4.591a6.016,6.016,0,0,1,1.66-4.571,5.939,5.939,0,0,1,4.3-1.589,7.122,7.122,0,0,1,2.83.536,4.838,4.838,0,0,1,2.08,1.7A5.577,5.577,0,0,1,1865.12,400.839Zm-3.16.3a2.466,2.466,0,0,0-.84-1.811,2.852,2.852,0,0,0-1.87-.621,2.58,2.58,0,0,0-1.88.658,3.1,3.1,0,0,0-.84,1.774h5.43Z" transform="translate(-1838 -392)"/>
</svg>
