<svg xmlns="http://www.w3.org/2000/svg" width="22" height="22" viewBox="0 0 22 22">
  <metadata><?xpacket begin="﻿" id="W5M0MpCehiHzreSzNTczkc9d"?>
<x:xmpmeta xmlns:x="adobe:ns:meta/" x:xmptk="Adobe XMP Core 5.6-c142 79.160924, 2017/07/13-01:06:39        ">
   <rdf:RDF xmlns:rdf="http://www.w3.org/1999/02/22-rdf-syntax-ns#">
      <rdf:Description rdf:about=""/>
   </rdf:RDF>
</x:xmpmeta>
                                                                                                    
                                                                                                    
                                                                                                    
                                                                                                    
                                                                                                    
                                                                                                    
                                                                                                    
                                                                                                    
                                                                                                    
                                                                                                    
                                                                                                    
                                                                                                    
                                                                                                    
                                                                                                    
                                                                                                    
                                                                                                    
                                                                                                    
                                                                                                    
                                                                                                    
                                                                                                    
                           
<?xpacket end="w"?></metadata>
<defs>
    <style>
      .cls-1 {
        fill: #fbcd6c;
        fill-rule: evenodd;
      }
    </style>
  </defs>
  <path id="icon" class="cls-1" d="M904,2577a11,11,0,1,0,11,11A11,11,0,0,0,904,2577Zm6.74,5.7a8.535,8.535,0,0,1,1.829,4.9,16.539,16.539,0,0,0-3.508-.4h-0.008a14,14,0,0,0-2.486.22c-0.189-.46-0.381-0.91-0.574-1.33A13.359,13.359,0,0,0,910.739,2582.7Zm-6.74-3.28a8.567,8.567,0,0,1,5.351,1.88,11.136,11.136,0,0,1-4.213,3.02,30.713,30.713,0,0,0-2.961-4.7A8.437,8.437,0,0,1,904,2579.42Zm-3.79.89a26.482,26.482,0,0,1,3.062,4.67,24.844,24.844,0,0,1-6.777.95H896.36c-0.266,0-.5,0-0.686-0.01A8.636,8.636,0,0,1,900.209,2580.31Zm-4.791,7.69c0-.04,0-0.08,0-0.12,0.245,0.01.56,0.01,0.938,0.01h0a26.741,26.741,0,0,0,7.789-1.12q0.249,0.555.493,1.14a13.573,13.573,0,0,0-4.83,2.85,14.551,14.551,0,0,0-2.367,2.76A8.544,8.544,0,0,1,895.418,2588Zm8.581,8.58a8.519,8.519,0,0,1-5.1-1.69,12.312,12.312,0,0,1,1.99-2.45,11.745,11.745,0,0,1,4.459-2.7,42.282,42.282,0,0,1,1.7,6.28A8.563,8.563,0,0,1,904,2596.58Zm4.857-1.52a44.392,44.392,0,0,0-1.584-5.77,12.384,12.384,0,0,1,1.76-.12h0.025a15.051,15.051,0,0,1,3.368.4A8.6,8.6,0,0,1,908.856,2595.06Z" transform="translate(-893 -2577)"/>
</svg>
