<svg xmlns="http://www.w3.org/2000/svg" width="24" height="24" viewBox="0 0 24 24">
  <metadata><?xpacket begin="﻿" id="W5M0MpCehiHzreSzNTczkc9d"?>
<x:xmpmeta xmlns:x="adobe:ns:meta/" x:xmptk="Adobe XMP Core 5.6-c142 79.160924, 2017/07/13-01:06:39        ">
   <rdf:RDF xmlns:rdf="http://www.w3.org/1999/02/22-rdf-syntax-ns#">
      <rdf:Description rdf:about=""/>
   </rdf:RDF>
</x:xmpmeta>
                                                                                                    
                                                                                                    
                                                                                                    
                                                                                                    
                                                                                                    
                                                                                                    
                                                                                                    
                                                                                                    
                                                                                                    
                                                                                                    
                                                                                                    
                                                                                                    
                                                                                                    
                                                                                                    
                                                                                                    
                                                                                                    
                                                                                                    
                                                                                                    
                                                                                                    
                                                                                                    
                           
<?xpacket end="w"?></metadata>
<defs>
    <style>
      .cls-1 {
        fill: #d4d4d4;
        fill-rule: evenodd;
      }
    </style>
  </defs>
  <path id="icon" class="cls-1" d="M1862.89,449.867A2.342,2.342,0,0,0,1861,449h-18a3.15,3.15,0,0,0-2.27.867A2.708,2.708,0,0,0,1840,452v18a2.549,2.549,0,0,0,.73,2.058A3.216,3.216,0,0,0,1843,473h18a2.413,2.413,0,0,0,1.89-.942A2.958,2.958,0,0,0,1864,470V452A3.117,3.117,0,0,0,1862.89,449.867Zm-14.46,7.743a4.909,4.909,0,0,1,6.8,0,4.556,4.556,0,0,1,0,6.61,4.909,4.909,0,0,1-6.8,0A4.578,4.578,0,0,1,1848.43,457.61ZM1860,471h-16c-1.82-.063-2-2.2-2-2V459h3a7.86,7.86,0,0,0-.62,2.165,6.885,6.885,0,0,0,2.18,5.118,7.291,7.291,0,0,0,5.26,2.118,7.485,7.485,0,0,0,3.75-.969,7.361,7.361,0,0,0,2.72-2.634,6.975,6.975,0,0,0,.99-3.633A7.431,7.431,0,0,0,1859,459h3v10S1861.87,471.062,1860,471Zm1.6-16a2.65,2.65,0,0,1-.6,1.2c-0.21.209,0.58-.271-0.6,0h-3a1.245,1.245,0,0,1-.88-0.144,1.033,1.033,0,0,1-.31-0.766v-2.578a1.04,1.04,0,0,1,.31-0.758,1.614,1.614,0,0,1,.88-0.553h3a1.368,1.368,0,0,1,1.2,1.2V455Z" transform="translate(-1840 -449)"/>
</svg>
