<svg xmlns="http://www.w3.org/2000/svg" width="17.375" height="22" viewBox="0 0 17.375 22">
  <metadata><?xpacket begin="﻿" id="W5M0MpCehiHzreSzNTczkc9d"?>
<x:xmpmeta xmlns:x="adobe:ns:meta/" x:xmptk="Adobe XMP Core 5.6-c142 79.160924, 2017/07/13-01:06:39        ">
   <rdf:RDF xmlns:rdf="http://www.w3.org/1999/02/22-rdf-syntax-ns#">
      <rdf:Description rdf:about=""/>
   </rdf:RDF>
</x:xmpmeta>
                                                                                                    
                                                                                                    
                                                                                                    
                                                                                                    
                                                                                                    
                                                                                                    
                                                                                                    
                                                                                                    
                                                                                                    
                                                                                                    
                                                                                                    
                                                                                                    
                                                                                                    
                                                                                                    
                                                                                                    
                                                                                                    
                                                                                                    
                                                                                                    
                                                                                                    
                                                                                                    
                           
<?xpacket end="w"?></metadata>
<defs>
    <style>
      .cls-1 {
        fill: #424345;
        fill-rule: evenodd;
      }
    </style>
  </defs>
  <path id="icon" class="cls-1" d="M845.949,2589.72c1.081-1.88-.347-2.29-0.571-3.65-0.916-5.57,6.53-9.37,10.43-5.48,2.7,2.69.921,10.98-3.429,10.11-4.167-.82,2.041-7.41-1.285-8.7-2.7-1.06-4.138,3.21-2.856,5.33-0.753,3.65-2.371,7.09-1.715,11.66,2.124-1.51,2.841-4.42,3.428-7.44,1.068,0.64,1.64,1.3,3,1.4,5.022,0.39,7.828-4.93,7.14-9.83-0.608-4.35-5.015-6.56-9.714-6.04-3.716.41-7.419,3.36-7.574,7.59C842.711,2587.24,843.455,2589.18,845.949,2589.72Z" transform="translate(-842.813 -2577)"/>
</svg>
