<?xml version="1.0" encoding="UTF-8"?><!DOCTYPE svg PUBLIC "-//W3C//DTD SVG 1.1//EN" "http://www.w3.org/Graphics/SVG/1.1/DTD/svg11.dtd"><svg xmlns="http://www.w3.org/2000/svg"><defs>
        <style>
            .cls-1{fill:#ffd800;fill-rule:evenodd}
        </style>
    </defs><symbol id="icon-checkbox-pen-outline" viewBox="0 0 48.827 48.827">
    <path d="M48.15 6.05l-4.368-4.362a2.308 2.308 0 0 0-1.636-.677c-.593 0-1.186.225-1.636.676l-3.494 3.484 7.64 7.626 3.494-3.483a2.305 2.305 0 0 0 0-3.264z"/>
    <path d="M14.336 27.81l7.64 7.627 21.045-21.006-7.64-7.627z"/>
    <path d="M12.687 29.441l-1.631 9.253 9.271-1.627z"/>
    <path d="M33.807 42.816H5.001V14.011H25.33l5.01-5H3.234A3.243 3.243 0 0 0 0 12.245v32.338a3.243 3.243 0 0 0 3.234 3.233h32.339a3.242 3.242 0 0 0 3.232-3.233V21.462l-5 4.992.002 16.362z"/>
</symbol><symbol id="icon-clock-circular-outline" viewBox="0 0 97.16 97.16">
    <path d="M48.58 0C21.793 0 0 21.793 0 48.58s21.793 48.58 48.58 48.58 48.58-21.793 48.58-48.58S75.367 0 48.58 0zm0 86.823c-21.087 0-38.244-17.155-38.244-38.243S27.493 10.337 48.58 10.337 86.824 27.492 86.824 48.58 69.667 86.823 48.58 86.823z"/>
    <path d="M73.898 47.08H52.066V20.83a4 4 0 0 0-8 0v30.25a4 4 0 0 0 4 4h25.832a4 4 0 0 0 0-8z"/>
</symbol><symbol id="icon-comment" viewBox="0 0 511.626 511.626">
    <path d="M477.371 127.44c-22.843-28.074-53.871-50.249-93.076-66.523-39.204-16.272-82.035-24.41-128.478-24.41-34.643 0-67.762 4.805-99.357 14.417-31.595 9.611-58.812 22.602-81.653 38.97-22.845 16.37-41.018 35.832-54.534 58.385C6.757 170.833 0 194.484 0 219.228c0 28.549 8.61 55.3 25.837 80.234 17.227 24.931 40.778 45.871 70.664 62.811-2.096 7.611-4.57 14.846-7.426 21.693-2.855 6.852-5.424 12.474-7.708 16.851-2.286 4.377-5.376 9.233-9.281 14.562-3.899 5.328-6.849 9.089-8.848 11.275-1.997 2.19-5.28 5.812-9.851 10.849-4.565 5.048-7.517 8.329-8.848 9.855-.193.089-.953.952-2.285 2.567-1.331 1.615-1.999 2.423-1.999 2.423l-1.713 2.566c-.953 1.431-1.381 2.334-1.287 2.707.096.373-.094 1.331-.57 2.851-.477 1.526-.428 2.669.142 3.433v.284c.765 3.429 2.43 6.187 4.998 8.277 2.568 2.092 5.474 2.95 8.708 2.563 12.375-1.522 23.223-3.606 32.548-6.276 49.87-12.758 93.649-35.782 131.334-69.097 14.272 1.522 28.072 2.286 41.396 2.286 46.442 0 89.271-8.138 128.479-24.417 39.208-16.272 70.233-38.448 93.072-66.517 22.843-28.062 34.263-58.663 34.263-91.781.001-33.119-11.418-63.718-34.254-91.787z"/>
</symbol><symbol id="icon-delete" viewBox="0 0 348.333 348.334">
    <path d="M336.559 68.611L231.016 174.165l105.543 105.549c15.699 15.705 15.699 41.145 0 56.85-7.844 7.844-18.128 11.769-28.407 11.769-10.296 0-20.581-3.919-28.419-11.769L174.167 231.003 68.609 336.563c-7.843 7.844-18.128 11.769-28.416 11.769-10.285 0-20.563-3.919-28.413-11.769-15.699-15.698-15.699-41.139 0-56.85l105.54-105.549L11.774 68.611c-15.699-15.699-15.699-41.145 0-56.844 15.696-15.687 41.127-15.687 56.829 0l105.563 105.554L279.721 11.767c15.705-15.687 41.139-15.687 56.832 0 15.705 15.699 15.705 41.145.006 56.844z"/>
</symbol><symbol id="icon-male-user-shadow" viewBox="0 0 248.349 248.349">
    <g>
        <path d="M9.954 241.305h228.441c3.051 0 5.896-1.246 7.805-3.416 1.659-1.882 2.393-4.27 2.078-6.723-5.357-41.734-31.019-76.511-66.15-95.053-14.849 14.849-35.348 24.046-57.953 24.046s-43.105-9.197-57.953-24.046C31.09 154.65 5.423 189.432.071 231.166c-.315 2.453.424 4.846 2.078 6.723 1.909 2.17 4.754 3.416 7.805 3.416z"/>
        <path d="M72.699 127.09a72.826 72.826 0 0 0 4.166 4.019c12.586 11.259 29.137 18.166 47.309 18.166s34.723-6.913 47.309-18.166a72.838 72.838 0 0 0 4.166-4.019c1.327-1.398 2.622-2.828 3.84-4.329 9.861-12.211 15.8-27.717 15.8-44.6 0-39.216-31.906-71.116-71.116-71.116S53.059 38.95 53.059 78.16c0 16.883 5.939 32.39 15.8 44.6 1.213 1.502 2.507 2.927 3.84 4.33z"/>
    </g>
</symbol><symbol id="icon-reply-rew" viewBox="0 0 384 384">
    <path d="M0 352c53.3-74.7 128-108.8 234.7-108.8v87.5L384 181.3 234.7 32v85.3C85.3 138.7 21.3 245.3 0 352z"/>
</symbol><symbol id="icon-reply" viewBox="0 0 384 384">
    <path d="M149.333 117.333V32L0 181.333l149.333 149.333V243.2C256 243.2 330.667 277.333 384 352c-21.333-106.667-85.333-213.333-234.667-234.667z"/>
</symbol><symbol id="icon-star" viewBox="0 0 32 32">
    
    <path id="Star" class="cls-1" d="M170 368l2.7 6.432 7.3.443-5.625 4.416 1.8 6.709-6.175-3.693-6.176 3.693 1.8-6.709-5.624-4.416 7.3-.443zm0 26a16 16 0 1 1 16-16 16.019 16.019 0 0 1-16 16zm0-28a12 12 0 1 0 12 12 12.013 12.013 0 0 0-12-12z" transform="translate(-154 -362)"/>
</symbol></svg>