<?xml version="1.0" encoding="UTF-8"?><!DOCTYPE svg PUBLIC "-//W3C//DTD SVG 1.1//EN" "http://www.w3.org/Graphics/SVG/1.1/DTD/svg11.dtd"><svg xmlns="http://www.w3.org/2000/svg"><symbol id="icon-apple" viewBox="0 0 512 512">
    <path d="M395.748 272.046c-.646-64.841 52.88-95.938 55.271-97.483-30.075-44.01-76.925-50.039-93.62-50.736-39.871-4.037-77.798 23.474-98.033 23.474-20.184 0-51.409-22.877-84.476-22.276-43.458.646-83.529 25.269-105.906 64.19-45.152 78.35-11.563 194.42 32.445 257.963 21.504 31.104 47.146 66.038 80.813 64.79 32.421-1.294 44.681-20.979 83.878-20.979 39.196 0 50.215 20.979 84.524 20.335 34.888-.648 56.991-31.699 78.347-62.898 24.694-36.084 34.862-71.019 35.462-72.812-.775-.354-68.031-26.119-68.705-103.568zM331.28 81.761C349.149 60.082 361.21 30.005 357.92 0c-25.739 1.048-56.938 17.145-75.405 38.775-16.57 19.188-31.075 49.813-27.188 79.218 28.734 2.242 58.065-14.602 75.953-36.232z"/>
</symbol><symbol id="icon-crosses" viewBox="0 0 116 188">
    <title>
        737CD1A4-6879-4E27-BBAF-3A877879A220
    </title>
    <g fill-rule="evenodd">
        <path d="M108.818 181.525l.707-.707 5.657 5.657-.707.707z"/>
        <path d="M114.475 180.818l.707.707-5.657 5.657-.707-.707z"/>
        <path d="M108.818 169.525l.707-.707 5.657 5.657-.707.707z"/>
        <path d="M114.475 168.818l.707.707-5.657 5.657-.707-.707z"/>
        <path d="M108.818 157.525l.707-.707 5.657 5.657-.707.707z"/>
        <path d="M114.475 156.818l.707.707-5.657 5.657-.707-.707z"/>
        <path d="M108.818 145.525l.707-.707 5.657 5.657-.707.707z"/>
        <path d="M114.475 144.818l.707.707-5.657 5.657-.707-.707z"/>
        <path d="M108.818 133.525l.707-.707 5.657 5.657-.707.707z"/>
        <path d="M114.475 132.818l.707.707-5.657 5.657-.707-.707z"/>
        <path d="M108.818 121.525l.707-.707 5.657 5.657-.707.707z"/>
        <path d="M114.475 120.818l.707.707-5.657 5.657-.707-.707z"/>
        <path d="M108.818 109.525l.707-.707 5.657 5.657-.707.707z"/>
        <path d="M114.475 108.818l.707.707-5.657 5.657-.707-.707z"/>
        <path d="M108.818 97.525l.707-.707 5.657 5.657-.707.707z"/>
        <path d="M114.475 96.818l.707.707-5.657 5.657-.707-.707z"/>
        <path d="M108.818 85.525l.707-.707 5.657 5.657-.707.707z"/>
        <path d="M114.475 84.818l.707.707-5.657 5.657-.707-.707z"/>
        <path d="M108.818 73.525l.707-.707 5.657 5.657-.707.707z"/>
        <path d="M114.475 72.818l.707.707-5.657 5.657-.707-.707z"/>
        <path d="M108.818 61.525l.707-.707 5.657 5.657-.707.707z"/>
        <path d="M114.475 60.818l.707.707-5.657 5.657-.707-.707z"/>
        <path d="M108.818 49.525l.707-.707 5.657 5.657-.707.707z"/>
        <path d="M114.475 48.818l.707.707-5.657 5.657-.707-.707z"/>
        <path d="M108.818 37.525l.707-.707 5.657 5.657-.707.707z"/>
        <path d="M114.475 36.818l.707.707-5.657 5.657-.707-.707z"/>
        <path d="M108.818 25.525l.707-.707 5.657 5.657-.707.707z"/>
        <path d="M114.475 24.818l.707.707-5.657 5.657-.707-.707z"/>
        <path d="M108.818 13.525l.707-.707 5.657 5.657-.707.707z"/>
        <path d="M114.475 12.818l.707.707-5.657 5.657-.707-.707z"/>
        <path d="M108.818 1.525l.707-.707 5.657 5.657-.707.707z"/>
        <path d="M114.475.818l.707.707-5.657 5.657-.707-.707z"/>
        <path d="M96.818 181.525l.707-.707 5.657 5.657-.707.707z"/>
        <path d="M102.475 180.818l.707.707-5.657 5.657-.707-.707z"/>
        <path d="M96.818 169.525l.707-.707 5.657 5.657-.707.707z"/>
        <path d="M102.475 168.818l.707.707-5.657 5.657-.707-.707z"/>
        <path d="M96.818 157.525l.707-.707 5.657 5.657-.707.707z"/>
        <path d="M102.475 156.818l.707.707-5.657 5.657-.707-.707z"/>
        <path d="M96.818 145.525l.707-.707 5.657 5.657-.707.707z"/>
        <path d="M102.475 144.818l.707.707-5.657 5.657-.707-.707z"/>
        <path d="M96.818 133.525l.707-.707 5.657 5.657-.707.707z"/>
        <path d="M102.475 132.818l.707.707-5.657 5.657-.707-.707z"/>
        <path d="M96.818 121.525l.707-.707 5.657 5.657-.707.707z"/>
        <path d="M102.475 120.818l.707.707-5.657 5.657-.707-.707z"/>
        <path d="M96.818 109.525l.707-.707 5.657 5.657-.707.707z"/>
        <path d="M102.475 108.818l.707.707-5.657 5.657-.707-.707z"/>
        <path d="M96.818 97.525l.707-.707 5.657 5.657-.707.707z"/>
        <path d="M102.475 96.818l.707.707-5.657 5.657-.707-.707z"/>
        <path d="M96.818 85.525l.707-.707 5.657 5.657-.707.707z"/>
        <path d="M102.475 84.818l.707.707-5.657 5.657-.707-.707z"/>
        <path d="M96.818 73.525l.707-.707 5.657 5.657-.707.707z"/>
        <path d="M102.475 72.818l.707.707-5.657 5.657-.707-.707z"/>
        <path d="M96.818 61.525l.707-.707 5.657 5.657-.707.707z"/>
        <path d="M102.475 60.818l.707.707-5.657 5.657-.707-.707z"/>
        <path d="M96.818 49.525l.707-.707 5.657 5.657-.707.707z"/>
        <path d="M102.475 48.818l.707.707-5.657 5.657-.707-.707z"/>
        <path d="M96.818 37.525l.707-.707 5.657 5.657-.707.707z"/>
        <path d="M102.475 36.818l.707.707-5.657 5.657-.707-.707z"/>
        <path d="M96.818 25.525l.707-.707 5.657 5.657-.707.707z"/>
        <path d="M102.475 24.818l.707.707-5.657 5.657-.707-.707z"/>
        <path d="M96.818 13.525l.707-.707 5.657 5.657-.707.707z"/>
        <path d="M102.475 12.818l.707.707-5.657 5.657-.707-.707z"/>
        <path d="M96.818 1.525l.707-.707 5.657 5.657-.707.707z"/>
        <path d="M102.475.818l.707.707-5.657 5.657-.707-.707z"/>
        <path d="M84.818 181.525l.707-.707 5.657 5.657-.707.707z"/>
        <path d="M90.475 180.818l.707.707-5.657 5.657-.707-.707z"/>
        <path d="M84.818 169.525l.707-.707 5.657 5.657-.707.707z"/>
        <path d="M90.475 168.818l.707.707-5.657 5.657-.707-.707z"/>
        <path d="M84.818 157.525l.707-.707 5.657 5.657-.707.707z"/>
        <path d="M90.475 156.818l.707.707-5.657 5.657-.707-.707z"/>
        <path d="M84.818 145.525l.707-.707 5.657 5.657-.707.707z"/>
        <path d="M90.475 144.818l.707.707-5.657 5.657-.707-.707z"/>
        <path d="M84.818 133.525l.707-.707 5.657 5.657-.707.707z"/>
        <path d="M90.475 132.818l.707.707-5.657 5.657-.707-.707z"/>
        <path d="M84.818 121.525l.707-.707 5.657 5.657-.707.707z"/>
        <path d="M90.475 120.818l.707.707-5.657 5.657-.707-.707z"/>
        <path d="M84.818 109.525l.707-.707 5.657 5.657-.707.707z"/>
        <path d="M90.475 108.818l.707.707-5.657 5.657-.707-.707z"/>
        <path d="M84.818 97.525l.707-.707 5.657 5.657-.707.707z"/>
        <path d="M90.475 96.818l.707.707-5.657 5.657-.707-.707z"/>
        <path d="M84.818 85.525l.707-.707 5.657 5.657-.707.707z"/>
        <path d="M90.475 84.818l.707.707-5.657 5.657-.707-.707z"/>
        <path d="M84.818 73.525l.707-.707 5.657 5.657-.707.707z"/>
        <path d="M90.475 72.818l.707.707-5.657 5.657-.707-.707z"/>
        <path d="M84.818 61.525l.707-.707 5.657 5.657-.707.707z"/>
        <path d="M90.475 60.818l.707.707-5.657 5.657-.707-.707z"/>
        <path d="M84.818 49.525l.707-.707 5.657 5.657-.707.707z"/>
        <path d="M90.475 48.818l.707.707-5.657 5.657-.707-.707z"/>
        <path d="M84.818 37.525l.707-.707 5.657 5.657-.707.707z"/>
        <path d="M90.475 36.818l.707.707-5.657 5.657-.707-.707z"/>
        <path d="M84.818 25.525l.707-.707 5.657 5.657-.707.707z"/>
        <path d="M90.475 24.818l.707.707-5.657 5.657-.707-.707z"/>
        <path d="M84.818 13.525l.707-.707 5.657 5.657-.707.707z"/>
        <path d="M90.475 12.818l.707.707-5.657 5.657-.707-.707z"/>
        <path d="M84.818 1.525l.707-.707 5.657 5.657-.707.707z"/>
        <path d="M90.475.818l.707.707-5.657 5.657-.707-.707z"/>
        <path d="M72.818 181.525l.707-.707 5.657 5.657-.707.707z"/>
        <path d="M78.475 180.818l.707.707-5.657 5.657-.707-.707z"/>
        <path d="M72.818 169.525l.707-.707 5.657 5.657-.707.707z"/>
        <path d="M78.475 168.818l.707.707-5.657 5.657-.707-.707z"/>
        <path d="M72.818 157.525l.707-.707 5.657 5.657-.707.707z"/>
        <path d="M78.475 156.818l.707.707-5.657 5.657-.707-.707z"/>
        <path d="M72.818 145.525l.707-.707 5.657 5.657-.707.707z"/>
        <path d="M78.475 144.818l.707.707-5.657 5.657-.707-.707z"/>
        <path d="M72.818 133.525l.707-.707 5.657 5.657-.707.707z"/>
        <path d="M78.475 132.818l.707.707-5.657 5.657-.707-.707z"/>
        <path d="M72.818 121.525l.707-.707 5.657 5.657-.707.707z"/>
        <path d="M78.475 120.818l.707.707-5.657 5.657-.707-.707z"/>
        <path d="M72.818 109.525l.707-.707 5.657 5.657-.707.707z"/>
        <path d="M78.475 108.818l.707.707-5.657 5.657-.707-.707z"/>
        <path d="M72.818 97.525l.707-.707 5.657 5.657-.707.707z"/>
        <path d="M78.475 96.818l.707.707-5.657 5.657-.707-.707z"/>
        <path d="M72.818 85.525l.707-.707 5.657 5.657-.707.707z"/>
        <path d="M78.475 84.818l.707.707-5.657 5.657-.707-.707z"/>
        <path d="M72.818 73.525l.707-.707 5.657 5.657-.707.707z"/>
        <path d="M78.475 72.818l.707.707-5.657 5.657-.707-.707z"/>
        <path d="M72.818 61.525l.707-.707 5.657 5.657-.707.707z"/>
        <path d="M78.475 60.818l.707.707-5.657 5.657-.707-.707z"/>
        <path d="M72.818 49.525l.707-.707 5.657 5.657-.707.707z"/>
        <path d="M78.475 48.818l.707.707-5.657 5.657-.707-.707z"/>
        <path d="M72.818 37.525l.707-.707 5.657 5.657-.707.707z"/>
        <path d="M78.475 36.818l.707.707-5.657 5.657-.707-.707z"/>
        <path d="M72.818 25.525l.707-.707 5.657 5.657-.707.707z"/>
        <path d="M78.475 24.818l.707.707-5.657 5.657-.707-.707z"/>
        <path d="M72.818 13.525l.707-.707 5.657 5.657-.707.707z"/>
        <path d="M78.475 12.818l.707.707-5.657 5.657-.707-.707z"/>
        <path d="M72.818 1.525l.707-.707 5.657 5.657-.707.707z"/>
        <path d="M78.475.818l.707.707-5.657 5.657-.707-.707z"/>
        <path d="M60.818 181.525l.707-.707 5.657 5.657-.707.707z"/>
        <path d="M66.475 180.818l.707.707-5.657 5.657-.707-.707z"/>
        <path d="M60.818 169.525l.707-.707 5.657 5.657-.707.707z"/>
        <path d="M66.475 168.818l.707.707-5.657 5.657-.707-.707z"/>
        <path d="M60.818 157.525l.707-.707 5.657 5.657-.707.707z"/>
        <path d="M66.475 156.818l.707.707-5.657 5.657-.707-.707z"/>
        <path d="M60.818 145.525l.707-.707 5.657 5.657-.707.707z"/>
        <path d="M66.475 144.818l.707.707-5.657 5.657-.707-.707z"/>
        <path d="M60.818 133.525l.707-.707 5.657 5.657-.707.707z"/>
        <path d="M66.475 132.818l.707.707-5.657 5.657-.707-.707z"/>
        <path d="M60.818 121.525l.707-.707 5.657 5.657-.707.707z"/>
        <path d="M66.475 120.818l.707.707-5.657 5.657-.707-.707z"/>
        <path d="M60.818 109.525l.707-.707 5.657 5.657-.707.707z"/>
        <path d="M66.475 108.818l.707.707-5.657 5.657-.707-.707z"/>
        <path d="M60.818 97.525l.707-.707 5.657 5.657-.707.707z"/>
        <path d="M66.475 96.818l.707.707-5.657 5.657-.707-.707z"/>
        <path d="M60.818 85.525l.707-.707 5.657 5.657-.707.707z"/>
        <path d="M66.475 84.818l.707.707-5.657 5.657-.707-.707z"/>
        <path d="M60.818 73.525l.707-.707 5.657 5.657-.707.707z"/>
        <path d="M66.475 72.818l.707.707-5.657 5.657-.707-.707z"/>
        <path d="M60.818 61.525l.707-.707 5.657 5.657-.707.707z"/>
        <path d="M66.475 60.818l.707.707-5.657 5.657-.707-.707z"/>
        <path d="M60.818 49.525l.707-.707 5.657 5.657-.707.707z"/>
        <path d="M66.475 48.818l.707.707-5.657 5.657-.707-.707z"/>
        <path d="M60.818 37.525l.707-.707 5.657 5.657-.707.707z"/>
        <path d="M66.475 36.818l.707.707-5.657 5.657-.707-.707z"/>
        <path d="M60.818 25.525l.707-.707 5.657 5.657-.707.707z"/>
        <path d="M66.475 24.818l.707.707-5.657 5.657-.707-.707z"/>
        <path d="M60.818 13.525l.707-.707 5.657 5.657-.707.707z"/>
        <path d="M66.475 12.818l.707.707-5.657 5.657-.707-.707z"/>
        <path d="M60.818 1.525l.707-.707 5.657 5.657-.707.707z"/>
        <path d="M66.475.818l.707.707-5.657 5.657-.707-.707z"/>
        <g>
            <path d="M48.818 181.525l.707-.707 5.657 5.657-.707.707z"/>
            <path d="M54.475 180.818l.707.707-5.657 5.657-.707-.707z"/>
        </g>
        <g>
            <path d="M48.818 169.525l.707-.707 5.657 5.657-.707.707z"/>
            <path d="M54.475 168.818l.707.707-5.657 5.657-.707-.707z"/>
        </g>
        <g>
            <path d="M48.818 157.525l.707-.707 5.657 5.657-.707.707z"/>
            <path d="M54.475 156.818l.707.707-5.657 5.657-.707-.707z"/>
        </g>
        <g>
            <path d="M48.818 145.525l.707-.707 5.657 5.657-.707.707z"/>
            <path d="M54.475 144.818l.707.707-5.657 5.657-.707-.707z"/>
        </g>
        <g>
            <path d="M48.818 133.525l.707-.707 5.657 5.657-.707.707z"/>
            <path d="M54.475 132.818l.707.707-5.657 5.657-.707-.707z"/>
        </g>
        <g>
            <path d="M48.818 121.525l.707-.707 5.657 5.657-.707.707z"/>
            <path d="M54.475 120.818l.707.707-5.657 5.657-.707-.707z"/>
        </g>
        <g>
            <path d="M48.818 109.525l.707-.707 5.657 5.657-.707.707z"/>
            <path d="M54.475 108.818l.707.707-5.657 5.657-.707-.707z"/>
        </g>
        <g>
            <path d="M48.818 97.525l.707-.707 5.657 5.657-.707.707z"/>
            <path d="M54.475 96.818l.707.707-5.657 5.657-.707-.707z"/>
        </g>
        <g>
            <path d="M48.818 85.525l.707-.707 5.657 5.657-.707.707z"/>
            <path d="M54.475 84.818l.707.707-5.657 5.657-.707-.707z"/>
        </g>
        <g>
            <path d="M48.818 73.525l.707-.707 5.657 5.657-.707.707z"/>
            <path d="M54.475 72.818l.707.707-5.657 5.657-.707-.707z"/>
        </g>
        <g>
            <path d="M48.818 61.525l.707-.707 5.657 5.657-.707.707z"/>
            <path d="M54.475 60.818l.707.707-5.657 5.657-.707-.707z"/>
        </g>
        <g>
            <path d="M48.818 49.525l.707-.707 5.657 5.657-.707.707z"/>
            <path d="M54.475 48.818l.707.707-5.657 5.657-.707-.707z"/>
        </g>
        <g>
            <path d="M48.818 37.525l.707-.707 5.657 5.657-.707.707z"/>
            <path d="M54.475 36.818l.707.707-5.657 5.657-.707-.707z"/>
        </g>
        <g>
            <path d="M48.818 25.525l.707-.707 5.657 5.657-.707.707z"/>
            <path d="M54.475 24.818l.707.707-5.657 5.657-.707-.707z"/>
        </g>
        <g>
            <path d="M48.818 13.525l.707-.707 5.657 5.657-.707.707z"/>
            <path d="M54.475 12.818l.707.707-5.657 5.657-.707-.707z"/>
        </g>
        <g>
            <path d="M48.818 1.525l.707-.707 5.657 5.657-.707.707z"/>
            <path d="M54.475.818l.707.707-5.657 5.657-.707-.707z"/>
        </g>
        <g>
            <path d="M36.818 181.525l.707-.707 5.657 5.657-.707.707z"/>
            <path d="M42.475 180.818l.707.707-5.657 5.657-.707-.707z"/>
        </g>
        <g>
            <path d="M36.818 169.525l.707-.707 5.657 5.657-.707.707z"/>
            <path d="M42.475 168.818l.707.707-5.657 5.657-.707-.707z"/>
        </g>
        <g>
            <path d="M36.818 157.525l.707-.707 5.657 5.657-.707.707z"/>
            <path d="M42.475 156.818l.707.707-5.657 5.657-.707-.707z"/>
        </g>
        <g>
            <path d="M36.818 145.525l.707-.707 5.657 5.657-.707.707z"/>
            <path d="M42.475 144.818l.707.707-5.657 5.657-.707-.707z"/>
        </g>
        <g>
            <path d="M36.818 133.525l.707-.707 5.657 5.657-.707.707z"/>
            <path d="M42.475 132.818l.707.707-5.657 5.657-.707-.707z"/>
        </g>
        <g>
            <path d="M36.818 121.525l.707-.707 5.657 5.657-.707.707z"/>
            <path d="M42.475 120.818l.707.707-5.657 5.657-.707-.707z"/>
        </g>
        <g>
            <path d="M36.818 109.525l.707-.707 5.657 5.657-.707.707z"/>
            <path d="M42.475 108.818l.707.707-5.657 5.657-.707-.707z"/>
        </g>
        <g>
            <path d="M36.818 97.525l.707-.707 5.657 5.657-.707.707z"/>
            <path d="M42.475 96.818l.707.707-5.657 5.657-.707-.707z"/>
        </g>
        <g>
            <path d="M36.818 85.525l.707-.707 5.657 5.657-.707.707z"/>
            <path d="M42.475 84.818l.707.707-5.657 5.657-.707-.707z"/>
        </g>
        <g>
            <path d="M36.818 73.525l.707-.707 5.657 5.657-.707.707z"/>
            <path d="M42.475 72.818l.707.707-5.657 5.657-.707-.707z"/>
        </g>
        <g>
            <path d="M36.818 61.525l.707-.707 5.657 5.657-.707.707z"/>
            <path d="M42.475 60.818l.707.707-5.657 5.657-.707-.707z"/>
        </g>
        <g>
            <path d="M36.818 49.525l.707-.707 5.657 5.657-.707.707z"/>
            <path d="M42.475 48.818l.707.707-5.657 5.657-.707-.707z"/>
        </g>
        <g>
            <path d="M36.818 37.525l.707-.707 5.657 5.657-.707.707z"/>
            <path d="M42.475 36.818l.707.707-5.657 5.657-.707-.707z"/>
        </g>
        <g>
            <path d="M36.818 25.525l.707-.707 5.657 5.657-.707.707z"/>
            <path d="M42.475 24.818l.707.707-5.657 5.657-.707-.707z"/>
        </g>
        <g>
            <path d="M36.818 13.525l.707-.707 5.657 5.657-.707.707z"/>
            <path d="M42.475 12.818l.707.707-5.657 5.657-.707-.707z"/>
        </g>
        <g>
            <path d="M36.818 1.525l.707-.707 5.657 5.657-.707.707z"/>
            <path d="M42.475.818l.707.707-5.657 5.657-.707-.707z"/>
        </g>
        <g>
            <path d="M24.818 181.525l.707-.707 5.657 5.657-.707.707z"/>
            <path d="M30.475 180.818l.707.707-5.657 5.657-.707-.707z"/>
        </g>
        <g>
            <path d="M24.818 169.525l.707-.707 5.657 5.657-.707.707z"/>
            <path d="M30.475 168.818l.707.707-5.657 5.657-.707-.707z"/>
        </g>
        <g>
            <path d="M24.818 157.525l.707-.707 5.657 5.657-.707.707z"/>
            <path d="M30.475 156.818l.707.707-5.657 5.657-.707-.707z"/>
        </g>
        <g>
            <path d="M24.818 145.525l.707-.707 5.657 5.657-.707.707z"/>
            <path d="M30.475 144.818l.707.707-5.657 5.657-.707-.707z"/>
        </g>
        <g>
            <path d="M24.818 133.525l.707-.707 5.657 5.657-.707.707z"/>
            <path d="M30.475 132.818l.707.707-5.657 5.657-.707-.707z"/>
        </g>
        <g>
            <path d="M24.818 121.525l.707-.707 5.657 5.657-.707.707z"/>
            <path d="M30.475 120.818l.707.707-5.657 5.657-.707-.707z"/>
        </g>
        <g>
            <path d="M24.818 109.525l.707-.707 5.657 5.657-.707.707z"/>
            <path d="M30.475 108.818l.707.707-5.657 5.657-.707-.707z"/>
        </g>
        <g>
            <path d="M24.818 97.525l.707-.707 5.657 5.657-.707.707z"/>
            <path d="M30.475 96.818l.707.707-5.657 5.657-.707-.707z"/>
        </g>
        <g>
            <path d="M24.818 85.525l.707-.707 5.657 5.657-.707.707z"/>
            <path d="M30.475 84.818l.707.707-5.657 5.657-.707-.707z"/>
        </g>
        <g>
            <path d="M24.818 73.525l.707-.707 5.657 5.657-.707.707z"/>
            <path d="M30.475 72.818l.707.707-5.657 5.657-.707-.707z"/>
        </g>
        <g>
            <path d="M24.818 61.525l.707-.707 5.657 5.657-.707.707z"/>
            <path d="M30.475 60.818l.707.707-5.657 5.657-.707-.707z"/>
        </g>
        <g>
            <path d="M24.818 49.525l.707-.707 5.657 5.657-.707.707z"/>
            <path d="M30.475 48.818l.707.707-5.657 5.657-.707-.707z"/>
        </g>
        <g>
            <path d="M24.818 37.525l.707-.707 5.657 5.657-.707.707z"/>
            <path d="M30.475 36.818l.707.707-5.657 5.657-.707-.707z"/>
        </g>
        <g>
            <path d="M24.818 25.525l.707-.707 5.657 5.657-.707.707z"/>
            <path d="M30.475 24.818l.707.707-5.657 5.657-.707-.707z"/>
        </g>
        <g>
            <path d="M24.818 13.525l.707-.707 5.657 5.657-.707.707z"/>
            <path d="M30.475 12.818l.707.707-5.657 5.657-.707-.707z"/>
        </g>
        <g>
            <path d="M24.818 1.525l.707-.707 5.657 5.657-.707.707z"/>
            <path d="M30.475.818l.707.707-5.657 5.657-.707-.707z"/>
        </g>
        <g>
            <path d="M12.818 181.525l.707-.707 5.657 5.657-.707.707z"/>
            <path d="M18.475 180.818l.707.707-5.657 5.657-.707-.707z"/>
        </g>
        <g>
            <path d="M12.818 169.525l.707-.707 5.657 5.657-.707.707z"/>
            <path d="M18.475 168.818l.707.707-5.657 5.657-.707-.707z"/>
        </g>
        <g>
            <path d="M12.818 157.525l.707-.707 5.657 5.657-.707.707z"/>
            <path d="M18.475 156.818l.707.707-5.657 5.657-.707-.707z"/>
        </g>
        <g>
            <path d="M12.818 145.525l.707-.707 5.657 5.657-.707.707z"/>
            <path d="M18.475 144.818l.707.707-5.657 5.657-.707-.707z"/>
        </g>
        <g>
            <path d="M12.818 133.525l.707-.707 5.657 5.657-.707.707z"/>
            <path d="M18.475 132.818l.707.707-5.657 5.657-.707-.707z"/>
        </g>
        <g>
            <path d="M12.818 121.525l.707-.707 5.657 5.657-.707.707z"/>
            <path d="M18.475 120.818l.707.707-5.657 5.657-.707-.707z"/>
        </g>
        <g>
            <path d="M12.818 109.525l.707-.707 5.657 5.657-.707.707z"/>
            <path d="M18.475 108.818l.707.707-5.657 5.657-.707-.707z"/>
        </g>
        <g>
            <path d="M12.818 97.525l.707-.707 5.657 5.657-.707.707z"/>
            <path d="M18.475 96.818l.707.707-5.657 5.657-.707-.707z"/>
        </g>
        <g>
            <path d="M12.818 85.525l.707-.707 5.657 5.657-.707.707z"/>
            <path d="M18.475 84.818l.707.707-5.657 5.657-.707-.707z"/>
        </g>
        <g>
            <path d="M12.818 73.525l.707-.707 5.657 5.657-.707.707z"/>
            <path d="M18.475 72.818l.707.707-5.657 5.657-.707-.707z"/>
        </g>
        <g>
            <path d="M12.818 61.525l.707-.707 5.657 5.657-.707.707z"/>
            <path d="M18.475 60.818l.707.707-5.657 5.657-.707-.707z"/>
        </g>
        <g>
            <path d="M12.818 49.525l.707-.707 5.657 5.657-.707.707z"/>
            <path d="M18.475 48.818l.707.707-5.657 5.657-.707-.707z"/>
        </g>
        <g>
            <path d="M12.818 37.525l.707-.707 5.657 5.657-.707.707z"/>
            <path d="M18.475 36.818l.707.707-5.657 5.657-.707-.707z"/>
        </g>
        <g>
            <path d="M12.818 25.525l.707-.707 5.657 5.657-.707.707z"/>
            <path d="M18.475 24.818l.707.707-5.657 5.657-.707-.707z"/>
        </g>
        <g>
            <path d="M12.818 13.525l.707-.707 5.657 5.657-.707.707z"/>
            <path d="M18.475 12.818l.707.707-5.657 5.657-.707-.707z"/>
        </g>
        <g>
            <path d="M12.818 1.525l.707-.707 5.657 5.657-.707.707z"/>
            <path d="M18.475.818l.707.707-5.657 5.657-.707-.707z"/>
        </g>
        <g>
            <path d="M.818 181.525l.707-.707 5.657 5.657-.707.707z"/>
            <path d="M6.475 180.818l.707.707-5.657 5.657-.707-.707z"/>
        </g>
        <g>
            <path d="M.818 169.525l.707-.707 5.657 5.657-.707.707z"/>
            <path d="M6.475 168.818l.707.707-5.657 5.657-.707-.707z"/>
        </g>
        <g>
            <path d="M.818 157.525l.707-.707 5.657 5.657-.707.707z"/>
            <path d="M6.475 156.818l.707.707-5.657 5.657-.707-.707z"/>
        </g>
        <g>
            <path d="M.818 145.525l.707-.707 5.657 5.657-.707.707z"/>
            <path d="M6.475 144.818l.707.707-5.657 5.657-.707-.707z"/>
        </g>
        <g>
            <path d="M.818 133.525l.707-.707 5.657 5.657-.707.707z"/>
            <path d="M6.475 132.818l.707.707-5.657 5.657-.707-.707z"/>
        </g>
        <g>
            <path d="M.818 121.525l.707-.707 5.657 5.657-.707.707z"/>
            <path d="M6.475 120.818l.707.707-5.657 5.657-.707-.707z"/>
        </g>
        <g>
            <path d="M.818 109.525l.707-.707 5.657 5.657-.707.707z"/>
            <path d="M6.475 108.818l.707.707-5.657 5.657-.707-.707z"/>
        </g>
        <g>
            <path d="M.818 97.525l.707-.707 5.657 5.657-.707.707z"/>
            <path d="M6.475 96.818l.707.707-5.657 5.657-.707-.707z"/>
        </g>
        <g>
            <path d="M.818 85.525l.707-.707 5.657 5.657-.707.707z"/>
            <path d="M6.475 84.818l.707.707-5.657 5.657-.707-.707z"/>
        </g>
        <g>
            <path d="M.818 73.525l.707-.707 5.657 5.657-.707.707z"/>
            <path d="M6.475 72.818l.707.707-5.657 5.657-.707-.707z"/>
        </g>
        <g>
            <path d="M.818 61.525l.707-.707 5.657 5.657-.707.707z"/>
            <path d="M6.475 60.818l.707.707-5.657 5.657-.707-.707z"/>
        </g>
        <g>
            <path d="M.818 49.525l.707-.707 5.657 5.657-.707.707z"/>
            <path d="M6.475 48.818l.707.707-5.657 5.657-.707-.707z"/>
        </g>
        <g>
            <path d="M.818 37.525l.707-.707 5.657 5.657-.707.707z"/>
            <path d="M6.475 36.818l.707.707-5.657 5.657-.707-.707z"/>
        </g>
        <g>
            <path d="M.818 25.525l.707-.707 5.657 5.657-.707.707z"/>
            <path d="M6.475 24.818l.707.707-5.657 5.657-.707-.707z"/>
        </g>
        <g>
            <path d="M.818 13.525l.707-.707 5.657 5.657-.707.707z"/>
            <path d="M6.475 12.818l.707.707-5.657 5.657-.707-.707z"/>
        </g>
        <g>
            <path d="M.818 1.525l.707-.707 5.657 5.657-.707.707z"/>
            <path d="M6.475.818l.707.707-5.657 5.657-.707-.707z"/>
        </g>
    </g>
</symbol><symbol id="icon-facebook-logo" viewBox="0 0 430.113 430.114">
    <path d="M158.081 83.3v59.218h-43.385v72.412h43.385v215.183h89.122V214.936h59.805s5.601-34.721 8.316-72.685H247.54V92.74c0-7.4 9.717-17.354 19.321-17.354h48.557V.001h-66.021C155.878-.004 158.081 72.48 158.081 83.3z"/>
</symbol><symbol id="icon-google-play" viewBox="0 0 505.499 505.499">
    <path d="M471.497 234.466l-92.082-53.135-75.733 73.207 69.215 66.907 98.599-56.91c5.432-3.133 8.678-8.756 8.678-15.03.001-6.275-3.245-11.898-8.677-15.039z"/>
    <path d="M363.785 172.301l-101.332-58.498L40.375 0l250.828 242.471z"/>
    <path d="M44.063 505.499l218.771-120.511 94.434-54.515-66.065-63.869z"/>
    <path d="M25.559 9.815l-.235 489.671 253.397-244.953z"/>
</symbol><symbol id="icon-group-28" viewBox="0 0 61 61">
    <title>
        46992F8C-5823-426E-A842-252A51B1D894
    </title>
    <g fill-rule="evenodd">
        <circle cx="30.5" cy="30.5" r="30.5"/>
        <g>
            <path d="M31.057 43.876v-3.889a6.403 6.403 0 1 1 0-7.358v-7.3a8.487 8.487 0 0 0-1.164-.081h-8.15a8.15 8.15 0 0 0-8.15 8.15v6.985a6.985 6.985 0 0 0 6.986 6.985h10.478a6.963 6.963 0 0 0 5.21-2.328h-4.045a1.168 1.168 0 0 1-1.165-1.164z"/>
            <path d="M25.236 34.562H26.4c.322 0 .583.26.583.582h1.164c0-.965-.782-1.746-1.747-1.746v-.583h-1.164v.583a1.746 1.746 0 0 0 0 3.492H26.4a.582.582 0 0 1 0 1.164h-1.164a.582.582 0 0 1-.582-.582H23.49c0 .965.782 1.747 1.746 1.747v.582H26.4v-.582a1.746 1.746 0 0 0 0-3.493h-1.164a.582.582 0 0 1 0-1.164z"/>
            <path d="M21.161 35.726h1.165v1.164H21.16z"/>
            <path d="M46.193 23.501H32.222c-.431.002-.846.164-1.165.454v-.454a2.914 2.914 0 0 0 2.911-2.91v-6.986a.582.582 0 0 0-.582-.582 3.661 3.661 0 0 0-2.202.683 2.544 2.544 0 0 1-1.584.505 2.503 2.503 0 0 1-1.579-.513 3.838 3.838 0 0 0-4.412 0 2.501 2.501 0 0 1-1.578.513 2.53 2.53 0 0 1-1.58-.505 3.661 3.661 0 0 0-2.2-.683.582.582 0 0 0-.582.582v6.986a2.914 2.914 0 0 0 2.91 2.91v1.251a8.739 8.739 0 0 0-7.567 8.646v6.985a7.576 7.576 0 0 0 7.567 7.568h10.478a7.572 7.572 0 0 0 5.45-2.329h9.686c.964 0 1.746-.782 1.746-1.746V25.248c0-.965-.782-1.747-1.746-1.747zM30.475 39.785a5.821 5.821 0 1 1 0-6.954v6.954zM18.833 20.591V14.24c.36.083.698.237.998.452a3.66 3.66 0 0 0 2.2.683 3.617 3.617 0 0 0 2.205-.699 2.684 2.684 0 0 1 3.158 0c.64.47 1.415.714 2.208.7a3.661 3.661 0 0 0 2.202-.684c.3-.215.64-.37 1-.453v6.352c0 .964-.782 1.746-1.747 1.746H29.97l.5-4.002-1.154-.145-.519 4.147H26.4v-4.075h-1.164v4.075H22.84l-.518-4.147-1.155.145.5 4.002H20.58a1.746 1.746 0 0 1-1.746-1.746zm2.91 2.91h8.15v1.165h-8.15V23.5zm9.314 23.285H20.58a6.41 6.41 0 0 1-6.403-6.403v-6.985a7.576 7.576 0 0 1 7.567-7.568h8.15c.192 0 .387.008.582.022v5.26a6.986 6.986 0 1 0 0 10.393v2.37c0 .965.782 1.747 1.747 1.747h2.52a6.42 6.42 0 0 1-3.685 1.164zm15.718-2.91c0 .321-.261.582-.582.582H32.222a.582.582 0 0 1-.582-.582V25.248c0-.322.26-.582.582-.582h13.97c.322 0 .583.26.583.582v18.628z" fill-rule="nonzero"/>
            <path d="M45.028 25.83H33.386a.582.582 0 0 0-.582.582v3.493c0 .321.26.582.582.582h11.642c.322 0 .582-.26.582-.582v-3.493a.582.582 0 0 0-.582-.582zm-.582 3.493H33.968v-2.329h10.478v2.329z" fill-rule="nonzero"/>
            <path d="M34.55 31.651a1.746 1.746 0 1 0 0 3.493 1.746 1.746 0 0 0 0-3.493zm0 2.329a.582.582 0 1 1 0-1.165.582.582 0 0 1 0 1.165z" fill-rule="nonzero"/>
            <path d="M39.207 31.651a1.746 1.746 0 1 0 0 3.493 1.746 1.746 0 0 0 0-3.493zm0 2.329a.582.582 0 1 1 0-1.165.582.582 0 0 1 0 1.165z" fill-rule="nonzero"/>
            <path d="M43.864 31.651a1.746 1.746 0 1 0 0 3.493 1.746 1.746 0 0 0 0-3.493zm0 2.329a.582.582 0 1 1 0-1.165.582.582 0 0 1 0 1.165z" fill-rule="nonzero"/>
            <path d="M34.55 35.726a1.746 1.746 0 1 0 0 3.493 1.746 1.746 0 0 0 0-3.493zm0 2.328a.582.582 0 1 1 0-1.164.582.582 0 0 1 0 1.164z" fill-rule="nonzero"/>
            <path d="M39.207 35.726a1.746 1.746 0 1 0 0 3.493 1.746 1.746 0 0 0 0-3.493zm0 2.328a.582.582 0 1 1 0-1.164.582.582 0 0 1 0 1.164z" fill-rule="nonzero"/>
            <path d="M43.864 35.726a1.746 1.746 0 1 0 0 3.493 1.746 1.746 0 0 0 0-3.493zm0 2.328a.582.582 0 1 1 0-1.164.582.582 0 0 1 0 1.164z" fill-rule="nonzero"/>
            <path d="M34.55 39.8a1.746 1.746 0 1 0 0 3.494 1.746 1.746 0 0 0 0-3.493zm0 2.33a.582.582 0 1 1 0-1.165.582.582 0 0 1 0 1.164z" fill-rule="nonzero"/>
            <path d="M39.207 39.8a1.746 1.746 0 1 0 0 3.494 1.746 1.746 0 0 0 0-3.493zm0 2.33a.582.582 0 1 1 0-1.165.582.582 0 0 1 0 1.164z" fill-rule="nonzero"/>
            <path d="M43.864 39.8a1.746 1.746 0 1 0 0 3.494 1.746 1.746 0 0 0 0-3.493zm0 2.33a.582.582 0 1 1 0-1.165.582.582 0 0 1 0 1.164z" fill-rule="nonzero"/>
        </g>
    </g>
</symbol><symbol id="icon-instagram-logo" viewBox="0 0 169.063 169.063">
    <path d="M122.406 0H46.654C20.929 0 0 20.93 0 46.655v75.752c0 25.726 20.929 46.655 46.654 46.655h75.752c25.727 0 46.656-20.93 46.656-46.655V46.655C169.063 20.93 148.133 0 122.406 0zm31.657 122.407c0 17.455-14.201 31.655-31.656 31.655H46.654C29.2 154.063 15 139.862 15 122.407V46.655C15 29.201 29.2 15 46.654 15h75.752c17.455 0 31.656 14.201 31.656 31.655v75.752z"/>
    <path d="M84.531 40.97c-24.021 0-43.563 19.542-43.563 43.563 0 24.02 19.542 43.561 43.563 43.561s43.563-19.541 43.563-43.561c0-24.021-19.542-43.563-43.563-43.563zm0 72.123c-15.749 0-28.563-12.812-28.563-28.561 0-15.75 12.813-28.563 28.563-28.563s28.563 12.813 28.563 28.563c0 15.749-12.814 28.561-28.563 28.561z"/>
    <path d="M129.921 28.251c-2.89 0-5.729 1.17-7.77 3.22a11.053 11.053 0 0 0-3.23 7.78c0 2.891 1.18 5.73 3.23 7.78 2.04 2.04 4.88 3.22 7.77 3.22 2.9 0 5.73-1.18 7.78-3.22 2.05-2.05 3.22-4.89 3.22-7.78 0-2.9-1.17-5.74-3.22-7.78-2.04-2.05-4.88-3.22-7.78-3.22z"/>
</symbol><symbol id="icon-points" viewBox="0 0 352 202">
    <title>
        9C2CBA79-3849-401B-A7C3-64D1E4BD55F6
    </title>
    <g fill-rule="evenodd">
        <g transform="translate(0 200)">
            <circle cx="351" cy="1" r="1"/>
            <circle cx="341" cy="1" r="1"/>
            <circle cx="331" cy="1" r="1"/>
            <circle cx="321" cy="1" r="1"/>
            <circle cx="311" cy="1" r="1"/>
            <circle cx="301" cy="1" r="1"/>
            <circle cx="291" cy="1" r="1"/>
            <circle cx="281" cy="1" r="1"/>
            <circle cx="271" cy="1" r="1"/>
            <circle cx="261" cy="1" r="1"/>
            <circle cx="251" cy="1" r="1"/>
            <circle cx="241" cy="1" r="1"/>
            <circle cx="231" cy="1" r="1"/>
            <circle cx="221" cy="1" r="1"/>
            <circle cx="211" cy="1" r="1"/>
            <circle cx="201" cy="1" r="1"/>
            <circle cx="191" cy="1" r="1"/>
            <circle cx="181" cy="1" r="1"/>
            <circle cx="171" cy="1" r="1"/>
            <circle cx="161" cy="1" r="1"/>
            <circle cx="151" cy="1" r="1"/>
            <circle cx="141" cy="1" r="1"/>
            <circle cx="131" cy="1" r="1"/>
            <circle cx="121" cy="1" r="1"/>
            <circle cx="111" cy="1" r="1"/>
            <circle cx="101" cy="1" r="1"/>
            <circle cx="91" cy="1" r="1"/>
            <circle cx="81" cy="1" r="1"/>
            <circle cx="71" cy="1" r="1"/>
            <circle cx="61" cy="1" r="1"/>
            <circle cx="51" cy="1" r="1"/>
            <circle cx="41" cy="1" r="1"/>
            <circle cx="31" cy="1" r="1"/>
            <circle cx="21" cy="1" r="1"/>
            <circle cx="11" cy="1" r="1"/>
            <circle cx="1" cy="1" r="1"/>
        </g>
        <g transform="translate(0 190)">
            <circle cx="351" cy="1" r="1"/>
            <circle cx="341" cy="1" r="1"/>
            <circle cx="331" cy="1" r="1"/>
            <circle cx="321" cy="1" r="1"/>
            <circle cx="311" cy="1" r="1"/>
            <circle cx="301" cy="1" r="1"/>
            <circle cx="291" cy="1" r="1"/>
            <circle cx="281" cy="1" r="1"/>
            <circle cx="271" cy="1" r="1"/>
            <circle cx="261" cy="1" r="1"/>
            <circle cx="251" cy="1" r="1"/>
            <circle cx="241" cy="1" r="1"/>
            <circle cx="231" cy="1" r="1"/>
            <circle cx="221" cy="1" r="1"/>
            <circle cx="211" cy="1" r="1"/>
            <circle cx="201" cy="1" r="1"/>
            <circle cx="191" cy="1" r="1"/>
            <circle cx="181" cy="1" r="1"/>
            <circle cx="171" cy="1" r="1"/>
            <circle cx="161" cy="1" r="1"/>
            <circle cx="151" cy="1" r="1"/>
            <circle cx="141" cy="1" r="1"/>
            <circle cx="131" cy="1" r="1"/>
            <circle cx="121" cy="1" r="1"/>
            <circle cx="111" cy="1" r="1"/>
            <circle cx="101" cy="1" r="1"/>
            <circle cx="91" cy="1" r="1"/>
            <circle cx="81" cy="1" r="1"/>
            <circle cx="71" cy="1" r="1"/>
            <circle cx="61" cy="1" r="1"/>
            <circle cx="51" cy="1" r="1"/>
            <circle cx="41" cy="1" r="1"/>
            <circle cx="31" cy="1" r="1"/>
            <circle cx="21" cy="1" r="1"/>
            <circle cx="11" cy="1" r="1"/>
            <circle cx="1" cy="1" r="1"/>
        </g>
        <g transform="translate(0 180)">
            <circle cx="351" cy="1" r="1"/>
            <circle cx="341" cy="1" r="1"/>
            <circle cx="331" cy="1" r="1"/>
            <circle cx="321" cy="1" r="1"/>
            <circle cx="311" cy="1" r="1"/>
            <circle cx="301" cy="1" r="1"/>
            <circle cx="291" cy="1" r="1"/>
            <circle cx="281" cy="1" r="1"/>
            <circle cx="271" cy="1" r="1"/>
            <circle cx="261" cy="1" r="1"/>
            <circle cx="251" cy="1" r="1"/>
            <circle cx="241" cy="1" r="1"/>
            <circle cx="231" cy="1" r="1"/>
            <circle cx="221" cy="1" r="1"/>
            <circle cx="211" cy="1" r="1"/>
            <circle cx="201" cy="1" r="1"/>
            <circle cx="191" cy="1" r="1"/>
            <circle cx="181" cy="1" r="1"/>
            <circle cx="171" cy="1" r="1"/>
            <circle cx="161" cy="1" r="1"/>
            <circle cx="151" cy="1" r="1"/>
            <circle cx="141" cy="1" r="1"/>
            <circle cx="131" cy="1" r="1"/>
            <circle cx="121" cy="1" r="1"/>
            <circle cx="111" cy="1" r="1"/>
            <circle cx="101" cy="1" r="1"/>
            <circle cx="91" cy="1" r="1"/>
            <circle cx="81" cy="1" r="1"/>
            <circle cx="71" cy="1" r="1"/>
            <circle cx="61" cy="1" r="1"/>
            <circle cx="51" cy="1" r="1"/>
            <circle cx="41" cy="1" r="1"/>
            <circle cx="31" cy="1" r="1"/>
            <circle cx="21" cy="1" r="1"/>
            <circle cx="11" cy="1" r="1"/>
            <circle cx="1" cy="1" r="1"/>
        </g>
        <g transform="translate(0 170)">
            <circle cx="351" cy="1" r="1"/>
            <circle cx="341" cy="1" r="1"/>
            <circle cx="331" cy="1" r="1"/>
            <circle cx="321" cy="1" r="1"/>
            <circle cx="311" cy="1" r="1"/>
            <circle cx="301" cy="1" r="1"/>
            <circle cx="291" cy="1" r="1"/>
            <circle cx="281" cy="1" r="1"/>
            <circle cx="271" cy="1" r="1"/>
            <circle cx="261" cy="1" r="1"/>
            <circle cx="251" cy="1" r="1"/>
            <circle cx="241" cy="1" r="1"/>
            <circle cx="231" cy="1" r="1"/>
            <circle cx="221" cy="1" r="1"/>
            <circle cx="211" cy="1" r="1"/>
            <circle cx="201" cy="1" r="1"/>
            <circle cx="191" cy="1" r="1"/>
            <circle cx="181" cy="1" r="1"/>
            <circle cx="171" cy="1" r="1"/>
            <circle cx="161" cy="1" r="1"/>
            <circle cx="151" cy="1" r="1"/>
            <circle cx="141" cy="1" r="1"/>
            <circle cx="131" cy="1" r="1"/>
            <circle cx="121" cy="1" r="1"/>
            <circle cx="111" cy="1" r="1"/>
            <circle cx="101" cy="1" r="1"/>
            <circle cx="91" cy="1" r="1"/>
            <circle cx="81" cy="1" r="1"/>
            <circle cx="71" cy="1" r="1"/>
            <circle cx="61" cy="1" r="1"/>
            <circle cx="51" cy="1" r="1"/>
            <circle cx="41" cy="1" r="1"/>
            <circle cx="31" cy="1" r="1"/>
            <circle cx="21" cy="1" r="1"/>
            <circle cx="11" cy="1" r="1"/>
            <circle cx="1" cy="1" r="1"/>
        </g>
        <g transform="translate(0 160)">
            <circle cx="351" cy="1" r="1"/>
            <circle cx="341" cy="1" r="1"/>
            <circle cx="331" cy="1" r="1"/>
            <circle cx="321" cy="1" r="1"/>
            <circle cx="311" cy="1" r="1"/>
            <circle cx="301" cy="1" r="1"/>
            <circle cx="291" cy="1" r="1"/>
            <circle cx="281" cy="1" r="1"/>
            <circle cx="271" cy="1" r="1"/>
            <circle cx="261" cy="1" r="1"/>
            <circle cx="251" cy="1" r="1"/>
            <circle cx="241" cy="1" r="1"/>
            <circle cx="231" cy="1" r="1"/>
            <circle cx="221" cy="1" r="1"/>
            <circle cx="211" cy="1" r="1"/>
            <circle cx="201" cy="1" r="1"/>
            <circle cx="191" cy="1" r="1"/>
            <circle cx="181" cy="1" r="1"/>
            <circle cx="171" cy="1" r="1"/>
            <circle cx="161" cy="1" r="1"/>
            <circle cx="151" cy="1" r="1"/>
            <circle cx="141" cy="1" r="1"/>
            <circle cx="131" cy="1" r="1"/>
            <circle cx="121" cy="1" r="1"/>
            <circle cx="111" cy="1" r="1"/>
            <circle cx="101" cy="1" r="1"/>
            <circle cx="91" cy="1" r="1"/>
            <circle cx="81" cy="1" r="1"/>
            <circle cx="71" cy="1" r="1"/>
            <circle cx="61" cy="1" r="1"/>
            <circle cx="51" cy="1" r="1"/>
            <circle cx="41" cy="1" r="1"/>
            <circle cx="31" cy="1" r="1"/>
            <circle cx="21" cy="1" r="1"/>
            <circle cx="11" cy="1" r="1"/>
            <circle cx="1" cy="1" r="1"/>
        </g>
        <g transform="translate(0 150)">
            <circle cx="351" cy="1" r="1"/>
            <circle cx="341" cy="1" r="1"/>
            <circle cx="331" cy="1" r="1"/>
            <circle cx="321" cy="1" r="1"/>
            <circle cx="311" cy="1" r="1"/>
            <circle cx="301" cy="1" r="1"/>
            <circle cx="291" cy="1" r="1"/>
            <circle cx="281" cy="1" r="1"/>
            <circle cx="271" cy="1" r="1"/>
            <circle cx="261" cy="1" r="1"/>
            <circle cx="251" cy="1" r="1"/>
            <circle cx="241" cy="1" r="1"/>
            <circle cx="231" cy="1" r="1"/>
            <circle cx="221" cy="1" r="1"/>
            <circle cx="211" cy="1" r="1"/>
            <circle cx="201" cy="1" r="1"/>
            <circle cx="191" cy="1" r="1"/>
            <circle cx="181" cy="1" r="1"/>
            <circle cx="171" cy="1" r="1"/>
            <circle cx="161" cy="1" r="1"/>
            <circle cx="151" cy="1" r="1"/>
            <circle cx="141" cy="1" r="1"/>
            <circle cx="131" cy="1" r="1"/>
            <circle cx="121" cy="1" r="1"/>
            <circle cx="111" cy="1" r="1"/>
            <circle cx="101" cy="1" r="1"/>
            <circle cx="91" cy="1" r="1"/>
            <circle cx="81" cy="1" r="1"/>
            <circle cx="71" cy="1" r="1"/>
            <circle cx="61" cy="1" r="1"/>
            <circle cx="51" cy="1" r="1"/>
            <circle cx="41" cy="1" r="1"/>
            <circle cx="31" cy="1" r="1"/>
            <circle cx="21" cy="1" r="1"/>
            <circle cx="11" cy="1" r="1"/>
            <circle cx="1" cy="1" r="1"/>
        </g>
        <g transform="translate(0 140)">
            <circle cx="351" cy="1" r="1"/>
            <circle cx="341" cy="1" r="1"/>
            <circle cx="331" cy="1" r="1"/>
            <circle cx="321" cy="1" r="1"/>
            <circle cx="311" cy="1" r="1"/>
            <circle cx="301" cy="1" r="1"/>
            <circle cx="291" cy="1" r="1"/>
            <circle cx="281" cy="1" r="1"/>
            <circle cx="271" cy="1" r="1"/>
            <circle cx="261" cy="1" r="1"/>
            <circle cx="251" cy="1" r="1"/>
            <circle cx="241" cy="1" r="1"/>
            <circle cx="231" cy="1" r="1"/>
            <circle cx="221" cy="1" r="1"/>
            <circle cx="211" cy="1" r="1"/>
            <circle cx="201" cy="1" r="1"/>
            <circle cx="191" cy="1" r="1"/>
            <circle cx="181" cy="1" r="1"/>
            <circle cx="171" cy="1" r="1"/>
            <circle cx="161" cy="1" r="1"/>
            <circle cx="151" cy="1" r="1"/>
            <circle cx="141" cy="1" r="1"/>
            <circle cx="131" cy="1" r="1"/>
            <circle cx="121" cy="1" r="1"/>
            <circle cx="111" cy="1" r="1"/>
            <circle cx="101" cy="1" r="1"/>
            <circle cx="91" cy="1" r="1"/>
            <circle cx="81" cy="1" r="1"/>
            <circle cx="71" cy="1" r="1"/>
            <circle cx="61" cy="1" r="1"/>
            <circle cx="51" cy="1" r="1"/>
            <circle cx="41" cy="1" r="1"/>
            <circle cx="31" cy="1" r="1"/>
            <circle cx="21" cy="1" r="1"/>
            <circle cx="11" cy="1" r="1"/>
            <circle cx="1" cy="1" r="1"/>
        </g>
        <g transform="translate(0 130)">
            <circle cx="351" cy="1" r="1"/>
            <circle cx="341" cy="1" r="1"/>
            <circle cx="331" cy="1" r="1"/>
            <circle cx="321" cy="1" r="1"/>
            <circle cx="311" cy="1" r="1"/>
            <circle cx="301" cy="1" r="1"/>
            <circle cx="291" cy="1" r="1"/>
            <circle cx="281" cy="1" r="1"/>
            <circle cx="271" cy="1" r="1"/>
            <circle cx="261" cy="1" r="1"/>
            <circle cx="251" cy="1" r="1"/>
            <circle cx="241" cy="1" r="1"/>
            <circle cx="231" cy="1" r="1"/>
            <circle cx="221" cy="1" r="1"/>
            <circle cx="211" cy="1" r="1"/>
            <circle cx="201" cy="1" r="1"/>
            <circle cx="191" cy="1" r="1"/>
            <circle cx="181" cy="1" r="1"/>
            <circle cx="171" cy="1" r="1"/>
            <circle cx="161" cy="1" r="1"/>
            <circle cx="151" cy="1" r="1"/>
            <circle cx="141" cy="1" r="1"/>
            <circle cx="131" cy="1" r="1"/>
            <circle cx="121" cy="1" r="1"/>
            <circle cx="111" cy="1" r="1"/>
            <circle cx="101" cy="1" r="1"/>
            <circle cx="91" cy="1" r="1"/>
            <circle cx="81" cy="1" r="1"/>
            <circle cx="71" cy="1" r="1"/>
            <circle cx="61" cy="1" r="1"/>
            <circle cx="51" cy="1" r="1"/>
            <circle cx="41" cy="1" r="1"/>
            <circle cx="31" cy="1" r="1"/>
            <circle cx="21" cy="1" r="1"/>
            <circle cx="11" cy="1" r="1"/>
            <circle cx="1" cy="1" r="1"/>
        </g>
        <g transform="translate(0 120)">
            <circle cx="351" cy="1" r="1"/>
            <circle cx="341" cy="1" r="1"/>
            <circle cx="331" cy="1" r="1"/>
            <circle cx="321" cy="1" r="1"/>
            <circle cx="311" cy="1" r="1"/>
            <circle cx="301" cy="1" r="1"/>
            <circle cx="291" cy="1" r="1"/>
            <circle cx="281" cy="1" r="1"/>
            <circle cx="271" cy="1" r="1"/>
            <circle cx="261" cy="1" r="1"/>
            <circle cx="251" cy="1" r="1"/>
            <circle cx="241" cy="1" r="1"/>
            <circle cx="231" cy="1" r="1"/>
            <circle cx="221" cy="1" r="1"/>
            <circle cx="211" cy="1" r="1"/>
            <circle cx="201" cy="1" r="1"/>
            <circle cx="191" cy="1" r="1"/>
            <circle cx="181" cy="1" r="1"/>
            <circle cx="171" cy="1" r="1"/>
            <circle cx="161" cy="1" r="1"/>
            <circle cx="151" cy="1" r="1"/>
            <circle cx="141" cy="1" r="1"/>
            <circle cx="131" cy="1" r="1"/>
            <circle cx="121" cy="1" r="1"/>
            <circle cx="111" cy="1" r="1"/>
            <circle cx="101" cy="1" r="1"/>
            <circle cx="91" cy="1" r="1"/>
            <circle cx="81" cy="1" r="1"/>
            <circle cx="71" cy="1" r="1"/>
            <circle cx="61" cy="1" r="1"/>
            <circle cx="51" cy="1" r="1"/>
            <circle cx="41" cy="1" r="1"/>
            <circle cx="31" cy="1" r="1"/>
            <circle cx="21" cy="1" r="1"/>
            <circle cx="11" cy="1" r="1"/>
            <circle cx="1" cy="1" r="1"/>
        </g>
        <g transform="translate(0 110)">
            <circle cx="351" cy="1" r="1"/>
            <circle cx="341" cy="1" r="1"/>
            <circle cx="331" cy="1" r="1"/>
            <circle cx="321" cy="1" r="1"/>
            <circle cx="311" cy="1" r="1"/>
            <circle cx="301" cy="1" r="1"/>
            <circle cx="291" cy="1" r="1"/>
            <circle cx="281" cy="1" r="1"/>
            <circle cx="271" cy="1" r="1"/>
            <circle cx="261" cy="1" r="1"/>
            <circle cx="251" cy="1" r="1"/>
            <circle cx="241" cy="1" r="1"/>
            <circle cx="231" cy="1" r="1"/>
            <circle cx="221" cy="1" r="1"/>
            <circle cx="211" cy="1" r="1"/>
            <circle cx="201" cy="1" r="1"/>
            <circle cx="191" cy="1" r="1"/>
            <circle cx="181" cy="1" r="1"/>
            <circle cx="171" cy="1" r="1"/>
            <circle cx="161" cy="1" r="1"/>
            <circle cx="151" cy="1" r="1"/>
            <circle cx="141" cy="1" r="1"/>
            <circle cx="131" cy="1" r="1"/>
            <circle cx="121" cy="1" r="1"/>
            <circle cx="111" cy="1" r="1"/>
            <circle cx="101" cy="1" r="1"/>
            <circle cx="91" cy="1" r="1"/>
            <circle cx="81" cy="1" r="1"/>
            <circle cx="71" cy="1" r="1"/>
            <circle cx="61" cy="1" r="1"/>
            <circle cx="51" cy="1" r="1"/>
            <circle cx="41" cy="1" r="1"/>
            <circle cx="31" cy="1" r="1"/>
            <circle cx="21" cy="1" r="1"/>
            <circle cx="11" cy="1" r="1"/>
            <circle cx="1" cy="1" r="1"/>
        </g>
        <g transform="translate(0 100)">
            <circle cx="351" cy="1" r="1"/>
            <circle cx="341" cy="1" r="1"/>
            <circle cx="331" cy="1" r="1"/>
            <circle cx="321" cy="1" r="1"/>
            <circle cx="311" cy="1" r="1"/>
            <circle cx="301" cy="1" r="1"/>
            <circle cx="291" cy="1" r="1"/>
            <circle cx="281" cy="1" r="1"/>
            <circle cx="271" cy="1" r="1"/>
            <circle cx="261" cy="1" r="1"/>
            <circle cx="251" cy="1" r="1"/>
            <circle cx="241" cy="1" r="1"/>
            <circle cx="231" cy="1" r="1"/>
            <circle cx="221" cy="1" r="1"/>
            <circle cx="211" cy="1" r="1"/>
            <circle cx="201" cy="1" r="1"/>
            <circle cx="191" cy="1" r="1"/>
            <circle cx="181" cy="1" r="1"/>
            <circle cx="171" cy="1" r="1"/>
            <circle cx="161" cy="1" r="1"/>
            <circle cx="151" cy="1" r="1"/>
            <circle cx="141" cy="1" r="1"/>
            <circle cx="131" cy="1" r="1"/>
            <circle cx="121" cy="1" r="1"/>
            <circle cx="111" cy="1" r="1"/>
            <circle cx="101" cy="1" r="1"/>
            <circle cx="91" cy="1" r="1"/>
            <circle cx="81" cy="1" r="1"/>
            <circle cx="71" cy="1" r="1"/>
            <circle cx="61" cy="1" r="1"/>
            <circle cx="51" cy="1" r="1"/>
            <circle cx="41" cy="1" r="1"/>
            <circle cx="31" cy="1" r="1"/>
            <circle cx="21" cy="1" r="1"/>
            <circle cx="11" cy="1" r="1"/>
            <circle cx="1" cy="1" r="1"/>
        </g>
        <g transform="translate(0 90)">
            <circle cx="351" cy="1" r="1"/>
            <circle cx="341" cy="1" r="1"/>
            <circle cx="331" cy="1" r="1"/>
            <circle cx="321" cy="1" r="1"/>
            <circle cx="311" cy="1" r="1"/>
            <circle cx="301" cy="1" r="1"/>
            <circle cx="291" cy="1" r="1"/>
            <circle cx="281" cy="1" r="1"/>
            <circle cx="271" cy="1" r="1"/>
            <circle cx="261" cy="1" r="1"/>
            <circle cx="251" cy="1" r="1"/>
            <circle cx="241" cy="1" r="1"/>
            <circle cx="231" cy="1" r="1"/>
            <circle cx="221" cy="1" r="1"/>
            <circle cx="211" cy="1" r="1"/>
            <circle cx="201" cy="1" r="1"/>
            <circle cx="191" cy="1" r="1"/>
            <circle cx="181" cy="1" r="1"/>
            <circle cx="171" cy="1" r="1"/>
            <circle cx="161" cy="1" r="1"/>
            <circle cx="151" cy="1" r="1"/>
            <circle cx="141" cy="1" r="1"/>
            <circle cx="131" cy="1" r="1"/>
            <circle cx="121" cy="1" r="1"/>
            <circle cx="111" cy="1" r="1"/>
            <circle cx="101" cy="1" r="1"/>
            <circle cx="91" cy="1" r="1"/>
            <circle cx="81" cy="1" r="1"/>
            <circle cx="71" cy="1" r="1"/>
            <circle cx="61" cy="1" r="1"/>
            <circle cx="51" cy="1" r="1"/>
            <circle cx="41" cy="1" r="1"/>
            <circle cx="31" cy="1" r="1"/>
            <circle cx="21" cy="1" r="1"/>
            <circle cx="11" cy="1" r="1"/>
            <circle cx="1" cy="1" r="1"/>
        </g>
        <g transform="translate(0 80)">
            <circle cx="351" cy="1" r="1"/>
            <circle cx="341" cy="1" r="1"/>
            <circle cx="331" cy="1" r="1"/>
            <circle cx="321" cy="1" r="1"/>
            <circle cx="311" cy="1" r="1"/>
            <circle cx="301" cy="1" r="1"/>
            <circle cx="291" cy="1" r="1"/>
            <circle cx="281" cy="1" r="1"/>
            <circle cx="271" cy="1" r="1"/>
            <circle cx="261" cy="1" r="1"/>
            <circle cx="251" cy="1" r="1"/>
            <circle cx="241" cy="1" r="1"/>
            <circle cx="231" cy="1" r="1"/>
            <circle cx="221" cy="1" r="1"/>
            <circle cx="211" cy="1" r="1"/>
            <circle cx="201" cy="1" r="1"/>
            <circle cx="191" cy="1" r="1"/>
            <circle cx="181" cy="1" r="1"/>
            <circle cx="171" cy="1" r="1"/>
            <circle cx="161" cy="1" r="1"/>
            <circle cx="151" cy="1" r="1"/>
            <circle cx="141" cy="1" r="1"/>
            <circle cx="131" cy="1" r="1"/>
            <circle cx="121" cy="1" r="1"/>
            <circle cx="111" cy="1" r="1"/>
            <circle cx="101" cy="1" r="1"/>
            <circle cx="91" cy="1" r="1"/>
            <circle cx="81" cy="1" r="1"/>
            <circle cx="71" cy="1" r="1"/>
            <circle cx="61" cy="1" r="1"/>
            <circle cx="51" cy="1" r="1"/>
            <circle cx="41" cy="1" r="1"/>
            <circle cx="31" cy="1" r="1"/>
            <circle cx="21" cy="1" r="1"/>
            <circle cx="11" cy="1" r="1"/>
            <circle cx="1" cy="1" r="1"/>
        </g>
        <g transform="translate(0 70)">
            <circle cx="351" cy="1" r="1"/>
            <circle cx="341" cy="1" r="1"/>
            <circle cx="331" cy="1" r="1"/>
            <circle cx="321" cy="1" r="1"/>
            <circle cx="311" cy="1" r="1"/>
            <circle cx="301" cy="1" r="1"/>
            <circle cx="291" cy="1" r="1"/>
            <circle cx="281" cy="1" r="1"/>
            <circle cx="271" cy="1" r="1"/>
            <circle cx="261" cy="1" r="1"/>
            <circle cx="251" cy="1" r="1"/>
            <circle cx="241" cy="1" r="1"/>
            <circle cx="231" cy="1" r="1"/>
            <circle cx="221" cy="1" r="1"/>
            <circle cx="211" cy="1" r="1"/>
            <circle cx="201" cy="1" r="1"/>
            <circle cx="191" cy="1" r="1"/>
            <circle cx="181" cy="1" r="1"/>
            <circle cx="171" cy="1" r="1"/>
            <circle cx="161" cy="1" r="1"/>
            <circle cx="151" cy="1" r="1"/>
            <circle cx="141" cy="1" r="1"/>
            <circle cx="131" cy="1" r="1"/>
            <circle cx="121" cy="1" r="1"/>
            <circle cx="111" cy="1" r="1"/>
            <circle cx="101" cy="1" r="1"/>
            <circle cx="91" cy="1" r="1"/>
            <circle cx="81" cy="1" r="1"/>
            <circle cx="71" cy="1" r="1"/>
            <circle cx="61" cy="1" r="1"/>
            <circle cx="51" cy="1" r="1"/>
            <circle cx="41" cy="1" r="1"/>
            <circle cx="31" cy="1" r="1"/>
            <circle cx="21" cy="1" r="1"/>
            <circle cx="11" cy="1" r="1"/>
            <circle cx="1" cy="1" r="1"/>
        </g>
        <g transform="translate(0 60)">
            <circle cx="351" cy="1" r="1"/>
            <circle cx="341" cy="1" r="1"/>
            <circle cx="331" cy="1" r="1"/>
            <circle cx="321" cy="1" r="1"/>
            <circle cx="311" cy="1" r="1"/>
            <circle cx="301" cy="1" r="1"/>
            <circle cx="291" cy="1" r="1"/>
            <circle cx="281" cy="1" r="1"/>
            <circle cx="271" cy="1" r="1"/>
            <circle cx="261" cy="1" r="1"/>
            <circle cx="251" cy="1" r="1"/>
            <circle cx="241" cy="1" r="1"/>
            <circle cx="231" cy="1" r="1"/>
            <circle cx="221" cy="1" r="1"/>
            <circle cx="211" cy="1" r="1"/>
            <circle cx="201" cy="1" r="1"/>
            <circle cx="191" cy="1" r="1"/>
            <circle cx="181" cy="1" r="1"/>
            <circle cx="171" cy="1" r="1"/>
            <circle cx="161" cy="1" r="1"/>
            <circle cx="151" cy="1" r="1"/>
            <circle cx="141" cy="1" r="1"/>
            <circle cx="131" cy="1" r="1"/>
            <circle cx="121" cy="1" r="1"/>
            <circle cx="111" cy="1" r="1"/>
            <circle cx="101" cy="1" r="1"/>
            <circle cx="91" cy="1" r="1"/>
            <circle cx="81" cy="1" r="1"/>
            <circle cx="71" cy="1" r="1"/>
            <circle cx="61" cy="1" r="1"/>
            <circle cx="51" cy="1" r="1"/>
            <circle cx="41" cy="1" r="1"/>
            <circle cx="31" cy="1" r="1"/>
            <circle cx="21" cy="1" r="1"/>
            <circle cx="11" cy="1" r="1"/>
            <circle cx="1" cy="1" r="1"/>
        </g>
        <g transform="translate(0 50)">
            <circle cx="351" cy="1" r="1"/>
            <circle cx="341" cy="1" r="1"/>
            <circle cx="331" cy="1" r="1"/>
            <circle cx="321" cy="1" r="1"/>
            <circle cx="311" cy="1" r="1"/>
            <circle cx="301" cy="1" r="1"/>
            <circle cx="291" cy="1" r="1"/>
            <circle cx="281" cy="1" r="1"/>
            <circle cx="271" cy="1" r="1"/>
            <circle cx="261" cy="1" r="1"/>
            <circle cx="251" cy="1" r="1"/>
            <circle cx="241" cy="1" r="1"/>
            <circle cx="231" cy="1" r="1"/>
            <circle cx="221" cy="1" r="1"/>
            <circle cx="211" cy="1" r="1"/>
            <circle cx="201" cy="1" r="1"/>
            <circle cx="191" cy="1" r="1"/>
            <circle cx="181" cy="1" r="1"/>
            <circle cx="171" cy="1" r="1"/>
            <circle cx="161" cy="1" r="1"/>
            <circle cx="151" cy="1" r="1"/>
            <circle cx="141" cy="1" r="1"/>
            <circle cx="131" cy="1" r="1"/>
            <circle cx="121" cy="1" r="1"/>
            <circle cx="111" cy="1" r="1"/>
            <circle cx="101" cy="1" r="1"/>
            <circle cx="91" cy="1" r="1"/>
            <circle cx="81" cy="1" r="1"/>
            <circle cx="71" cy="1" r="1"/>
            <circle cx="61" cy="1" r="1"/>
            <circle cx="51" cy="1" r="1"/>
            <circle cx="41" cy="1" r="1"/>
            <circle cx="31" cy="1" r="1"/>
            <circle cx="21" cy="1" r="1"/>
            <circle cx="11" cy="1" r="1"/>
            <circle cx="1" cy="1" r="1"/>
        </g>
        <g transform="translate(0 40)">
            <circle cx="351" cy="1" r="1"/>
            <circle cx="341" cy="1" r="1"/>
            <circle cx="331" cy="1" r="1"/>
            <circle cx="321" cy="1" r="1"/>
            <circle cx="311" cy="1" r="1"/>
            <circle cx="301" cy="1" r="1"/>
            <circle cx="291" cy="1" r="1"/>
            <circle cx="281" cy="1" r="1"/>
            <circle cx="271" cy="1" r="1"/>
            <circle cx="261" cy="1" r="1"/>
            <circle cx="251" cy="1" r="1"/>
            <circle cx="241" cy="1" r="1"/>
            <circle cx="231" cy="1" r="1"/>
            <circle cx="221" cy="1" r="1"/>
            <circle cx="211" cy="1" r="1"/>
            <circle cx="201" cy="1" r="1"/>
            <circle cx="191" cy="1" r="1"/>
            <circle cx="181" cy="1" r="1"/>
            <circle cx="171" cy="1" r="1"/>
            <circle cx="161" cy="1" r="1"/>
            <circle cx="151" cy="1" r="1"/>
            <circle cx="141" cy="1" r="1"/>
            <circle cx="131" cy="1" r="1"/>
            <circle cx="121" cy="1" r="1"/>
            <circle cx="111" cy="1" r="1"/>
            <circle cx="101" cy="1" r="1"/>
            <circle cx="91" cy="1" r="1"/>
            <circle cx="81" cy="1" r="1"/>
            <circle cx="71" cy="1" r="1"/>
            <circle cx="61" cy="1" r="1"/>
            <circle cx="51" cy="1" r="1"/>
            <circle cx="41" cy="1" r="1"/>
            <circle cx="31" cy="1" r="1"/>
            <circle cx="21" cy="1" r="1"/>
            <circle cx="11" cy="1" r="1"/>
            <circle cx="1" cy="1" r="1"/>
        </g>
        <g transform="translate(0 30)">
            <circle cx="351" cy="1" r="1"/>
            <circle cx="341" cy="1" r="1"/>
            <circle cx="331" cy="1" r="1"/>
            <circle cx="321" cy="1" r="1"/>
            <circle cx="311" cy="1" r="1"/>
            <circle cx="301" cy="1" r="1"/>
            <circle cx="291" cy="1" r="1"/>
            <circle cx="281" cy="1" r="1"/>
            <circle cx="271" cy="1" r="1"/>
            <circle cx="261" cy="1" r="1"/>
            <circle cx="251" cy="1" r="1"/>
            <circle cx="241" cy="1" r="1"/>
            <circle cx="231" cy="1" r="1"/>
            <circle cx="221" cy="1" r="1"/>
            <circle cx="211" cy="1" r="1"/>
            <circle cx="201" cy="1" r="1"/>
            <circle cx="191" cy="1" r="1"/>
            <circle cx="181" cy="1" r="1"/>
            <circle cx="171" cy="1" r="1"/>
            <circle cx="161" cy="1" r="1"/>
            <circle cx="151" cy="1" r="1"/>
            <circle cx="141" cy="1" r="1"/>
            <circle cx="131" cy="1" r="1"/>
            <circle cx="121" cy="1" r="1"/>
            <circle cx="111" cy="1" r="1"/>
            <circle cx="101" cy="1" r="1"/>
            <circle cx="91" cy="1" r="1"/>
            <circle cx="81" cy="1" r="1"/>
            <circle cx="71" cy="1" r="1"/>
            <circle cx="61" cy="1" r="1"/>
            <circle cx="51" cy="1" r="1"/>
            <circle cx="41" cy="1" r="1"/>
            <circle cx="31" cy="1" r="1"/>
            <circle cx="21" cy="1" r="1"/>
            <circle cx="11" cy="1" r="1"/>
            <circle cx="1" cy="1" r="1"/>
        </g>
        <g transform="translate(0 20)">
            <circle cx="351" cy="1" r="1"/>
            <circle cx="341" cy="1" r="1"/>
            <circle cx="331" cy="1" r="1"/>
            <circle cx="321" cy="1" r="1"/>
            <circle cx="311" cy="1" r="1"/>
            <circle cx="301" cy="1" r="1"/>
            <circle cx="291" cy="1" r="1"/>
            <circle cx="281" cy="1" r="1"/>
            <circle cx="271" cy="1" r="1"/>
            <circle cx="261" cy="1" r="1"/>
            <circle cx="251" cy="1" r="1"/>
            <circle cx="241" cy="1" r="1"/>
            <circle cx="231" cy="1" r="1"/>
            <circle cx="221" cy="1" r="1"/>
            <circle cx="211" cy="1" r="1"/>
            <circle cx="201" cy="1" r="1"/>
            <circle cx="191" cy="1" r="1"/>
            <circle cx="181" cy="1" r="1"/>
            <circle cx="171" cy="1" r="1"/>
            <circle cx="161" cy="1" r="1"/>
            <circle cx="151" cy="1" r="1"/>
            <circle cx="141" cy="1" r="1"/>
            <circle cx="131" cy="1" r="1"/>
            <circle cx="121" cy="1" r="1"/>
            <circle cx="111" cy="1" r="1"/>
            <circle cx="101" cy="1" r="1"/>
            <circle cx="91" cy="1" r="1"/>
            <circle cx="81" cy="1" r="1"/>
            <circle cx="71" cy="1" r="1"/>
            <circle cx="61" cy="1" r="1"/>
            <circle cx="51" cy="1" r="1"/>
            <circle cx="41" cy="1" r="1"/>
            <circle cx="31" cy="1" r="1"/>
            <circle cx="21" cy="1" r="1"/>
            <circle cx="11" cy="1" r="1"/>
            <circle cx="1" cy="1" r="1"/>
        </g>
        <g transform="translate(0 10)">
            <circle cx="351" cy="1" r="1"/>
            <circle cx="341" cy="1" r="1"/>
            <circle cx="331" cy="1" r="1"/>
            <circle cx="321" cy="1" r="1"/>
            <circle cx="311" cy="1" r="1"/>
            <circle cx="301" cy="1" r="1"/>
            <circle cx="291" cy="1" r="1"/>
            <circle cx="281" cy="1" r="1"/>
            <circle cx="271" cy="1" r="1"/>
            <circle cx="261" cy="1" r="1"/>
            <circle cx="251" cy="1" r="1"/>
            <circle cx="241" cy="1" r="1"/>
            <circle cx="231" cy="1" r="1"/>
            <circle cx="221" cy="1" r="1"/>
            <circle cx="211" cy="1" r="1"/>
            <circle cx="201" cy="1" r="1"/>
            <circle cx="191" cy="1" r="1"/>
            <circle cx="181" cy="1" r="1"/>
            <circle cx="171" cy="1" r="1"/>
            <circle cx="161" cy="1" r="1"/>
            <circle cx="151" cy="1" r="1"/>
            <circle cx="141" cy="1" r="1"/>
            <circle cx="131" cy="1" r="1"/>
            <circle cx="121" cy="1" r="1"/>
            <circle cx="111" cy="1" r="1"/>
            <circle cx="101" cy="1" r="1"/>
            <circle cx="91" cy="1" r="1"/>
            <circle cx="81" cy="1" r="1"/>
            <circle cx="71" cy="1" r="1"/>
            <circle cx="61" cy="1" r="1"/>
            <circle cx="51" cy="1" r="1"/>
            <circle cx="41" cy="1" r="1"/>
            <circle cx="31" cy="1" r="1"/>
            <circle cx="21" cy="1" r="1"/>
            <circle cx="11" cy="1" r="1"/>
            <circle cx="1" cy="1" r="1"/>
        </g>
        <g>
            <circle cx="351" cy="1" r="1"/>
            <circle cx="341" cy="1" r="1"/>
            <circle cx="331" cy="1" r="1"/>
            <circle cx="321" cy="1" r="1"/>
            <circle cx="311" cy="1" r="1"/>
            <circle cx="301" cy="1" r="1"/>
            <circle cx="291" cy="1" r="1"/>
            <circle cx="281" cy="1" r="1"/>
            <circle cx="271" cy="1" r="1"/>
            <circle cx="261" cy="1" r="1"/>
            <circle cx="251" cy="1" r="1"/>
            <circle cx="241" cy="1" r="1"/>
            <circle cx="231" cy="1" r="1"/>
            <circle cx="221" cy="1" r="1"/>
            <circle cx="211" cy="1" r="1"/>
            <circle cx="201" cy="1" r="1"/>
            <circle cx="191" cy="1" r="1"/>
            <circle cx="181" cy="1" r="1"/>
            <circle cx="171" cy="1" r="1"/>
            <circle cx="161" cy="1" r="1"/>
            <circle cx="151" cy="1" r="1"/>
            <circle cx="141" cy="1" r="1"/>
            <circle cx="131" cy="1" r="1"/>
            <circle cx="121" cy="1" r="1"/>
            <circle cx="111" cy="1" r="1"/>
            <circle cx="101" cy="1" r="1"/>
            <circle cx="91" cy="1" r="1"/>
            <circle cx="81" cy="1" r="1"/>
            <circle cx="71" cy="1" r="1"/>
            <circle cx="61" cy="1" r="1"/>
            <circle cx="51" cy="1" r="1"/>
            <circle cx="41" cy="1" r="1"/>
            <circle cx="31" cy="1" r="1"/>
            <circle cx="21" cy="1" r="1"/>
            <circle cx="11" cy="1" r="1"/>
            <circle cx="1" cy="1" r="1"/>
        </g>
    </g>
</symbol><symbol id="icon-twitter-logo" viewBox="0 0 612 612">
    <path d="M612 116.258a250.714 250.714 0 0 1-72.088 19.772c25.929-15.527 45.777-40.155 55.184-69.411-24.322 14.379-51.169 24.82-79.775 30.48-22.907-24.437-55.49-39.658-91.63-39.658-69.334 0-125.551 56.217-125.551 125.513 0 9.828 1.109 19.427 3.251 28.606-104.326-5.24-196.835-55.223-258.75-131.174-10.823 18.51-16.98 40.078-16.98 63.101 0 43.559 22.181 81.993 55.835 104.479a125.556 125.556 0 0 1-56.867-15.756v1.568c0 60.806 43.291 111.554 100.693 123.104-10.517 2.83-21.607 4.398-33.08 4.398-8.107 0-15.947-.803-23.634-2.333 15.985 49.907 62.336 86.199 117.253 87.194-42.947 33.654-97.099 53.655-155.916 53.655-10.134 0-20.116-.612-29.944-1.721 55.567 35.681 121.536 56.485 192.438 56.485 230.948 0 357.188-191.291 357.188-357.188l-.421-16.253c24.666-17.593 46.005-39.697 62.794-64.861z"/>
</symbol><symbol id="icon-youtube-logo" viewBox="0 0 90 90">
    <path d="M90 26.958C90 19.525 83.979 13.5 76.55 13.5h-63.1C6.021 13.5 0 19.525 0 26.958v36.084C0 70.475 6.021 76.5 13.45 76.5h63.1C83.979 76.5 90 70.475 90 63.042V26.958zM36 60.225V26.33l25.702 16.947L36 60.225z"/>
</symbol></svg>