<svg width="109" height="140" viewBox="0 0 109 140" fill="none" xmlns="http://www.w3.org/2000/svg">
<path d="M0 0V140H46.7143V112.778H62.2857V140H109V0H0ZM15.5714 15.5556H31.1429V31.1111H15.5714V15.5556ZM46.7143 15.5556H62.2857V31.1111H46.7143V15.5556ZM77.8571 15.5556H93.4286V31.1111H77.8571V15.5556ZM15.5714 46.6667H31.1429V62.2222H15.5714V46.6667ZM46.7143 46.6667H62.2857V62.2222H46.7143V46.6667ZM77.8571 46.6667H93.4286V62.2222H77.8571V46.6667ZM15.5714 77.7778H31.1429V93.3333H15.5714V77.7778ZM46.7143 77.7778H62.2857V93.3333H46.7143V77.7778ZM77.8571 77.7778H93.4286V93.3333H77.8571V77.7778ZM15.5714 108.889H31.1429V124.444H15.5714V108.889ZM77.8571 108.889H93.4286V124.444H77.8571V108.889Z" fill="#262626"/>
</svg>
