<svg width="141" height="140" viewBox="0 0 141 140" fill="none" xmlns="http://www.w3.org/2000/svg">
<path d="M0.915584 140H141V124.444H0.915584V140ZM124.519 38.8889H108.955V15.5556H124.519V38.8889ZM124.519 0H0V77.7778C0 86.029 3.27974 93.9422 9.11773 99.7767C14.9557 105.611 22.8737 108.889 31.1299 108.889H77.8247C86.0808 108.889 93.9988 105.611 99.8368 99.7767C105.675 93.9422 108.955 86.029 108.955 77.7778V54.4444H124.519C128.648 54.4444 132.607 52.8056 135.526 49.8883C138.445 46.9711 140.084 43.0145 140.084 38.8889V15.5556C140.084 6.92222 133.08 0 124.519 0Z" fill="#262626"/>
</svg>
