<svg width="75" height="140" viewBox="0 0 75 140" fill="none" xmlns="http://www.w3.org/2000/svg">
<path d="M0 93.3333H15C15 101.733 25.275 108.889 37.5 108.889C49.725 108.889 60 101.733 60 93.3333C60 84.7778 52.2 81.6667 35.7 77.5444C19.8 73.4222 0 68.2889 0 46.6667C0 32.7444 11.025 20.9222 26.25 16.9556V0H48.75V16.9556C63.975 20.9222 75 32.7444 75 46.6667H60C60 38.2667 49.725 31.1111 37.5 31.1111C25.275 31.1111 15 38.2667 15 46.6667C15 55.2222 22.8 58.3333 39.3 62.4556C55.2 66.5778 75 71.7111 75 93.3333C75 107.256 63.975 119.078 48.75 123.044V140H26.25V123.044C11.025 119.078 0 107.256 0 93.3333Z" fill="#262626"/>
</svg>
