<svg width="153" height="140" viewBox="0 0 153 140" fill="none" xmlns="http://www.w3.org/2000/svg">
<path d="M35.0172 0C27.8065 0 22.1404 5.62511 22.1404 12.8368C22.1404 21.6356 30.105 28.8435 42.1619 39.7427L45.5577 42.8165L48.9535 39.7427C61.0104 28.8435 68.9614 21.6356 68.9614 12.8368C68.9614 5.62511 63.2953 0 56.0846 0C52.011 0 48.1096 1.88363 45.5577 4.84766C43.0059 1.88363 39.0908 0 35.0172 0ZM76.5 49.8714C73.7601 49.8714 71.0471 50.4093 68.5158 51.4546C65.9845 52.4998 63.6845 54.0319 61.7472 55.9632C59.8098 57.8946 58.273 60.1874 57.2245 62.7109C56.176 65.2343 55.6364 67.9389 55.6364 70.6703C55.6364 76.1865 57.8345 81.4768 61.7472 85.3773C65.6599 89.2779 70.9666 91.4692 76.5 91.4692C82.0334 91.4692 87.3401 89.2779 91.2528 85.3773C95.1655 81.4768 97.3636 76.1865 97.3636 70.6703C97.3636 67.9389 96.824 65.2343 95.7755 62.7109C94.727 60.1874 93.1902 57.8946 91.2528 55.9632C89.3155 54.0319 87.0155 52.4998 84.4842 51.4546C81.9529 50.4093 79.2399 49.8714 76.5 49.8714ZM34.7727 64.9154C30.1616 64.9154 25.7393 66.7415 22.4787 69.9919C19.2181 73.2424 17.3864 77.651 17.3864 82.2478C17.3864 86.8447 19.2181 91.2532 22.4787 94.5037C25.7393 97.7541 30.1616 99.5802 34.7727 99.5802C40.8927 99.5802 46.2466 96.3867 49.3066 91.6723C44.6471 85.7793 41.7273 78.6432 41.7273 70.6703C41.7273 69.2837 41.7208 67.8863 41.9989 66.4997C39.7735 65.4597 37.3459 64.9154 34.7727 64.9154ZM118.227 64.9154C115.654 64.9154 113.227 65.4597 111.001 66.4997C111.279 67.8863 111.273 69.2837 111.273 70.6703C111.273 78.6432 108.353 85.7793 103.693 91.6723C106.753 96.3867 112.107 99.5802 118.227 99.5802C122.838 99.5802 127.261 97.7541 130.521 94.5037C133.782 91.2532 135.614 86.8447 135.614 82.2478C135.614 77.651 133.782 73.2424 130.521 69.9919C127.261 66.7415 122.838 64.9154 118.227 64.9154H118.227ZM76.5 105.335C62.5909 105.335 34.7727 112.268 34.7727 126.134V140H118.227V126.134C118.227 112.268 90.4091 105.335 76.5 105.335ZM25.5226 112.051C13.9085 114.062 0 119.479 0 128.422V140H20.8636V126.134C20.8636 120.726 22.8799 115.934 25.5226 112.051ZM127.477 112.051C130.12 115.934 132.136 120.726 132.136 126.134V140H153V128.422C153 119.479 139.091 114.062 127.477 112.051Z" fill="#262626"/>
</svg>
