<svg id="Слой_1" data-name="Слой 1" xmlns="http://www.w3.org/2000/svg" viewBox="0 0 81.93 82.24"><defs><style>.cls-1{stroke:#000;}.cls-1,.cls-2{stroke-linecap:round;stroke-miterlimit:10;}.cls-2{fill:#fff;stroke:#fff;}</style></defs><title>clasic1</title><path class="cls-1" d="M603.8,263.47,565,286.83a1.53,1.53,0,0,0,.79,2.84h77.59a1.53,1.53,0,0,0,.78-2.84l-38.79-23.36A1.53,1.53,0,0,0,603.8,263.47Z" transform="translate(-563.76 -262.76)"/><rect class="cls-1" x="0.78" y="72.74" width="80.65" height="9" rx="1.04" ry="1.04"/><rect class="cls-1" x="3.74" y="29.74" width="10" height="40" rx="1.04" ry="1.04"/><rect class="cls-1" x="19.57" y="29.74" width="10" height="40" rx="1" ry="1"/><rect class="cls-1" x="35.52" y="29.74" width="10" height="40" rx="1.01" ry="1.01"/><rect class="cls-1" x="51.74" y="29.74" width="10" height="40" rx="1.03" ry="1.03"/><rect class="cls-1" x="67.9" y="29.74" width="10" height="40" rx="1.01" ry="1.01"/><circle class="cls-2" cx="41.13" cy="14.41" r="5.61"/></svg>