<svg id="Слой_1" data-name="Слой 1" xmlns="http://www.w3.org/2000/svg" viewBox="0 0 102.89 18.36"><title>senkov-logo2</title><path d="M50.82,7.51c.31,1,1,1.6,2.79,1.6s2.21-.56,2.21-1.29-.49-1.23-2.72-1.61c-3.29-.56-3.94-1.62-3.94-2.95,0-1.9,1.82-2.9,4.1-2.9,3.34,0,4.21,1.72,4.32,2.82H55.5C55.34,2.63,55,1.9,53.2,1.9c-1.23,0-1.92.41-1.92,1.16s.4,1,2.39,1.35C57.36,5.07,58,6.19,58,7.61c0,1.67-1.32,3-4.53,3-3,0-4.38-1.34-4.69-3.14Z" transform="translate(-0.04 0.01)"/><path d="M61.33,7.33a1.87,1.87,0,0,0,1.91,1.82h.09A1.72,1.72,0,0,0,65,8.3h2a3.54,3.54,0,0,1-3.73,2.35A3.6,3.6,0,0,1,59.39,7.4h0a4.68,4.68,0,0,1,0-.53,3.66,3.66,0,0,1,3.5-3.81h.4a3.58,3.58,0,0,1,3.86,3.28h0a4.34,4.34,0,0,1,0,.51v.48Zm3.75-1.25a1.63,1.63,0,0,0-1.64-1.6h-.19a1.68,1.68,0,0,0-1.87,1.46v.19Z" transform="translate(-0.04 0.01)"/><path d="M68.62,5.07V3.26h1.94a6.22,6.22,0,0,0,.06,1.06,2.61,2.61,0,0,1,2.45-1.26A2.65,2.65,0,0,1,75.9,5.52h0a4.86,4.86,0,0,1,0,.54v4.42h-2V6.39c0-.94-.36-1.73-1.48-1.73S70.63,5.52,70.63,7v3.54h-2Z" transform="translate(-0.04 0.01)"/><path d="M79.89,6.47c.73-.74,2.38-2.25,3.35-3.21h2.38L82.49,6l3.45,4.43H83.52L81.08,7.14l-1.19,1v2.31h-2V0h2Z" transform="translate(-0.04 0.01)"/><path d="M94.22,6.85c0,2.14-1.45,3.8-4.09,3.8a3.7,3.7,0,0,1-4-3.37V6.85a4,4,0,1,1,8.06,0Zm-6,0a2.06,2.06,0,0,0,1.84,2.26h.16a2,2,0,0,0,2-2,1,1,0,0,0,0-.25,2,2,0,0,0-1.69-2.25h-.31a2,2,0,0,0-2.06,1.94h0v.32Z" transform="translate(-0.04 0.01)"/><path d="M96.88,3.26c.85,2.42,1.85,4.6,2.05,5.45h0c.24-.81.73-2.14,2-5.45h2l-3,7.19h-2.2l-3-7.19Z" transform="translate(-0.04 0.01)"/><path d="M4.17,10.46,0,.57h2.3l1.9,4.89C5,7.3,5.24,8.23,5.43,8.84h0c.15-.54.39-1.16,1.23-3.43L8.57.57h2.22L6.64,10.46Z" transform="translate(-0.04 0.01)"/><path d="M11.87,0h2V1.71h-2Zm0,3.27h2v7.19h-2Z" transform="translate(-0.04 0.01)"/><path d="M17.94,6.48c.73-.74,2.38-2.25,3.36-3.21h2.34L20.55,6,24,10.43H21.58L19.14,7.15l-1.2,1v2.31h-2V0h2Z" transform="translate(-0.04 0.01)"/><path d="M24.17,3.27H25.5V1.09h2V3.27h1.74V4.74H27.51V8.05c0,.68.16,1,.88,1A3.39,3.39,0,0,0,29,9v1.38a4.94,4.94,0,0,1-1.33.15c-1.68,0-2.18-.74-2.18-2.14V4.75H24.19Z" transform="translate(-0.04 0.01)"/><path d="M38.14,6.86c0,2.14-1.46,3.8-4.1,3.8a3.69,3.69,0,0,1-4-3.35h0V6.86a4,4,0,0,1,8.06,0Zm-6,0A2.07,2.07,0,0,0,34,9.12h.16a2,2,0,0,0,2-2,1,1,0,0,0,0-.25A2,2,0,0,0,34.45,4.6h-.31a2,2,0,0,0-2.06,1.94h0v.32Z" transform="translate(-0.04 0.01)"/><path d="M39.73,5.22V3.27h1.91c0,.24.06,1,.06,1.49a2.78,2.78,0,0,1,2.81-1.68V5A2.48,2.48,0,0,0,41.7,7.08v0a2.73,2.73,0,0,0,0,.7v2.75h-2Z" transform="translate(-0.04 0.01)"/><path d="M23.43,14h2.18c1,0,1.64.5,1.64,1.33s-.62,1.38-1.65,1.38H24.46v1.52h-1Zm1,1.92h1.06c.43,0,.71-.15.71-.57s-.21-.56-.71-.56H24.43Z" transform="translate(-0.04 0.01)"/><path d="M28,14h1v1.59h1.9V14h1v4.23h-1V16.43H29v1.82H28Z" transform="translate(-0.04 0.01)"/><path d="M37.41,16a2.15,2.15,0,0,1-2.07,2.22h-.25a2.12,2.12,0,0,1-2.25-2V16A2.17,2.17,0,0,1,35,13.89h.13a2.14,2.14,0,0,1,2.27,2Zm-3.49,0c0,.8.41,1.43,1.23,1.43a1.25,1.25,0,0,0,1.19-1.31s0-.07,0-.1a1.25,1.25,0,0,0-1.11-1.39h-.11a1.23,1.23,0,0,0-1.2,1.24h0A.66.66,0,0,0,33.92,16Z" transform="translate(-0.04 0.01)"/><path d="M39.21,14.84H37.72V14h4v.82H40.24v3.41h-1Z" transform="translate(-0.04 0.01)"/><path d="M46.63,16a2.15,2.15,0,0,1-2.07,2.22h-.25a2.12,2.12,0,0,1-2.25-2V16a2.17,2.17,0,0,1,2.15-2.19h.15a2.14,2.14,0,0,1,2.27,2Zm-3.49,0c0,.8.41,1.43,1.23,1.43a1.25,1.25,0,0,0,1.19-1.31s0-.07,0-.1a1.25,1.25,0,0,0-1.11-1.39h-.11a1.23,1.23,0,0,0-1.2,1.24h0A.66.66,0,0,0,43.14,16Z" transform="translate(-0.04 0.01)"/><path d="M51.61,18.25h-.74a2.13,2.13,0,0,1-.07-.44,1.63,1.63,0,0,1-1.42.53,2,2,0,0,1-2.14-1.85h0a1.82,1.82,0,0,1,0-.33,2.15,2.15,0,0,1,2.06-2.24h.27c1.35,0,1.94.74,2,1.35h-1a1,1,0,0,0-1-.57c-.87,0-1.25.61-1.25,1.4s.4,1.45,1.26,1.45,1-.37,1-.88v-.06h-1v-.79h2Z" transform="translate(-0.04 0.01)"/><path d="M53.61,16.62v1.63h-1V14h2.31c1,0,1.53.48,1.53,1.21a1,1,0,0,1-.74,1,.93.93,0,0,1,.63,1v.21a3.75,3.75,0,0,0,0,.82h-1a2.67,2.67,0,0,1-.08-.89v-.14c0-.42-.16-.6-.77-.6Zm0-.77h1.06c.49,0,.71-.18.71-.54s-.22-.52-.71-.52H53.61Z" transform="translate(-0.04 0.01)"/><path d="M58.31,17.29l-.37,1h-1L58.59,14H59.9l1.79,4.23H60.58l-.39-1Zm1.59-.82c-.39-1-.58-1.46-.68-1.79h0c-.1.32-.32,1-.64,1.79Z" transform="translate(-0.04 0.01)"/><path d="M62.21,14H64.4c1,0,1.63.5,1.63,1.33s-.61,1.38-1.65,1.38H63.24v1.52h-1Zm1,1.92h1.06c.43,0,.71-.15.71-.57s-.21-.56-.71-.56H63.21Z" transform="translate(-0.04 0.01)"/><path d="M66.77,14h1v1.59h1.94V14h1v4.23h-1V16.43H67.77v1.82h-1Z" transform="translate(-0.04 0.01)"/><path d="M75.26,16.46H72.9v1h2.62l-.11.82H71.88V14h3.51v.82H72.9v.8h2.36Z" transform="translate(-0.04 0.01)"/><path d="M77.31,16.62v1.63h-1V14h2.3c1,0,1.53.48,1.53,1.21a1,1,0,0,1-.74,1,.91.91,0,0,1,.63,1v.21a3.75,3.75,0,0,0,0,.82H79a2.67,2.67,0,0,1-.08-.89v-.14c0-.42-.16-.6-.77-.6Zm0-.77h1.06c.49,0,.71-.18.71-.54s-.22-.52-.7-.52H77.31Z" transform="translate(-0.04 0.01)"/><polygon points="16.14 16.47 0.14 16.47 0.22 15.47 16.22 15.47 16.14 16.47"/><polygon points="102.89 16.47 86.89 16.47 86.81 15.47 102.81 15.47 102.89 16.47"/></svg>