<svg id="Слой_1" data-name="Слой 1" xmlns="http://www.w3.org/2000/svg" viewBox="0 0 102.88 18.18"><title>senkov-logo1</title><path d="M641.49,456.56c.31,1,1,1.6,2.79,1.6s2.21-.56,2.21-1.29-.49-1.23-2.72-1.61c-3.29-.56-3.94-1.62-3.94-2.95,0-1.9,1.82-2.9,4.1-2.9,3.34,0,4.21,1.72,4.32,2.82h-2.08c-.16-.55-.52-1.28-2.3-1.28-1.23,0-1.92.41-1.92,1.16s.4,1,2.39,1.35c3.69.66,4.28,1.78,4.28,3.2,0,1.67-1.32,3-4.53,3-3,0-4.38-1.34-4.69-3.14Z" transform="translate(-639.4 -449.04)"/><path d="M652,456.38a1.87,1.87,0,0,0,2,1.82,1.74,1.74,0,0,0,1.71-.85h2a3.55,3.55,0,0,1-3.73,2.35,3.6,3.6,0,0,1-3.93-3.78,3.67,3.67,0,0,1,3.9-3.81,3.58,3.58,0,0,1,3.86,3.79c0,.16,0,.28,0,.48Zm3.75-1.25a1.62,1.62,0,0,0-1.83-1.59,1.68,1.68,0,0,0-1.89,1.59Z" transform="translate(-639.4 -449.04)"/><path d="M659.29,454.12c0-.6,0-1.29,0-1.81h1.94c0,.22,0,.7.06,1.06a2.61,2.61,0,0,1,2.45-1.26,2.65,2.65,0,0,1,2.81,3v4.42h-2v-4.09c0-.94-.36-1.73-1.48-1.73s-1.77.86-1.77,2.28v3.54h-2Z" transform="translate(-639.4 -449.04)"/><path d="M670.56,455.52c.73-.74,2.38-2.25,3.35-3.21h2.38l-3.13,2.76,3.45,4.43h-2.42l-2.44-3.31-1.19,1v2.31h-2V449h2Z" transform="translate(-639.4 -449.04)"/><path d="M684.89,455.9c0,2.14-1.45,3.8-4.09,3.8a3.7,3.7,0,0,1-4-3.8,4,4,0,0,1,8.06,0Zm-6,0a2.06,2.06,0,0,0,2,2.27,2,2,0,0,0,2-2.24,2,2,0,0,0-2-2.29A2,2,0,0,0,678.85,455.9Z" transform="translate(-639.4 -449.04)"/><path d="M687.55,452.31c.88,2.42,1.8,4.6,2.05,5.45h0c.24-.81.73-2.14,2-5.45h2l-3,7.19h-2.21l-3-7.19Z" transform="translate(-639.4 -449.04)"/><path d="M701.93,459.5l-4.13-9.89h2.3l1.9,4.89c.72,1.84,1,2.77,1.19,3.38h0c.15-.54.39-1.16,1.23-3.43l1.91-4.84h2.22l-4.2,9.89Z" transform="translate(-639.4 -449.04)"/><path d="M709.63,449h2v1.75h-2Zm0,3.27h2v7.19h-2Z" transform="translate(-639.4 -449.04)"/><path d="M715.7,455.52c.73-.74,2.38-2.25,3.36-3.21h2.37l-3.12,2.76,3.45,4.43h-2.42l-2.44-3.31-1.2,1v2.31h-2V449h2Z" transform="translate(-639.4 -449.04)"/><path d="M721.93,452.31h1.33v-2.18h2v2.18H727v1.47h-1.73v3.31c0,.68.16,1,.88,1a3.45,3.45,0,0,0,.64-.05v1.38a4.82,4.82,0,0,1-1.33.15c-1.68,0-2.18-.74-2.18-2.14v-3.64h-1.33Z" transform="translate(-639.4 -449.04)"/><path d="M735.9,455.9c0,2.14-1.46,3.8-4.1,3.8a3.69,3.69,0,0,1-4-3.8,4,4,0,0,1,8.06,0Zm-6,0a2.06,2.06,0,0,0,2,2.27,2,2,0,0,0,2-2.24,2,2,0,0,0-2-2.29A2,2,0,0,0,729.86,455.9Z" transform="translate(-639.4 -449.04)"/><path d="M737.49,454.26c0-.65,0-1.3,0-1.95h1.94c0,.24.06,1,.06,1.49a2.78,2.78,0,0,1,2.81-1.68V454a2.48,2.48,0,0,0-2.81,2.8v2.75h-2Z" transform="translate(-639.4 -449.04)"/><path d="M660.38,462.9h2.19c1,0,1.63.5,1.63,1.33s-.61,1.38-1.65,1.38h-1.14v1.52h-1Zm1,1.91h1.06c.44,0,.71-.14.71-.56s-.21-.56-.71-.56h-1.06Z" transform="translate(-639.4 -449.04)"/><path d="M664.92,462.9h1v1.59h1.95V462.9h1v4.23h-1v-1.82h-1.95v1.82h-1Z" transform="translate(-639.4 -449.04)"/><path d="M674.37,465a2.15,2.15,0,0,1-2.32,2.21A2.11,2.11,0,0,1,669.8,465a2.18,2.18,0,0,1,2.3-2.19A2.14,2.14,0,0,1,674.37,465Zm-3.49,0c0,.8.4,1.42,1.23,1.42s1.18-.71,1.18-1.4-.37-1.4-1.22-1.4A1.22,1.22,0,0,0,670.88,465Z" transform="translate(-639.4 -449.04)"/><path d="M676.2,463.72h-1.49v-.82h4v.82h-1.48v3.41h-1Z" transform="translate(-639.4 -449.04)"/><path d="M683.59,465a2.14,2.14,0,0,1-2.32,2.21A2.11,2.11,0,0,1,679,465a2.18,2.18,0,0,1,2.3-2.19A2.14,2.14,0,0,1,683.59,465Zm-3.49,0c0,.8.4,1.42,1.23,1.42s1.18-.71,1.18-1.4-.37-1.4-1.22-1.4A1.22,1.22,0,0,0,680.1,465Z" transform="translate(-639.4 -449.04)"/><path d="M688.57,467.13h-.75a3.92,3.92,0,0,1-.06-.44,1.64,1.64,0,0,1-1.43.52A2,2,0,0,1,684.2,465a2.14,2.14,0,0,1,2.32-2.23,1.86,1.86,0,0,1,2.06,1.35h-1a1,1,0,0,0-1-.57c-.86,0-1.24.61-1.24,1.4s.39,1.45,1.25,1.45,1.05-.38,1.05-.88v-.07h-1v-.79h2Z" transform="translate(-639.4 -449.04)"/><path d="M690.57,465.5v1.63h-1V462.9h2.3c1,0,1.53.48,1.53,1.21a1,1,0,0,1-.73,1,.92.92,0,0,1,.62,1v.21a3.39,3.39,0,0,0,.06.82h-1.05a2.75,2.75,0,0,1-.08-.89v-.14c0-.42-.16-.6-.78-.6Zm0-.77h1c.5,0,.72-.18.72-.54s-.23-.52-.71-.52h-1.06Z" transform="translate(-639.4 -449.04)"/><path d="M695.27,466.17l-.37,1h-1.06l1.7-4.23h1.32l1.79,4.23h-1.11l-.4-1Zm1.59-.83c-.39-1-.59-1.46-.69-1.78h0c-.1.32-.32,1-.64,1.78Z" transform="translate(-639.4 -449.04)"/><path d="M699.2,462.9h2.18c1,0,1.64.5,1.64,1.33s-.62,1.38-1.65,1.38h-1.14v1.52h-1Zm1,1.91h1.06c.43,0,.71-.14.71-.56s-.21-.56-.71-.56h-1.06Z" transform="translate(-639.4 -449.04)"/><path d="M703.73,462.9h1v1.59h1.94V462.9h1v4.23h-1v-1.82h-1.94v1.82h-1Z" transform="translate(-639.4 -449.04)"/><path d="M712.22,465.34h-2.36v1h2.62l-.12.83h-3.53V462.9h3.51v.82h-2.48v.8h2.36Z" transform="translate(-639.4 -449.04)"/><path d="M714.27,465.5v1.63h-1V462.9h2.3c1,0,1.53.48,1.53,1.21a1,1,0,0,1-.73,1,.92.92,0,0,1,.63,1v.21a3.43,3.43,0,0,0,0,.82h-1a2.75,2.75,0,0,1-.08-.89v-.14c0-.42-.16-.6-.77-.6Zm0-.77h1.05c.5,0,.72-.18.72-.54s-.22-.52-.71-.52h-1.06Z" transform="translate(-639.4 -449.04)"/><path d="M718.65,465.86c.12.36.41.6,1.12.6s.84-.2.84-.47-.19-.45-1.08-.61c-1.47-.25-1.73-.72-1.73-1.29,0-.84.81-1.27,1.81-1.27,1.45,0,1.84.74,1.89,1.23h-1c-.06-.21-.2-.49-.9-.49-.48,0-.73.16-.73.43s.17.37,1,.51c1.61.29,1.86.77,1.86,1.39s-.57,1.32-2,1.32-1.92-.59-2-1.35Z" transform="translate(-639.4 -449.04)"/><rect x="0.26" y="14.63" width="16" height="2"/><rect x="86.85" y="14.71" width="16" height="2"/></svg>