<?xml version="1.0" encoding="UTF-8"?><!DOCTYPE svg PUBLIC "-//W3C//DTD SVG 1.1//EN" "http://www.w3.org/Graphics/SVG/1.1/DTD/svg11.dtd"><svg xmlns="http://www.w3.org/2000/svg"><defs>
        <style>
            .cls-1{fill:#fff;fill-rule:evenodd}
        </style>
    
        <style>
            .cls-1{fill:#0707dc;fill-rule:evenodd}
        </style>
    
        <style>
            .cls-1{fill:#0d0d0d;fill-rule:evenodd}
        </style>
    
        <style>
            .cls-1,.cls-2{stroke:#1d1d1b;stroke-linecap:round;stroke-miterlimit:10}.cls-2{fill:#fff}
        </style>
    
        <style>
            .cls-1{fill:#010002}
        </style>
    </defs><symbol id="icon-arrow" viewBox="0 0 26 13">
    
    <path id="arrow" class="cls-1" d="M948.057 612l12.918 7.044 13.033-7-.049 5.956-13.033 7-12.918-7.044z" transform="translate(-948 -612)"/>
</symbol><symbol id="icon-check" viewBox="0 0 11 14">
    
    <path id="&#x433;&#x430;&#x43B;&#x43E;&#x447;&#x43A;&#x430;1" class="cls-1" d="M614.076 40.452l1.492 3.774s2.423-7.67 6.245-10.226c-.093 1.826-.466 3.409.187 5.356-1.678.487-5.127 5.965-6.246 8.644-1.585-2.556-3.449-4.5-4.754-5.113z" transform="translate(-611 -34)"/>
</symbol><symbol id="icon-close" viewBox="0 0 16 17">
    
    <path id="Shape_7_copy" data-name="Shape 7 copy" class="cls-1" d="M928.027 3566.98a.907.907 0 1 1-1.81 0 .907.907 0 1 1 1.81 0zm-.889 16.02a.962.962 0 1 1 .9-.96 1.218 1.218 0 0 1-.9.96zm2.615-14.21a.906.906 0 1 1-1.809 0 .906.906 0 1 1 1.809 0zm-.888 12.38a.967.967 0 1 1 .9-.96 1.231 1.231 0 0 1-.9.96zm1.727-1.86a1.219 1.219 0 0 1-.9-.96.906.906 0 1 1 1.809 0 1.219 1.219 0 0 1-.909.96zm.888-8.66a.891.891 0 1 1-.888-.97 1.234 1.234 0 0 1 .888.97zm1.743 1.81a.907.907 0 1 1-1.809 0 .906.906 0 1 1 1.809 0zm-.9 5.02a.962.962 0 1 1 .9-.96 1.219 1.219 0 0 1-.904.96zm1.908-1.75a1.241 1.241 0 1 1 1.184-1.24 1.589 1.589 0 0 1-1.188 1.24zm1.907-2.29a.962.962 0 1 1 .9-.96 1.239 1.239 0 0 1-.904.96zm.889 3.08a.907.907 0 1 1-1.81 0 .907.907 0 1 1 1.806 0zm.822-4.95a1.194 1.194 0 0 1-.9-.94.906.906 0 1 1 1.809 0 1.193 1.193 0 0 1-.913.94zm.9 6.78a.891.891 0 1 1-1.776 0 .891.891 0 1 1 1.776 0zm.839-8.6a1.218 1.218 0 0 1-.9-.96 1.231 1.231 0 0 1 .9-.96 1.257 1.257 0 0 1 .905.96 1.242 1.242 0 0 1-.905.96zm.905 10.44a.906.906 0 1 1-1.809 0 .906.906 0 1 1 1.809 0zm.806-12.27a1.257 1.257 0 0 1-.9-.96 1.242 1.242 0 0 1 .9-.96 1.219 1.219 0 0 1 .9.96 1.233 1.233 0 0 1-.899.96zm.921 14.1a.906.906 0 1 1-1.809 0 .906.906 0 1 1 1.809 0z" transform="translate(-926.219 -3566)"/>
</symbol><symbol id="icon-facebook" viewBox="0 0 10 19">
    <title>
        facebook
    </title>
    <path d="M9.766.157v2.946H8.014c-.64 0-1.071.134-1.295.402-.223.268-.335.67-.335 1.205v2.11h3.27l-.435 3.303H6.384v8.471H2.97v-8.47H.123V6.82H2.97V4.387c0-1.384.387-2.457 1.161-3.22C4.904.404 5.934.023 7.222.023c1.093 0 1.941.045 2.544.134z" fill-rule="evenodd"/>
</symbol><symbol id="icon-location" viewBox="0 0 595.4 1121.9">
    <style>
        .st0,.st1{stroke:#1d1d1b;stroke-linecap:round;stroke-miterlimit:10}.st1{fill:#fff}
    </style>
    <title>
        location
    </title>
    <circle class="st0" cx="297.7" cy="297.7" r="297.2"/>
    <path class="st0" d="M297.7 1120.5L14.6 388.3h566.2z"/>
    <circle class="st1" cx="297.7" cy="297.7" r="159.5"/>
</symbol><symbol id="icon-location1" viewBox="0 0 595.4 1121.87">
    
    <title>
        location1
    </title>
    <circle class="cls-1" cx="297.7" cy="297.7" r="297.2"/>
    <path class="cls-1" d="M297.7 1120.48L14.57 388.31h566.26L297.7 1120.48z"/>
    <circle class="cls-2" cx="297.7" cy="297.7" r="159.49"/>
</symbol><symbol id="icon-logo" viewBox="0 0 648.94 495.51">
    <title>
        logo3
    </title>
    <g data-name="&#x421;&#x43B;&#x43E;&#x439; 2">
        <g data-name="&#x421;&#x43B;&#x43E;&#x439; 1">
            <path d="M116.94 13.6c-32 16.8-60 42.4-60 56 0 16 20 12.8 36.8-6.4 12.8-14.4 56.8-39.2 70.4-39.2 1.6 0-4.8 20.8-15.2 45.6-70.4 181.6-60 163.2-105.6 180.8-60 22.4-56.8 39.2 4 22.4 13.6-4 25.6-5.6 25.6-2.4s-11.2 34.4-24 69.6-24 66.4-24 69.6c0 4 25.6 6.4 56 6.4 32 0 56-3.2 56-8s-17.6-8-40-8c-21.6 0-40-1.6-40-3.2 0-2.4 11.2-35.2 24.8-74.4 15.2-42.4 32-75.2 42.4-82.4 67.2-47.2 140.8-144 140.8-185.6 0-36.8-24.8-54.4-77.6-54.4-26.4.8-56.8 6.4-70.4 13.6zM217.74 32c19.2 10.4 19.2 27.2 0 68-15.2 33.6-80 111.2-86.4 104.8-4-4 62.4-180 68-180.8 1.6 0 9.6 4 18.4 8z"/>
            <path d="M456.94 110.4c-30.4 60-61.6 102.4-68.8 95.2-1.6-1.6 2.4-14.4 9.6-28 27.2-56-9.6-77.6-51.2-30.4-13.6 15.2-28 34.4-32 42.4-15.2 25.6-20.8 3.2-7.2-25.6 16.8-35.2 16.8-36-1.6-36-11.2 0-14.4-4-11.2-16 2.4-8.8.8-16-3.2-16s-16.8 23.2-28 52c-20 52.8-14.4 64.8 7.2 13.6 7.2-17.6 14.4-24.8 19.2-20s3.2 16-4 30.4c-20 38.4 5.6 62.4 29.6 28l11.2-16.8 4.8 16.8c4 14.4 9.6 16 40.8 13.6 20-1.6 36.8-.8 36.8.8s-6.4 20.8-13.6 42.4c-10.4 28.8-12 40.8-4.8 48 20 20 58.4-27.2 58.4-72.8 0-8 5.6-16 12-19.2 6.4-2.4 12-8.8 12-13.6 0-7.2-2.4-7.2-11.2 0s-12 6.4-16-4c-5.6-13.6 13.6-59.2 47.2-113.6 16-25.6 18.4-33.6 8.8-33.6-7.2 0-25.6 26.4-44.8 62.4zm-77.6 63.2c-8 6.4-14.4 14.4-14.4 18.4 0 4.8-3.2 7.2-8 5.6-12.8-3.2-4.8-31.2 14.4-52l17.6-19.2 2.4 18.4a27.53 27.53 0 0 1-12 28.8zm57.6 68c-7.2 33.6-18.4 54.4-28 54.4-10.4 0-10.4 1.6 4.8-42.4 14.4-43.2 31.2-51.2 23.2-12z"/>
            <path d="M517.74 93.6c-8.8 8.8-4.8 18.4 7.2 18.4 6.4 0 12-3.2 12-7.2 0-10.4-12.8-17.6-19.2-11.2z"/>
            <path d="M504.94 131.2c0 5.6-7.2 20-16.8 31.2-12.8 16.8-14.4 24.8-7.2 37.6 4.8 8.8 13.6 16 20 16 12 0 44-36.8 44-51.2 0-4.8-5.6-1.6-12 7.2-33.6 47.2-44.8 44.8-24.8-4 15.2-37.6 16-48 4.8-48-4 0-8 4.8-8 11.2z"/>
            <path d="M588.94 311.2c-6.4 31.2-48.8 88.8-64 88.8-20.8 0-13.6-29.6 8-35.2 24-6.4 41.6-34.4 28.8-47.2s-36 2.4-72 48c-18.4 23.2-36.8 42.4-40.8 42.4-7.2 0 7.2-48.8 24-79.2 6.4-12.8 6.4-16.8-2.4-16.8-10.4 0-40 49.6-42.4 72 0 6.4-1.6 16.8-2.4 21.6 0 5.6-16.8 14.4-36.8 19.2-42.4 10.4-73.6 42.4-59.2 60 16 20 40.8 12 78.4-24 20-20 47.2-44.8 59.2-56.8l22.4-20 13.6 16.8c12.8 14.4 16.8 15.2 36 6.4 12-5.6 28-23.2 35.2-40 8-16.8 19.2-31.2 24.8-31.2 12 0 12 7.2-1.6 31.2-12 22.4-8.8 40.8 7.2 40.8 12 0 44-37.6 44-51.2 0-4.8-8 3.2-17.6 18.4-21.6 33.6-28 21.6-11.2-19.2 16-36.8 16-36-2.4-36-11.2 0-14.4-4-11.2-16 2.4-8.8.8-16-4-16s-10.4 10.4-13.6 23.2zm-48 38.4c-20.8 14.4-25.6 5.6-7.2-14.4 9.6-11.2 16-13.6 18.4-6.4 1.6 5.6-3.2 14.4-11.2 20.8zm-140 98.4c-11.2 20-53.6 43.2-60 32-7.2-12 3.2-24 31.2-36.8 33.6-14.4 38.4-13.6 28.8 4.8z"/>
            <path d="M165.74 336.8c-11.2 13.6-20.8 33.6-20.8 44 0 21.6 20 34.4 33.6 20.8 5.6-5.6 12.8-5.6 24 .8 12.8 8 17.6 7.2 25.6-4.8 12.8-16.8 20.8-17.6 20.8-1.6 0 14.4 29.6 16 33.6 2.4 2.4-7.2 8-6.4 18.4 4 13.6 14.4 15.2 14.4 33.6-4.8 19.2-18.4 44.8-77.6 36.8-85.6-5.6-5.6-26.4 25.6-21.6 32.8 4.8 8.8-19.2 55.2-28.8 55.2-12.8 0-9.6-26.4 7.2-58.4 11.2-21.6 12-29.6 4.8-29.6-5.6 0-18.4 16-28 35.2-8.8 19.2-22.4 40-28.8 44.8-17.6 15.2-14.4-14.4 4.8-46.4 19.2-31.2 19.2-33.6 4-33.6-6.4 0-12 3.2-12 7.2 0 9.6-56.8 82.4-61.6 77.6-2.4-1.6 2.4-16 9.6-32 8-16 12-34.4 8.8-40.8-7.2-20.8-41.6-13.6-64 12.8zm59.2-12.8c0 5.6-6.4 13.6-39.2 52-21.6 24.8-24 26.4-24.8 11.2 0-18.4 40-67.2 55.2-67.2 4.8 0 8.8 1.6 8.8 4z"/>
            <path d="M392.14 348.8c-8.8 20-14.4 41.6-12 48 5.6 15.2 38.4 11.2 43.2-4.8 4-10.4 2.4-10.4-9.6-.8-22.4 19.2-24 3.2-3.2-39.2 15.2-30.4 17.6-40 8.8-40-6.4 0-18.4 16.8-27.2 36.8z"/>
        </g>
    </g>
</symbol><symbol id="icon-logo4" viewBox="0 0 649.6 495.6">
    <path d="M117.94 12.6c-32 16.8-60 42.4-60 56 0 16 20 12.8 36.8-6.4 12.8-14.4 56.8-39.2 70.4-39.2 1.6 0-4.8 20.8-15.2 45.6-70.4 181.6-60 163.2-105.6 180.8-60 22.4-56.8 39.2 4 22.4 13.6-4 25.6-5.6 25.6-2.4s-11.2 34.4-24 69.6-24 66.4-24 69.6c0 4 25.6 6.4 56 6.4 32 0 56-3.2 56-8s-17.6-8-40-8c-21.6 0-40-1.6-40-3.2 0-2.4 11.2-35.2 24.8-74.4 15.2-42.4 32-75.2 42.4-82.4 67.2-47.2 140.8-144 140.8-185.6 0-36.8-24.8-54.4-77.6-54.4-26.4.8-56.8 6.4-70.4 13.6zM218.74 31c19.2 10.4 19.2 27.2 0 68-15.2 33.6-80 111.2-86.4 104.8-4-4 62.4-180 68-180.8 1.6 0 9.6 4 18.4 8z"/>
    <path d="M457.94 109.4c-30.4 60-61.6 102.4-68.8 95.2-1.6-1.6 2.4-14.4 9.6-28 27.2-56-9.6-77.6-51.2-30.4-13.6 15.2-28 34.4-32 42.4-15.2 25.6-20.8 3.2-7.2-25.6 16.8-35.2 16.8-36-1.6-36-11.2 0-14.4-4-11.2-16 2.4-8.8.8-16-3.2-16s-16.8 23.2-28 52c-20 52.8-14.4 64.8 7.2 13.6 7.2-17.6 14.4-24.8 19.2-20s3.2 16-4 30.4c-20 38.4 5.6 62.4 29.6 28l11.2-16.8 4.8 16.8c4 14.4 9.6 16 40.8 13.6 20-1.6 36.8-.8 36.8.8s-6.4 20.8-13.6 42.4c-10.4 28.8-12 40.8-4.8 48 20 20 58.4-27.2 58.4-72.8 0-8 5.6-16 12-19.2 6.4-2.4 12-8.8 12-13.6 0-7.2-2.4-7.2-11.2 0s-12 6.4-16-4c-5.6-13.6 13.6-59.2 47.2-113.6 16-25.6 18.4-33.6 8.8-33.6-7.2 0-25.6 26.4-44.8 62.4zm-77.6 63.2c-8 6.4-14.4 14.4-14.4 18.4 0 4.8-3.2 7.2-8 5.6-12.8-3.2-4.8-31.2 14.4-52l17.6-19.2 2.4 18.4c2.4 11.2-2.4 22.4-12 28.8zm57.6 68c-7.2 33.6-18.4 54.4-28 54.4-10.4 0-10.4 1.6 4.8-42.4 14.4-43.2 31.2-51.2 23.2-12z"/>
    <path d="M518.74 92.6c-8.8 8.8-4.8 18.4 7.2 18.4 6.4 0 12-3.2 12-7.2 0-10.4-12.8-17.6-19.2-11.2z"/>
    <path d="M505.94 130.2c0 5.6-7.2 20-16.8 31.2-12.8 16.8-14.4 24.8-7.2 37.6 4.8 8.8 13.6 16 20 16 12 0 44-36.8 44-51.2 0-4.8-5.6-1.6-12 7.2-33.6 47.2-44.8 44.8-24.8-4 15.2-37.6 16-48 4.8-48-4 0-8 4.8-8 11.2z"/>
    <path d="M589.94 310.2c-6.4 31.2-48.8 88.8-64 88.8-20.8 0-13.6-29.6 8-35.2 24-6.4 41.6-34.4 28.8-47.2s-36 2.4-72 48c-18.4 23.2-36.8 42.4-40.8 42.4-7.2 0 7.2-48.8 24-79.2 6.4-12.8 6.4-16.8-2.4-16.8-10.4 0-40 49.6-42.4 72 0 6.4-1.6 16.8-2.4 21.6 0 5.6-16.8 14.4-36.8 19.2-42.4 10.4-73.6 42.4-59.2 60 16 20 40.8 12 78.4-24 20-20 47.2-44.8 59.2-56.8l22.4-20 13.6 16.8c12.8 14.4 16.8 15.2 36 6.4 12-5.6 28-23.2 35.2-40 8-16.8 19.2-31.2 24.8-31.2 12 0 12 7.2-1.6 31.2-12 22.4-8.8 40.8 7.2 40.8 12 0 44-37.6 44-51.2 0-4.8-8 3.2-17.6 18.4-21.6 33.6-28 21.6-11.2-19.2 16-36.8 16-36-2.4-36-11.2 0-14.4-4-11.2-16 2.4-8.8.8-16-4-16s-10.4 10.4-13.6 23.2zm-48 38.4c-20.8 14.4-25.6 5.6-7.2-14.4 9.6-11.2 16-13.6 18.4-6.4 1.6 5.6-3.2 14.4-11.2 20.8zm-140 98.4c-11.2 20-53.6 43.2-60 32-7.2-12 3.2-24 31.2-36.8 33.6-14.4 38.4-13.6 28.8 4.8z"/>
    <path d="M166.74 335.8c-11.2 13.6-20.8 33.6-20.8 44 0 21.6 20 34.4 33.6 20.8 5.6-5.6 12.8-5.6 24 .8 12.8 8 17.6 7.2 25.6-4.8 12.8-16.8 20.8-17.6 20.8-1.6 0 14.4 29.6 16 33.6 2.4 2.4-7.2 8-6.4 18.4 4 13.6 14.4 15.2 14.4 33.6-4.8 19.2-18.4 44.8-77.6 36.8-85.6-5.6-5.6-26.4 25.6-21.6 32.8 4.8 8.8-19.2 55.2-28.8 55.2-12.8 0-9.6-26.4 7.2-58.4 11.2-21.6 12-29.6 4.8-29.6-5.6 0-18.4 16-28 35.2-8.8 19.2-22.4 40-28.8 44.8-17.6 15.2-14.4-14.4 4.8-46.4 19.2-31.2 19.2-33.6 4-33.6-6.4 0-12 3.2-12 7.2 0 9.6-56.8 82.4-61.6 77.6-2.4-1.6 2.4-16 9.6-32 8-16 12-34.4 8.8-40.8-7.2-20.8-41.6-13.6-64 12.8zm59.2-12.8c0 5.6-6.4 13.6-39.2 52-21.6 24.8-24 26.4-24.8 11.2 0-18.4 40-67.2 55.2-67.2 4.8 0 8.8 1.6 8.8 4z"/>
    <path d="M393.14 347.8c-8.8 20-14.4 41.6-12 48 5.6 15.2 38.4 11.2 43.2-4.8 4-10.4 2.4-10.4-9.6-.8-22.4 19.2-24 3.2-3.2-39.2 15.2-30.4 17.6-40 8.8-40-6.4 0-18.4 16.8-27.2 36.8z"/>
</symbol><symbol id="icon-mail" viewBox="0 0 485.211 485.211">
    <path d="M485.211 363.906c0 10.637-2.992 20.498-7.785 29.174L324.225 221.67l151.54-132.584c5.895 9.355 9.446 20.344 9.446 32.219v242.601zM242.606 252.793l210.863-184.5c-8.653-4.737-18.397-7.642-28.908-7.642H60.651c-10.524 0-20.271 2.905-28.889 7.642l210.844 184.5zm58.787-11.162l-48.809 42.734a15.145 15.145 0 0 1-9.978 3.729c-3.57 0-7.125-1.242-9.98-3.729l-48.82-42.736L28.667 415.23c9.299 5.834 20.197 9.329 31.983 9.329h363.911c11.784 0 22.687-3.495 31.983-9.329L301.393 241.631zM9.448 89.085C3.554 98.44 0 109.429 0 121.305v242.602c0 10.637 2.978 20.498 7.789 29.174l153.183-171.44L9.448 89.085z"/>
</symbol><symbol id="icon-mobile" viewBox="0 0 312.71 423.19">
    
    <title>
        mobile
    </title>
    <path class="cls-1" d="M449.5 465c-2.47-18.47-1.52-36.91 0-55.35H346.69V165.43h171.86v42c4.42-.48 8.85-.7 13.28-.78V130a17 17 0 0 0-5.64-12.55 20 20 0 0 0-13.6-5.2H352.65a20 20 0 0 0-13.6 5.21 17 17 0 0 0-5.64 12.54v318.82a17 17 0 0 0 5.64 12.54 20 20 0 0 0 13.6 5.21h97a5.21 5.21 0 0 1-.15-1.57zm-44.22-323.17V140h55.46v3.74h-55.46zM440.54 445a11.07 11.07 0 0 1-15.2 0 10 10 0 0 1 0-14.56 11.09 11.09 0 0 1 15.2 0 10 10 0 0 1 0 14.55z" transform="translate(-333.41 -112.24)"/>
    <path class="cls-1" d="M518.86 207.42c0-13.86-.12-27.79-.31-42v42z" transform="translate(-333.41 -112.24)"/>
    <path class="cls-1" d="M626.87 181.1H466.93c-10.61 0-19.24 8-19.24 17.76v318.83c0 9.77 8.63 17.74 19.24 17.74h159.94c10.62 0 19.24-8 19.24-17.74V198.85c0-9.79-8.62-17.75-19.24-17.75zm-107.31 27.72H575v3.74h-55.44zm27.66 308A10.3 10.3 0 1 1 558 506.55a10.54 10.54 0 0 1-10.78 10.3zm85.61-38.35H461V234.29h171.83z" transform="translate(-333.41 -112.24)"/>
</symbol><symbol id="icon-pic" viewBox="0 0 512 512">
    <path d="M256 0C161.896 0 85.333 76.563 85.333 170.667c0 28.25 7.063 56.26 20.49 81.104L246.667 506.5c1.875 3.396 5.448 5.5 9.333 5.5s7.458-2.104 9.333-5.5l140.896-254.813c13.375-24.76 20.438-52.771 20.438-81.021C426.667 76.563 350.104 0 256 0zm0 256c-47.052 0-85.333-38.281-85.333-85.333S208.948 85.334 256 85.334s85.333 38.281 85.333 85.333S303.052 256 256 256z"/>
</symbol><symbol id="icon-telephone" viewBox="0 0 480.56 480.56">
    <path d="M365.354 317.9c-15.7-15.5-35.3-15.5-50.9 0-11.9 11.8-23.8 23.6-35.5 35.6-3.2 3.3-5.9 4-9.8 1.8-7.7-4.2-15.9-7.6-23.3-12.2-34.5-21.7-63.4-49.6-89-81-12.7-15.6-24-32.3-31.9-51.1-1.6-3.8-1.3-6.3 1.8-9.4 11.9-11.5 23.5-23.3 35.2-35.1 16.3-16.4 16.3-35.6-.1-52.1-9.3-9.4-18.6-18.6-27.9-28-9.6-9.6-19.1-19.3-28.8-28.8-15.7-15.3-35.3-15.3-50.9.1-12 11.8-23.5 23.9-35.7 35.5-11.3 10.7-17 23.8-18.2 39.1-1.9 24.9 4.2 48.4 12.8 71.3 17.6 47.4 44.4 89.5 76.9 128.1 43.9 52.2 96.3 93.5 157.6 123.3 27.6 13.4 56.2 23.7 87.3 25.4 21.4 1.2 40-4.2 54.9-20.9 10.2-11.4 21.7-21.8 32.5-32.7 16-16.2 16.1-35.8.2-51.8-19-19.1-38.1-38.1-57.2-57.1z"/>
    <path d="M346.254 238.2l36.9-6.3c-5.8-33.9-21.8-64.6-46.1-89-25.7-25.7-58.2-41.9-94-46.9l-5.2 37.1c27.7 3.9 52.9 16.4 72.8 36.3 18.8 18.8 31.1 42.6 35.6 68.8z"/>
    <path d="M403.954 77.8c-42.6-42.6-96.5-69.5-156-77.8l-5.2 37.1c51.4 7.2 98 30.5 134.8 67.2 34.9 34.9 57.8 79 66.1 127.5l36.9-6.3c-9.7-56.2-36.2-107.2-76.6-147.7z"/>
</symbol></svg>