<svg id="logo" xmlns="http://www.w3.org/2000/svg" width="109.497" height="60.311" viewBox="0 0 109.497 60.311">
  <g id="Group_1" data-name="Group 1" transform="translate(0)">
    <path id="Path_1" data-name="Path 1" d="M29.22,16.071c-1.286-.886-5.438-1.379-13.153-2.03-4.606-.388-10.331-.872-11.154-1.483a3.946,3.946,0,0,1-.544-2.418c0-2.327.565-3.943,1.679-4.8.76-.607,3.171-1.623,10.786-1.623a97.434,97.434,0,0,1,12.042.8,4.3,4.3,0,0,0,.528.033,1.182,1.182,0,0,0,.765-.177,1.009,1.009,0,0,0,.177-.781c0-.019,0-.033,0-.042a3.439,3.439,0,0,0-1.737-2.476C27.418.446,22.393,0,16.657,0,9.108,0,4.943.8,2.734,2.688.946,4.271,0,7.078,0,10.8a6.723,6.723,0,0,0,1.976,4.955C3.088,16.639,7.233,17.134,15,17.79c4.771.4,10.175.86,11.163,1.458a3.688,3.688,0,0,1,.7,2.625c0,2.2-.572,3.978-1.535,4.746l-.03.026c-1.067.932-4.474,1.388-10.412,1.388A86.591,86.591,0,0,1,1.542,27.02l-.042,0a1.126,1.126,0,0,0-.123-.007A1.023,1.023,0,0,0,.353,28.029a4.051,4.051,0,0,0,1.409,2.453l.04.028c1.116.781,6.478,1.325,13.039,1.325,7.733,0,12.03-.777,13.932-2.52,1.7-1.588,2.637-4.513,2.637-8.238A6.292,6.292,0,0,0,29.22,16.071Z" transform="translate(0)" fill="#fff"/>
    <path id="Path_2" data-name="Path 2" d="M3313.271,26.876h-.065l-.065.009a87.1,87.1,0,0,1-12.261.925c-7.533,0-11.03-.614-12.9-2.265-1.741-1.572-2.588-4.7-2.588-9.563,0-4.664,1.112-8.15,3.127-9.81,2.06-1.572,6.147-2.369,12.146-2.369a88.729,88.729,0,0,1,12.169.858l.147.019a.969.969,0,0,0,.23.026,1.008,1.008,0,0,0,1-1.032,3.705,3.705,0,0,0-1.665-2.476l-.047-.028-.035-.016C3311.1.484,3306.023,0,3300.408,0c-7.348,0-12.216,1.1-14.886,3.351-2.892,2.469-4.422,6.945-4.422,12.942,0,5.892,1.132,9.817,3.462,12,2.564,2.39,7.031,3.367,15.418,3.367,5.989,0,11.123-.5,12.479-1.209a4.05,4.05,0,0,0,1.849-2.6A1.011,1.011,0,0,0,3313.271,26.876Z" transform="translate(-3204.811)" fill="#fff"/>
  </g>
  <g id="Group_2" data-name="Group 2" transform="translate(35.593)">
    <path id="Path_3" data-name="Path 3" d="M1549.045,0a18.108,18.108,0,0,0-12.13,31.675,1.939,1.939,0,0,0,1.3.493,1.968,1.968,0,0,0,1.465-.656,1.906,1.906,0,0,0,.488-1.393,1.928,1.928,0,0,0-.653-1.339,14.34,14.34,0,1,1,19.054,0,1.929,1.929,0,0,0-.16,2.727,1.959,1.959,0,0,0,2.76.16A18.1,18.1,0,0,0,1549.045,0Z" transform="translate(-1530.8)" fill="#fff"/>
    <path id="Path_4" data-name="Path 4" d="M2232.672,798.1a1.974,1.974,0,0,0-1.972,1.974v24.035a1.972,1.972,0,1,0,3.943,0V800.074A1.974,1.974,0,0,0,2232.672,798.1Z" transform="translate(-2214.427 -779.543)" fill="#fff"/>
  </g>
  <g id="Group_3" data-name="Group 3" transform="translate(0 37.637)">
    <path id="Path_5" data-name="Path 5" d="M3912.044,1628.893h0c-1.607.067-7.415.112-10.658.112-2.525,0-4.518,0-6.175-.016-.507-.016-.781-.093-.781-.446v-3.686c0-.346.068-.416.828-.416H3908.1a7.291,7.291,0,0,0,1-.035c.207-.068.467-.335.467-.447,0-.067-.1-.163-.321-.163h-14.018c-.674,0-.8-.012-.8-.367v-3.623c0-.349.147-.449.684-.463.686-.014,1.646-.021,3.018-.021.6,0,1.193,0,1.744,0l1.292,0c2.493,0,8.285.035,10.145.056l.786.009c.17,0,.272-.072.272-.2a.914.914,0,0,0-.528-.43c-.421-.065-7.338-.065-10.747-.065-2.836,0-4.885,0-6.887.032-.507,0-.809.186-.809.5v9.633c0,.518.249.739.833.739,2.141.033,4.341.049,7.131.049,3.541,0,10.017-.032,10.44-.1a1.046,1.046,0,0,0,.542-.493l0-.007,0-.007A.293.293,0,0,0,3912.044,1628.893Z" transform="translate(-3802.873 -1618.7)" fill="#fff"/>
    <path id="Path_6" data-name="Path 6" d="M2716.659,1618.818c-.7.186-8.789,5.492-8.789,5.492s-8.084-5.308-8.789-5.492c-.23-.06-.681-.091-.681.4v10.3c0,.128,0,.267.2.267h.414c.458,0,.389-.121.389-.381l-.016-8.9s0-.6,0-.546,8.484,5.4,8.484,5.4,8.485-5.343,8.485-5.4,0,.546,0,.546l-.016,8.9c0,.258-.07.381.388.381h.414c.2,0,.2-.139.2-.267v-10.3C2717.34,1618.727,2716.889,1618.758,2716.659,1618.818Z" transform="translate(-2635.659 -1618.783)" fill="#fff"/>
    <path id="Path_7" data-name="Path 7" d="M1173.013,1619.2c-.839-.4-2.151-.5-6.38-.5-2.3,0-8.887.032-10.4.079-.386.016-.537.121-.537.37v10.261c0,.123.019.209.272.209h.439c.216,0,.3-.056.3-.209v-3.75c0-.56.207-.588.8-.588l10.9.012,3.078,4.132a1.027,1.027,0,0,0,1.049.43h.072a.312.312,0,0,0,.216-.065.108.108,0,0,0,0-.146l-3.2-4.355a9.53,9.53,0,0,0,2.741-.325,3.014,3.014,0,0,0,2.081-2.983A2.6,2.6,0,0,0,1173.013,1619.2Zm-1.367,5.041a15.19,15.19,0,0,1-3.229.191H1157.56c-.723,0-.851-.081-.851-.539v-4.255c0-.163.123-.237.391-.237,1.23-.049,7.626-.063,9.461-.063,3.848,0,5.069.088,5.685.409a2.159,2.159,0,0,1,1.339,2.111A2.53,2.53,0,0,1,1171.646,1624.243Z" transform="translate(-1128.829 -1618.7)" fill="#fff"/>
    <path id="Path_8" data-name="Path 8" d="M17.313,1619.2c-.839-.4-2.151-.5-6.38-.5-2.3,0-8.887.032-10.4.079-.386.021-.537.123-.537.372v10.261c0,.123.019.209.272.209H.711c.216,0,.3-.056.3-.209v-3.75c0-.56.207-.588.8-.588H13.1a12.045,12.045,0,0,0,3.564-.323,2.974,2.974,0,0,0,2.081-2.953A2.643,2.643,0,0,0,17.313,1619.2Zm-1.369,5.018a15.2,15.2,0,0,1-3.23.191H1.86c-.723,0-.851-.081-.851-.539v-4.255c0-.163.123-.237.391-.237,1.23-.049,7.626-.063,9.461-.063,3.848,0,5.069.089,5.685.409a2.159,2.159,0,0,1,1.339,2.111A2.53,2.53,0,0,1,15.943,1624.22Z" transform="translate(0 -1618.7)" fill="#fff"/>
  </g>
  <path id="Path_9" data-name="Path 9" d="M10.944,2375.874h-.349v-.347a.673.673,0,0,0-.128-.467.6.6,0,0,0-.451-.137H8.628a.6.6,0,0,0-.451.137.673.673,0,0,0-.128.467.908.908,0,0,0,.1.5,1.014,1.014,0,0,0,.479.265l1.383.479.372.128a1.291,1.291,0,0,1,.258.123.463.463,0,0,1,.184.184,1.144,1.144,0,0,1,.088.258,1.773,1.773,0,0,1,.035.379.959.959,0,0,1-.226.7.955.955,0,0,1-.7.225H8.628a.958.958,0,0,1-.7-.225.955.955,0,0,1-.226-.7v-.346h.349v.346a.673.673,0,0,0,.128.467.6.6,0,0,0,.451.137h1.39a.6.6,0,0,0,.451-.135.671.671,0,0,0,.128-.465.875.875,0,0,0-.1-.49,1.018,1.018,0,0,0-.481-.261l-1.39-.465a4.661,4.661,0,0,1-.446-.165.955.955,0,0,1-.272-.188.566.566,0,0,1-.167-.293,2,2,0,0,1-.04-.456.958.958,0,0,1,.226-.7.955.955,0,0,1,.7-.226h1.39a.958.958,0,0,1,.7.226.954.954,0,0,1,.226.7v.347Z" transform="translate(-7.521 -2319.387)" fill="#fff"/>
  <path id="Path_10" data-name="Path 10" d="M233.713,2375.021h-2.665v1.6h2.606v.325h-2.606v1.6h2.665v.325H230.7V2374.7h3.013Z" transform="translate(-225.336 -2319.486)" fill="#fff"/>
  <path id="Path_11" data-name="Path 11" d="M444.2,2377.3h.349v.346a.968.968,0,0,1-.223.7.953.953,0,0,1-.7.226h-1.39a.953.953,0,0,1-.7-.226.964.964,0,0,1-.223-.7v-2.318a.968.968,0,0,1,.223-.7.953.953,0,0,1,.7-.225h1.39a.953.953,0,0,1,.7.225.965.965,0,0,1,.223.7v.346H444.2v-.346a.674.674,0,0,0-.128-.468.6.6,0,0,0-.451-.137h-1.39a.6.6,0,0,0-.451.137.674.674,0,0,0-.128.468v2.318a.673.673,0,0,0,.128.467.6.6,0,0,0,.451.137h1.39a.6.6,0,0,0,.451-.137.673.673,0,0,0,.128-.467Z" transform="translate(-431.039 -2319.193)" fill="#fff"/>
  <path id="Path_12" data-name="Path 12" d="M667.2,2374.5h.349v3.243a.807.807,0,0,1-.928.928h-1.39a.807.807,0,0,1-.928-.928V2374.5h.349v3.243a.673.673,0,0,0,.128.468.6.6,0,0,0,.451.137h1.39a.6.6,0,0,0,.451-.137.673.673,0,0,0,.128-.468Z" transform="translate(-648.854 -2319.29)" fill="#fff"/>
  <path id="Path_13" data-name="Path 13" d="M893.046,2376.221a.806.806,0,0,1-.928.927h-.249l1.1,1.623h-.416l-1.1-1.623h-1.3v1.623H889.8V2374.6h2.318a.807.807,0,0,1,.928.928Zm-2.9.6h1.969a.591.591,0,0,0,.451-.137.674.674,0,0,0,.128-.467v-.7a.673.673,0,0,0-.128-.467.6.6,0,0,0-.451-.137h-1.969Z" transform="translate(-869.111 -2319.388)" fill="#fff"/>
  <path id="Path_14" data-name="Path 14" d="M1112.9,2378.771V2374.6h.349v4.171Z" transform="translate(-1087.024 -2319.388)" fill="#fff"/>
  <path id="Path_15" data-name="Path 15" d="M1204.546,2374.5v.326H1203.1v3.848h-.349v-3.848H1201.3v-.326Z" transform="translate(-1173.368 -2319.29)" fill="#fff"/>
  <path id="Path_16" data-name="Path 16" d="M1405.395,2374.5l-1.576,2.792v1.379h-.349v-1.379l-1.569-2.792h.4l1.316,2.341h.058l1.321-2.341Z" transform="translate(-1369.304 -2319.29)" fill="#fff"/>
  <path id="Path_17" data-name="Path 17" d="M1752.618,2374.5a.952.952,0,0,1,.7.226.963.963,0,0,1,.223.7v2.318a.968.968,0,0,1-.223.7.954.954,0,0,1-.7.226h-.521v.928h-.349v-.928h-.521a.954.954,0,0,1-.7-.226.964.964,0,0,1-.223-.7v-2.318a.967.967,0,0,1,.223-.7.952.952,0,0,1,.7-.226Zm.579,3.246v-2.318a.674.674,0,0,0-.128-.468.6.6,0,0,0-.451-.137h-1.39a.6.6,0,0,0-.451.137.674.674,0,0,0-.128.468v2.318a.673.673,0,0,0,.128.467.6.6,0,0,0,.451.137h1.39a.6.6,0,0,0,.451-.137A.677.677,0,0,0,1753.2,2377.746Z" transform="translate(-1709.604 -2319.29)" fill="#fff"/>
  <path id="Path_18" data-name="Path 18" d="M1977.5,2374.5h.349v3.243a.807.807,0,0,1-.928.928h-1.39a.807.807,0,0,1-.928-.928V2374.5h.349v3.243a.673.673,0,0,0,.128.468.6.6,0,0,0,.451.137h1.39a.6.6,0,0,0,.451-.137.674.674,0,0,0,.128-.468Z" transform="translate(-1928.688 -2319.29)" fill="#fff"/>
  <path id="Path_19" data-name="Path 19" d="M2189.686,2374.5l1.523,4.171h-.37l-.447-1.228h-1.974l-.448,1.228h-.37l1.53-4.171Zm-1.149,2.621h1.737l-.834-2.295h-.063Z" transform="translate(-2136.736 -2319.29)" fill="#fff"/>
  <path id="Path_20" data-name="Path 20" d="M2419.413,2378.446v.325H2416.4V2374.6h.349v3.846Z" transform="translate(-2360.216 -2319.388)" fill="#fff"/>
  <path id="Path_21" data-name="Path 21" d="M2619.5,2378.771V2374.6h.346v4.171Z" transform="translate(-2558.594 -2319.388)" fill="#fff"/>
  <path id="Path_22" data-name="Path 22" d="M2711.243,2374.5v.326h-1.448v3.848h-.346v-3.848H2708v-.326Z" transform="translate(-2645.036 -2319.29)" fill="#fff"/>
  <path id="Path_23" data-name="Path 23" d="M2912.093,2374.5l-1.577,2.792v1.379h-.347v-1.379l-1.569-2.792h.4l1.316,2.341h.058l1.321-2.341Z" transform="translate(-2840.972 -2319.29)" fill="#fff"/>
  <path id="Path_24" data-name="Path 24" d="M3259.7,2377.3h.347v.346a.967.967,0,0,1-.223.7.953.953,0,0,1-.7.226h-1.39a.953.953,0,0,1-.7-.226.964.964,0,0,1-.223-.7v-2.318a.968.968,0,0,1,.223-.7.953.953,0,0,1,.7-.225h1.39a.953.953,0,0,1,.7.225.964.964,0,0,1,.223.7v.346h-.347v-.346a.674.674,0,0,0-.128-.468.6.6,0,0,0-.451-.137h-1.39a.6.6,0,0,0-.451.137.674.674,0,0,0-.128.468v2.318a.674.674,0,0,0,.128.467.6.6,0,0,0,.451.137h1.39a.6.6,0,0,0,.451-.137.674.674,0,0,0,.128-.467Z" transform="translate(-3181.075 -2319.193)" fill="#fff"/>
  <path id="Path_25" data-name="Path 25" d="M3481.018,2374.5a.953.953,0,0,1,.7.226.964.964,0,0,1,.223.7v2.318a.969.969,0,0,1-.223.7.955.955,0,0,1-.7.226h-1.39a.953.953,0,0,1-.7-.226.964.964,0,0,1-.223-.7v-2.318a.967.967,0,0,1,.223-.7.952.952,0,0,1,.7-.226Zm.579,3.246v-2.318a.673.673,0,0,0-.128-.468.6.6,0,0,0-.451-.137h-1.39a.6.6,0,0,0-.451.137.674.674,0,0,0-.128.468v2.318a.674.674,0,0,0,.128.467.6.6,0,0,0,.451.137h1.39a.6.6,0,0,0,.451-.137A.676.676,0,0,0,3481.6,2377.746Z" transform="translate(-3397.816 -2319.29)" fill="#fff"/>
  <path id="Path_26" data-name="Path 26" d="M3705.9,2374.5h.347v4.174h-.609l-2.23-3.848h-.058v3.848H3703V2374.5h.614l2.23,3.846h.056V2374.5Z" transform="translate(-3616.901 -2319.29)" fill="#fff"/>
  <path id="Path_27" data-name="Path 27" d="M3919.246,2374.5v.326H3917.8v3.848h-.346v-3.848H3916v-.326Z" transform="translate(-3824.948 -2319.29)" fill="#fff"/>
  <path id="Path_28" data-name="Path 28" d="M4132.344,2376.221a.807.807,0,0,1-.928.927h-.249l1.1,1.623h-.417l-1.1-1.623h-1.3v1.623h-.346V2374.6h2.318a.807.807,0,0,1,.928.928v.693Zm-2.9.6h1.969a.59.59,0,0,0,.451-.137.674.674,0,0,0,.128-.467v-.7a.673.673,0,0,0-.128-.467.6.6,0,0,0-.451-.137h-1.969Z" transform="translate(-4033.094 -2319.388)" fill="#fff"/>
  <path id="Path_29" data-name="Path 29" d="M4353.118,2374.5a.953.953,0,0,1,.705.226.965.965,0,0,1,.223.7v2.318a.97.97,0,0,1-.223.7.954.954,0,0,1-.705.226h-1.39a.952.952,0,0,1-.7-.226.962.962,0,0,1-.224-.7v-2.318a.965.965,0,0,1,.224-.7.951.951,0,0,1,.7-.226Zm.581,3.246v-2.318a.674.674,0,0,0-.127-.468.606.606,0,0,0-.451-.137h-1.391a.6.6,0,0,0-.451.137.672.672,0,0,0-.128.468v2.318a.671.671,0,0,0,.128.467.6.6,0,0,0,.451.137h1.391a.6.6,0,0,0,.451-.137A.691.691,0,0,0,4353.7,2377.746Z" transform="translate(-4249.639 -2319.29)" fill="#fff"/>
  <path id="Path_30" data-name="Path 30" d="M4578.113,2378.446v.325H4575.1V2374.6h.349v3.846Z" transform="translate(-4468.724 -2319.388)" fill="#fff"/>
</svg>
