<?xml version="1.0" encoding="UTF-8"?><!DOCTYPE svg PUBLIC "-//W3C//DTD SVG 1.1//EN" "http://www.w3.org/Graphics/SVG/1.1/DTD/svg11.dtd"><svg xmlns="http://www.w3.org/2000/svg"><symbol id="icon-logo" viewBox="0 0 109.497 60.311">
    <g data-name="Group 1">
        <path data-name="Path 1" d="M29.22 16.071c-1.286-.886-5.438-1.379-13.153-2.03-4.606-.388-10.331-.872-11.154-1.483a3.946 3.946 0 0 1-.544-2.418c0-2.327.565-3.943 1.679-4.8.76-.607 3.171-1.623 10.786-1.623a97.434 97.434 0 0 1 12.042.8 4.3 4.3 0 0 0 .528.033 1.182 1.182 0 0 0 .765-.177 1.009 1.009 0 0 0 .177-.781V3.55a3.439 3.439 0 0 0-1.737-2.476C27.418.446 22.393 0 16.657 0 9.108 0 4.943.8 2.734 2.688.946 4.271 0 7.078 0 10.8a6.723 6.723 0 0 0 1.976 4.955c1.112.884 5.257 1.379 13.024 2.035 4.771.4 10.175.86 11.163 1.458a3.688 3.688 0 0 1 .7 2.625c0 2.2-.572 3.978-1.535 4.746l-.03.026c-1.067.932-4.474 1.388-10.412 1.388A86.591 86.591 0 0 1 1.542 27.02H1.5a1.126 1.126 0 0 0-.123-.007 1.023 1.023 0 0 0-1.024 1.016 4.051 4.051 0 0 0 1.409 2.453l.04.028c1.116.781 6.478 1.325 13.039 1.325 7.733 0 12.03-.777 13.932-2.52 1.7-1.588 2.637-4.513 2.637-8.238a6.292 6.292 0 0 0-2.19-5.006z"/>
        <path data-name="Path 2" d="M108.46 26.876h-.065l-.065.009a87.1 87.1 0 0 1-12.261.925c-7.533 0-11.03-.614-12.9-2.265-1.741-1.572-2.588-4.7-2.588-9.563 0-4.664 1.112-8.15 3.127-9.81 2.06-1.572 6.147-2.369 12.146-2.369a88.729 88.729 0 0 1 12.169.858l.147.019a.969.969 0 0 0 .23.026 1.008 1.008 0 0 0 1-1.032 3.705 3.705 0 0 0-1.665-2.476l-.047-.028-.035-.016C106.289.484 101.212 0 95.597 0c-7.348 0-12.216 1.1-14.886 3.351-2.892 2.469-4.422 6.945-4.422 12.942 0 5.892 1.132 9.817 3.462 12 2.564 2.39 7.031 3.367 15.418 3.367 5.989 0 11.123-.5 12.479-1.209a4.05 4.05 0 0 0 1.849-2.6 1.011 1.011 0 0 0-1.037-.975z"/>
    </g>
    <g data-name="Group 2">
        <path data-name="Path 3" d="M53.838 0a18.108 18.108 0 0 0-12.13 31.675 1.939 1.939 0 0 0 1.3.493 1.968 1.968 0 0 0 1.465-.656 1.906 1.906 0 0 0 .488-1.393 1.928 1.928 0 0 0-.653-1.339 14.34 14.34 0 1 1 19.054 0 1.929 1.929 0 0 0-.16 2.727 1.959 1.959 0 0 0 2.76.16A18.1 18.1 0 0 0 53.838 0z"/>
        <path data-name="Path 4" d="M53.838 18.557a1.974 1.974 0 0 0-1.972 1.974v24.035a1.972 1.972 0 1 0 3.943 0V20.531a1.974 1.974 0 0 0-1.971-1.974z"/>
    </g>
    <g data-name="Group 3">
        <path data-name="Path 5" d="M109.171 47.83c-1.607.067-7.415.112-10.658.112-2.525 0-4.518 0-6.175-.016-.507-.016-.781-.093-.781-.446v-3.686c0-.346.068-.416.828-.416h12.842a7.291 7.291 0 0 0 1-.035c.207-.068.467-.335.467-.447 0-.067-.1-.163-.321-.163H92.355c-.674 0-.8-.012-.8-.367v-3.623c0-.349.147-.449.684-.463.686-.014 1.646-.021 3.018-.021h3.036c2.493 0 8.285.035 10.145.056l.786.009c.17 0 .272-.072.272-.2a.914.914 0 0 0-.528-.43c-.421-.065-7.338-.065-10.747-.065-2.836 0-4.885 0-6.887.032-.507 0-.809.186-.809.5v9.633c0 .518.249.739.833.739 2.141.033 4.341.049 7.131.049 3.541 0 10.017-.032 10.44-.1a1.046 1.046 0 0 0 .542-.493v-.014a.293.293 0 0 0-.3-.145z"/>
        <path data-name="Path 6" d="M81 37.672c-.7.186-8.789 5.492-8.789 5.492s-8.084-5.308-8.789-5.492c-.23-.06-.681-.091-.681.4v10.3c0 .128 0 .267.2.267h.414c.458 0 .389-.121.389-.381l-.016-8.9v-.546c0 .054 8.484 5.4 8.484 5.4s8.485-5.343 8.485-5.4v.546l-.016 8.9c0 .258-.07.381.388.381h.414c.2 0 .2-.139.2-.267v-10.3c-.002-.491-.453-.46-.683-.4z"/>
        <path data-name="Path 7" d="M44.184 38.137c-.839-.4-2.151-.5-6.38-.5-2.3 0-8.887.032-10.4.079-.386.016-.537.121-.537.37v10.261c0 .123.019.209.272.209h.439c.216 0 .3-.056.3-.209v-3.75c0-.56.207-.588.8-.588l10.9.012 3.078 4.132a1.027 1.027 0 0 0 1.049.43h.072a.312.312 0 0 0 .216-.065.108.108 0 0 0 0-.146l-3.2-4.355a9.53 9.53 0 0 0 2.741-.325 3.014 3.014 0 0 0 2.081-2.983 2.6 2.6 0 0 0-1.431-2.572zm-1.367 5.041a15.19 15.19 0 0 1-3.229.191H28.731c-.723 0-.851-.081-.851-.539v-4.255c0-.163.123-.237.391-.237 1.23-.049 7.626-.063 9.461-.063 3.848 0 5.069.088 5.685.409a2.159 2.159 0 0 1 1.339 2.111 2.53 2.53 0 0 1-1.939 2.385z"/>
        <path data-name="Path 8" d="M17.313 38.137c-.839-.4-2.151-.5-6.38-.5-2.3 0-8.887.032-10.4.079-.386.021-.537.123-.537.372v10.261c0 .123.019.209.272.209h.443c.216 0 .3-.056.3-.209v-3.75c0-.56.207-.588.8-.588H13.1a12.045 12.045 0 0 0 3.564-.323 2.974 2.974 0 0 0 2.081-2.953 2.643 2.643 0 0 0-1.432-2.598zm-1.369 5.018a15.2 15.2 0 0 1-3.23.191H1.86c-.723 0-.851-.081-.851-.539v-4.255c0-.163.123-.237.391-.237 1.23-.049 7.626-.063 9.461-.063 3.848 0 5.069.089 5.685.409a2.159 2.159 0 0 1 1.339 2.111 2.53 2.53 0 0 1-1.942 2.385z"/>
    </g>
    <path data-name="Path 9" d="M3.423 56.487h-.349v-.347a.673.673 0 0 0-.128-.467.6.6 0 0 0-.451-.137H1.107a.6.6 0 0 0-.451.137.673.673 0 0 0-.128.467.908.908 0 0 0 .1.5 1.014 1.014 0 0 0 .479.265l1.383.479.372.128a1.291 1.291 0 0 1 .258.123.463.463 0 0 1 .184.184 1.144 1.144 0 0 1 .088.258 1.773 1.773 0 0 1 .035.379.959.959 0 0 1-.226.7.955.955 0 0 1-.7.225H1.107a.958.958 0 0 1-.7-.225.955.955 0 0 1-.226-.7v-.346H.53v.346a.673.673 0 0 0 .128.467.6.6 0 0 0 .451.137h1.39a.6.6 0 0 0 .451-.135.671.671 0 0 0 .128-.465.875.875 0 0 0-.1-.49 1.018 1.018 0 0 0-.481-.261l-1.39-.465a4.661 4.661 0 0 1-.446-.165.955.955 0 0 1-.272-.188.566.566 0 0 1-.167-.293 2 2 0 0 1-.04-.456.958.958 0 0 1 .226-.7.955.955 0 0 1 .7-.226h1.39a.958.958 0 0 1 .7.226.954.954 0 0 1 .226.7v.347z"/>
    <path data-name="Path 10" d="M8.377 55.535H5.712v1.6h2.606v.325H5.712v1.6h2.665v.325H5.364v-4.171h3.013z"/>
    <path data-name="Path 11" d="M13.161 58.107h.349v.346a.968.968 0 0 1-.223.7.953.953 0 0 1-.7.226h-1.39a.953.953 0 0 1-.7-.226.964.964 0 0 1-.223-.7v-2.318a.968.968 0 0 1 .223-.7.953.953 0 0 1 .7-.225h1.39a.953.953 0 0 1 .7.225.965.965 0 0 1 .223.7v.346h-.349v-.346a.674.674 0 0 0-.128-.468.6.6 0 0 0-.451-.137h-1.39a.6.6 0 0 0-.451.137.674.674 0 0 0-.128.468v2.318a.673.673 0 0 0 .128.467.6.6 0 0 0 .451.137h1.39a.6.6 0 0 0 .451-.137.673.673 0 0 0 .128-.467z"/>
    <path data-name="Path 12" d="M18.346 55.21h.349v3.243a.807.807 0 0 1-.928.928h-1.39a.807.807 0 0 1-.928-.928V55.21h.349v3.243a.673.673 0 0 0 .128.468.6.6 0 0 0 .451.137h1.39a.6.6 0 0 0 .451-.137.673.673 0 0 0 .128-.468z"/>
    <path data-name="Path 13" d="M23.935 56.833a.806.806 0 0 1-.928.927h-.249l1.1 1.623h-.416l-1.1-1.623h-1.3v1.623h-.353v-4.171h2.318a.807.807 0 0 1 .928.928zm-2.9.6h1.969a.591.591 0 0 0 .451-.137.674.674 0 0 0 .128-.467v-.7a.673.673 0 0 0-.128-.467.6.6 0 0 0-.451-.137h-1.969z"/>
    <path data-name="Path 14" d="M25.876 59.383v-4.171h.349v4.171z"/>
    <path data-name="Path 15" d="M31.178 55.21v.326h-1.446v3.848h-.349v-3.848h-1.451v-.326z"/>
    <path data-name="Path 16" d="M36.091 55.21l-1.576 2.792v1.379h-.349v-1.379l-1.569-2.792h.4l1.316 2.341h.058l1.321-2.341z"/>
    <path data-name="Path 17" d="M43.014 55.21a.952.952 0 0 1 .7.226.963.963 0 0 1 .223.7v2.318a.968.968 0 0 1-.223.7.954.954 0 0 1-.7.226h-.521v.928h-.349v-.928h-.521a.954.954 0 0 1-.7-.226.964.964 0 0 1-.223-.7v-2.318a.967.967 0 0 1 .223-.7.952.952 0 0 1 .7-.226zm.579 3.246v-2.318a.674.674 0 0 0-.128-.468.6.6 0 0 0-.451-.137h-1.39a.6.6 0 0 0-.451.137.674.674 0 0 0-.128.468v2.318a.673.673 0 0 0 .128.467.6.6 0 0 0 .451.137h1.39a.6.6 0 0 0 .451-.137.677.677 0 0 0 .131-.467z"/>
    <path data-name="Path 18" d="M48.812 55.21h.349v3.243a.807.807 0 0 1-.928.928h-1.39a.807.807 0 0 1-.928-.928V55.21h.349v3.243a.673.673 0 0 0 .128.468.6.6 0 0 0 .451.137h1.39a.6.6 0 0 0 .451-.137.674.674 0 0 0 .128-.468z"/>
    <path data-name="Path 19" d="M52.95 55.21l1.523 4.171h-.37l-.447-1.228h-1.974l-.448 1.228h-.37l1.53-4.171zm-1.149 2.621h1.737l-.834-2.295h-.063z"/>
    <path data-name="Path 20" d="M59.197 59.058v.325h-3.013v-4.171h.349v3.846z"/>
    <path data-name="Path 21" d="M60.906 59.383v-4.171h.346v4.171z"/>
    <path data-name="Path 22" d="M66.207 55.21v.326h-1.448v3.848h-.346v-3.848h-1.449v-.326z"/>
    <path data-name="Path 23" d="M71.121 55.21l-1.577 2.792v1.379h-.347v-1.379l-1.569-2.792h.4l1.316 2.341h.058l1.321-2.341z"/>
    <path data-name="Path 24" d="M78.625 58.107h.347v.346a.967.967 0 0 1-.223.7.953.953 0 0 1-.7.226h-1.39a.953.953 0 0 1-.7-.226.964.964 0 0 1-.223-.7v-2.318a.968.968 0 0 1 .223-.7.953.953 0 0 1 .7-.225h1.39a.953.953 0 0 1 .7.225.964.964 0 0 1 .223.7v.346h-.347v-.346a.674.674 0 0 0-.128-.468.6.6 0 0 0-.451-.137h-1.39a.6.6 0 0 0-.451.137.674.674 0 0 0-.128.468v2.318a.674.674 0 0 0 .128.467.6.6 0 0 0 .451.137h1.39a.6.6 0 0 0 .451-.137.674.674 0 0 0 .128-.467z"/>
    <path data-name="Path 25" d="M83.202 55.21a.953.953 0 0 1 .7.226.964.964 0 0 1 .223.7v2.318a.969.969 0 0 1-.223.7.955.955 0 0 1-.7.226h-1.39a.953.953 0 0 1-.7-.226.964.964 0 0 1-.223-.7v-2.318a.967.967 0 0 1 .223-.7.952.952 0 0 1 .7-.226zm.579 3.246v-2.318a.673.673 0 0 0-.128-.468.6.6 0 0 0-.451-.137h-1.39a.6.6 0 0 0-.451.137.674.674 0 0 0-.128.468v2.318a.674.674 0 0 0 .128.467.6.6 0 0 0 .451.137h1.39a.6.6 0 0 0 .451-.137.676.676 0 0 0 .131-.467z"/>
    <path data-name="Path 26" d="M88.999 55.21h.347v4.174h-.609l-2.23-3.848h-.058v3.848h-.35V55.21h.614l2.23 3.846h.056V55.21z"/>
    <path data-name="Path 27" d="M94.298 55.21v.326h-1.446v3.848h-.346v-3.848h-1.454v-.326z"/>
    <path data-name="Path 28" d="M99.25 56.833a.807.807 0 0 1-.928.927h-.249l1.1 1.623h-.417l-1.1-1.623h-1.3v1.623h-.346v-4.171h2.318a.807.807 0 0 1 .928.928v.693zm-2.9.6h1.969a.59.59 0 0 0 .451-.137.674.674 0 0 0 .128-.467v-.7a.673.673 0 0 0-.128-.467.6.6 0 0 0-.451-.137H96.35z"/>
    <path data-name="Path 29" d="M103.479 55.21a.953.953 0 0 1 .705.226.965.965 0 0 1 .223.7v2.318a.97.97 0 0 1-.223.7.954.954 0 0 1-.705.226h-1.39a.952.952 0 0 1-.7-.226.962.962 0 0 1-.224-.7v-2.318a.965.965 0 0 1 .224-.7.951.951 0 0 1 .7-.226zm.581 3.246v-2.318a.674.674 0 0 0-.127-.468.606.606 0 0 0-.451-.137h-1.391a.6.6 0 0 0-.451.137.672.672 0 0 0-.128.468v2.318a.671.671 0 0 0 .128.467.6.6 0 0 0 .451.137h1.391a.6.6 0 0 0 .451-.137.691.691 0 0 0 .128-.467z"/>
    <path data-name="Path 30" d="M109.389 59.058v.325h-3.013v-4.171h.349v3.846z"/>
</symbol><symbol id="icon-pdf" viewBox="0 0 19.358 21.859">
    <g>
        <path data-name="Path 31" d="M5.114 11.2c0-.589-.409-.94-1.13-.94a2.468 2.468 0 0 0-.6.057v1.89a2.243 2.243 0 0 0 .484.038c.771 0 1.246-.39 1.246-1.045z"/>
        <path data-name="Path 32" d="M9.579 10.279a3.008 3.008 0 0 0-.656.057v4.188a2.624 2.624 0 0 0 .5.029 1.984 1.984 0 0 0 2.165-2.241 1.836 1.836 0 0 0-2.009-2.033z"/>
        <path data-name="Path 33" d="M18.133 7.819h-.525V5.286a.369.369 0 0 0 0-.048.421.421 0 0 0-.1-.278L13.287.147a.426.426 0 0 0-.091-.075l-.025-.017a.442.442 0 0 0-.085-.035l-.023-.008a.428.428 0 0 0-.1-.012H2.607a.858.858 0 0 0-.857.857v6.962h-.525A1.225 1.225 0 0 0-.004 9.044v6.371a1.225 1.225 0 0 0 1.225 1.225h.525V21a.858.858 0 0 0 .857.857h14.148a.858.858 0 0 0 .857-.857v-4.36h.525a1.225 1.225 0 0 0 1.225-1.225V9.044a1.225 1.225 0 0 0-1.225-1.225zM2.607.857h9.929v4.386a.429.429 0 0 0 .429.429h3.786v2.147H2.607zM13.13 12.264a3.244 3.244 0 0 1-1.064 2.593 4.592 4.592 0 0 1-2.952.826 12.581 12.581 0 0 1-1.643-.095V9.3a12.95 12.95 0 0 1 1.957-.133 4.121 4.121 0 0 1 2.621.684 2.832 2.832 0 0 1 1.081 2.413zM1.952 15.616V9.3a11.9 11.9 0 0 1 1.956-.133 3.068 3.068 0 0 1 1.956.513 1.87 1.87 0 0 1 .683 1.481 2.043 2.043 0 0 1-.588 1.519 2.967 2.967 0 0 1-2.08.674 3.624 3.624 0 0 1-.493-.029v2.289H1.952zm14.8 5.153H2.607V16.64h14.144v4.129zM17.996 10.4h-2.46v1.462h2.3v1.178h-2.3v2.574h-1.455v-6.4h3.915z"/>
    </g>
</symbol></svg>