<?xml version="1.0" encoding="utf-8"?>
<!-- Generator: Adobe Illustrator 22.0.0, SVG Export Plug-In . SVG Version: 6.00 Build 0)  -->
<svg version="1.1" id="Слой_1" xmlns="http://www.w3.org/2000/svg" xmlns:xlink="http://www.w3.org/1999/xlink" x="0px" y="0px"
	 viewBox="0 0 452.6 79.9" style="enable-background:new 0 0 452.6 79.9;" xml:space="preserve">
<g>
	<g>
		<g>
			<g>
				<path d="M79.2,32.8c-0.9-1.4-2.9-1.9-4.5-1.1l-10.9,5.8L61,39v13.9l2.6,1.4c0.1,0,0.1,0.1,0.2,0.1l10.7,5.7
					c0.5,0.4,1.1,0.5,1.8,0.5c1.8,0,3.3-1.3,3.3-3V45.9l0.1-11.6C79.7,33.7,79.6,33.2,79.2,32.8z"/>
				<path d="M15.4,28.3c8.5,0,15.4-6.3,15.4-14.1S23.9,0,15.4,0S0,6.3,0,14.1C-0.1,22,6.9,28.3,15.4,28.3z M15.4,8.3
					c3.5,0,6.3,2.6,6.3,5.8c0,3.3-2.9,5.8-6.3,5.8s-6.3-2.6-6.3-5.8C9,10.9,11.9,8.3,15.4,8.3z"/>
				<path d="M54.5,29.1c-2.5,1.1-5.3,1.8-8.2,1.8c-3.6,0-7.1-1-10-2.7H25.4c-2.9,1.8-6.3,2.7-10,2.7c-3,0-5.7-0.6-8.2-1.8
					C5,30.2,3.4,32.5,3.4,35v21.4c0,4,3.5,7.1,7.8,7.1h39.4c4.3,0,7.8-3.3,7.8-7.1V35C58.2,32.5,56.7,30.2,54.5,29.1z"/>
				<path d="M46.2,28.3c8.5,0,15.4-6.3,15.4-14.1S54.8,0,46.2,0S30.8,6.3,30.8,14.1C30.8,22,37.7,28.3,46.2,28.3z M46.2,8.3
					c3.5,0,6.3,2.6,6.3,5.8c0,3.3-2.9,5.8-6.3,5.8s-6.3-2.6-6.3-5.8C39.9,10.9,42.7,8.3,46.2,8.3z"/>
			</g>
		</g>
	</g>
	<g>
		<path d="M140.9,20.3c0,2.9-1.1,5.6-3.2,8L115,54.2c-3,3.5-6.5,5.3-10.3,5.3h-9l3.6-37.9H83l5.2-8.3h17c1.9,0,3.5,0.5,4.8,1.6
			c1.3,1.1,1.9,2.5,1.9,4.2c0,0.2,0,0.4,0,0.7l-3.7,33.4l21.5-25c-2.2-0.4-4-1.3-5.5-2.7c-1.4-1.4-2.2-3.1-2.2-5.1
			c0-2.2,0.9-4,2.7-5.6c1.8-1.5,4-2.3,6.6-2.3c2.6,0,4.8,0.8,6.6,2.3C140,16.3,140.9,18.2,140.9,20.3z"/>
		<path d="M163.3,40.4l-3.1,8.3h-23.7l3.1-8.3H163.3z"/>
		<path d="M250.5,21.3c0,2.2-0.9,4-2.8,5.5c-1.8,1.5-4,2.3-6.6,2.3s-4.8-0.8-6.6-2.3c-1.8-1.5-2.7-3.4-2.7-5.5c0-0.5,0.1-1.2,0.3-2
			c-1.1-0.1-1.7-0.1-2-0.1c-3.6,0-5.3,1.4-5.3,4.2c0,1.4,1,4.6,3.1,9.6c2.1,4.9,3.1,8.8,3.1,11.6c0,6-3.6,10.5-10.7,13.5
			c-5.3,2.2-11.5,3.3-18.6,3.3c-6.5,0-12.2-0.8-17.3-2.5c-7.1-2.4-10.6-6-10.6-10.9c0-7.1,6.5-10.7,19.5-10.7h13.4l2.6,5.3H199
			c-2.6,0-4.9,0.4-6.9,1.3c-2.5,1.1-3.8,2.8-3.8,5c0,2.5,1.7,4.4,5.2,5.8c2.7,1.1,5.6,1.6,8.6,1.6c3.9,0,7.1-0.8,9.7-2.4
			c3-1.8,4.5-4.5,4.5-7.9c0-2.4-1-5.8-2.9-10.2c-1.9-4.4-2.9-7.9-2.9-10.3c0-8,7.3-12,21.8-12h8.7c2.4,0,4.5,0.8,6.4,2.3
			C249.6,17.2,250.5,19.1,250.5,21.3z"/>
		<path d="M272.1,54.2c-1.1,3.5-4,5.3-8.8,5.3h-17.9c-3.5,0-5.2-1.1-5.2-3.4c0-0.6,0.1-1.2,0.4-1.8l4.5-11.8h-5.8l2.2-5.3
			c4.1-1,7.1-2.2,9.1-3.8c2.3-1.7,4.7-4.9,7.2-9.4h6.9l-5,13.2h9.1c-1.5,3.5-4.4,5.3-8.9,5.3h-2.3l-4.4,11.8H272.1z"/>
		<path d="M318.8,54.2c-0.5,1.8-1.6,3.2-3.2,4.1c-1.3,0.7-2.7,1.1-4.2,1.1h-14.7c-3.4,0-5.2-1-5.2-3.1c-1.8,2.1-4.3,3.1-7.4,3.1
			h-6.2c-1.9,0-3.4-0.5-4.4-1.4c-1-0.9-1.5-2-1.5-3.4c0-0.8,0.2-1.6,0.5-2.4l5.9-15.1h12.8l-6.6,17.1h7.1l6.5-17.1h12.6l-6.4,17.1
			H318.8z"/>
		<path d="M365.6,54.2c-1.2,3.5-4,5.3-8.6,5.3h-13.4c-3.9,0-5.8-1.1-5.7-3.4c-2.6,2.8-6,4.2-10.4,4.2c-2.8,0-5.1-0.7-6.9-2.2
			c-1.8-1.5-2.7-3.6-2.7-6.2c0-4.7,2.1-8.5,6.2-11.2c3.6-2.3,8.1-3.5,13.4-3.5h7.3l6.6-17.3h12.8l-13.1,34.4H365.6z M342.9,42.4H334
			l-2.7,7.1c-0.2,0.7-0.4,1.2-0.4,1.8c0,1.5,1,2.4,3,2.8c0.7,0.1,2.2,0.2,4.5,0.2L342.9,42.4z"/>
		<path d="M392.3,54.2c-0.6,1.9-1.9,3.3-3.8,4.3c-1.4,0.7-2.9,1-4.5,1h-13.9c-3.4,0-5-1.3-5-3.9c0-0.7,0.2-1.5,0.5-2.4l6.1-16h12.8
			l-6.5,17.1H392.3z M389.8,23.7c0,2.2-0.9,4-2.7,5.6c-1.8,1.5-4,2.3-6.6,2.3c-2.6,0-4.8-0.8-6.6-2.3c-1.8-1.5-2.7-3.4-2.7-5.6
			c0-2.2,0.9-4,2.7-5.5c1.8-1.5,4-2.3,6.6-2.3c2.6,0,4.7,0.8,6.6,2.3C388.8,19.7,389.8,21.6,389.8,23.7z"/>
		<path d="M452.1,37.2c-0.9,3.5-3.8,5.3-8.4,5.3h-22c0.8,0.5,1.4,1.4,1.9,2.6c0.5,1.3,0.7,2.4,0.6,3.3c-0.3,3.7-2.1,6.5-5.2,8.6
			c-3,2-6.8,3-11.6,3c-5.5,0-9.8-1-12.8-3.1c-2.6-1.8-4-4.3-4-7.3c0-0.6,0.1-1.2,0.2-1.8c0.6-3.3,2.4-5.9,5.3-7.8
			c3.1-2,7.2-3,12.4-3H452.1z M413.8,42.4h-8.1l-3.2,8.4c-0.2,0.4-0.2,0.9-0.2,1.2c0,1.9,1.9,2.8,5.6,2.8c0.4,0,0.8,0,1.2,0
			L413.8,42.4z"/>
	</g>
	<rect y="75.7" width="452.6" height="4.2"/>
</g>
</svg>
