<svg xmlns="http://www.w3.org/2000/svg" xmlns:xlink="http://www.w3.org/1999/xlink" width="22.156" height="20" viewBox="0 0 22.156 20">
  <metadata><?xpacket begin="﻿" id="W5M0MpCehiHzreSzNTczkc9d"?>
<x:xmpmeta xmlns:x="adobe:ns:meta/" x:xmptk="Adobe XMP Core 5.6-c142 79.160924, 2017/07/13-01:06:39        ">
   <rdf:RDF xmlns:rdf="http://www.w3.org/1999/02/22-rdf-syntax-ns#">
      <rdf:Description rdf:about=""/>
   </rdf:RDF>
</x:xmpmeta>
                                                                                                    
                                                                                                    
                                                                                                    
                                                                                                    
                                                                                                    
                                                                                                    
                                                                                                    
                                                                                                    
                                                                                                    
                                                                                                    
                                                                                                    
                                                                                                    
                                                                                                    
                                                                                                    
                                                                                                    
                                                                                                    
                                                                                                    
                                                                                                    
                                                                                                    
                                                                                                    
                           
<?xpacket end="w"?></metadata>
<defs>
    <style>
      .cls-1 {
        fill: #614261;
        fill-rule: evenodd;
        filter: url(#filter);
      }
    </style>
    <filter id="filter" x="921.844" y="12718" width="22.156" height="20" filterUnits="userSpaceOnUse">
      <feOffset result="offset" dx="0.707" dy="0.707" in="SourceAlpha"/>
      <feGaussianBlur result="blur"/>
      <feFlood result="flood" flood-opacity="0.25"/>
      <feComposite result="composite" operator="in" in2="blur"/>
      <feBlend result="blend" in="SourceGraphic"/>
      <feFlood result="flood-2" flood-color="#fff"/>
      <feComposite result="composite-2" operator="in" in2="SourceGraphic"/>
      <feBlend result="blend-2" in2="blend"/>
    </filter>
  </defs>
  <path id="Apartment_Building" data-name="Apartment Building" class="cls-1" d="M922.981,12724.8h5.66a1.121,1.121,0,0,1,1.132,1.1v9.1a1.121,1.121,0,0,1-1.132,1.1h-5.66a1.121,1.121,0,0,1-1.132-1.1v-9.1A1.121,1.121,0,0,1,922.981,12724.8Zm0,1.1h1.132v2.3h-1.132v-2.3Zm2.264,0h1.132v2.3h-1.132v-2.3Zm2.264,0h1.132v2.3h-1.132v-2.3Zm-4.528,3.4h1.132v2.3h-1.132v-2.3Zm2.264,0h1.132v2.3h-1.132v-2.3Zm2.264,0h1.132v2.3h-1.132v-2.3Zm-4.528,3.4h1.132v2.3h-1.132v-2.3Zm4.528,0h1.132v2.3h-1.132v-2.3Zm4.529-14.7h8.986a1.2,1.2,0,0,1,1.2,1.2v15.8s-0.436,1.1-1.061,1.1h-9.127s-1.133-.5-1.133-1.1v-15.8A1.145,1.145,0,0,1,932.038,12718Zm0,4.6H934.3v2.2h-2.264v-2.2Zm0,3.3H934.3v2.3h-2.264v-2.3Zm0,3.4H934.3v2.3h-2.264v-2.3Zm0,3.4H934.3v2.3h-2.264v-2.3Zm6.792-10.1h2.264v2.2H938.83v-2.2Zm0,3.3h2.264v2.3H938.83v-2.3Zm0,3.4h2.264v2.3H938.83v-2.3Zm0,3.4h2.264v2.3H938.83v-2.3Zm-6.792-13.5H934.3v2.2h-2.264v-2.2Zm6.792,0h2.264v2.2H938.83v-2.2Zm-3.4,3.4H937.7v2.2h-2.264v-2.2Zm0,3.3H937.7v2.3h-2.264v-2.3Zm0,3.4H937.7v2.3h-2.264v-2.3Zm0-10.1H937.7v2.2h-2.264v-2.2Z" transform="translate(-921.844 -12718)"/>
</svg>
