<svg xmlns="http://www.w3.org/2000/svg" width="27.5" height="40" viewBox="0 0 27.5 40">
  <metadata><?xpacket begin="﻿" id="W5M0MpCehiHzreSzNTczkc9d"?>
<x:xmpmeta xmlns:x="adobe:ns:meta/" x:xmptk="Adobe XMP Core 5.6-c142 79.160924, 2017/07/13-01:06:39        ">
   <rdf:RDF xmlns:rdf="http://www.w3.org/1999/02/22-rdf-syntax-ns#">
      <rdf:Description rdf:about=""/>
   </rdf:RDF>
</x:xmpmeta>
                                                                                                    
                                                                                                    
                                                                                                    
                                                                                                    
                                                                                                    
                                                                                                    
                                                                                                    
                                                                                                    
                                                                                                    
                                                                                                    
                                                                                                    
                                                                                                    
                                                                                                    
                                                                                                    
                                                                                                    
                                                                                                    
                                                                                                    
                                                                                                    
                                                                                                    
                                                                                                    
                           
<?xpacket end="w"?></metadata>
<defs>
    <style>
      .cls-1 {
        fill: #0d0d0d;
        fill-rule: evenodd;
      }
    </style>
  </defs>
  <path id="bulb" class="cls-1" d="M463,1438a13.746,13.746,0,0,0-13.75,13.75c0,5.04,4.611,10.38,6.289,15.07,2.5,6.99,2.227,11.18,7.461,11.18,5.312,0,4.956-4.17,7.461-11.15,1.685-4.7,6.289-10.1,6.289-15.1A13.746,13.746,0,0,0,463,1438Zm3.241,33.97-6.2.77c-0.221-.64-0.459-1.39-0.747-2.36a0.329,0.329,0,0,0-.011-0.04l7.736-.97c-0.11.37-.229,0.76-0.33,1.11C466.527,1471.04,466.379,1471.53,466.241,1471.97Zm-7.321-2.84c-0.227-.75-0.483-1.54-0.769-2.38h9.707c-0.152.45-.306,0.9-0.439,1.32Zm4.08,6.37a2.176,2.176,0,0,1-2.5-1.56l5.3-.67C465.035,1475.34,464.476,1475.5,463,1475.5Zm5.84-11.25H457.174c-0.623-1.35-1.37-2.7-2.107-4.02-1.631-2.92-3.317-5.94-3.317-8.48a11.25,11.25,0,0,1,22.5,0c0,2.52-1.687,5.56-3.319,8.49C470.2,1461.56,469.459,1462.91,468.84,1464.25Zm-5.84-20a7.505,7.505,0,0,0-7.5,7.5,0.625,0.625,0,0,0,1.25,0,6.255,6.255,0,0,1,6.25-6.25A0.625,0.625,0,1,0,463,1444.25Z" transform="translate(-449.25 -1438)"/>
</svg>
