<svg xmlns="http://www.w3.org/2000/svg" width="32" height="32" viewBox="0 0 32 32">
  <metadata><?xpacket begin="﻿" id="W5M0MpCehiHzreSzNTczkc9d"?>
<x:xmpmeta xmlns:x="adobe:ns:meta/" x:xmptk="Adobe XMP Core 5.6-c142 79.160924, 2017/07/13-01:06:39        ">
   <rdf:RDF xmlns:rdf="http://www.w3.org/1999/02/22-rdf-syntax-ns#">
      <rdf:Description rdf:about=""/>
   </rdf:RDF>
</x:xmpmeta>
                                                                                                    
                                                                                                    
                                                                                                    
                                                                                                    
                                                                                                    
                                                                                                    
                                                                                                    
                                                                                                    
                                                                                                    
                                                                                                    
                                                                                                    
                                                                                                    
                                                                                                    
                                                                                                    
                                                                                                    
                                                                                                    
                                                                                                    
                                                                                                    
                                                                                                    
                                                                                                    
                           
<?xpacket end="w"?></metadata>
<defs>
    <style>
      .cls-1 {
        fill: #0d0d0d;
        fill-rule: evenodd;
      }
    </style>
  </defs>
  <path id="params" class="cls-1" d="M1070,1948.02V1945a3,3,0,0,0-6,0v3.02a4.96,4.96,0,0,0,0,7.96V1971a3,3,0,0,0,6,0v-15.02A4.96,4.96,0,0,0,1070,1948.02Zm-4-3.02a1,1,0,0,1,2,0v2.1a5.05,5.05,0,0,0-2,0V1945Zm2,26a1,1,0,0,1-2,0v-14.1a5.05,5.05,0,0,0,2,0V1971Zm1.87-18.16a0.749,0.749,0,0,0-.05.16,3.162,3.162,0,0,1-.38.73l-0.02.02a3.037,3.037,0,0,1-.61.63h-0.01a2.69,2.69,0,0,1-.8.43,2.727,2.727,0,0,1-2,0,2.69,2.69,0,0,1-.8-0.43h-0.01a3.037,3.037,0,0,1-.61-0.63l-0.02-.02a3.162,3.162,0,0,1-.38-0.73c-0.02-.06-0.03-0.11-0.05-0.16a2.948,2.948,0,0,1-.13-0.84,2.894,2.894,0,0,1,.13-0.84c0.02-.06.03-0.11,0.05-0.16a3.451,3.451,0,0,1,.38-0.74c0.01,0,.01-0.01.02-0.01a3.037,3.037,0,0,1,.61-0.63,0.01,0.01,0,0,0,.01-0.01,3.238,3.238,0,0,1,.8-0.43,2.868,2.868,0,0,1,2,0,3.238,3.238,0,0,1,.8.43,0.01,0.01,0,0,0,.01.01,3.037,3.037,0,0,1,.61.63c0.01,0,.01.01,0.02,0.01a3.451,3.451,0,0,1,.38.74,1.424,1.424,0,0,0,.05.16,2.894,2.894,0,0,1,.13.84A2.948,2.948,0,0,1,1069.87,1952.84Zm22.13-4.82V1945a3,3,0,0,0-6,0v3.02a4.96,4.96,0,0,0,0,7.96V1971a3,3,0,0,0,6,0v-15.02A4.96,4.96,0,0,0,1092,1948.02Zm-4-3.02a1,1,0,0,1,2,0v2.1a5.05,5.05,0,0,0-2,0V1945Zm2,26a1,1,0,0,1-2,0v-14.1a5.05,5.05,0,0,0,2,0V1971Zm1.87-18.16a0.749,0.749,0,0,0-.05.16,3.162,3.162,0,0,1-.38.73l-0.02.02a3.037,3.037,0,0,1-.61.63h-0.01a2.69,2.69,0,0,1-.8.43,2.727,2.727,0,0,1-2,0,2.69,2.69,0,0,1-.8-0.43h-0.01a3.037,3.037,0,0,1-.61-0.63l-0.02-.02a3.162,3.162,0,0,1-.38-0.73c-0.02-.06-0.03-0.11-0.05-0.16a2.948,2.948,0,0,1-.13-0.84,2.894,2.894,0,0,1,.13-0.84c0.02-.06.03-0.11,0.05-0.16a3.451,3.451,0,0,1,.38-0.74c0.01,0,.01-0.01.02-0.01a3.037,3.037,0,0,1,.61-0.63,0.01,0.01,0,0,0,.01-0.01,3.238,3.238,0,0,1,.8-0.43,2.868,2.868,0,0,1,2,0,3.238,3.238,0,0,1,.8.43,0.01,0.01,0,0,0,.01.01,3.037,3.037,0,0,1,.61.63c0.01,0,.01.01,0.02,0.01a3.451,3.451,0,0,1,.38.74,1.424,1.424,0,0,0,.05.16,2.894,2.894,0,0,1,.13.84A2.948,2.948,0,0,1,1091.87,1952.84Zm-10.87,7.18V1945a3,3,0,0,0-6,0v15.02a4.96,4.96,0,0,0,0,7.96V1971a3,3,0,0,0,6,0v-3.02A4.96,4.96,0,0,0,1081,1960.02Zm-4-15.02a1,1,0,0,1,2,0v14.1a5.05,5.05,0,0,0-2,0V1945Zm2,26a1,1,0,0,1-2,0v-2.1a5.05,5.05,0,0,0,2,0v2.1Zm1.87-6.16a0.749,0.749,0,0,0-.05.16,3.162,3.162,0,0,1-.38.73l-0.02.02a3.037,3.037,0,0,1-.61.63h-0.01a2.69,2.69,0,0,1-.8.43,2.727,2.727,0,0,1-2,0,2.69,2.69,0,0,1-.8-0.43h-0.01a3.037,3.037,0,0,1-.61-0.63l-0.02-.02a3.162,3.162,0,0,1-.38-0.73,0.749,0.749,0,0,0-.05-0.16,2.948,2.948,0,0,1-.13-0.84,2.894,2.894,0,0,1,.13-0.84,1.424,1.424,0,0,0,.05-0.16,3.451,3.451,0,0,1,.38-0.74c0.01,0,.01-0.01.02-0.01a3.037,3.037,0,0,1,.61-0.63,0.01,0.01,0,0,0,.01-0.01,3.238,3.238,0,0,1,.8-0.43,2.868,2.868,0,0,1,2,0,3.238,3.238,0,0,1,.8.43,0.01,0.01,0,0,0,.01.01,3.037,3.037,0,0,1,.61.63c0.01,0,.01.01,0.02,0.01a3.451,3.451,0,0,1,.38.74,1.424,1.424,0,0,0,.05.16,2.894,2.894,0,0,1,.13.84A2.948,2.948,0,0,1,1080.87,1964.84Z" transform="translate(-1062 -1942)"/>
</svg>
