<svg xmlns="http://www.w3.org/2000/svg" width="39.06" height="31.88" viewBox="0 0 39.06 31.88">
  <metadata><?xpacket begin="﻿" id="W5M0MpCehiHzreSzNTczkc9d"?>
<x:xmpmeta xmlns:x="adobe:ns:meta/" x:xmptk="Adobe XMP Core 5.6-c142 79.160924, 2017/07/13-01:06:39        ">
   <rdf:RDF xmlns:rdf="http://www.w3.org/1999/02/22-rdf-syntax-ns#">
      <rdf:Description rdf:about=""/>
   </rdf:RDF>
</x:xmpmeta>
                                                                                                    
                                                                                                    
                                                                                                    
                                                                                                    
                                                                                                    
                                                                                                    
                                                                                                    
                                                                                                    
                                                                                                    
                                                                                                    
                                                                                                    
                                                                                                    
                                                                                                    
                                                                                                    
                                                                                                    
                                                                                                    
                                                                                                    
                                                                                                    
                                                                                                    
                                                                                                    
                           
<?xpacket end="w"?></metadata>
<defs>
    <style>
      .cls-1 {
        fill: #fff;
        fill-rule: evenodd;
      }
    </style>
  </defs>
  <path class="cls-1" d="M1362.33,1536.95h-33.66a2.68,2.68,0,0,1-2.7-2.66v-21.27a2.687,2.687,0,0,1,2.7-2.66h8.16a9.353,9.353,0,0,1-.08-1.99,3.34,3.34,0,0,1,3.36-3.32h10.78a3.34,3.34,0,0,1,3.36,3.32,8.335,8.335,0,0,0,.09,1.99h7.99a2.678,2.678,0,0,1,2.69,2.66v21.27A2.672,2.672,0,0,1,1362.33,1536.95Zm-16.77-5.35a7.976,7.976,0,1,0-8.08-7.98A8.03,8.03,0,0,0,1345.56,1531.6Z" transform="translate(-1325.97 -1505.06)"/>
</svg>
