<?xml version="1.0" encoding="utf-8"?>
<!-- Generator: Adobe Illustrator 22.0.0, SVG Export Plug-In . SVG Version: 6.00 Build 0)  -->
<svg version="1.1" id="Слой_1" xmlns="http://www.w3.org/2000/svg" xmlns:xlink="http://www.w3.org/1999/xlink" x="0px" y="0px"
	 viewBox="0 0 46 46" style="enable-background:new 0 0 46 46;" xml:space="preserve">
<style type="text/css">
	.st0{fill:#FFFFFF;stroke:#2F2F2F;stroke-width:2;}
</style>
<g>
	<circle id="Эллипс_16" class="st0" cx="23" cy="23" r="22"/>
	<path id="Прямоугольник_скругл._углы_1_копия" class="st0" d="M19.4,7.5h7.1c2.8,0,5,2.2,5,5v8.2
		c0,2.8-2.2,5-5,5h-7.1c-2.8,0-5-2.2-5-5v-8.2C14.4,9.7,16.7,7.5,19.4,7.5z"/>
	<path id="Фигура_3_копия_7" class="st0" d="M28.9,37.7H17.1c-2.6,0-4.8-1.6-5.6-4.1L8.3,23.4c-0.6-1.8-0.2-3.7,0.9-5.2
		c1.1-1.5,2.9-2.4,4.8-2.4h18.2c1.9,0,3.6,0.9,4.8,2.4c1.1,1.5,1.4,3.4,0.9,5.2l-3.2,10.2C33.7,36,31.4,37.7,28.9,37.7L28.9,37.7z"
		/>
</g>
</svg>
