<?xml version="1.0" encoding="iso-8859-1"?>
<!-- Generator: Adobe Illustrator 18.0.0, SVG Export Plug-In . SVG Version: 6.00 Build 0)  -->
<!DOCTYPE svg PUBLIC "-//W3C//DTD SVG 1.1//EN" "http://www.w3.org/Graphics/SVG/1.1/DTD/svg11.dtd">
<svg version="1.1" id="Capa_1" xmlns="http://www.w3.org/2000/svg" xmlns:xlink="http://www.w3.org/1999/xlink" x="0px" y="0px"
	 viewBox="0 0 371.291 371.291" style="enable-background:new 0 0 371.291 371.291;" xml:space="preserve">
<g>
	<path d="M361.291,25.645H10c-5.523,0-10,4.477-10,10v225.421c0,5.523,4.477,10,10,10h124.113
		c-2.196,13.304-7.263,36.951-18.034,60.406c-1.422,3.096-1.17,6.703,0.669,9.571c1.839,2.868,5.011,4.603,8.418,4.603h120.957
		c3.407,0,6.579-1.734,8.418-4.603c1.839-2.868,2.091-6.475,0.669-9.571c-10.734-23.375-15.815-47.075-18.023-60.406h124.103
		c5.523,0,10-4.477,10-10V35.645C371.291,30.123,366.814,25.645,361.291,25.645z M351.291,251.066h-18.905v-3.732
		c0-5.523-4.477-10-10-10c-5.523,0-10,4.477-10,10v3.732h-12.612v-3.732c0-5.523-4.477-10-10-10c-5.523,0-10,4.477-10,10v3.732H20
		V45.645h331.291V251.066z"/>
	<path d="M135.249,192.262h96.123l-3.27-12.942c-1.286-5.093,0.223-10.565,3.937-14.28c2.835-2.834,6.602-4.394,10.608-4.394
		c0.84,0,1.679,0.077,2.508,0.217v-48.489c0-5.576-4.535-10.112-10.111-10.112h-99.795c-5.577,0-10.113,4.536-10.113,10.112v69.774
		C125.136,187.725,129.672,192.262,135.249,192.262z M220.043,115.89l-34.897,25.592l-34.894-25.592H220.043z"/>
	<path d="M242.216,171.374c-1.336,0-2.591,0.519-3.536,1.464c-1.356,1.357-1.818,3.404-1.174,5.212l6.12,17.205
		c0.707,1.99,2.601,3.326,4.711,3.326c0.571,0,1.135-0.098,1.678-0.29c1.738-0.619,2.925-2.109,3.239-3.808l10.431,10.428
		c0.943,0.946,2.198,1.465,3.535,1.465c1.337,0,2.592-0.519,3.535-1.464c0.947-0.944,1.466-2.199,1.466-3.536
		c0-1.336-0.519-2.591-1.466-3.535l-10.124-10.127c1.899-0.196,3.549-1.472,4.199-3.297c0.448-1.26,0.378-2.616-0.196-3.824
		c-0.572-1.205-1.582-2.117-2.84-2.565l-17.902-6.366C243.352,171.471,242.789,171.374,242.216,171.374z"/>
</g>
<g>
</g>
<g>
</g>
<g>
</g>
<g>
</g>
<g>
</g>
<g>
</g>
<g>
</g>
<g>
</g>
<g>
</g>
<g>
</g>
<g>
</g>
<g>
</g>
<g>
</g>
<g>
</g>
<g>
</g>
</svg>
