<?xml version="1.0" encoding="iso-8859-1"?>
<!-- Generator: Adobe Illustrator 18.0.0, SVG Export Plug-In . SVG Version: 6.00 Build 0)  -->
<!DOCTYPE svg PUBLIC "-//W3C//DTD SVG 1.1//EN" "http://www.w3.org/Graphics/SVG/1.1/DTD/svg11.dtd">
<svg version="1.1" id="Capa_1" xmlns="http://www.w3.org/2000/svg" xmlns:xlink="http://www.w3.org/1999/xlink" x="0px" y="0px"
	 viewBox="0 0 384.482 384.482" style="enable-background:new 0 0 384.482 384.482;" xml:space="preserve">
<g>
	<path d="M374.482,26.377h-13.241h-338H10c-5.523,0-10,4.477-10,10c0,5.523,4.477,10,10,10h3.241v179.688c0,5.523,4.477,10,10,10h31
		v117.041c0,2.761,2.239,5,5,5h41.333c2.761,0,5-2.239,5-5V236.064h173.334v117.041c0,2.761,2.239,5,5,5h41.333c2.761,0,5-2.239,5-5
		V236.064h31c5.523,0,10-4.477,10-10V46.377h3.241c5.523,0,10-4.477,10-10C384.482,30.854,380.005,26.377,374.482,26.377z
		 M351.241,216.064h-318V46.377h45v6.86h-7.333c-5.523,0-10,4.477-10,10c0,5.523,4.477,10,10,10h34.666c5.523,0,10-4.477,10-10
		c0-5.523-4.477-10-10-10h-7.333v-6.86h84v6.86h-7.333c-5.523,0-10,4.477-10,10c0,5.523,4.477,10,10,10h34.666
		c5.523,0,10-4.477,10-10c0-5.523-4.477-10-10-10h-7.333v-6.86h84v6.86h-7.333c-5.523,0-10,4.477-10,10c0,5.523,4.477,10,10,10
		h34.666c5.523,0,10-4.477,10-10c0-5.523-4.477-10-10-10h-7.333v-6.86h45V216.064z"/>
	<g>
		<path d="M167.145,112.836c-0.514-1.363-1.819-2.266-3.275-2.266c-0.002,0-0.005,0-0.007,0l-5.898,0.012
			c-1.46,0.003-2.764,0.911-3.273,2.279l-20.501,55.082c-0.4,1.074-0.248,2.276,0.406,3.218c0.654,0.941,1.728,1.503,2.874,1.503
			h5.336c1.462,0,2.77-0.909,3.28-2.279l6.063-16.29h17.72l6.145,16.304c0.514,1.363,1.818,2.266,3.275,2.266h5.343
			c0.007,0,0.013,0,0.02,0c1.933,0,3.5-1.567,3.5-3.5c0-0.566-0.134-1.1-0.373-1.573L167.145,112.836z M156.614,142.095
			l4.339-11.658l4.393,11.658H156.614z"/>
		<path d="M218.903,110.331h-22.171c-1.933,0-3.5,1.567-3.5,3.5v54.999c0,1.933,1.567,3.5,3.5,3.5h22.171
			c17.43,0,31.609-13.89,31.609-30.964C250.513,124.253,236.333,110.331,218.903,110.331z M218.903,160.33h-13.671v-37.999h13.671
			c10.813,0,19.609,8.539,19.609,19.035C238.513,151.823,229.716,160.33,218.903,160.33z"/>
	</g>
</g>
<g>
</g>
<g>
</g>
<g>
</g>
<g>
</g>
<g>
</g>
<g>
</g>
<g>
</g>
<g>
</g>
<g>
</g>
<g>
</g>
<g>
</g>
<g>
</g>
<g>
</g>
<g>
</g>
<g>
</g>
</svg>
