<svg xmlns="http://www.w3.org/2000/svg" width="16" height="17" viewBox="0 0 16 17">
  <metadata><?xpacket begin="﻿" id="W5M0MpCehiHzreSzNTczkc9d"?>
<x:xmpmeta xmlns:x="adobe:ns:meta/" x:xmptk="Adobe XMP Core 5.6-c142 79.160924, 2017/07/13-01:06:39        ">
   <rdf:RDF xmlns:rdf="http://www.w3.org/1999/02/22-rdf-syntax-ns#">
      <rdf:Description rdf:about=""/>
   </rdf:RDF>
</x:xmpmeta>
                                                                                                    
                                                                                                    
                                                                                                    
                                                                                                    
                                                                                                    
                                                                                                    
                                                                                                    
                                                                                                    
                                                                                                    
                                                                                                    
                                                                                                    
                                                                                                    
                                                                                                    
                                                                                                    
                                                                                                    
                                                                                                    
                                                                                                    
                                                                                                    
                                                                                                    
                                                                                                    
                           
<?xpacket end="w"?></metadata>
<defs>
    <style>
      .cls-1 {
        fill: #0d0d0d;
        fill-rule: evenodd;
      }
    </style>
  </defs>
  <path id="Shape_7_copy" data-name="Shape 7 copy" class="cls-1" d="M928.027,3566.98a0.907,0.907,0,1,1-1.81,0A0.907,0.907,0,1,1,928.027,3566.98ZM927.138,3583a0.962,0.962,0,1,1,.9-0.96A1.218,1.218,0,0,1,927.138,3583Zm2.615-14.21a0.906,0.906,0,1,1-1.809,0A0.906,0.906,0,1,1,929.753,3568.79Zm-0.888,12.38a0.967,0.967,0,1,1,.9-0.96A1.231,1.231,0,0,1,928.865,3581.17Zm1.727-1.86a1.219,1.219,0,0,1-.9-0.96,0.906,0.906,0,1,1,1.809,0A1.219,1.219,0,0,1,930.592,3579.31Zm0.888-8.66a0.891,0.891,0,1,1-.888-0.97A1.234,1.234,0,0,1,931.48,3570.65Zm1.743,1.81a0.907,0.907,0,1,1-1.809,0A0.906,0.906,0,1,1,933.223,3572.46Zm-0.9,5.02a0.962,0.962,0,1,1,.9-0.96A1.219,1.219,0,0,1,932.319,3577.48Zm1.908-1.75a1.241,1.241,0,1,1,1.184-1.24A1.589,1.589,0,0,1,934.227,3575.73Zm1.907-2.29a0.962,0.962,0,1,1,.9-0.96A1.239,1.239,0,0,1,936.134,3573.44Zm0.889,3.08a0.907,0.907,0,1,1-1.81,0A0.907,0.907,0,1,1,937.023,3576.52Zm0.822-4.95a1.194,1.194,0,0,1-.9-0.94,0.906,0.906,0,1,1,1.809,0A1.193,1.193,0,0,1,937.845,3571.57Zm0.9,6.78a0.891,0.891,0,1,1-1.776,0A0.891,0.891,0,1,1,938.749,3578.35Zm0.839-8.6a1.218,1.218,0,0,1-.9-0.96,1.231,1.231,0,0,1,.9-0.96,1.257,1.257,0,0,1,.905.96A1.242,1.242,0,0,1,939.588,3569.75Zm0.905,10.44a0.906,0.906,0,1,1-1.809,0A0.906,0.906,0,1,1,940.493,3580.19Zm0.806-12.27a1.257,1.257,0,0,1-.9-0.96,1.242,1.242,0,0,1,.9-0.96,1.219,1.219,0,0,1,.9.96A1.233,1.233,0,0,1,941.3,3567.92Zm0.921,14.1a0.906,0.906,0,1,1-1.809,0A0.906,0.906,0,1,1,942.22,3582.02Z" transform="translate(-926.219 -3566)"/>
</svg>
