<?xml version="1.0" encoding="utf-8"?>
<!-- Generator: Adobe Illustrator 22.0.0, SVG Export Plug-In . SVG Version: 6.00 Build 0)  -->
<svg version="1.1" id="Слой_1" xmlns="http://www.w3.org/2000/svg" xmlns:xlink="http://www.w3.org/1999/xlink" x="0px" y="0px"
	 viewBox="0 0 649.6 495.6" style="enable-background:new 0 0 649.6 495.6;" xml:space="preserve">
<g transform="translate(0.000000,71.000000) scale(0.100000,-0.100000)">
	<path d="M1179.4,584c-320-168-600-424-600-560c0-160,200-128,368,64c128,144,568,392,704,392c16,0-48-208-152-456
		c-704-1816-600-1632-1056-1808c-600-224-568-392,40-224c136,40,256,56,256,24s-112-344-240-696s-240-664-240-696
		c0-40,256-64,560-64c320,0,560,32,560,80s-176,80-400,80c-216,0-400,16-400,32c0,24,112,352,248,744c152,424,320,752,424,824
		c672,472,1408,1440,1408,1856c0,368-248,544-776,544C1619.4,712,1315.4,656,1179.4,584z M2187.4,400c192-104,192-272,0-680
		c-152-336-800-1112-864-1048c-40,40,624,1800,680,1808C2019.4,480,2099.4,440,2187.4,400z"/>
	<path d="M4579.4-384c-304-600-616-1024-688-952c-16,16,24,144,96,280c272,560-96,776-512,304c-136-152-280-344-320-424
		c-152-256-208-32-72,256c168,352,168,360-16,360c-112,0-144,40-112,160c24,88,8,160-32,160s-168-232-280-520
		c-200-528-144-648,72-136c72,176,144,248,192,200s32-160-40-304c-200-384,56-624,296-280l112,168l48-168c40-144,96-160,408-136
		c200,16,368,8,368-8s-64-208-136-424c-104-288-120-408-48-480c200-200,584,272,584,728c0,80,56,160,120,192c64,24,120,88,120,136
		c0,72-24,72-112,0s-120-64-160,40c-56,136,136,592,472,1136c160,256,184,336,88,336C4955.4,240,4771.4-24,4579.4-384z M3803.4-1016
		c-80-64-144-144-144-184c0-48-32-72-80-56c-128,32-48,312,144,520l176,192l24-184C3947.4-840,3899.4-952,3803.4-1016z M4379.4-1696
		c-72-336-184-544-280-544c-104,0-104-16,48,424C4291.4-1384,4459.4-1304,4379.4-1696z"/>
	<path d="M5187.4-216c-88-88-48-184,72-184c64,0,120,32,120,72C5379.4-224,5251.4-152,5187.4-216z"/>
	<path d="M5059.4-592c0-56-72-200-168-312c-128-168-144-248-72-376c48-88,136-160,200-160c120,0,440,368,440,512c0,48-56,16-120-72
		c-336-472-448-448-248,40c152,376,160,480,48,480C5099.4-480,5059.4-528,5059.4-592z"/>
	<path d="M5899.4-2392c-64-312-488-888-640-888c-208,0-136,296,80,352c240,64,416,344,288,472s-360-24-720-480
		c-184-232-368-424-408-424c-72,0,72,488,240,792c64,128,64,168-24,168c-104,0-400-496-424-720c0-64-16-168-24-216
		c0-56-168-144-368-192c-424-104-736-424-592-600c160-200,408-120,784,240c200,200,472,448,592,568l224,200l136-168
		c128-144,168-152,360-64c120,56,280,232,352,400c80,168,192,312,248,312c120,0,120-72-16-312c-120-224-88-408,72-408
		c120,0,440,376,440,512c0,48-80-32-176-184c-216-336-280-216-112,192c160,368,160,360-24,360c-112,0-144,40-112,160
		c24,88,8,160-40,160S5931.4-2264,5899.4-2392z M5419.4-2776c-208-144-256-56-72,144c96,112,160,136,184,64
		C5547.4-2624,5499.4-2712,5419.4-2776z M4019.4-3760c-112-200-536-432-600-320c-72,120,32,240,312,368
		C4067.4-3568,4115.4-3576,4019.4-3760z"/>
	<path d="M1667.4-2648c-112-136-208-336-208-440c0-216,200-344,336-208c56,56,128,56,240-8c128-80,176-72,256,48
		c128,168,208,176,208,16c0-144,296-160,336-24c24,72,80,64,184-40c136-144,152-144,336,48c192,184,448,776,368,856
		c-56,56-264-256-216-328c48-88-192-552-288-552c-128,0-96,264,72,584c112,216,120,296,48,296c-56,0-184-160-280-352
		c-88-192-224-400-288-448c-176-152-144,144,48,464c192,312,192,336,40,336c-64,0-120-32-120-72c0-96-568-824-616-776
		c-24,16,24,160,96,320c80,160,120,344,88,408C2235.4-2312,1891.4-2384,1667.4-2648z M2259.4-2520c0-56-64-136-392-520
		c-216-248-240-264-248-112c0,184,400,672,552,672C2219.4-2480,2259.4-2496,2259.4-2520z"/>
	<path d="M3931.4-2768c-88-200-144-416-120-480c56-152,384-112,432,48c40,104,24,104-96,8c-224-192-240-32-32,392
		c152,304,176,400,88,400C4139.4-2400,4019.4-2568,3931.4-2768z"/>
</g>
</svg>
