<svg xmlns="http://www.w3.org/2000/svg" viewBox="0 0 648.94 495.51"><title>logo3</title><g id="Слой_2" data-name="Слой 2"><g id="Слой_1-2" data-name="Слой 1"><path d="M116.94,13.6c-32,16.8-60,42.4-60,56,0,16,20,12.8,36.8-6.4,12.8-14.4,56.8-39.2,70.4-39.2,1.6,0-4.8,20.8-15.2,45.6-70.4,181.6-60,163.2-105.6,180.8-60,22.4-56.8,39.2,4,22.4,13.6-4,25.6-5.6,25.6-2.4s-11.2,34.4-24,69.6-24,66.4-24,69.6c0,4,25.6,6.4,56,6.4,32,0,56-3.2,56-8s-17.6-8-40-8c-21.6,0-40-1.6-40-3.2,0-2.4,11.2-35.2,24.8-74.4,15.2-42.4,32-75.2,42.4-82.4,67.2-47.2,140.8-144,140.8-185.6,0-36.8-24.8-54.4-77.6-54.4C160.94.8,130.54,6.4,116.94,13.6ZM217.74,32c19.2,10.4,19.2,27.2,0,68-15.2,33.6-80,111.2-86.4,104.8-4-4,62.4-180,68-180.8C200.94,24,208.94,28,217.74,32Z"/><path d="M456.94,110.4c-30.4,60-61.6,102.4-68.8,95.2-1.6-1.6,2.4-14.4,9.6-28,27.2-56-9.6-77.6-51.2-30.4-13.6,15.2-28,34.4-32,42.4-15.2,25.6-20.8,3.2-7.2-25.6,16.8-35.2,16.8-36-1.6-36-11.2,0-14.4-4-11.2-16,2.4-8.8.8-16-3.2-16s-16.8,23.2-28,52c-20,52.8-14.4,64.8,7.2,13.6,7.2-17.6,14.4-24.8,19.2-20s3.2,16-4,30.4c-20,38.4,5.6,62.4,29.6,28l11.2-16.8,4.8,16.8c4,14.4,9.6,16,40.8,13.6,20-1.6,36.8-.8,36.8.8s-6.4,20.8-13.6,42.4c-10.4,28.8-12,40.8-4.8,48,20,20,58.4-27.2,58.4-72.8,0-8,5.6-16,12-19.2,6.4-2.4,12-8.8,12-13.6,0-7.2-2.4-7.2-11.2,0s-12,6.4-16-4c-5.6-13.6,13.6-59.2,47.2-113.6,16-25.6,18.4-33.6,8.8-33.6C494.54,48,476.14,74.4,456.94,110.4Zm-77.6,63.2c-8,6.4-14.4,14.4-14.4,18.4,0,4.8-3.2,7.2-8,5.6-12.8-3.2-4.8-31.2,14.4-52l17.6-19.2,2.4,18.4A27.53,27.53,0,0,1,379.34,173.6Zm57.6,68c-7.2,33.6-18.4,54.4-28,54.4-10.4,0-10.4,1.6,4.8-42.4C428.14,210.4,444.94,202.4,436.94,241.6Z"/><path d="M517.74,93.6c-8.8,8.8-4.8,18.4,7.2,18.4,6.4,0,12-3.2,12-7.2C536.94,94.4,524.14,87.2,517.74,93.6Z"/><path d="M504.94,131.2c0,5.6-7.2,20-16.8,31.2-12.8,16.8-14.4,24.8-7.2,37.6,4.8,8.8,13.6,16,20,16,12,0,44-36.8,44-51.2,0-4.8-5.6-1.6-12,7.2-33.6,47.2-44.8,44.8-24.8-4,15.2-37.6,16-48,4.8-48C508.94,120,504.94,124.8,504.94,131.2Z"/><path d="M588.94,311.2c-6.4,31.2-48.8,88.8-64,88.8-20.8,0-13.6-29.6,8-35.2,24-6.4,41.6-34.4,28.8-47.2s-36,2.4-72,48c-18.4,23.2-36.8,42.4-40.8,42.4-7.2,0,7.2-48.8,24-79.2,6.4-12.8,6.4-16.8-2.4-16.8-10.4,0-40,49.6-42.4,72,0,6.4-1.6,16.8-2.4,21.6,0,5.6-16.8,14.4-36.8,19.2-42.4,10.4-73.6,42.4-59.2,60,16,20,40.8,12,78.4-24,20-20,47.2-44.8,59.2-56.8l22.4-20,13.6,16.8c12.8,14.4,16.8,15.2,36,6.4,12-5.6,28-23.2,35.2-40,8-16.8,19.2-31.2,24.8-31.2,12,0,12,7.2-1.6,31.2-12,22.4-8.8,40.8,7.2,40.8,12,0,44-37.6,44-51.2,0-4.8-8,3.2-17.6,18.4-21.6,33.6-28,21.6-11.2-19.2,16-36.8,16-36-2.4-36-11.2,0-14.4-4-11.2-16,2.4-8.8.8-16-4-16S592.14,298.4,588.94,311.2Zm-48,38.4c-20.8,14.4-25.6,5.6-7.2-14.4,9.6-11.2,16-13.6,18.4-6.4C553.74,334.4,548.94,343.2,540.94,349.6Zm-140,98.4c-11.2,20-53.6,43.2-60,32-7.2-12,3.2-24,31.2-36.8C405.74,428.8,410.54,429.6,400.94,448Z"/><path d="M165.74,336.8c-11.2,13.6-20.8,33.6-20.8,44,0,21.6,20,34.4,33.6,20.8,5.6-5.6,12.8-5.6,24,.8,12.8,8,17.6,7.2,25.6-4.8,12.8-16.8,20.8-17.6,20.8-1.6,0,14.4,29.6,16,33.6,2.4,2.4-7.2,8-6.4,18.4,4,13.6,14.4,15.2,14.4,33.6-4.8,19.2-18.4,44.8-77.6,36.8-85.6-5.6-5.6-26.4,25.6-21.6,32.8,4.8,8.8-19.2,55.2-28.8,55.2-12.8,0-9.6-26.4,7.2-58.4,11.2-21.6,12-29.6,4.8-29.6-5.6,0-18.4,16-28,35.2-8.8,19.2-22.4,40-28.8,44.8-17.6,15.2-14.4-14.4,4.8-46.4,19.2-31.2,19.2-33.6,4-33.6-6.4,0-12,3.2-12,7.2,0,9.6-56.8,82.4-61.6,77.6-2.4-1.6,2.4-16,9.6-32,8-16,12-34.4,8.8-40.8C222.54,303.2,188.14,310.4,165.74,336.8Zm59.2-12.8c0,5.6-6.4,13.6-39.2,52-21.6,24.8-24,26.4-24.8,11.2,0-18.4,40-67.2,55.2-67.2C220.94,320,224.94,321.6,224.94,324Z"/><path d="M392.14,348.8c-8.8,20-14.4,41.6-12,48,5.6,15.2,38.4,11.2,43.2-4.8,4-10.4,2.4-10.4-9.6-.8-22.4,19.2-24,3.2-3.2-39.2,15.2-30.4,17.6-40,8.8-40C412.94,312,400.94,328.8,392.14,348.8Z"/></g></g></svg>