<svg id="Capa_1" data-name="Capa 1" xmlns="http://www.w3.org/2000/svg" viewBox="0 0 312.71 423.19"><defs><style>.cls-1{fill:#010002;}</style></defs><title>mobile</title><path class="cls-1" d="M449.5,465c-2.47-18.47-1.52-36.91,0-55.35H346.69V165.43H518.55v42c4.42-.48,8.85-.7,13.28-.78V130a17,17,0,0,0-5.64-12.55,20,20,0,0,0-13.6-5.2H352.65a20,20,0,0,0-13.6,5.21A17,17,0,0,0,333.41,130V448.82a17,17,0,0,0,5.64,12.54,20,20,0,0,0,13.6,5.21h97a5.21,5.21,0,0,1-.15-1.57ZM405.28,141.83V140h55.46v3.74H405.28ZM440.54,445a11.07,11.07,0,0,1-15.2,0,10,10,0,0,1,0-14.56,11.09,11.09,0,0,1,15.2,0,10,10,0,0,1,0,14.55Z" transform="translate(-333.41 -112.24)"/><path class="cls-1" d="M518.86,207.42c0-13.86-.12-27.79-.31-42v42Z" transform="translate(-333.41 -112.24)"/><path class="cls-1" d="M626.87,181.1H466.93c-10.61,0-19.24,8-19.24,17.76V517.69c0,9.77,8.63,17.74,19.24,17.74H626.87c10.62,0,19.24-8,19.24-17.74V198.85C646.11,189.06,637.49,181.1,626.87,181.1ZM519.56,208.82H575v3.74H519.56Zm27.66,308A10.3,10.3,0,1,1,558,506.55,10.54,10.54,0,0,1,547.22,516.85Zm85.61-38.35H461V234.29H632.83Z" transform="translate(-333.41 -112.24)"/></svg>