<?xml version="1.0" encoding="UTF-8"?><!DOCTYPE svg PUBLIC "-//W3C//DTD SVG 1.1//EN" "http://www.w3.org/Graphics/SVG/1.1/DTD/svg11.dtd"><svg xmlns="http://www.w3.org/2000/svg"><symbol id="icon-arrow" viewBox="0 0 17 30">
    <path d="M16.414 16.414a2 2 0 0 0 0-2.828L3.686.858A2 2 0 1 0 .858 3.686L12.172 15 .858 26.314a2 2 0 1 0 2.828 2.828l12.728-12.728zM14 17h1v-4h-1v4z"/>
</symbol><symbol id="icon-build" viewBox="0 0 109 140">
    <path d="M0 0v140h46.714v-27.222h15.572V140H109V0H0zm15.571 15.556h15.572V31.11H15.57V15.556zm31.143 0h15.572V31.11H46.714V15.556zm31.143 0H93.43V31.11H77.857V15.556zm-62.286 31.11h15.572v15.556H15.57V46.667zm31.143 0h15.572v15.556H46.714V46.667zm31.143 0H93.43v15.556H77.857V46.667zM15.571 77.779h15.572v15.555H15.57V77.778zm31.143 0h15.572v15.555H46.714V77.778zm31.143 0H93.43v15.555H77.857V77.778zm-62.286 31.111h15.572v15.555H15.57v-15.555zm62.286 0H93.43v15.555H77.857v-15.555z"/>
</symbol><symbol id="icon-cup" viewBox="0 0 141 140">
    <path d="M.916 140H141v-15.556H.916V140zM124.519 38.889h-15.564V15.556h15.564v23.333zm0-38.889H0v77.778c0 8.251 3.28 16.164 9.118 21.999a31.14 31.14 0 0 0 22.012 9.112h46.695a31.14 31.14 0 0 0 22.012-9.112 31.101 31.101 0 0 0 9.118-22V54.445h15.564a15.57 15.57 0 0 0 11.007-4.556 15.55 15.55 0 0 0 4.558-11V15.557C140.084 6.922 133.08 0 124.519 0z"/>
</symbol><symbol id="icon-dolar" viewBox="0 0 75 140">
    <path d="M0 93.333h15c0 8.4 10.275 15.556 22.5 15.556S60 101.733 60 93.333c0-8.555-7.8-11.666-24.3-15.789C19.8 73.422 0 68.29 0 46.667c0-13.923 11.025-25.745 26.25-29.711V0h22.5v16.956C63.975 20.922 75 32.744 75 46.666H60c0-8.4-10.275-15.555-22.5-15.555S15 38.267 15 46.667c0 8.555 7.8 11.666 24.3 15.789C55.2 66.578 75 71.71 75 93.333c0 13.923-11.025 25.745-26.25 29.711V140h-22.5v-16.956C11.025 119.078 0 107.256 0 93.334z"/>
</symbol><symbol id="icon-logo" viewBox="0 0 67 50">
    <path d="M0 26.345h4.265V13.748l9.512 12.597h3.676V6.53h-4.265v12.2L3.984 6.53H0v19.815z"/>
    <path d="M42.36 26.345c2.218 0 3.649-1.047 4.687-2.462v2.18h4.265V5.397h-4.265v7.473c-1.01-1.217-2.413-2.265-4.686-2.265-3.564 0-6.846 2.774-6.846 7.842 0 5.123 3.338 7.897 6.846 7.897zm1.095-3.651c-1.992 0-3.675-1.67-3.675-4.19 0-2.604 1.683-4.246 3.675-4.246 1.992 0 3.648 1.67 3.648 4.19 0 2.575-1.656 4.246-3.648 4.246z"/>
    <path d="M59.764 26.345c2.722 0 4.742-1.075 6.145-2.83l-2.441-2.18c-1.179 1.104-2.217 1.557-3.648 1.557-1.908 0-3.255-1.02-3.676-2.973h10.467c.028-.396.056-.792.056-1.132 0-4.303-2.301-8.237-7.324-8.237-4.377 0-7.436 3.566-7.436 7.897 0 4.7 3.34 7.898 7.857 7.898zm-3.676-9.115c.337-1.953 1.487-3.227 3.255-3.227 1.796 0 2.918 1.302 3.17 3.227h-6.425z"/>
    <path d="M16.147 50c2.076 0 3.507-.764 4.546-1.925v1.642h4.124v-8.804c0-2.038-.505-3.708-1.627-4.84-1.066-1.076-2.75-1.699-5.079-1.699-2.553 0-4.18.482-5.836 1.218l1.066 3.283c1.375-.51 2.525-.82 4.153-.82 2.132 0 3.227.99 3.227 2.773v.255a10.603 10.603 0 0 0-3.676-.623c-3.564 0-6.06 1.529-6.06 4.841 0 3.057 2.328 4.699 5.162 4.699zm1.29-2.972c-1.374 0-2.328-.68-2.328-1.84 0-1.416 1.122-2.152 2.946-2.152 1.038 0 1.992.227 2.722.566v.765c0 1.557-1.347 2.66-3.34 2.66z"/>
    <path d="M32.498 50c2.216 0 3.647-1.047 4.686-2.463v2.18h4.265V29.053h-4.265v7.473c-1.01-1.218-2.413-2.265-4.686-2.265-3.564 0-6.847 2.774-6.847 7.841 0 5.124 3.34 7.898 6.847 7.898zm1.094-3.652c-1.992 0-3.676-1.67-3.676-4.19 0-2.603 1.684-4.245 3.676-4.245 1.992 0 3.648 1.67 3.648 4.19 0 2.575-1.656 4.245-3.648 4.245z"/>
    <path d="M48.632 50c3.255 0 5.752-1.529 5.752-4.897 0-2.83-2.441-3.85-4.546-4.558-1.627-.566-3.058-.962-3.058-1.811 0-.651.533-1.104 1.571-1.104 1.094 0 2.581.537 4.069 1.415l1.627-2.972c-1.627-1.104-3.704-1.755-5.612-1.755-3.03 0-5.5 1.727-5.5 4.812 0 3 2.386 3.991 4.49 4.614 1.656.51 3.115.821 3.115 1.755 0 .736-.562 1.19-1.796 1.19-1.403 0-3.115-.624-4.742-1.813l-1.824 2.831C44.17 49.292 46.528 50 48.632 50z"/>
    <path d="M31.046 3.567l-12.182 7.09 4.712 8.868a7.21 7.21 0 0 1 2.845-.88l-3.645-6.862 9.73-5.665-1.46-2.551z"/>
    <path d="M27.072 15.198a7.66 7.66 0 0 0-2.954.593 7.713 7.713 0 0 0-2.505 1.688 7.793 7.793 0 0 0-1.673 2.526 7.848 7.848 0 0 0 0 5.96 7.793 7.793 0 0 0 1.673 2.527 7.714 7.714 0 0 0 2.505 1.688c.936.392 1.94.593 2.954.593 2.047 0 4.01-.82 5.458-2.28a7.823 7.823 0 0 0 2.26-5.508 7.823 7.823 0 0 0-2.26-5.506 7.685 7.685 0 0 0-5.459-2.281zm0 4.84c.774 0 1.517.311 2.065.864a2.96 2.96 0 0 1 .633 3.211 2.949 2.949 0 0 1-1.58 1.595 2.899 2.899 0 0 1-3.184-.639 2.947 2.947 0 0 1-.855-2.084c0-.781.308-1.53.855-2.083a2.908 2.908 0 0 1 2.066-.863z"/>
    <path d="M23.742 11.221a2.969 2.969 0 0 1-.855 2.084 2.922 2.922 0 0 1-2.066.863 2.9 2.9 0 0 1-2.065-.863 2.95 2.95 0 0 1-.855-2.084 2.97 2.97 0 0 1 .855-2.084 2.919 2.919 0 0 1 2.065-.863 2.899 2.899 0 0 1 2.066.863 2.949 2.949 0 0 1 .855 2.084z"/>
    <path d="M36.574 4.84a4.877 4.877 0 0 1-1.406 3.424 4.762 4.762 0 0 1-6.786 0 4.863 4.863 0 0 1-1.405-3.423c0-1.284.505-2.515 1.405-3.423a4.762 4.762 0 0 1 6.786 0 4.877 4.877 0 0 1 1.405 3.423z"/>
</symbol><symbol id="icon-people" viewBox="0 0 153 140">
    <path d="M35.017 0C27.807 0 22.14 5.625 22.14 12.837c0 8.799 7.965 16.006 20.022 26.906l3.396 3.073 3.395-3.073c12.057-10.9 20.008-18.107 20.008-26.906C68.961 5.625 63.295 0 56.085 0 52.01 0 48.11 1.884 45.558 4.848 43.006 1.884 39.09 0 35.018 0zM76.5 49.871c-2.74 0-5.453.538-7.984 1.584a20.867 20.867 0 0 0-6.769 4.508 20.794 20.794 0 0 0-4.523 6.748 20.742 20.742 0 0 0-1.588 7.96 20.766 20.766 0 0 0 6.111 14.706A20.896 20.896 0 0 0 76.5 91.47c5.533 0 10.84-2.191 14.753-6.092 3.912-3.9 6.11-9.19 6.11-14.707 0-2.731-.539-5.436-1.588-7.96a20.794 20.794 0 0 0-4.522-6.747 20.867 20.867 0 0 0-6.769-4.508A20.919 20.919 0 0 0 76.5 49.87zM34.773 64.915a17.414 17.414 0 0 0-12.294 5.077 17.305 17.305 0 0 0-5.093 12.256c0 4.597 1.832 9.005 5.093 12.256a17.414 17.414 0 0 0 12.294 5.076c6.12 0 11.474-3.193 14.534-7.908-4.66-5.893-7.58-13.029-7.58-21.002 0-1.386-.006-2.784.272-4.17-2.226-1.04-4.653-1.585-7.226-1.585zm83.454 0c-2.573 0-5 .545-7.226 1.585.278 1.386.272 2.784.272 4.17 0 7.973-2.92 15.11-7.58 21.002 3.06 4.715 8.414 7.908 14.534 7.908 4.611 0 9.034-1.826 12.294-5.076a17.304 17.304 0 0 0 5.093-12.256c0-4.597-1.832-9.006-5.093-12.256a17.413 17.413 0 0 0-12.294-5.077zM76.5 105.335c-13.91 0-41.727 6.933-41.727 20.799V140h83.454v-13.866c0-13.866-27.818-20.799-41.727-20.799zm-50.977 6.716C13.909 114.062 0 119.479 0 128.422V140h20.864v-13.866c0-5.408 2.016-10.2 4.659-14.083zm101.954 0c2.643 3.883 4.659 8.675 4.659 14.083V140H153v-11.578c0-8.943-13.909-14.36-25.523-16.371z"/>
</symbol></svg>