<svg xmlns="http://www.w3.org/2000/svg" xmlns:xlink="http://www.w3.org/1999/xlink" width="20" height="19" viewBox="0 0 20 19"><defs><path id="nly9a" d="M976 16h12a2 2 0 0 1 2 2v12a2 2 0 0 1-2 2h-12a2 2 0 0 1-2-2V18c0-1.1.9-2 2-2zm0 2.97V23a1 1 0 0 0 1 1h4a1 1 0 0 0 1-1v-4.03a1 1 0 0 0-1-1h-4a1 1 0 0 0-1 1zm6 6.03v4a1 1 0 0 0 1 1h4a1 1 0 0 0 1-1v-4a1 1 0 0 0-1-1h-4a1 1 0 0 0-1 1z"/></defs><g><g transform="translate(-972 -14)"><use fill="#fff" xlink:href="#nly9a"/><use fill="#d4d4d4" xlink:href="#nly9a"/></g></g></svg>