<svg xmlns="http://www.w3.org/2000/svg" xmlns:xlink="http://www.w3.org/1999/xlink" width="17" height="20" viewBox="0 0 17 20"><defs><path id="x75ka" d="M867.53 28.94s-.66-.13-.75.31c-.1.44.09.63.21.76s2.67.1 2.74.03a1 1 0 0 0 .23-.5c.04-.2.06-.43.06-.68 0-.35-.03-.74-.07-1.08 0-.1-.04-.33-.1-.41a.9.9 0 0 0-.4-.32c-.27-.11-1.36-.17-1.71-.23-.36-.06-.73-.11-1.06-.2-.24-.06-.43-.35-.59-.49a2.3 2.3 0 0 1-.5-.65c-.06-.1-.1-.2-.15-.26a.51.51 0 0 0-.07-.1.19.19 0 0 0-.04-.03.13.13 0 0 0-.07-.01.1.1 0 0 0-.06.02.14.14 0 0 0-.03.04.29.29 0 0 0-.03.07l-.03.2c-.02.27-.03.69-.1 1.03-.03.18-.08.33-.14.43a.35.35 0 0 1-.1.12.2.2 0 0 1-.12.04 21.09 21.09 0 0 1-2.83-.36 7.7 7.7 0 0 1-1.16-.36.74.74 0 0 1-.19-.12c-.1-.1-.2-.26-.3-.47a8.42 8.42 0 0 1-.48-1.4c-.21-.83-.54-1.6-.66-2.42-.12-.82.46-.89.46-.89s3.55.06 3.7 0c.13-.05.61.02.68-.1.07-.13.11-.44.11-.63v-3.76c0-.48.46-.54.58-.54.15 0 .76 0 .97.02.2.03.4.08.55.15.15.07.28.18.37.3.15.2.24.42.28.6.08.28 3.15.82 3.15.82l.55.07c1.33.12 1.33.65 1.4 1.65.08.94.22 2.69.22 4.56 0 1.7.05 4.3-.34 5.67-.2.69-.46 1.26-.81 1.66-.18.2-.35.4-.59.46-1.07.31-3.93.1-4.36 0a1.8 1.8 0 0 1-.44-.13c-.09-.04-.13-.08-.18-.12a.42.42 0 0 1-.1-.14 1.99 1.99 0 0 1-.14-.52 5.46 5.46 0 0 1-.07-.92c0-.17 0-.5.02-.7.01-.28.1-.73.23-.9.19-.24.48-.39.79-.47.3-.08 1.9 0 1.9 0v.93zm-4.59-12.97l.03 3.2s.05.81-.67.81l-3.3-.02zm6.93 6.5s-.45-1.37-1.35-1.43c-.9-.06-2 1.74-1.23 1.86.78.12.48-.18 1.08-.21.6-.03.84.18 1.29.2.45.04.2-.26.2-.41z"/></defs><g><g transform="translate(-857 -14)"><use fill="#fff" xlink:href="#x75ka"/><use fill="#d4d4d4" xlink:href="#x75ka"/></g></g></svg>