<svg xmlns="http://www.w3.org/2000/svg" xmlns:xlink="http://www.w3.org/1999/xlink" width="20" height="19" viewBox="0 0 20 19"><defs><path id="mdb1a" d="M953 16h12a2 2 0 0 1 2 2v12a2 2 0 0 1-2 2h-12a2 2 0 0 1-2-2V18c0-1.1.9-2 2-2zm10.98 5l-.01-1.98c-.7 0-.5-.04-1.24-.04-.71 0-1.12.12-1.6.35-.46.22-.67.5-.85.87-.17.36-.26.8-.26 1.54V22h-1l-.04 1.96h1.01v5.03h2v-5.03h1.82l.25-1.96h-2.03s-.17-.6.15-.9c.16-.16 1.8-.1 1.8-.1z"/></defs><g><g transform="translate(-949 -14)"><use fill="#fff" xlink:href="#mdb1a"/><use fill="#d4d4d4" xlink:href="#mdb1a"/></g></g></svg>