<svg xmlns="http://www.w3.org/2000/svg" xmlns:xlink="http://www.w3.org/1999/xlink" width="18" height="18" viewBox="0 0 18 18"><defs><path id="h1uka" d="M931.43 16.05h9.14a3.42 3.42 0 0 1 3.43 3.42v9.1a3.42 3.42 0 0 1-3.43 3.43h-9.14a3.42 3.42 0 0 1-3.42-3.42v-9.11a3.42 3.42 0 0 1 3.42-3.42zm-.59 4.97c0 .56.51 1.01 1.14 1.01.63 0 1.14-.45 1.14-1.01 0-.57-.5-1.02-1.14-1.02-.63 0-1.14.45-1.14 1.02zM931 29h2v-6.03h-2zm3.06-.03h1.88v-3.99c.06-.56.3-1.01 1.06-1.01 1.31 0 1 1.15 1 1.15v3.82h2V25.3c0-1.78-.38-2.72-2.06-2.72-1 0-1.64.62-2 1.12v-.8h-1.88z"/></defs><g><g transform="translate(-927 -15)"><use fill="#fff" xlink:href="#h1uka"/><use fill="#d4d4d4" xlink:href="#h1uka"/></g></g></svg>