<svg xmlns="http://www.w3.org/2000/svg" xmlns:xlink="http://www.w3.org/1999/xlink" width="31" height="42" viewBox="0 0 31 42"><defs><path id="g8iha" d="M255.02 1219.27c6.06 0 10.98 4.92 10.98 10.99s-10.98 22.68-10.98 22.68-11-16.61-11-22.68 4.93-10.99 11-10.99zm-4.04 11.74a3.97 3.97 0 1 0 7.94 0 3.97 3.97 0 0 0-7.94 0z"/><path id="g8ihb" d="M243 1254v-36h24v36zm1.03-23.74c0 6.07 10.99 22.68 10.99 22.68s10.98-16.61 10.98-22.68a10.99 10.99 0 0 0-21.97 0zm10.92-3.22a3.97 3.97 0 1 1 0 7.95 3.97 3.97 0 0 1 0-7.95z"/><path id="g8ihc" d="M244 1253v-34h22v11a10.99 10.99 0 0 0-21.97.26c0 6.07 10.99 22.68 10.99 22.68s10.78-16.3 10.98-22.51V1253zm22-22.74v-.25V1230.26zm-11.05-3.22a3.97 3.97 0 1 1 0 7.95 3.97 3.97 0 0 1 0-7.95z"/><path id="g8ihi" d="M244 1254v-36h22v13a10.99 10.99 0 0 0-21.97.26c0 6.07 10.99 22.68 10.99 22.68s10.78-16.3 10.98-22.51V1254zm22-22.74v-.25V1231.26zm-11.05-3.22a3.97 3.97 0 1 1 0 7.95 3.97 3.97 0 0 1 0-7.95z"/><mask id="g8ihg" width="2" height="2" x="-1" y="-1"><path fill="#fff" d="M244 1219h22v34h-22z"/><use xlink:href="#g8iha"/></mask><filter id="g8ihf" width="48" height="60" x="231" y="1206" filterUnits="userSpaceOnUse"><feOffset in="SourceGraphic" result="FeOffset1101Out"/><feGaussianBlur in="FeOffset1101Out" result="FeGaussianBlur1102Out" stdDeviation="1.2 1.2"/></filter><linearGradient id="g8ihh" x1="255" x2="255.03" y1="1252.94" y2="1219.27" gradientUnits="userSpaceOnUse"><stop offset="0" stop-opacity=".2"/><stop offset=".5" stop-color="#fff" stop-opacity=".2"/><stop offset="1" stop-color="#fff" stop-opacity=".2"/></linearGradient><filter id="g8ihd" width="200%" height="200%" x="-50%" y="-50%"><feGaussianBlur in="SourceGraphic" result="FeGaussianBlur1124Out" stdDeviation="0 0"/></filter><mask id="g8ihe"><use fill="#fff" xlink:href="#g8iha"/></mask><filter id="g8ihj" width="200%" height="200%" x="-50%" y="-50%"><feGaussianBlur in="SourceGraphic" result="FeGaussianBlur1131Out" stdDeviation="0 0"/></filter><mask id="g8ihk"><use fill="#fff" xlink:href="#g8iha"/></mask><clipPath id="g8ihl"><use fill="#fff" xlink:href="#g8ihb"/></clipPath></defs><g><g transform="translate(-240 -1215)"><use fill="#fff" fill-opacity=".38" stroke="#fff" stroke-opacity=".38" stroke-width="0" filter="url(#g8ihd)" mask="url(&quot;#g8ihe&quot;)" xlink:href="#g8ihc"/><g filter="url(#g8ihf)"><use fill="none" stroke-width="0" mask="url(&quot;#g8ihg&quot;)" xlink:href="#g8iha"/><use xlink:href="#g8iha"/></g><use fill="#23aded" xlink:href="#g8iha"/><use fill="url(#g8ihh)" xlink:href="#g8iha"/><use fill="#fff" fill-opacity=".38" stroke="#fff" stroke-opacity=".38" stroke-width="0" filter="url(#g8ihd)" mask="url(&quot;#g8ihe&quot;)" xlink:href="#g8ihc"/><use fill="#fff" fill-opacity=".55" stroke="#fff" stroke-opacity=".55" stroke-width="0" filter="url(#g8ihj)" mask="url(&quot;#g8ihk&quot;)" xlink:href="#g8ihi"/><use fill="#fff" fill-opacity="0" stroke="#0f4858" stroke-linecap="round" stroke-linejoin="round" stroke-miterlimit="50" stroke-width="2" clip-path="url(&quot;#g8ihl&quot;)" xlink:href="#g8iha"/></g></g></svg>