<svg xmlns="http://www.w3.org/2000/svg" xmlns:xlink="http://www.w3.org/1999/xlink" width="19" height="19" viewBox="0 0 19 19"><defs><path id="sh4ba" d="M913 16.04a8 8 0 1 1-2.25 15.67 6.8 6.8 0 0 0 .97-2.13l.37-1.8s.72.93 1.9.93 4.15-.74 4.38-4.9c.23-4.17-3.43-5.2-5.17-5.2-1.73 0-5.04 1.08-5.44 4.05-.39 2.97.99 3.76 1.33 4 .34.26.52-.03.52-.03l.37-1.02s-1.4-.84-.5-3.18c.9-2.35 3.42-2.4 3.69-2.4.26 0 3.3-.09 3.27 3.19-.04 3.27-1.65 4.15-2.45 4.16-.8.02-1.24-.44-1.33-.93-.08-.48.13-1.14.58-2.54.44-1.4-.22-2.2-.95-2.2s-1.4.74-1.52 1.7c-.13.97.27 1.63.27 1.63s-.93 3.8-1.1 4.58a7.62 7.62 0 0 0-.04 1.8 8 8 0 0 1 3.1-15.38z"/></defs><g><g transform="translate(-903 -15)"><use fill="#fff" xlink:href="#sh4ba"/><use fill="#d4d4d4" xlink:href="#sh4ba"/></g></g></svg>