<svg xmlns="http://www.w3.org/2000/svg" xmlns:xlink="http://www.w3.org/1999/xlink" width="19" height="17" viewBox="0 0 19 17"><defs><path id="ley7a" d="M882.46 23.34c0 1.59 1.36 2.4 2.86 2.7-.27.08-.38.34-1.41.25.41 1.3 1.59 1.74 3.02 1.77-1.12.88-2.56 1.15-4.1 1.15a6.6 6.6 0 0 1-.77-.04c1.44.92 3.16 1.84 5.01 1.84 6.02 0 8.94-4.47 8.94-8.8l-.01-.41c.64-.47 1.61-1.1 2.05-1.76-.58.26-1.27.01-1.93.1.68-.41 1.49-.92 1.6-2.11-.63.37-1.5.88-2.24 1.02a3.39 3.39 0 0 0-2.39-1.15c-1.8 0-3 1.67-3 3.48 0 .26 0 .41.05.65-2.71-.14-5.6-1.03-7.21-3a3.25 3.25 0 0 0-.45 1.64c0 1.13.87 2.13 1.75 2.72-.53-.02-.43.33-1.77-.05z"/></defs><g><g transform="translate(-881 -16)"><use fill="#fff" xlink:href="#ley7a"/><use fill="#d4d4d4" xlink:href="#ley7a"/></g></g></svg>