<?xml version="1.0" encoding="UTF-8"?><!DOCTYPE svg PUBLIC "-//W3C//DTD SVG 1.1//EN" "http://www.w3.org/Graphics/SVG/1.1/DTD/svg11.dtd"><svg xmlns="http://www.w3.org/2000/svg"><defs>
        <style>
            .cls-1{fill:#fff}
        </style>
    </defs><symbol id="icon-facebook-logo" viewBox="0 0 96.124 96.123">
    <path d="M72.089.02L59.624 0C45.62 0 36.57 9.285 36.57 23.656v10.907H24.037a1.96 1.96 0 0 0-1.96 1.961v15.803a1.96 1.96 0 0 0 1.96 1.96H36.57v39.876a1.96 1.96 0 0 0 1.96 1.96h16.352a1.96 1.96 0 0 0 1.96-1.96V54.287h14.654a1.96 1.96 0 0 0 1.96-1.96l.006-15.803a1.963 1.963 0 0 0-1.961-1.961H56.842v-9.246c0-4.444 1.059-6.7 6.848-6.7l8.397-.003a1.96 1.96 0 0 0 1.959-1.96V1.98A1.96 1.96 0 0 0 72.089.02z"/>
</symbol><symbol id="icon-google-plus-logo" viewBox="0 0 512 512">
    <path d="M319.317 213.333H153.6v76.8h83.345c-11.204 31.855-38.357 51.2-73.054 51.2-46.387 0-87.091-39.893-87.091-85.367 0-45.44 40.704-85.299 87.091-85.299 22.178 0 40.926 7.083 54.221 20.471l6.033 6.084 57.148-57.148-6.212-6.033c-27.051-26.283-65.493-40.175-111.189-40.175C71.996 93.867 0 165.069 0 255.966c0 90.931 71.996 162.167 163.891 162.167 84.71 0 144.896-49.698 157.073-129.698 1.587-10.377 2.398-21.299 2.406-32.469 0-12.262-1.05-25.566-2.807-35.576l-1.246-7.057z"/>
    <path d="M460.843 213.292v-51.158h-59.776v51.2h-51.2v59.734h51.2v51.2h59.776v-51.2H512v-59.776z"/>
</symbol><symbol id="icon-logo" viewBox="0 0 137.22 61.75">
    
    <title>
        logo
    </title>
    <path class="cls-1" d="M0 21.4C0 7.86 10.35 0 22.87 0a21.9 21.9 0 0 1 14.81 5.3l-5.59 5.92a13.12 13.12 0 0 0-8.86-3.25c-7.22 0-12.36 4.94-12.36 13.12 0 8.39 4.37 13.27 13.21 13.27a9.49 9.49 0 0 0 5-1.21V26.1H21.3v-7.57h17.19v18.82c-3.23 2.76-8.94 4.95-15.48 4.95C10.06 42.33 0 35.15 0 21.4z"/>
    <path class="cls-1" d="M49.23.75H60.8l7.62 18.14c.94 2.41 1.76 5 2.7 7.54h.29c.94-2.51 1.73-5.13 2.67-7.54L81.49.75h11.58v40.83h-9.66v-15a129.42 129.42 0 0 1 1.35-13.87h-.27l-3.85 9.66-6.63 15.64h-5.89l-6.65-15.64-3.74-9.66h-.29a129.42 129.42 0 0 1 1.35 13.87v15h-9.51z"/>
    <path class="cls-1" d="M102.16 36.43l6.09-6.34a20.21 20.21 0 0 0 11.53 4.27c4.43 0 6.6-1.52 6.6-3.94s-2.67-3.39-6.77-4.86l-6.1-2.26c-4.86-1.72-9.47-5.2-9.47-11.13 0-6.77 7-12.17 16.71-12.17a23.48 23.48 0 0 1 15.1 5.35l-5.36 5.82a16.75 16.75 0 0 0-9.75-3.2c-3.65 0-6 1.33-6 3.66 0 2.5 3.07 3.41 7.16 4.83l6 2.11c5.73 2 9.31 5.34 9.31 11.11 0 6.78-6.49 12.65-17.68 12.65a28.11 28.11 0 0 1-17.37-5.9z"/>
    <path class="cls-1" d="M4.49 55.65c0-3.95 3-6.24 6.67-6.24a6.41 6.41 0 0 1 4.32 1.54l-1.63 1.73a3.81 3.81 0 0 0-2.59-.95 3.5 3.5 0 0 0-3.6 3.83c0 2.44 1.27 3.87 3.85 3.87a2.75 2.75 0 0 0 1.45-.36v-2.05h-2.27v-2.2h5v5.49a7.24 7.24 0 0 1-4.52 1.44c-3.78 0-6.68-2.09-6.68-6.1z"/>
    <path class="cls-1" d="M34.29 49.63h4.93c2.9 0 5.28.87 5.28 3.7s-2.38 3.92-5.28 3.92h-1.83v4.28h-3.1zm4.68 5.48c1.63 0 2.5-.61 2.5-1.78s-.87-1.57-2.5-1.57h-1.58v3.35zm-.31 1.43l2.14-1.73 4.36 6.72H41.7z"/>
    <path class="cls-1" d="M62.31 55.53c0-3.89 2.53-6.12 6.22-6.12s6.21 2.24 6.21 6.12a6.22 6.22 0 1 1-12.43 0zm9.26 0c0-2.39-1.17-3.8-3-3.8s-3 1.41-3 3.8 1.18 3.9 3 3.9 3-1.52 3-3.9z"/>
    <path class="cls-1" d="M93.04 56.01v-6.38h3.1v6.66c0 2.33.84 3.14 2.37 3.14s2.43-.81 2.43-3.14v-6.66h3v6.38c0 4-1.87 5.74-5.41 5.74s-5.49-1.74-5.49-5.74z"/>
    <path class="cls-1" d="M122.87 49.63h4.7c3 0 5.44.93 5.44 3.83s-2.46 4-5.35 4h-1.7v4h-3.09zm4.6 5.72c1.7 0 2.51-.66 2.51-1.89s-.92-1.7-2.59-1.7h-1.43v3.59z"/>
</symbol><symbol id="icon-odnoklassniki-logo" viewBox="0 0 95.481 95.481">
    <path d="M43.041 67.254c-7.402-.772-14.076-2.595-19.79-7.064-.709-.556-1.441-1.092-2.088-1.713-2.501-2.402-2.753-5.153-.774-7.988 1.693-2.426 4.535-3.075 7.489-1.682.572.27 1.117.607 1.639.969 10.649 7.317 25.278 7.519 35.967.329 1.059-.812 2.191-1.474 3.503-1.812 2.551-.655 4.93.282 6.299 2.514 1.564 2.549 1.544 5.037-.383 7.016-2.956 3.034-6.511 5.229-10.461 6.761-3.735 1.448-7.826 2.177-11.875 2.661.611.665.899.992 1.281 1.376 5.498 5.524 11.02 11.025 16.5 16.566 1.867 1.888 2.257 4.229 1.229 6.425-1.124 2.4-3.64 3.979-6.107 3.81-1.563-.108-2.782-.886-3.865-1.977-4.149-4.175-8.376-8.273-12.441-12.527-1.183-1.237-1.752-1.003-2.796.071-4.174 4.297-8.416 8.528-12.683 12.735-1.916 1.889-4.196 2.229-6.418 1.15-2.362-1.145-3.865-3.556-3.749-5.979.08-1.639.886-2.891 2.011-4.014 5.441-5.433 10.867-10.88 16.295-16.322.359-.362.694-.746 1.217-1.305z"/>
    <path d="M47.55 48.329c-13.205-.045-24.033-10.992-23.956-24.218C23.67 10.739 34.505-.037 47.84 0c13.362.036 24.087 10.967 24.02 24.478-.068 13.199-10.971 23.897-24.31 23.851zm12.001-24.186c-.023-6.567-5.253-11.795-11.807-11.801-6.609-.007-11.886 5.316-11.835 11.943.049 6.542 5.324 11.733 11.896 11.709 6.552-.023 11.768-5.285 11.746-11.851z"/>
</symbol><symbol id="icon-twitter-logo" viewBox="0 0 612 612">
    <path d="M612 116.258a250.714 250.714 0 0 1-72.088 19.772c25.929-15.527 45.777-40.155 55.184-69.411-24.322 14.379-51.169 24.82-79.775 30.48-22.907-24.437-55.49-39.658-91.63-39.658-69.334 0-125.551 56.217-125.551 125.513 0 9.828 1.109 19.427 3.251 28.606-104.326-5.24-196.835-55.223-258.75-131.174-10.823 18.51-16.98 40.078-16.98 63.101 0 43.559 22.181 81.993 55.835 104.479a125.556 125.556 0 0 1-56.867-15.756v1.568c0 60.806 43.291 111.554 100.693 123.104-10.517 2.83-21.607 4.398-33.08 4.398-8.107 0-15.947-.803-23.634-2.333 15.985 49.907 62.336 86.199 117.253 87.194-42.947 33.654-97.099 53.655-155.916 53.655-10.134 0-20.116-.612-29.944-1.721 55.567 35.681 121.536 56.485 192.438 56.485 230.948 0 357.188-191.291 357.188-357.188l-.421-16.253c24.666-17.593 46.005-39.697 62.794-64.861z"/>
</symbol><symbol id="icon-vk-logo" viewBox="0 0 363.301 363.301">
    <path d="M347.506 240.442c-7.91-9.495-16.899-18.005-25.592-26.235-3.091-2.927-6.287-5.953-9.368-8.962-8.845-8.648-9.167-11.897-2.164-21.72 4.845-6.771 9.982-13.551 14.95-20.108 4.506-5.949 9.166-12.101 13.632-18.273l.917-1.269c8.536-11.811 17.364-24.024 22.062-38.757 1.22-3.887 2.501-9.607-.428-14.39-2.927-4.779-8.605-6.237-12.622-6.918-1.987-.337-3.96-.383-5.791-.383l-55.901-.04-.462-.004c-8.452 0-14.148 3.983-17.412 12.178-3.116 7.83-6.539 16.168-10.445 24.096-7.773 15.787-17.645 33.97-31.93 49.135l-.604.645c-1.687 1.813-3.598 3.866-4.995 3.866-.214 0-.447-.041-.711-.124-2.959-1.153-4.945-8.316-4.855-11.648a6.35 6.35 0 0 0 .002-.138l-.039-64.61c0-.224-.016-.446-.045-.668-1.422-10.503-4.572-17.041-16.474-19.372a4.923 4.923 0 0 0-.961-.094h-58.126c-9.47 0-14.688 3.849-19.593 9.61-1.324 1.54-4.08 4.746-2.714 8.635 1.386 3.947 5.885 4.791 7.35 5.065 7.272 1.384 11.371 5.832 12.532 13.604 2.027 13.496 2.276 27.901.784 45.334-.416 4.845-1.239 8.587-2.595 11.784-.315.746-1.432 3.181-2.571 3.182-.362 0-1.409-.142-3.316-1.456-4.509-3.089-7.808-7.497-11.654-12.942-13.084-18.491-24.065-38.861-33.575-62.288-3.527-8.624-10.114-13.452-18.556-13.594-9.276-.141-17.686-.209-25.707-.209-8.764 0-16.889.081-24.823.246-6.792.12-11.49 2.156-13.962 6.056-2.476 3.903-2.315 9.03.479 15.236 22.366 49.723 42.645 85.876 65.755 117.228 16.193 21.938 32.435 37.123 51.109 47.784 19.674 11.255 41.722 16.727 67.402 16.727 2.911 0 5.921-.071 8.956-.213 14.922-.727 20.458-6.128 21.158-20.657.333-7.425 1.145-15.212 4.795-21.853 2.304-4.184 4.452-4.184 5.158-4.184 1.36 0 3.046.626 4.857 1.799 3.248 2.12 6.033 4.96 8.316 7.441 2.149 2.357 4.274 4.738 6.401 7.12 4.59 5.141 9.336 10.456 14.294 15.497 10.852 11.041 22.807 15.897 36.538 14.843h51.252c.109 0 .219-.004.328-.011 5.107-.337 9.53-3.17 12.135-7.772 3.227-5.701 3.162-12.974-.174-19.46-3.785-7.334-8.695-13.6-12.997-18.759z"/>
</symbol></svg>