<svg xmlns="http://www.w3.org/2000/svg" viewBox="0 0 449 513"><defs><style>.cls-1{fill:#ff5e5d;stroke:#000;stroke-miterlimit:10;}</style></defs><title>Слой 1ads</title><g id="Слой_2" data-name="Слой 2"><g id="Слой_1-2" data-name="Слой 1"><path class="cls-1" d="M148.5,288.5h-40a12,12,0,0,1-12-12v-40a12,12,0,0,1,12-12h40a12,12,0,0,1,12,12v40A12,12,0,0,1,148.5,288.5Zm108-12v-40a12,12,0,0,0-12-12h-40a12,12,0,0,0-12,12v40a12,12,0,0,0,12,12h40A12,12,0,0,0,256.5,276.5Zm96,0v-40a12,12,0,0,0-12-12h-40a12,12,0,0,0-12,12v40a12,12,0,0,0,12,12h40A12,12,0,0,0,352.5,276.5Zm-96,96v-40a12,12,0,0,0-12-12h-40a12,12,0,0,0-12,12v40a12,12,0,0,0,12,12h40A12,12,0,0,0,256.5,372.5Zm-96,0v-40a12,12,0,0,0-12-12h-40a12,12,0,0,0-12,12v40a12,12,0,0,0,12,12h40A12,12,0,0,0,160.5,372.5Zm192,0v-40a12,12,0,0,0-12-12h-40a12,12,0,0,0-12,12v40a12,12,0,0,0,12,12h40A12,12,0,0,0,352.5,372.5Zm96-259v350a49,49,0,0,1-49,49H49.5a49,49,0,0,1-49-49v-350a49,49,0,0,1,49-49h46a1,1,0,0,0,1-1v-50a13,13,0,0,1,13-13h38a13,13,0,0,1,13,13v50a1,1,0,0,0,1,1h126a1,1,0,0,0,1-1v-50a13,13,0,0,1,13-13h38a13,13,0,0,1,13,13v50a1,1,0,0,0,1,1h46A49,49,0,0,1,448.5,113.5Zm-48,345v-298H48.5v298a6,6,0,0,0,6,6h340A6,6,0,0,0,400.5,458.5Z"/></g></g></svg>