<svg xmlns="http://www.w3.org/2000/svg" width="37" height="37" viewBox="0 0 37 37">
  <metadata><?xpacket begin="﻿" id="W5M0MpCehiHzreSzNTczkc9d"?>
<x:xmpmeta xmlns:x="adobe:ns:meta/" x:xmptk="Adobe XMP Core 5.6-c142 79.160924, 2017/07/13-01:06:39        ">
   <rdf:RDF xmlns:rdf="http://www.w3.org/1999/02/22-rdf-syntax-ns#">
      <rdf:Description rdf:about=""/>
   </rdf:RDF>
</x:xmpmeta>
                                                                                                    
                                                                                                    
                                                                                                    
                                                                                                    
                                                                                                    
                                                                                                    
                                                                                                    
                                                                                                    
                                                                                                    
                                                                                                    
                                                                                                    
                                                                                                    
                                                                                                    
                                                                                                    
                                                                                                    
                                                                                                    
                                                                                                    
                                                                                                    
                                                                                                    
                                                                                                    
                           
<?xpacket end="w"?></metadata>
<defs>
    <style>
      .cls-1 {
        fill: #ff5d5e;
        fill-rule: evenodd;
      }
    </style>
  </defs>
  <path id="Forma_1" data-name="Forma 1" class="cls-1" d="M820.3,112.43a36.167,36.167,0,0,0-2.852-2.536,0.6,0.6,0,0,0-.791.047l-1.687,1.688-4.529-4.53a0.6,0.6,0,1,0-.844.845l4.951,4.95a0.6,0.6,0,0,0,.844,0l1.729-1.728c0.519,0.429,1.453,1.226,2.335,2.109s1.684,1.821,2.113,2.34c-0.8.78-2.306,2.036-3.425,2.14-2.3.212-6.651-2.385-10.581-6.315s-6.526-8.281-6.314-10.581c0.1-1.119,1.359-2.623,2.14-3.425,0.518,0.428,1.454,1.227,2.34,2.112s1.679,1.816,2.109,2.336l-1.729,1.728a0.6,0.6,0,0,0,0,.844l1.8,1.8a0.6,0.6,0,0,0,.844-0.844l-1.378-1.378,1.687-1.686a0.6,0.6,0,0,0,.047-0.792,32.565,32.565,0,0,0-5.389-5.389,0.6,0.6,0,0,0-.773.03c-0.276.254-2.7,2.539-2.887,4.553-0.246,2.67,2.43,7.305,6.659,11.534,4.05,4.049,8.471,6.675,11.183,6.675,0.121,0,.238-0.005.351-0.016,2.015-.185,4.3-2.611,4.554-2.887a0.6,0.6,0,0,0,.03-0.773A36.21,36.21,0,0,0,820.3,112.43Zm4.285-18.013a18.5,18.5,0,0,0-28.531,23.26l-2.259,6.776a0.6,0.6,0,0,0,.755.755l6.776-2.259A18.5,18.5,0,0,0,824.581,94.417ZM811.5,124.805a17.211,17.211,0,0,1-9.752-3.007,0.592,0.592,0,0,0-.336-0.1,0.584,0.584,0,0,0-.189.03L795.3,123.7l1.974-5.922a0.594,0.594,0,0,0-.074-0.525A17.307,17.307,0,1,1,811.5,124.805Z" transform="translate(-793 -89)"/>
</svg>
