<svg xmlns="http://www.w3.org/2000/svg" viewBox="0 0 385 513"><defs><style>.cls-1{fill:#ff5d5e;stroke:#ff5d5e;stroke-miterlimit:10;}</style></defs><title>Слой 1ads</title><g id="Слой_2" data-name="Слой 2"><g id="Слой_1-2" data-name="Слой 1"><path class="cls-1" d="M120.5,72.5a72,72,0,1,1,72,72A72,72,0,0,1,120.5,72.5Zm254.63,1.37a32,32,0,0,0-45.26,0L243.24,160.5H141.75L55.13,73.87A32,32,0,0,0,9.87,119.13l94.63,94.62V480.5a32,32,0,0,0,32,32h16a32,32,0,0,0,32-32v-112h16v112a32,32,0,0,0,32,32h16a32,32,0,0,0,32-32V213.75l94.63-94.62A32,32,0,0,0,375.13,73.87Z"/></g></g></svg>