<svg xmlns="http://www.w3.org/2000/svg" width="22" height="21" viewBox="0 0 22 21">
  <metadata><?xpacket begin="﻿" id="W5M0MpCehiHzreSzNTczkc9d"?>
<x:xmpmeta xmlns:x="adobe:ns:meta/" x:xmptk="Adobe XMP Core 5.6-c142 79.160924, 2017/07/13-01:06:39        ">
   <rdf:RDF xmlns:rdf="http://www.w3.org/1999/02/22-rdf-syntax-ns#">
      <rdf:Description rdf:about=""/>
   </rdf:RDF>
</x:xmpmeta>
                                                                                                    
                                                                                                    
                                                                                                    
                                                                                                    
                                                                                                    
                                                                                                    
                                                                                                    
                                                                                                    
                                                                                                    
                                                                                                    
                                                                                                    
                                                                                                    
                                                                                                    
                                                                                                    
                                                                                                    
                                                                                                    
                                                                                                    
                                                                                                    
                                                                                                    
                                                                                                    
                           
<?xpacket end="w"?></metadata>
<defs>
    <style>
      .cls-1 {
        fill: #ff5d5e;
        fill-rule: evenodd;
      }
    </style>
  </defs>
  <path id="Forma_1" data-name="Forma 1" class="cls-1" d="M1220.73,1367.09h-0.18a8.871,8.871,0,0,0-4.61-6.36,3.443,3.443,0,0,0,1.88-3.07,0.645,0.645,0,1,0-1.29,0,2.116,2.116,0,0,1-1.24,1.93,3.463,3.463,0,0,0,.59-1.93,0.645,0.645,0,1,0-1.29,0,2.079,2.079,0,0,1-2.06,2.1H1212a8.74,8.74,0,0,0-8.55,7.33h-0.19a2.311,2.311,0,0,0,0,4.62h0.1a5.726,5.726,0,0,0,5.63,5.12h0a4.534,4.534,0,0,0,6.08,0,5.715,5.715,0,0,0,5.57-5.12h0.09A2.31,2.31,0,0,0,1220.73,1367.09Zm-17.41,1.53v1.77h-0.06a1,1,0,0,1,0-1.99h0.06v0.22Zm16.07,2.42a4.431,4.431,0,0,1-4.38,4.47h-0.17a0.626,0.626,0,0,0-.48.19,3.26,3.26,0,0,1-4.66,0,0.646,0.646,0,0,0-.46-0.2h-0.03a1.62,1.62,0,0,1-.22.01,4.431,4.431,0,0,1-4.38-4.47v-2.42a7.391,7.391,0,1,1,14.78,0v2.42Zm1.34-.65h-0.05v-1.99h0.05A1,1,0,0,1,1220.73,1370.39Zm-5.19,1.22a0.633,0.633,0,0,0-.9-0.13l-0.47.37a3.514,3.514,0,0,1-4.34,0l-0.47-.37a0.633,0.633,0,0,0-.9.13,0.663,0.663,0,0,0,.12.92l0.47,0.36a4.776,4.776,0,0,0,5.9,0l0.47-.36A0.673,0.673,0,0,0,1215.54,1371.61Zm-6.73-3.69a0.78,0.78,0,1,1-.77.78A0.779,0.779,0,0,1,1208.81,1367.92Zm6.38,0a0.78,0.78,0,1,1-.77.78A0.779,0.779,0,0,1,1215.19,1367.92Z" transform="translate(-1201 -1357)"/>
</svg>
