<svg xmlns="http://www.w3.org/2000/svg" width="22" height="20" viewBox="0 0 22 20">
  <metadata><?xpacket begin="﻿" id="W5M0MpCehiHzreSzNTczkc9d"?>
<x:xmpmeta xmlns:x="adobe:ns:meta/" x:xmptk="Adobe XMP Core 5.6-c142 79.160924, 2017/07/13-01:06:39        ">
   <rdf:RDF xmlns:rdf="http://www.w3.org/1999/02/22-rdf-syntax-ns#">
      <rdf:Description rdf:about=""/>
   </rdf:RDF>
</x:xmpmeta>
                                                                                                    
                                                                                                    
                                                                                                    
                                                                                                    
                                                                                                    
                                                                                                    
                                                                                                    
                                                                                                    
                                                                                                    
                                                                                                    
                                                                                                    
                                                                                                    
                                                                                                    
                                                                                                    
                                                                                                    
                                                                                                    
                                                                                                    
                                                                                                    
                                                                                                    
                                                                                                    
                           
<?xpacket end="w"?></metadata>
<defs>
    <style>
      .cls-1 {
        fill: #ff5d5e;
        fill-rule: evenodd;
      }
    </style>
  </defs>
  <path id="Shape_1_копия" data-name="Shape 1 копия" class="cls-1" d="M1220.94,1290.75a9.3,9.3,0,0,0-17.88,0,2.953,2.953,0,0,0,0,5.63,9.3,9.3,0,0,0,17.88,0A2.953,2.953,0,0,0,1220.94,1290.75Zm-18.13,4.61a2.122,2.122,0,0,1,0-3.59A9.561,9.561,0,0,0,1202.81,1295.36Zm9.19,6.93a8.639,8.639,0,0,1-8.54-8.72,8.756,8.756,0,0,1,4.52-7.7,8.774,8.774,0,0,0,4.74,4.35,0.4,0.4,0,0,0,.15.03,0.41,0.41,0,0,0,.38-0.26,0.432,0.432,0,0,0-.23-0.55,8.161,8.161,0,0,1-4.3-3.93,8.473,8.473,0,0,1,3.02-.67,5.887,5.887,0,0,0,2.79,2.76,0.317,0.317,0,0,0,.16.04,0.411,0.411,0,0,0,.38-0.25,0.418,0.418,0,0,0-.21-0.55,5.173,5.173,0,0,1-2.17-1.97A8.733,8.733,0,0,1,1212,1302.29Zm9.19-6.93a9.561,9.561,0,0,0,0-3.59A2.122,2.122,0,0,1,1221.19,1295.36Zm-12.7-2.31a1.8,1.8,0,0,0-1.78,1.82,0.414,0.414,0,0,0,.41.42,0.421,0.421,0,0,0,.41-0.42,0.955,0.955,0,1,1,1.91,0,0.421,0.421,0,0,0,.41.42,0.414,0.414,0,0,0,.41-0.42A1.791,1.791,0,0,0,1208.49,1293.05Zm7.02,0a1.806,1.806,0,0,0-1.78,1.82,0.415,0.415,0,1,0,.83,0,0.955,0.955,0,1,1,1.91,0,0.421,0.421,0,0,0,.41.42,0.414,0.414,0,0,0,.41-0.42A1.8,1.8,0,0,0,1215.51,1293.05Zm-1,4.64a0.41,0.41,0,0,0-.58,0,2.627,2.627,0,0,1-3.78,0,0.41,0.41,0,0,0-.58,0,0.435,0.435,0,0,0,0,.6,3.453,3.453,0,0,0,4.94,0A0.435,0.435,0,0,0,1214.51,1297.69Zm-1.96-2.21h-1.1a0.414,0.414,0,0,0-.41.42,0.421,0.421,0,0,0,.41.42h1.1a0.421,0.421,0,0,0,.41-0.42A0.414,0.414,0,0,0,1212.55,1295.48Zm8.39-3.86a9.3,9.3,0,0,0-17.88,0,2.953,2.953,0,0,0,0,5.63,9.3,9.3,0,0,0,17.88,0A2.953,2.953,0,0,0,1220.94,1291.62Zm-18.13,4.61a2.122,2.122,0,0,1,0-3.59A9.561,9.561,0,0,0,1202.81,1296.23Zm9.19,6.93a8.642,8.642,0,0,1-8.54-8.73,8.752,8.752,0,0,1,4.52-7.69,8.774,8.774,0,0,0,4.74,4.35,0.4,0.4,0,0,0,.15.03,0.41,0.41,0,0,0,.38-0.26,0.432,0.432,0,0,0-.23-0.55,8.161,8.161,0,0,1-4.3-3.93,8.473,8.473,0,0,1,3.02-.67,5.887,5.887,0,0,0,2.79,2.76,0.317,0.317,0,0,0,.16.04,0.411,0.411,0,0,0,.38-0.25,0.418,0.418,0,0,0-.21-0.55,5.173,5.173,0,0,1-2.17-1.97A8.733,8.733,0,0,1,1212,1303.16Zm9.19-6.93a9.561,9.561,0,0,0,0-3.59A2.122,2.122,0,0,1,1221.19,1296.23Zm-12.7-2.31a1.8,1.8,0,0,0-1.78,1.82,0.414,0.414,0,0,0,.41.42,0.421,0.421,0,0,0,.41-0.42,0.955,0.955,0,1,1,1.91,0,0.421,0.421,0,0,0,.41.42,0.414,0.414,0,0,0,.41-0.42A1.791,1.791,0,0,0,1208.49,1293.92Zm7.02,0a1.806,1.806,0,0,0-1.78,1.82,0.415,0.415,0,1,0,.83,0,0.955,0.955,0,1,1,1.91,0,0.421,0.421,0,0,0,.41.42,0.414,0.414,0,0,0,.41-0.42A1.8,1.8,0,0,0,1215.51,1293.92Zm-1,4.64a0.41,0.41,0,0,0-.58,0,2.627,2.627,0,0,1-3.78,0,0.41,0.41,0,0,0-.58,0,0.435,0.435,0,0,0,0,.6,3.453,3.453,0,0,0,4.94,0A0.435,0.435,0,0,0,1214.51,1298.56Zm-1.96-2.21h-1.1a0.414,0.414,0,0,0-.41.42,0.421,0.421,0,0,0,.41.42h1.1a0.421,0.421,0,0,0,.41-0.42A0.414,0.414,0,0,0,1212.55,1296.35Z" transform="translate(-1201 -1284)"/>
</svg>
