<svg xmlns="http://www.w3.org/2000/svg" viewBox="0 0 577 513"><defs><style>.cls-1{fill:#ff5d5e;stroke:#ff5d5e;stroke-miterlimit:10;}</style></defs><title>Слой 1ads</title><g id="Слой_2" data-name="Слой 2"><g id="Слой_1-2" data-name="Слой 1"><path class="cls-1" d="M570,440.51c18.46,32-4.71,72-41.58,72H48.55c-36.93,0-60-40.05-41.57-72l239.94-416c18.47-32,64.72-32,83.16,0L570,440.51Zm-281.52-86a46,46,0,1,0,46,46A46,46,0,0,0,288.5,354.5ZM244.83,189.15l7.42,136a12,12,0,0,0,12,11.35h48.54a12,12,0,0,0,12-11.35l7.41-136a12,12,0,0,0-12-12.65H256.81a12,12,0,0,0-12,12.65Z"/></g></g></svg>