<svg xmlns="http://www.w3.org/2000/svg" width="62" height="65" viewBox="0 0 62 65">
  <metadata><?xpacket begin="﻿" id="W5M0MpCehiHzreSzNTczkc9d"?>
<x:xmpmeta xmlns:x="adobe:ns:meta/" x:xmptk="Adobe XMP Core 5.6-c142 79.160924, 2017/07/13-01:06:39        ">
   <rdf:RDF xmlns:rdf="http://www.w3.org/1999/02/22-rdf-syntax-ns#">
      <rdf:Description rdf:about=""/>
   </rdf:RDF>
</x:xmpmeta>
                                                                                                    
                                                                                                    
                                                                                                    
                                                                                                    
                                                                                                    
                                                                                                    
                                                                                                    
                                                                                                    
                                                                                                    
                                                                                                    
                                                                                                    
                                                                                                    
                                                                                                    
                                                                                                    
                                                                                                    
                                                                                                    
                                                                                                    
                                                                                                    
                                                                                                    
                                                                                                    
                           
<?xpacket end="w"?></metadata>
<defs>
    <style>
      .cls-1 {
        fill: #ff5d5e;
        fill-rule: evenodd;
      }
    </style>
  </defs>
  <path class="cls-1" d="M1210.33,4683.86a31.88,31.88,0,0,0-3.21-5.55,1,1,0,0,0-1.4-.22,1.008,1.008,0,0,0-.22,1.41,29.131,29.131,0,0,1,3,5.2A1.007,1.007,0,1,0,1210.33,4683.86Zm2.11,6.09c-0.28-1.13-.62-2.24-1-3.32a1,1,0,0,0-1.89.67c0.36,1.02.67,2.07,0.94,3.14a1,1,0,0,0,.97.76,1.134,1.134,0,0,0,.25-0.03A1.018,1.018,0,0,0,1212.44,4689.95Zm-1.52-12.62a30.757,30.757,0,0,0-20.92-9.09v-2.23a1,1,0,1,0-2,0v2.23a31.048,31.048,0,0,0-30,31.09,1,1,0,0,0,1,1h0.25a1.008,1.008,0,0,0,.97-0.72,4.992,4.992,0,0,1,9.57,0,1,1,0,0,0,.96.72h0.72a1,1,0,0,0,1.01-1,0.943,0.943,0,0,0-.05-0.3,4.987,4.987,0,0,1,9.14,0v0.3a1,1,0,0,0,1,1h0.68a0.987,0.987,0,0,0,.96-0.72,5.057,5.057,0,0,1,3.79-3.47v27.37a1.032,1.032,0,0,0,.04.3,6.951,6.951,0,0,0,13.86-.78,1.005,1.005,0,1,0-2.01,0,4.945,4.945,0,1,1-9.89,0v-26.89a5.057,5.057,0,0,1,3.79,3.47,1,1,0,0,0,.96.72h0.68a1,1,0,0,0,1-1v-0.3a4.986,4.986,0,0,1,9.24.25v0.05a1,1,0,0,0,1.01,1h0.57a1,1,0,0,0,.96-0.72,4.992,4.992,0,0,1,9.57,0,1.008,1.008,0,0,0,.97.72H1219a1,1,0,0,0,1-1A30.953,30.953,0,0,0,1210.92,4677.33Zm-40.53,19.24a6.966,6.966,0,0,0-10.19-.63,29.155,29.155,0,0,1,20.42-24.46,22.866,22.866,0,0,0-4.94,5.98A42.406,42.406,0,0,0,1170.39,4696.57Zm11.22-.82a6.991,6.991,0,0,0-9.15-.05c0.9-12.47,6.36-22.53,13.34-24.92a26.159,26.159,0,0,0-2.29,6.89A100.083,100.083,0,0,0,1181.61,4695.75Zm7.39-1.73a7.04,7.04,0,0,0-5.4,2.56,100.639,100.639,0,0,1,1.87-18.49c1.35-6.21,2.9-7.85,3.53-7.85s2.18,1.64,3.53,7.85a100.639,100.639,0,0,1,1.87,18.49A7.04,7.04,0,0,0,1189,4694.02Zm12,0a6.979,6.979,0,0,0-4.61,1.73,100.083,100.083,0,0,0-1.9-18.08,26.159,26.159,0,0,0-2.29-6.89c6.98,2.39,12.44,12.45,13.34,24.92A6.986,6.986,0,0,0,1201,4694.02Zm12,0a7.028,7.028,0,0,0-5.39,2.55,42.406,42.406,0,0,0-5.29-19.11,22.866,22.866,0,0,0-4.94-5.98,29.155,29.155,0,0,1,20.42,24.46A7.041,7.041,0,0,0,1213,4694.02Z" transform="translate(-1158 -4665)"/>
</svg>
