<svg xmlns="http://www.w3.org/2000/svg" viewBox="0 0 465.73 512"><defs><style>.cls-1{fill:#ff5d5e;}</style></defs><title>Слой 1 (2)ads</title><g id="Слой_2" data-name="Слой 2"><g id="Слой_1-2" data-name="Слой 1"><path class="cls-1" d="M256,512a255.56,255.56,0,0,0,198.84-94.77c28.27-34.84-2.55-85.73-46.24-77.41C326.25,355.51,250.32,292.56,250.32,209A133.09,133.09,0,0,1,317.76,93.2c38.74-22,29-80.79-15-88.92A256.94,256.94,0,0,0,256,0C114.64,0,0,114.57,0,256S114.58,512,256,512Zm0-464a209,209,0,0,1,38,3.48A181.09,181.09,0,0,0,202.32,209c0,113.85,103.64,199.2,215.26,178A207.62,207.62,0,0,1,256,464C141.13,464,48,370.88,48,256S141.13,48,256,48Z"/></g></g></svg>