<svg xmlns="http://www.w3.org/2000/svg" width="64.969" height="65.97" viewBox="0 0 64.969 65.97">
  <metadata><?xpacket begin="﻿" id="W5M0MpCehiHzreSzNTczkc9d"?>
<x:xmpmeta xmlns:x="adobe:ns:meta/" x:xmptk="Adobe XMP Core 5.6-c142 79.160924, 2017/07/13-01:06:39        ">
   <rdf:RDF xmlns:rdf="http://www.w3.org/1999/02/22-rdf-syntax-ns#">
      <rdf:Description rdf:about=""/>
   </rdf:RDF>
</x:xmpmeta>
                                                                                                    
                                                                                                    
                                                                                                    
                                                                                                    
                                                                                                    
                                                                                                    
                                                                                                    
                                                                                                    
                                                                                                    
                                                                                                    
                                                                                                    
                                                                                                    
                                                                                                    
                                                                                                    
                                                                                                    
                                                                                                    
                                                                                                    
                                                                                                    
                                                                                                    
                                                                                                    
                           
<?xpacket end="w"?></metadata>
<defs>
    <style>
      .cls-1 {
        fill: #ff5d5e;
        fill-rule: evenodd;
      }
    </style>
  </defs>
  <path id="Forma_1" data-name="Forma 1" class="cls-1" d="M765.645,4665.32a1.1,1.1,0,0,0-1.557,0l-4.082,4.08H734.367l-32.231,32.46a3.872,3.872,0,0,0-1.138,2.75,3.832,3.832,0,0,0,1.138,2.74l22.536,22.52a3.906,3.906,0,0,0,5.506-.01l31.385-32.2v-26.7l4.082-4.08A1.1,1.1,0,0,0,765.645,4665.32Zm-6.285,31.44-30.75,31.55a1.679,1.679,0,0,1-2.381,0l-22.536-22.51a1.681,1.681,0,0,1,0-2.38l31.589-31.82H757.8l-5.322,5.32a5.448,5.448,0,0,0-3.031-.92,5.518,5.518,0,1,0,4.588,2.47l5.322-5.31v23.6Zm-6.607-15.26a3.3,3.3,0,1,1-3.3-3.3,3.354,3.354,0,0,1,1.415.33l-2.194,2.19a1.1,1.1,0,0,0,0,1.56,1.107,1.107,0,0,0,1.557,0l2.194-2.19A3.222,3.222,0,0,1,752.753,4681.5Zm-5.784,17.91-11.679,11.67a1.1,1.1,0,0,0,.778,1.88,1.117,1.117,0,0,0,.779-0.32l11.679-11.67A1.1,1.1,0,0,0,746.969,4699.41Zm3.89-3.89a1.113,1.113,0,0,0,0,1.56,1.1,1.1,0,0,0,.782.32,1.059,1.059,0,0,0,.77-0.32,1.085,1.085,0,0,0,0-1.56A1.133,1.133,0,0,0,750.859,4695.52Zm-9.341-9.33a1.1,1.1,0,0,0-1.557-1.56l-11.68,11.67a1.1,1.1,0,0,0,0,1.56,1.107,1.107,0,0,0,1.557,0Zm-3.893,13.22a1.107,1.107,0,0,0,1.557,0l7.787-7.78a1.1,1.1,0,1,0-1.557-1.55l-7.787,7.78A1.092,1.092,0,0,0,737.625,4699.41Zm-6.229,4.67-1.557,1.55a1.1,1.1,0,0,0,0,1.56,1.107,1.107,0,0,0,1.557,0l1.557-1.56A1.1,1.1,0,1,0,731.4,4704.08Zm-11.68-7.46a1.113,1.113,0,0,0,.778-0.32l11.679-11.67a1.1,1.1,0,1,0-1.557-1.55l-11.679,11.66a1.1,1.1,0,0,0,0,1.56A1.117,1.117,0,0,0,719.716,4696.62Zm15.573-15.56a1.093,1.093,0,0,0,1.1-1.1,1.1,1.1,0,1,0-1.883.78A1.1,1.1,0,0,0,735.289,4681.06Zm-10.12,18.35a1.083,1.083,0,0,0-.319.78,1.044,1.044,0,0,0,.319.77,1.075,1.075,0,0,0,.782.33,1.1,1.1,0,0,0,.769-0.32,1.082,1.082,0,0,0,0-1.56A1.132,1.132,0,0,0,725.169,4699.41Zm10.9,3.11a1.1,1.1,0,0,0,.32-0.78,1.159,1.159,0,0,0-.32-0.78,1.147,1.147,0,0,0-1.563,0,1.169,1.169,0,0,0-.32.78,1.131,1.131,0,0,0,.32.78A1.114,1.114,0,0,0,736.07,4702.52Zm-8.476,14.87a5.465,5.465,0,0,0,.9-3.49,3.8,3.8,0,0,0-1.409-2.64,4.057,4.057,0,0,0-3.015-.86l-3.086.39-4.235-4.23a3.292,3.292,0,0,1,3.751.63,1.1,1.1,0,0,0,1.557-1.56,5.519,5.519,0,0,0-6.93-.69l-0.858-.86a1.1,1.1,0,1,0-1.557,1.55l0.86,0.86a5.486,5.486,0,0,0-.895,3.49,3.8,3.8,0,0,0,1.408,2.65,4.05,4.05,0,0,0,3.016.86l3.086-.39,4.224,4.22a3.4,3.4,0,0,1-3.74-.62,1.1,1.1,0,0,0-1.557,1.55,5.515,5.515,0,0,0,6.929.7l0.685,0.69a1.1,1.1,0,1,0,1.557-1.56Zm-10.77-6.09a1.83,1.83,0,0,1-1.355-.38,1.633,1.633,0,0,1-.6-1.12,3.306,3.306,0,0,1,.325-1.69l3.02,3.02Zm7.515,1.28a1.8,1.8,0,0,1,1.353.39,1.609,1.609,0,0,1,.6,1.12,3.249,3.249,0,0,1-.326,1.68l-3.018-3.01Z" transform="translate(-701 -4665.03)"/>
</svg>
