<svg xmlns="http://www.w3.org/2000/svg" width="55" height="64" viewBox="0 0 55 64">
  <metadata><?xpacket begin="﻿" id="W5M0MpCehiHzreSzNTczkc9d"?>
<x:xmpmeta xmlns:x="adobe:ns:meta/" x:xmptk="Adobe XMP Core 5.6-c142 79.160924, 2017/07/13-01:06:39        ">
   <rdf:RDF xmlns:rdf="http://www.w3.org/1999/02/22-rdf-syntax-ns#">
      <rdf:Description rdf:about=""/>
   </rdf:RDF>
</x:xmpmeta>
                                                                                                    
                                                                                                    
                                                                                                    
                                                                                                    
                                                                                                    
                                                                                                    
                                                                                                    
                                                                                                    
                                                                                                    
                                                                                                    
                                                                                                    
                                                                                                    
                                                                                                    
                                                                                                    
                                                                                                    
                                                                                                    
                                                                                                    
                                                                                                    
                                                                                                    
                                                                                                    
                           
<?xpacket end="w"?></metadata>
<defs>
    <style>
      .cls-1 {
        fill: #ff5d5e;
        fill-rule: evenodd;
      }
    </style>
  </defs>
  <path id="Forma_1" data-name="Forma 1" class="cls-1" d="M1442.94,4676.02l-19.36-10.58a4.063,4.063,0,0,0-5.35,1.62l-11.32,21.24h-13.77a3.121,3.121,0,0,0-3.14,3.17v34.36a3.121,3.121,0,0,0,3.14,3.17h43.98a3.121,3.121,0,0,0,3.14-3.17v-8.03h1.3a1.208,1.208,0,0,0,1.22-1.23v-9.19a1.211,1.211,0,0,0-1.22-1.24h-1.3v-9.03a3.205,3.205,0,0,0-2.45-3.09l6.73-12.59A4.068,4.068,0,0,0,1442.94,4676.02Zm-13.77-4.71-12.09,22.63h-3.44l12.93-24.02Zm-8.72-3.09a1.509,1.509,0,0,1,1.99-.62l1.91,1.09-13.47,25.25h-4.2Zm-28.08,23.17a0.749,0.749,0,0,1,.69-0.62h12.47l-1.68,3.09h-10.79a2.039,2.039,0,0,0-.69.08v-2.55Zm45.37,34.44a0.694,0.694,0,0,1-.69.7h-43.99a0.694,0.694,0,0,1-.69-0.7v-28.72a0.694,0.694,0,0,1,.69-0.7h43.91a0.694,0.694,0,0,1,.69.7v9.03h-4.67a3.694,3.694,0,0,0-3.67,3.71v4.24a3.687,3.687,0,0,0,3.67,3.71h4.75v8.03h0Zm2.44-17.22h0.08v6.72h-7.27a1.211,1.211,0,0,1-1.22-1.24v-4.24a1.211,1.211,0,0,1,1.22-1.24h7.19Zm2.15-28.42-7.35,13.75h-15.15l11.48-21.39,10.4,5.71A1.358,1.358,0,0,1,1442.33,4680.19Zm-4.67-1.16-0.61-.31a3.332,3.332,0,0,0-4.44,1.32l-0.76,1.46a3.238,3.238,0,0,0-.23,2.55,3.092,3.092,0,0,0,1.6,1.93l0.61,0.31a3.505,3.505,0,0,0,1.53.39,3.439,3.439,0,0,0,2.91-1.7l0.77-1.47A3.485,3.485,0,0,0,1437.66,4679.03Zm-0.84,3.32-0.77,1.47a0.849,0.849,0,0,1-1.14.31l-0.62-.39a1.086,1.086,0,0,1-.38-0.46,0.573,0.573,0,0,1,.08-0.62l0.76-1.46a1.012,1.012,0,0,1,.77-0.47,0.656,0.656,0,0,1,.38.08l0.61,0.31A1.2,1.2,0,0,1,1436.82,4682.35Z" transform="translate(-1390 -4665)"/>
</svg>
