<svg xmlns="http://www.w3.org/2000/svg" width="87" height="65" viewBox="0 0 87 65">
  <metadata><?xpacket begin="﻿" id="W5M0MpCehiHzreSzNTczkc9d"?>
<x:xmpmeta xmlns:x="adobe:ns:meta/" x:xmptk="Adobe XMP Core 5.6-c142 79.160924, 2017/07/13-01:06:39        ">
   <rdf:RDF xmlns:rdf="http://www.w3.org/1999/02/22-rdf-syntax-ns#">
      <rdf:Description rdf:about=""/>
   </rdf:RDF>
</x:xmpmeta>
                                                                                                    
                                                                                                    
                                                                                                    
                                                                                                    
                                                                                                    
                                                                                                    
                                                                                                    
                                                                                                    
                                                                                                    
                                                                                                    
                                                                                                    
                                                                                                    
                                                                                                    
                                                                                                    
                                                                                                    
                                                                                                    
                                                                                                    
                                                                                                    
                                                                                                    
                                                                                                    
                           
<?xpacket end="w"?></metadata>
<defs>
    <style>
      .cls-1 {
        fill: #ff5d5e;
        fill-rule: evenodd;
      }
    </style>
  </defs>
  <path class="cls-1" d="M537.757,4694.26c-2.96-1.51-8.511-1.53-8.746-1.53a1.3,1.3,0,0,0,0,2.6c1.433,0,5.591.22,7.606,1.25a1.3,1.3,0,0,0,.569.14,1.282,1.282,0,0,0,1.141-.72A1.307,1.307,0,0,0,537.757,4694.26Zm6.354,18.46-5.264-1.53a0.536,0.536,0,0,1-.385-0.52v-1.78a10.127,10.127,0,0,0,1.218-1.02,9.628,9.628,0,0,0,2.87-6.9v-2.47l0.508-1.04a8.365,8.365,0,0,0,.854-3.68v-6.68a1.286,1.286,0,0,0-1.274-1.3H530.374a8.168,8.168,0,0,0-8.088,8.23v0.08a6.987,6.987,0,0,0,.71,3.06l0.653,1.33v2.12a10.18,10.18,0,0,0,4.088,8.18v1.87c0,0.29,0,.41-1.052.72l-2.568.74-7.429-2.74a1.332,1.332,0,0,0-.348-1l-2.374-2.54v-4.26c0.251-.21.5-0.42,0.738-0.65a15.357,15.357,0,0,0,4.713-11.07v-3.4a15.211,15.211,0,0,0,1.363-6.31V4666.3a1.286,1.286,0,0,0-1.275-1.3H500.428a12.3,12.3,0,0,0-12.175,12.39v2.77a15.21,15.21,0,0,0,1.362,6.31v2.93a15.952,15.952,0,0,0,5.451,12.09v4.36l-2.374,2.54a1.327,1.327,0,0,0-.347,1l-7.842,2.9a6.452,6.452,0,0,0-1.575.84l-1.231-.63c3.665-1.62,4.826-3.91,4.882-4.02a1.32,1.32,0,0,0,0-1.16c-0.919-1.87-1.03-5.3-1.12-8.05-0.029-.92-0.058-1.78-0.112-2.56-0.434-6.22-5.081-10.91-10.809-10.91s-10.375,4.69-10.81,10.91c-0.053.78-.082,1.64-0.111,2.56-0.09,2.75-.2,6.18-1.12,8.05a1.32,1.32,0,0,0,0,1.16c0.056,0.11,1.215,2.39,4.887,4.02l-3.42,1.74a5.437,5.437,0,0,0-2.964,4.88v9.58a1.275,1.275,0,1,0,2.549,0v-9.58a2.856,2.856,0,0,1,1.555-2.56l4.259-2.17,1.481,1.43a5.273,5.273,0,0,0,7.388,0l1.481-1.43,1.389,0.71a6.9,6.9,0,0,0-1.025,3.62v9.98a1.275,1.275,0,1,0,2.549,0v-9.98a4.246,4.246,0,0,1,2.749-3.99l8.267-3.06,3.441,5.25a2.625,2.625,0,0,0,1.934,1.18,2.321,2.321,0,0,0,.263.01,2.588,2.588,0,0,0,1.862-.78l2.1-2.14v13.51a1.275,1.275,0,1,0,2.549,0v-13.51l2.1,2.14a2.585,2.585,0,0,0,1.862.78,2.3,2.3,0,0,0,.262-0.01,2.625,2.625,0,0,0,1.935-1.18l3.441-5.25,8.267,3.06a4.247,4.247,0,0,1,2.749,3.99v9.98a1.275,1.275,0,1,0,2.549,0v-9.98a6.955,6.955,0,0,0-1.885-4.75l0.315-.09a7.229,7.229,0,0,0,1.186-.43l3.254,3.31v11.94a1.275,1.275,0,1,0,2.549,0v-11.94l3.231-3.29a3.306,3.306,0,0,0,.542.22l5.264,1.53a2.867,2.867,0,0,1,2.04,2.75v10.73a1.275,1.275,0,1,0,2.549,0v-10.73A5.478,5.478,0,0,0,544.111,4712.72Zm-74.935-2.29a9.091,9.091,0,0,1-4.09-2.67,14.377,14.377,0,0,0,.726-3.1,9.69,9.69,0,0,0,3.364,4.22v1.55Zm7.3,3.51a2.76,2.76,0,0,1-3.876,0l-1.185-1.14a2.74,2.74,0,0,0,.31-1.27v-1.38a9.419,9.419,0,0,0,5.627,0v1.38a2.729,2.729,0,0,0,.311,1.27Zm-1.937-5.95a6.97,6.97,0,0,1-6.9-7.02,1.286,1.286,0,0,0-1.274-1.3,1.423,1.423,0,0,0-.209.02c0-.11.007-0.22,0.011-0.33,0.028-.9.055-1.74,0.106-2.46a9.727,9.727,0,0,1,2.576-6.05,7.835,7.835,0,0,1,11.382,0,9.723,9.723,0,0,1,2.577,6.05c0.05,0.72.077,1.56,0.106,2.45,0,0.08,0,.16.008,0.24a11.476,11.476,0,0,0-6.3-4.69,16,16,0,0,0-4.847-.78,1.248,1.248,0,0,0-.882.4l-2.3,2.43a1.31,1.31,0,0,0,.033,1.83,1.261,1.261,0,0,0,1.8-.03l1.914-2.02c1.647,0.08,6.948.71,9.01,5.33A6.924,6.924,0,0,1,474.539,4707.99Zm5.361,2.45v-1.55a9.559,9.559,0,0,0,3.365-4.23,14.377,14.377,0,0,0,.726,3.1A9.172,9.172,0,0,1,479.9,4710.44Zm12.264-21.04v-3.22a1.333,1.333,0,0,0-.127-0.57,12.589,12.589,0,0,1-1.235-5.45v-2.77a9.727,9.727,0,0,1,9.626-9.8h17.8v12.57a12.59,12.59,0,0,1-1.236,5.45,1.333,1.333,0,0,0-.127.57v3.69a12.583,12.583,0,0,1-3.907,9.18,12.23,12.23,0,0,1-.978.84c-0.008,0-.015.01-0.022,0.01a12.126,12.126,0,0,1-8.27,2.52C497.227,4701.99,492.164,4696.27,492.164,4689.4Zm7.176,26.09a0.09,0.09,0,0,1-.071.03,0.074,0.074,0,0,1-.065-0.04l-3.963-6.05,1.275-1.36,6.013,4.18Zm5.176-5-6.9-4.8v-2.42a14.186,14.186,0,0,0,5.911,1.73c0.336,0.03.67,0.04,1,.04a14.617,14.617,0,0,0,6.888-1.72v2.37Zm5.312,4.99a0.074,0.074,0,0,1-.065.04,0.068,0.068,0,0,1-.071-0.03l-3.189-3.24,6.013-4.18,1.276,1.36Zm23.271-1.09-2.892-2.95a3.581,3.581,0,0,0,.079-0.77v-0.54a9.2,9.2,0,0,0,2.523.45H533.1a9.126,9.126,0,0,0,2.81-.43v0.52a3.164,3.164,0,0,0,.092.76Zm4.806-8.38a6.8,6.8,0,0,1-5.019,1.98,7.215,7.215,0,0,1-6.688-7.37v-2.43a1.313,1.313,0,0,0-.135-0.58l-0.787-1.6a4.335,4.335,0,0,1-.441-1.9v-0.08a5.588,5.588,0,0,1,5.539-5.63h10.989v5.38a5.757,5.757,0,0,1-.584,2.52l-0.644,1.31a1.326,1.326,0,0,0-.134.58v2.78A7.048,7.048,0,0,1,537.905,4706.01Zm3.37,13.07a1.286,1.286,0,0,0-1.274,1.3v8.32a1.274,1.274,0,1,0,2.548,0v-8.32A1.286,1.286,0,0,0,541.275,4719.08Zm-73.55,1.72a1.286,1.286,0,0,0-1.274,1.3v6.6a1.274,1.274,0,1,0,2.548,0v-6.6A1.286,1.286,0,0,0,467.725,4720.8Zm47.231-40.17c-4.82-4.9-14.905-3.96-19.018-3.33a2.646,2.646,0,0,0-2.235,2.65v2.99a1.275,1.275,0,1,0,2.549,0v-2.99a0.1,0.1,0,0,1,.067-0.09,39.663,39.663,0,0,1,8.279-.41c3.974,0.27,6.853,1.29,8.555,3.02a1.271,1.271,0,0,0,1.8,0A1.322,1.322,0,0,0,514.956,4680.63Zm-25.429,41.23a1.283,1.283,0,0,0-1.274,1.29v5.55a1.275,1.275,0,1,0,2.549,0v-5.55A1.284,1.284,0,0,0,489.527,4721.86Zm29.978,0a1.283,1.283,0,0,0-1.274,1.29v5.55a1.275,1.275,0,1,0,2.549,0v-5.55A1.284,1.284,0,0,0,519.505,4721.86Z" transform="translate(-461 -4665)"/>
</svg>
