<svg xmlns="http://www.w3.org/2000/svg" xmlns:xlink="http://www.w3.org/1999/xlink" width="37" height="41" viewBox="0 0 37 41"><defs><path id="fomka" d="M466.22 6334.78a.74.74 0 1 1-1.48 0 .74.74 0 0 1 1.48 0zm-11.83-9.13c0 .97-.62 1.8-1.48 2.1v.87a.74.74 0 1 1-1.48 0v-.87c-.49-.17-.95-.5-1.35-.97a.74.74 0 0 1 .1-1.04.74.74 0 0 1 1.03.09c.3.36.65.56.96.56a.74.74 0 0 0 0-1.48 2.22 2.22 0 0 1-.74-4.33v-.87a.74.74 0 1 1 1.48 0v.86c.34.12.72.32 1.1.69.28.28.3.75 0 1.05-.28.3-.74.3-1.04.02-.26-.26-.53-.4-.8-.4a.74.74 0 0 0 0 1.5c1.23 0 2.22 1 2.22 2.22zm11.83 15.51v2.97c0 .4-.33.74-.74.74h-2.96a.74.74 0 0 1-.74-.74v-2.97c0-.41.33-.74.74-.74h2.96c.4 0 .74.33.74.74zm-1.48.74h-1.48v1.49h1.48zm7.39-.74v2.97c0 .4-.33.74-.74.74h-2.96a.74.74 0 0 1-.73-.74v-2.97c0-.41.33-.74.73-.74h2.96c.4 0 .74.33.74.74zm-1.48.74h-1.48v1.49h1.48zm-4.43 5.2v2.97c0 .4-.33.74-.74.74h-2.96a.74.74 0 0 1-.74-.74v-2.97c0-.41.33-.74.74-.74h2.96c.4 0 .74.33.74.74zm-1.48.74h-1.48v1.48h1.48zm7.39-.74v2.97c0 .4-.33.74-.74.74h-2.96a.74.74 0 0 1-.73-.74v-2.97c0-.41.33-.74.73-.74h2.96c.4 0 .74.33.74.74zm-1.48.74h-1.48v1.48h1.48zm7.4-6.68v8.9c0 .42-.34.75-.75.75h-2.95a.74.74 0 0 1-.74-.74v-8.91c0-.41.33-.74.74-.74h2.95c.41 0 .74.33.74.74zm-1.48.74h-1.48v7.42h1.48zm1.47-10.1v6.4c0 .4-.33.73-.74.73h-14.78a.74.74 0 0 1-.74-.74v-6.38c0-.41.33-.74.74-.74h14.78c.41 0 .74.33.74.74zm-1.47.75h-13.3v4.9h13.3zm4.43-2.45v21.67c0 1.23-1 2.23-2.22 2.23h-17.74c-1.22 0-2.21-1-2.21-2.23v-2.45h-9.61c-1.23 0-2.22-1-2.22-2.22v-28.87c0-1.23 1-2.23 2.22-2.23h15.72c.28 0 .55.05.8.15l.04.02c.28.11.54.29.76.5l4.97 5.17c.4.42.62.97.62 1.55v4.48h6.65c1.23 0 2.22 1 2.22 2.23zm-14.78-7.42c0 .4.33.74.74.74h3.7v-.03c0-.2-.08-.38-.22-.51l-4.22-4.4zm-5.18 5.2h9.61v-2.97h-3.7c-1.22 0-2.21-1-2.21-2.23v-5.2h-15.52c-.41 0-.74.34-.74.75v28.87c0 .4.33.74.74.74h9.6v-17.74c0-1.23 1-2.23 2.22-2.23zm18.48 2.22c0-.4-.33-.74-.74-.74h-17.74c-.4 0-.74.33-.74.74v21.67c0 .41.34.74.74.74h17.74c.41 0 .74-.33.74-.74zm-4.43 4.68c0 .4-.33.74-.74.74h-5.92a.74.74 0 0 1 0-1.49h5.92c.4 0 .74.34.74.75zm-11.83-9.13c0 .4-.33.74-.74.74h-5.91a.74.74 0 0 1 0-1.48h5.91c.41 0 .74.33.74.74zm0-2.97c0 .4-.33.74-.74.74h-5.91a.74.74 0 0 1 0-1.48h5.91c.41 0 .74.33.74.74zm-5.91 9.13c0 .4-.33.74-.74.74h-5.91a.74.74 0 0 1 0-1.48h5.9c.42 0 .75.33.75.74zm-4.44 2.97c0 .4-.33.74-.74.74h-1.47a.74.74 0 0 1 0-1.49h1.47c.41 0 .74.34.74.75zm4.44 0c0 .4-.33.74-.74.74h-1.48a.74.74 0 0 1 0-1.49h1.48c.4 0 .74.34.74.75zm-4.44 3.41c0 .41-.33.74-.74.74h-1.47a.74.74 0 0 1 0-1.48h1.47c.41 0 .74.33.74.74zm4.44 0c0 .41-.33.74-.74.74h-1.48a.74.74 0 0 1 0-1.48h1.48c.4 0 .74.33.74.74zm-4.44 2.97c0 .4-.33.74-.74.74h-1.47a.74.74 0 0 1 0-1.48h1.47c.41 0 .74.33.74.74zm4.44 0c0 .4-.33.74-.74.74h-1.48a.74.74 0 0 1 0-1.48h1.48c.4 0 .74.33.74.74zm-4.44 2.97c0 .4-.33.74-.74.74h-1.47a.74.74 0 0 1 0-1.48h1.47c.41 0 .74.33.74.74zm4.44 0c0 .4-.33.74-.74.74h-1.48a.74.74 0 0 1 0-1.48h1.48c.4 0 .74.33.74.74z"/></defs><g><g transform="translate(-445 -6314)"><use fill="#ff5d5e" xlink:href="#fomka"/></g></g></svg>