<svg xmlns="http://www.w3.org/2000/svg" width="68" height="65" viewBox="0 0 68 65">
  <metadata><?xpacket begin="﻿" id="W5M0MpCehiHzreSzNTczkc9d"?>
<x:xmpmeta xmlns:x="adobe:ns:meta/" x:xmptk="Adobe XMP Core 5.6-c142 79.160924, 2017/07/13-01:06:39        ">
   <rdf:RDF xmlns:rdf="http://www.w3.org/1999/02/22-rdf-syntax-ns#">
      <rdf:Description rdf:about=""/>
   </rdf:RDF>
</x:xmpmeta>
                                                                                                    
                                                                                                    
                                                                                                    
                                                                                                    
                                                                                                    
                                                                                                    
                                                                                                    
                                                                                                    
                                                                                                    
                                                                                                    
                                                                                                    
                                                                                                    
                                                                                                    
                                                                                                    
                                                                                                    
                                                                                                    
                                                                                                    
                                                                                                    
                                                                                                    
                                                                                                    
                           
<?xpacket end="w"?></metadata>
<defs>
    <style>
      .cls-1 {
        fill: #ff5d5e;
        fill-rule: evenodd;
      }
    </style>
  </defs>
  <path class="cls-1" d="M984.907,4719.3a4.4,4.4,0,0,0-2.244-3.28l-11.763-6.55a4.659,4.659,0,0,0-5.539.75l-4.131,4.09a2.446,2.446,0,0,1-3.151.24,75.179,75.179,0,0,1-8.29-7.11,74.37,74.37,0,0,1-7.185-8.21,2.391,2.391,0,0,1,.245-3.12l4.131-4.09a4.556,4.556,0,0,0,.761-5.48l-6.617-11.65a4.455,4.455,0,0,0-3.312-2.22,4.757,4.757,0,0,0-4.021,1.36l-4.357,4.31c-3.078,3.05-3.239,8.5-.456,15.36,2.663,6.56,7.731,13.74,14.269,20.22s13.788,11.49,20.415,14.12a24.208,24.208,0,0,0,8.781,1.96,9.209,9.209,0,0,0,6.734-2.41l4.356-4.31A4.673,4.673,0,0,0,984.907,4719.3Zm-2.932,2.44-0.761.75-10.028-5.42a1.115,1.115,0,0,0-1.494.44,1.085,1.085,0,0,0,.439,1.48l9.459,5.11-1.971,1.95c-2.38,2.36-7.167,2.34-13.136-.03-6.358-2.53-13.346-7.38-19.679-13.65s-11.227-13.19-13.782-19.48c-2.4-5.91-2.409-10.65-.03-13.01l1.971-1.95,1.055,1.91a1.09,1.09,0,0,0,.968.57,1.1,1.1,0,0,0,.526-0.13,1.085,1.085,0,0,0,.439-1.48l-1.364-2.48,0.761-.75a2.573,2.573,0,0,1,1.823-.77,1.973,1.973,0,0,1,.341.03,2.281,2.281,0,0,1,1.692,1.13l6.617,11.64a2.4,2.4,0,0,1-.4,2.88l-1.965,1.94-5.158-9.36a1.1,1.1,0,0,0-1.5-.43,1.082,1.082,0,0,0-.439,1.48l5.468,9.92-0.541.54a4.563,4.563,0,0,0-.456,5.96,77.362,77.362,0,0,0,7.395,8.45,76.544,76.544,0,0,0,8.534,7.32,4.678,4.678,0,0,0,6.023-.45l0.541-.53,2.5,1.35a1.114,1.114,0,0,0,1.494-.44,1.086,1.086,0,0,0-.44-1.48l-1.932-1.04,1.965-1.95a2.439,2.439,0,0,1,2.9-.39l11.762,6.55a2.255,2.255,0,0,1,1.142,1.67A2.521,2.521,0,0,1,981.975,4721.74Zm-2.175-28.82h-1.248v-9.38a1.1,1.1,0,0,0-2.2,0v9.38H970.6l2.052-9.14a1.1,1.1,0,0,0-2.151-.48l-2.35,10.47a1.082,1.082,0,0,0,.216.92,1.1,1.1,0,0,0,.86.41h7.122v3.56a1.1,1.1,0,0,0,2.2,0v-3.56H979.8A1.09,1.09,0,1,0,979.8,4692.92Zm-14.1,4.65H957.6c0.479-1.25,1.835-2.04,3.791-3.1,2.413-1.3,5.417-2.93,5.417-6.61a5.816,5.816,0,0,0-11.6,0,1.1,1.1,0,0,0,2.2,0,3.619,3.619,0,0,1,7.2,0c0,2.23-1.613,3.26-4.27,4.7-2.4,1.3-5.13,2.77-5.13,6.1a1.1,1.1,0,0,0,1.1,1.09h9.4A1.09,1.09,0,1,0,965.7,4697.57Zm23.282,12.82-2.145.42A26.443,26.443,0,0,0,995,4691.68a27,27,0,0,0-49-15.34,1.086,1.086,0,0,0,.266,1.52,1.109,1.109,0,0,0,1.535-.27,24.8,24.8,0,0,1,44.994,14.09,24.307,24.307,0,0,1-7.708,17.77l0.491-2.43a1.085,1.085,0,0,0-.864-1.28,1.1,1.1,0,0,0-1.3.85l-1.174,5.82a1.062,1.062,0,0,0,.3.98,1.093,1.093,0,0,0,.779.32,0.791,0.791,0,0,0,.216-0.02l5.874-1.16A1.092,1.092,0,1,0,988.983,4710.39Zm-20.932-40.74a1.1,1.1,0,0,0-1.1,1.09v2.33a1.1,1.1,0,0,0,2.2,0v-2.33A1.1,1.1,0,0,0,968.051,4669.65Zm21.148,20.94h-2.35a1.09,1.09,0,1,0,0,2.18h2.35A1.09,1.09,0,1,0,989.2,4690.59Zm-36.877-9.16-2.035-1.16a1.111,1.111,0,0,0-1.5.4,1.086,1.086,0,0,0,.4,1.49l2.035,1.16a1.1,1.1,0,0,0,1.5-.4A1.085,1.085,0,0,0,952.322,4681.43Zm34.594,19.78-2.035-1.17a1.11,1.11,0,0,0-1.5.4,1.083,1.083,0,0,0,.4,1.49l2.035,1.17A1.094,1.094,0,1,0,986.916,4701.21Zm-7.74-28.61a1.111,1.111,0,0,0-1.5.4l-1.175,2.02a1.084,1.084,0,0,0,.953,1.63,1.1,1.1,0,0,0,.955-0.54l1.175-2.02A1.087,1.087,0,0,0,979.176,4672.6ZM959.2,4706.86a1.1,1.1,0,0,0-1.5.4l-1.175,2.01a1.085,1.085,0,0,0,.4,1.49,1.1,1.1,0,0,0,1.5-.4l1.175-2.01A1.085,1.085,0,0,0,959.2,4706.86Zm28.118-26.19a1.111,1.111,0,0,0-1.5-.4l-2.035,1.16a1.085,1.085,0,0,0-.4,1.49,1.1,1.1,0,0,0,1.5.4l2.035-1.16A1.086,1.086,0,0,0,987.32,4680.67Zm-34.6,19.77a1.111,1.111,0,0,0-1.5-.4l-2.035,1.17a1.086,1.086,0,0,0-.4,1.49,1.126,1.126,0,0,0,1.5.4l2.035-1.17A1.083,1.083,0,0,0,952.725,4700.44Zm6.881-25.42-1.175-2.02a1.111,1.111,0,0,0-1.5-.4,1.087,1.087,0,0,0-.4,1.49l1.175,2.02a1.126,1.126,0,0,0,1.5.4A1.086,1.086,0,0,0,959.606,4675.02Zm19.973,34.25-1.175-2.01a1.1,1.1,0,0,0-1.5-.4,1.085,1.085,0,0,0-.4,1.49l1.175,2.01a1.1,1.1,0,0,0,1.5.4A1.086,1.086,0,0,0,979.579,4709.27Z" transform="translate(-927 -4665)"/>
</svg>
