<svg xmlns="http://www.w3.org/2000/svg" viewBox="0 0 641 449"><defs><style>.cls-1{fill:#ff5d5e;stroke:#ff5d5e;stroke-miterlimit:10;}</style></defs><title>Слой 1ads</title><g id="Слой_2" data-name="Слой 2"><g id="Слой_1-2" data-name="Слой 1"><path class="cls-1" d="M96.5,192.5a64,64,0,1,0-64-64A64.06,64.06,0,0,0,96.5,192.5Zm448,0a64,64,0,1,0-64-64A64.06,64.06,0,0,0,544.5,192.5Zm32,32h-64a63.81,63.81,0,0,0-45.1,18.6,146.27,146.27,0,0,1,75.1,109.4h66a32,32,0,0,0,32-32v-32A64.06,64.06,0,0,0,576.5,224.5Zm-256,0a112,112,0,1,0-112-112A111.94,111.94,0,0,0,320.5,224.5Zm76.8,32H389a157.53,157.53,0,0,1-68.5,16c-24.6,0-47.6-6-68.5-16h-8.3A115.23,115.23,0,0,0,128.5,371.7v28.8a48,48,0,0,0,48,48h288a48,48,0,0,0,48-48V371.7A115.23,115.23,0,0,0,397.3,256.5ZM173.6,243.1a63.81,63.81,0,0,0-45.1-18.6h-64a64.06,64.06,0,0,0-64,64v32a32,32,0,0,0,32,32H98.4a146.64,146.64,0,0,1,75.2-109.4Z"/></g></g></svg>