<svg xmlns="http://www.w3.org/2000/svg" width="35" height="40" viewBox="0 0 35 40">
  <metadata><?xpacket begin="﻿" id="W5M0MpCehiHzreSzNTczkc9d"?>
<x:xmpmeta xmlns:x="adobe:ns:meta/" x:xmptk="Adobe XMP Core 5.6-c142 79.160924, 2017/07/13-01:06:39        ">
   <rdf:RDF xmlns:rdf="http://www.w3.org/1999/02/22-rdf-syntax-ns#">
      <rdf:Description rdf:about=""/>
   </rdf:RDF>
</x:xmpmeta>
                                                                                                    
                                                                                                    
                                                                                                    
                                                                                                    
                                                                                                    
                                                                                                    
                                                                                                    
                                                                                                    
                                                                                                    
                                                                                                    
                                                                                                    
                                                                                                    
                                                                                                    
                                                                                                    
                                                                                                    
                                                                                                    
                                                                                                    
                                                                                                    
                                                                                                    
                                                                                                    
                           
<?xpacket end="w"?></metadata>
<defs>
    <style>
      .cls-1 {
        fill: #ff5d5e;
        fill-rule: evenodd;
      }
    </style>
  </defs>
  <path class="cls-1" d="M775.112,94.2a0.6,0.6,0,0,0-.861-0.008,0.638,0.638,0,0,0-.009.886,12.851,12.851,0,0,1,3.54,8.915V110A12.578,12.578,0,0,1,765.4,122.737h-7.146a0.6,0.6,0,0,0-.431.184l-4.807,4.943v-5.613a0.628,0.628,0,0,0-.365-0.574A12.761,12.761,0,0,1,745.218,110v-6.013A12.578,12.578,0,0,1,757.6,91.252h7.8a12.091,12.091,0,0,1,6.811,2.1,0.6,0.6,0,0,0,.844-0.177,0.637,0.637,0,0,0-.173-0.868A13.279,13.279,0,0,0,765.4,90h-7.8A13.815,13.815,0,0,0,744,103.988V110a14.03,14.03,0,0,0,7.8,12.653v6.723a0.612,0.612,0,0,0,1.04.442l5.668-5.829H765.4A13.815,13.815,0,0,0,779,110v-6.013A14.118,14.118,0,0,0,775.112,94.2Zm-3.844,20.672-0.584-3.254a0.619,0.619,0,0,0-.48-0.5l-4.593-.944a0.6,0.6,0,0,0-.55.171l-1.887,1.939a11.889,11.889,0,0,1-6.483-6.678l1.881-1.934a0.638,0.638,0,0,0,.166-0.566l-0.918-4.724a0.618,0.618,0,0,0-.487-0.493l-3.164-.6a0.572,0.572,0,0,0-.245.005,4.457,4.457,0,0,0-2.185,1.241,5.126,5.126,0,0,0-1.15,4.523,21.954,21.954,0,0,0,.581,2.648,0.609,0.609,0,0,0,.755.427,0.63,0.63,0,0,0,.415-0.777,20.7,20.7,0,0,1-.548-2.492,3.869,3.869,0,0,1,.808-3.443,3.257,3.257,0,0,1,1.477-.876l2.629,0.5,0.774,3.98-1.949,2a0.64,0.64,0,0,0-.125.7c1.772,4.081,3.85,6.217,7.668,7.88a0.6,0.6,0,0,0,.669-0.134l1.948-2,3.87,0.8,0.486,2.7a3.415,3.415,0,0,1-.852,1.519,3.616,3.616,0,0,1-3.348.83,18.1,18.1,0,0,1-9.553-4.591l-0.037-.038a15.814,15.814,0,0,1-3.086-4.932,0.6,0.6,0,0,0-.8-0.331,0.633,0.633,0,0,0-.322.821,17.055,17.055,0,0,0,3.346,5.328l0.038,0.038a19.337,19.337,0,0,0,10.224,4.942,7.023,7.023,0,0,0,1.122.095,4.408,4.408,0,0,0,3.276-1.277,4.655,4.655,0,0,0,1.207-2.247A0.648,0.648,0,0,0,771.268,114.868ZM762.8,101.357a0.627,0.627,0,0,0,0,1.253,2.68,2.68,0,0,1,2.639,2.714,0.609,0.609,0,1,0,1.218,0A3.918,3.918,0,0,0,762.8,101.357Zm0-2.672a6.3,6.3,0,0,0-.716.041,0.622,0.622,0,0,0-.539.691,0.614,0.614,0,0,0,.672.554,5.212,5.212,0,0,1,.583-0.033,5.32,5.32,0,0,1,5.238,5.386,5.714,5.714,0,0,1-.032.6,0.61,0.61,0,1,0,1.211.137,6.955,6.955,0,0,0,.039-0.737A6.557,6.557,0,0,0,762.8,98.685Zm0-2.672c-0.231,0-.465.009-0.695,0.027a0.626,0.626,0,0,0,.092,1.249c0.2-.016.4-0.024,0.6-0.024a7.96,7.96,0,0,1,7.837,8.059,8.336,8.336,0,0,1-.21,1.861,0.632,0.632,0,0,0,.441.75,0.613,0.613,0,0,0,.744-0.463,9.586,9.586,0,0,0,.243-2.148A9.2,9.2,0,0,0,762.8,96.012Z" transform="translate(-744 -90)"/>
</svg>
