<svg xmlns="http://www.w3.org/2000/svg" width="97.56" height="97.531" viewBox="0 0 97.56 97.531">
  <metadata><?xpacket begin="﻿" id="W5M0MpCehiHzreSzNTczkc9d"?>
<x:xmpmeta xmlns:x="adobe:ns:meta/" x:xmptk="Adobe XMP Core 5.6-c142 79.160924, 2017/07/13-01:06:39        ">
   <rdf:RDF xmlns:rdf="http://www.w3.org/1999/02/22-rdf-syntax-ns#">
      <rdf:Description rdf:about=""/>
   </rdf:RDF>
</x:xmpmeta>
                                                                                                    
                                                                                                    
                                                                                                    
                                                                                                    
                                                                                                    
                                                                                                    
                                                                                                    
                                                                                                    
                                                                                                    
                                                                                                    
                                                                                                    
                                                                                                    
                                                                                                    
                                                                                                    
                                                                                                    
                                                                                                    
                                                                                                    
                                                                                                    
                                                                                                    
                                                                                                    
                           
<?xpacket end="w"?></metadata>
<defs>
    <style>
      .cls-1 {
        fill-rule: evenodd;
      }
    </style>
  </defs>
  <path class="cls-1" d="M1127.86,618.893v-3.888h-1.76v3.888h-6.35v-3.888h-1.76v3.888h-7.07v-3.888h-1.76v3.888h-7.35v-3.888h-1.76v3.888H1093v-3.888h-1.76v3.888h-6.28v48.736h48.08V618.893h-5.18Zm3.58,47.136h-44.88v-33.7h44.88v33.7Zm0-35.294h-44.88V620.493h4.68v4.053H1093v-4.053h7.05v4.053h1.76v-4.053h7.34v4.053h1.77v-4.053h7.07v4.053h1.76v-4.053h6.35v4.053h1.76v-4.053h3.58v10.242Zm0,0-22.02,11.338h-0.04l-2,1.08-0.3-1.185,2.51-1.347h1.33v17.118h-1.5V642.073Zm4.09,15.666v-1.507h-6.68v1.507h6.68ZM1109,595.763a47.468,47.468,0,1,1-47.47,47.468A47.526,47.526,0,0,1,1109,595.763m0-1.3a48.768,48.768,0,1,0,48.77,48.769A48.772,48.772,0,0,0,1109,594.462h0Z" transform="translate(-1060.22 -594.469)"/>
</svg>
