<svg xmlns="http://www.w3.org/2000/svg" width="97.56" height="97.531" viewBox="0 0 97.56 97.531">
  <metadata><?xpacket begin="﻿" id="W5M0MpCehiHzreSzNTczkc9d"?>
<x:xmpmeta xmlns:x="adobe:ns:meta/" x:xmptk="Adobe XMP Core 5.6-c142 79.160924, 2017/07/13-01:06:39        ">
   <rdf:RDF xmlns:rdf="http://www.w3.org/1999/02/22-rdf-syntax-ns#">
      <rdf:Description rdf:about=""/>
   </rdf:RDF>
</x:xmpmeta>
                                                                                                    
                                                                                                    
                                                                                                    
                                                                                                    
                                                                                                    
                                                                                                    
                                                                                                    
                                                                                                    
                                                                                                    
                                                                                                    
                                                                                                    
                                                                                                    
                                                                                                    
                                                                                                    
                                                                                                    
                                                                                                    
                                                                                                    
                                                                                                    
                                                                                                    
                                                                                                    
                           
<?xpacket end="w"?></metadata>
<defs>
    <style>
      .cls-1 {
        fill-rule: evenodd;
      }
    </style>
  </defs>
  <path class="cls-1" d="M1433.77,640.364a0.774,0.774,0,0,0-1.09-.06l-1.5,1.353-8.17-8.1a0.768,0.768,0,0,0-1.08,1.091l8.1,8.037-4.01,3.6-13.35-13.521,13.27-12.547a0.767,0.767,0,0,0-1.05-1.117l-13.84,13.09a0.755,0.755,0,0,0-.24.544,0.8,0.8,0,0,0,.22.551l1.23,1.245-2.71,2.834-5.22-.555a0.73,0.73,0,0,0-.62.217l-2.12,2.1-3.95-3.9,1.33-1.345a0.8,0.8,0,0,0,.22-0.551,0.748,0.748,0,0,0-.24-0.544L1385.11,619.7a0.766,0.766,0,1,0-1.05,1.116l9.33,8.832-13.67,13.412-2.4-2.16a0.778,0.778,0,0,0-1.09.061,0.766,0.766,0,0,0,.06,1.084l7.21,6.47a0.752,0.752,0,0,0,.51.194,0.736,0.736,0,0,0,.54-0.224l1.31-1.323,7.18,7.081-1.32,1.338a0.773,0.773,0,0,0,.01,1.083l2.69,2.692h0v0l2.69,2.662,2.69,2.688,2.7,2.692a0.757,0.757,0,0,0,.54.225,0.774,0.774,0,0,0,.54-0.225l1.39-1.4,1.42,1.4a0.766,0.766,0,0,0,.54.222,0.757,0.757,0,0,0,.54-0.225l2.15-2.149,0.32,0.314a0.756,0.756,0,0,0,1.08,0l2.15-2.146,0.32,0.318a0.774,0.774,0,0,0,.54.225,0.757,0.757,0,0,0,.54-0.225l2.15-2.152,0.32,0.319a0.773,0.773,0,0,0,.54.224,0.756,0.756,0,0,0,.54-0.224l2.7-2.692a0.768,0.768,0,0,0,0-1.086l-4-4,7.22-7.662,1.4,1.417a0.763,0.763,0,0,0,.55.229,0.752,0.752,0,0,0,.51-0.2l7.21-6.466a0.772,0.772,0,0,0,.06-1.088h0Zm-38.83.427a3.357,3.357,0,0,1-5.38,2.681l4.7-4.7a3.4,3.4,0,0,1,.68,2.023h0Zm0.41-3.111,1.28-1.281,0.69,0.682-1.41,1.447a4.353,4.353,0,0,0-.56-0.848h0Zm-11.37,9.207-3.11-2.8,13.64-13.387,2.82,2.662Zm4.49-2.328a4.439,4.439,0,0,0,.88.577c-0.25.251-.5,0.514-0.75,0.773-0.31.314-.6,0.622-0.89,0.918l-0.76-.746Zm5.67,10.763,1.61,1.589-0.8.81-1.6-1.605Zm3.51,5.071-1.6-1.585,0.8-.81,1.61,1.585Zm1.9,0.27,1.62,1.593-0.83.825-1.6-1.6Zm3.49,5.109-1.61-1.6,0.83-.832,1.62,1.6Zm14.54-5.5-0.31-.318-3.1-3.1v0l-0.95-.941a0.761,0.761,0,0,0-1.08,0,0.77,0.77,0,0,0,0,1.088l3.5,3.5-1.61,1.609-4.36-4.36a0.761,0.761,0,0,0-1.08,0,0.748,0.748,0,0,0,0,1.084l0.94,0.945,2.55,2.555-1.6,1.609-3.42-3.418h0l-0.94-.942a0.774,0.774,0,0,0-1.09,0,0.765,0.765,0,0,0,0,1.084l1.77,1.765,1.74,1.736-1.62,1.608L1388.8,647.9c0.29-.3.59-0.607,0.9-0.926,0.46-.468.9-0.924,1.3-1.329a4.24,4.24,0,0,0,.58.037,4.9,4.9,0,0,0,4.9-4.893,4,4,0,0,0-.05-0.6l1.99-2.032,2.07,2.055-7.24,7.186a0.76,0.76,0,0,0-.23.588,0.774,0.774,0,0,0,.29.559c0.18,0.142,4.38,3.325,11.68-4.071l14.2,14.192Zm-1.85-7.231-10.21-10.208a0.715,0.715,0,0,0-.55-0.224,0.764,0.764,0,0,0-.55.24c-4.71,5.011-7.86,5.165-9.28,4.835l9.39-9.315,3.68,0.394-0.55.577a0.768,0.768,0,1,0,1.11,1.061l4.41-4.615,9.69,9.687ZM1417.08,631a2.4,2.4,0,1,0,2.39-2.4,2.4,2.4,0,0,0-2.39,2.4h0Zm3.26,0a0.865,0.865,0,1,1-.87-0.862,0.87,0.87,0,0,1,.87.862h0Zm0,0M1405,595.763a47.468,47.468,0,1,1-47.47,47.468A47.526,47.526,0,0,1,1405,595.763m0-1.3a48.768,48.768,0,1,0,48.77,48.769A48.772,48.772,0,0,0,1405,594.462h0Z" transform="translate(-1356.22 -594.469)"/>
</svg>
