<?xml version="1.0" standalone="no"?>
<!DOCTYPE svg PUBLIC "-//W3C//DTD SVG 20010904//EN"
 "http://www.w3.org/TR/2001/REC-SVG-20010904/DTD/svg10.dtd">
<svg version="1.0" xmlns="http://www.w3.org/2000/svg"
 width="98.000000pt" height="98.000000pt" viewBox="0 0 98.000000 98.000000"
 preserveAspectRatio="xMidYMid meet">

<g transform="translate(0.000000,98.000000) scale(0.100000,-0.100000)" stroke="none">
<path d="M383 965 c-174 -38 -321 -183 -368 -360 -42 -163 7 -338 129 -459 99
-99 211 -146 346 -146 270 0 490 221 490 493 0 219 -170 426 -387 472 -82 18
-129 18 -210 0z m220 -20 c173 -45 307 -181 347 -354 17 -73 8 -201 -20 -274
-44 -115 -150 -222 -268 -268 -85 -34 -230 -38 -315 -10 -200 67 -327 242
-327 451 1 304 292 531 583 455z"/>
<path d="M240 566 l0 -174 30 -7 c16 -4 34 -13 38 -22 10 -17 314 -125 323
-115 6 7 109 298 109 308 0 3 -13 10 -30 15 -22 8 -30 17 -30 34 0 19 -8 25
-49 35 -49 12 -50 12 -53 53 l-3 42 -167 3 -168 2 0 -174z m320 -1 l0 -155
-150 0 c-143 0 -150 1 -150 20 0 19 7 20 145 20 l145 0 0 130 0 129 -147 4
-148 3 153 2 152 2 0 -155z m-20 29 l0 -97 -25 27 c-20 22 -28 25 -44 16 -11
-5 -23 -20 -26 -31 -6 -19 -10 -16 -34 26 -45 83 -75 83 -112 0 l-18 -40 0 98
-1 97 130 0 130 0 0 -96z m89 30 c24 -5 31 -12 30 -28 -1 -15 -2 -17 -6 -4 -2
9 -21 21 -41 26 -42 11 -30 15 17 6z m1 -38 c0 -6 -11 -49 -24 -96 l-25 -85 0
101 -1 101 25 -5 c14 -2 25 -9 25 -16z m-245 -36 c8 -16 20 -41 25 -55 9 -25
9 -25 -50 -25 -68 0 -70 3 -40 68 22 49 44 54 65 12z m310 2 c-3 -3 -11 0 -18
7 -9 10 -8 11 6 5 10 -3 15 -9 12 -12z m16 -29 c-12 -20 -14 -14 -5 12 4 9 9
14 11 11 3 -2 0 -13 -6 -23z m-28 10 c2 -5 -11 -48 -29 -98 -38 -105 -44 -95
-13 23 20 75 31 95 42 75z m-177 -20 c23 -30 16 -43 -21 -43 -37 0 -42 9 -23
40 16 25 27 25 44 3z m131 -5 c-3 -8 -6 -5 -6 6 -1 11 2 17 5 13 3 -3 4 -12 1
-19z m-10 -40 c-3 -8 -6 -5 -6 6 -1 11 2 17 5 13 3 -3 4 -12 1 -19z m-104 -95
c50 -14 60 -14 69 -2 7 10 8 5 3 -16 -4 -16 -8 -31 -10 -33 -1 -2 -61 13 -131
32 l-129 35 69 0 c38 1 96 -6 129 -16z m-68 -38 c109 -31 175 -39 175 -23 0 6
3 9 6 6 3 -4 0 -17 -8 -31 l-13 -25 -135 49 c-151 54 -159 61 -25 24z"/>
<path d="M433 644 c-6 -17 6 -45 23 -51 21 -7 47 23 40 45 -9 27 -53 30 -63 6z
m51 -9 c3 -9 -1 -18 -10 -22 -19 -7 -39 11 -30 26 10 16 33 13 40 -4z"/>
</g>
</svg>
