<?xml version="1.0" standalone="no"?>
<!DOCTYPE svg PUBLIC "-//W3C//DTD SVG 20010904//EN"
 "http://www.w3.org/TR/2001/REC-SVG-20010904/DTD/svg10.dtd">
<svg version="1.0" xmlns="http://www.w3.org/2000/svg"
 width="36.000000pt" height="46.000000pt" viewBox="0 0 36.000000 46.000000"
 preserveAspectRatio="xMidYMid meet">

<g transform="translate(0.000000,46.000000) scale(0.100000,-0.100000)"
fill="#000000" stroke="none">
<path d="M133 440 c-37 -22 -53 -48 -53 -84 0 -14 -5 -28 -10 -31 -21 -13 -9
-43 38 -93 65 -70 101 -67 161 15 27 37 29 46 24 97 -5 48 -11 61 -40 86 -39
35 -75 38 -120 10z m117 -90 c26 -64 -18 -145 -76 -138 -34 4 -74 57 -74 99 0
25 4 29 28 29 15 0 43 9 62 19 46 26 46 26 60 -9z"/>
<path d="M83 189 c-17 -5 -43 -23 -58 -40 -22 -27 -26 -39 -23 -88 l3 -56 72
-3 71 -3 10 48 c20 96 -13 158 -75 142z"/>
<path d="M224 177 c-28 -24 -35 -77 -20 -145 l8 -33 71 3 72 3 3 56 c2 48 -1
61 -23 87 -14 16 -39 35 -55 41 -26 8 -34 7 -56 -12z"/>
</g>
</svg>
