<?xml version="1.0" standalone="no"?>
<!DOCTYPE svg PUBLIC "-//W3C//DTD SVG 20010904//EN"
 "http://www.w3.org/TR/2001/REC-SVG-20010904/DTD/svg10.dtd">
<svg version="1.0" xmlns="http://www.w3.org/2000/svg"
 width="38.000000pt" height="46.000000pt" viewBox="0 0 38.000000 46.000000"
 preserveAspectRatio="xMidYMid meet">

<g transform="translate(0.000000,46.000000) scale(0.100000,-0.100000)"
fill="#000000" stroke="none">
<path d="M115 427 c-41 -41 -59 -104 -52 -176 5 -47 3 -58 -18 -83 -25 -30
-52 -126 -42 -152 6 -14 31 -16 187 -16 156 0 181 2 187 16 10 26 -17 122 -42
152 -21 25 -23 36 -18 83 7 72 -11 135 -52 176 -27 27 -41 33 -75 33 -34 0
-48 -6 -75 -33z m134 -73 c27 -45 26 -56 -5 -93 -37 -44 -87 -44 -114 2 -37
61 -20 90 70 118 14 4 26 8 27 8 0 1 10 -15 22 -35z m-13 -171 c19 -25 18 -29
-16 -43 -24 -10 -36 -10 -60 0 -34 14 -34 14 -18 40 16 26 75 27 94 3z"/>
</g>
</svg>
