<svg xmlns="http://www.w3.org/2000/svg" width="297" height="79" viewBox="0 0 297 79">
  <metadata><?xpacket begin="﻿" id="W5M0MpCehiHzreSzNTczkc9d"?>
<x:xmpmeta xmlns:x="adobe:ns:meta/" x:xmptk="Adobe XMP Core 5.6-c142 79.160924, 2017/07/13-01:06:39        ">
   <rdf:RDF xmlns:rdf="http://www.w3.org/1999/02/22-rdf-syntax-ns#">
      <rdf:Description rdf:about=""/>
   </rdf:RDF>
</x:xmpmeta>
                                                                                                    
                                                                                                    
                                                                                                    
                                                                                                    
                                                                                                    
                                                                                                    
                                                                                                    
                                                                                                    
                                                                                                    
                                                                                                    
                                                                                                    
                                                                                                    
                                                                                                    
                                                                                                    
                                                                                                    
                                                                                                    
                                                                                                    
                                                                                                    
                                                                                                    
                                                                                                    
                           
<?xpacket end="w"?></metadata>
<defs>
    <style>
      .cls-1 {
        fill: #e7462e;
        fill-rule: evenodd;
      }
    </style>
  </defs>
  <path id="Лого" class="cls-1" d="M223.725,91.13h8.524V59.261h5.73V53H217.948v6.261h5.777V91.13Zm14.7,0h7.719V73.43a5.759,5.759,0,0,1,4.545-2.636,6.928,6.928,0,0,1,2.51.565V63.733a4.809,4.809,0,0,0-4.309,1.036,14.61,14.61,0,0,0-2.746,3.672V63.921h-7.719V91.13ZM261.977,91.6a4.77,4.77,0,0,0,3.363-1.224,6.814,6.814,0,0,0,1.894-3.107q0.188,0.706.615,3.86h6.914a39.551,39.551,0,0,1-.474-6.779V71.641a8.273,8.273,0,0,0-2.131-5.955A8.106,8.106,0,0,0,266,63.45q-4.784,0-7.2,2.33T256.2,73.006l7.2,0.283,0.189-1.977a3.117,3.117,0,0,1,.427-1.6,1.423,1.423,0,0,1,1.278-.565,1.329,1.329,0,0,1,1.255.612,3.622,3.622,0,0,1,.355,1.789v2.73a48.3,48.3,0,0,0-5.8,2.354,11.465,11.465,0,0,0-3.859,3.154,8.06,8.06,0,0,0-1.61,5.178,7.251,7.251,0,0,0,.734,3.178,6.154,6.154,0,0,0,2.178,2.495,6.036,6.036,0,0,0,3.433.965h0Zm2.747-5.178a1.813,1.813,0,0,1-1.563-.8,3.672,3.672,0,0,1-.568-2.166,5.02,5.02,0,0,1,1.089-3.272,11.453,11.453,0,0,1,3.22-2.565v7.438a2.756,2.756,0,0,1-2.178,1.365h0ZM278.3,91.13h7.719V69.852a4.708,4.708,0,0,1,2.415-.989,1.388,1.388,0,0,1,1.208.494,2.648,2.648,0,0,1,.355,1.53V91.13h7.671V69.805a7.542,7.542,0,0,0-1.3-4.59A4.394,4.394,0,0,0,292.6,63.45q-3.363,0-6.582,3.2v-2.73H278.3V91.13ZM310.614,91.6a9.9,9.9,0,0,0,4.143-.871,7.381,7.381,0,0,0,3.078-2.542A6.8,6.8,0,0,0,319,84.21a6.561,6.561,0,0,0-1.278-4.025,22.647,22.647,0,0,0-3.646-3.7L312.129,74.8a29.472,29.472,0,0,1-2.912-2.589,2.821,2.821,0,0,1-.923-1.836,1.478,1.478,0,0,1,.449-1.13,1.69,1.69,0,0,1,1.208-.424,2.832,2.832,0,0,1,2.178,1.2,7.932,7.932,0,0,1,1.468,2.707l4.972-2.26a9.854,9.854,0,0,0-3.2-5.2,8.661,8.661,0,0,0-5.612-1.812,9.237,9.237,0,0,0-4.167.965,7.978,7.978,0,0,0-3.1,2.66,6.668,6.668,0,0,0-1.161,3.86,7.208,7.208,0,0,0,1.113,4.049,18.581,18.581,0,0,0,3.576,3.766l1.988,1.647a28.694,28.694,0,0,1,3.078,2.754,2.772,2.772,0,0,1,.711,1.859q0,1.412-1.8,1.412a3.1,3.1,0,0,1-2.249-1.036,8.805,8.805,0,0,1-1.776-2.919l-5.256,2.307a11.177,11.177,0,0,0,3.859,5.2,10.516,10.516,0,0,0,6.038,1.624h0Zm17.511,0a4.766,4.766,0,0,0,3.362-1.224,6.805,6.805,0,0,0,1.894-3.107q0.189,0.706.616,3.86h6.914a39.551,39.551,0,0,1-.474-6.779V71.641a8.273,8.273,0,0,0-2.131-5.955,8.106,8.106,0,0,0-6.156-2.236q-4.783,0-7.2,2.33t-2.6,7.226l7.2,0.283,0.189-1.977a3.117,3.117,0,0,1,.426-1.6,1.426,1.426,0,0,1,1.279-.565,1.329,1.329,0,0,1,1.255.612,3.622,3.622,0,0,1,.355,1.789v2.73a48.3,48.3,0,0,0-5.8,2.354,11.455,11.455,0,0,0-3.859,3.154,8.06,8.06,0,0,0-1.61,5.178,7.251,7.251,0,0,0,.734,3.178,6.154,6.154,0,0,0,2.178,2.495,6.036,6.036,0,0,0,3.433.965h0Zm2.747-5.178a1.813,1.813,0,0,1-1.563-.8,3.672,3.672,0,0,1-.568-2.166,5.02,5.02,0,0,1,1.089-3.272,11.438,11.438,0,0,1,3.22-2.565v7.438a2.757,2.757,0,0,1-2.178,1.365h0Zm22.639,4.99a28.37,28.37,0,0,0,4.641-.377V85.011a12.8,12.8,0,0,1-2.084.188,2.662,2.662,0,0,1-1.775-.541,2.07,2.07,0,0,1-.64-1.671V68.958h3.883V63.921h-3.883V55.636H345.84v8.285h-2.652v5.037h2.652V83.74a11.633,11.633,0,0,0,.663,4.284,4.815,4.815,0,0,0,2.32,2.519,10.247,10.247,0,0,0,4.688.871h0Zm8.078-.283h7.672V53h-7.672V91.13ZM379.2,91.6a4.766,4.766,0,0,0,3.362-1.224,6.807,6.807,0,0,0,1.9-3.107q0.188,0.706.615,3.86h6.914a39.551,39.551,0,0,1-.474-6.779V71.641a8.273,8.273,0,0,0-2.131-5.955,8.106,8.106,0,0,0-6.156-2.236q-4.783,0-7.2,2.33t-2.6,7.226l7.2,0.283,0.189-1.977a3.126,3.126,0,0,1,.427-1.6,1.423,1.423,0,0,1,1.278-.565,1.329,1.329,0,0,1,1.255.612,3.622,3.622,0,0,1,.355,1.789v2.73a48.373,48.373,0,0,0-5.8,2.354,11.465,11.465,0,0,0-3.859,3.154,8.06,8.06,0,0,0-1.61,5.178,7.251,7.251,0,0,0,.734,3.178,6.154,6.154,0,0,0,2.178,2.495,6.036,6.036,0,0,0,3.433.965h0Zm2.747-5.178a1.813,1.813,0,0,1-1.563-.8,3.672,3.672,0,0,1-.568-2.166,5.026,5.026,0,0,1,1.089-3.272,11.453,11.453,0,0,1,3.22-2.565v7.438a2.756,2.756,0,0,1-2.178,1.365h0Zm13.571,4.707h7.719V69.852a4.708,4.708,0,0,1,2.415-.989,1.388,1.388,0,0,1,1.208.494,2.648,2.648,0,0,1,.355,1.53V91.13h7.671V69.805a7.542,7.542,0,0,0-1.3-4.59,4.394,4.394,0,0,0-3.765-1.765q-3.363,0-6.582,3.2v-2.73h-7.719V91.13Zm32.56,0.283a28.37,28.37,0,0,0,4.641-.377V85.011a12.8,12.8,0,0,1-2.084.188,2.662,2.662,0,0,1-1.775-.541,2.07,2.07,0,0,1-.64-1.671V68.958h3.883V63.921h-3.883V55.636h-7.813v8.285h-2.652v5.037h2.652V83.74a11.612,11.612,0,0,0,.663,4.284,4.815,4.815,0,0,0,2.32,2.519,10.247,10.247,0,0,0,4.688.871h0Zm7.894-32.105h7.766V53.988h-7.766v5.319Zm0.047,31.823h7.719V63.921h-7.719V91.13ZM456.906,91.6a10.011,10.011,0,0,0,6.819-2.118,7.764,7.764,0,0,0,2.415-6.167v-3.3h-7.434v3.625a3.76,3.76,0,0,1-.427,2.071,1.5,1.5,0,0,1-1.326.612,1.437,1.437,0,0,1-1.325-.706,5.046,5.046,0,0,1-.427-2.448v-11.3a5.471,5.471,0,0,1,.4-2.471,1.375,1.375,0,0,1,1.3-.73,1.6,1.6,0,0,1,1.35.588,3.7,3.7,0,0,1,.45,2.142v3.107h7.434V71.641a7.661,7.661,0,0,0-2.391-6.12q-2.393-2.071-6.843-2.071a9.7,9.7,0,0,0-6.985,2.377,8.844,8.844,0,0,0-2.486,6.708v9.98a8.809,8.809,0,0,0,2.51,6.685,9.657,9.657,0,0,0,6.961,2.4h0ZM314.932,130.77a4.854,4.854,0,0,0,1.262-3.629V109.609H312.88v17.307q0,2.383-2.115,2.383a7.672,7.672,0,0,1-1.959-.252v2.606a7.492,7.492,0,0,0,2.481.351A5.007,5.007,0,0,0,314.932,130.77Zm-1.763-23.943a1.887,1.887,0,0,0,1.389.484,1.849,1.849,0,0,0,1.361-.484,1.784,1.784,0,0,0,.486-1.324,1.819,1.819,0,0,0-.486-1.36,1.866,1.866,0,0,0-1.361-.476,1.9,1.9,0,0,0-1.389.476,1.819,1.819,0,0,0-.486,1.36A1.784,1.784,0,0,0,313.169,106.827Zm29.367,4.667a6.887,6.887,0,0,0-5.357-2.165,7.076,7.076,0,0,0-5.485,2.116,8.372,8.372,0,0,0-1.946,5.886,9.539,9.539,0,0,0,.9,4.26,6.484,6.484,0,0,0,2.58,2.817,7.509,7.509,0,0,0,3.863.981,7.046,7.046,0,0,0,5.457-2.13,8.429,8.429,0,0,0,1.959-5.928A8.331,8.331,0,0,0,342.536,111.494Zm-8.438,1.9a3.4,3.4,0,0,1,3.024-1.374q3.977,0,3.976,5.312,0,5.367-3.948,5.367-3.99,0-3.99-5.367A6.957,6.957,0,0,1,334.1,113.393Zm37.642,11.716v-15.5h-3.327v7.722a6.8,6.8,0,0,1-.98,4.155,3.671,3.671,0,0,1-3.067,1.24,2.806,2.806,0,0,1-2.3-.89,4.125,4.125,0,0,1-.733-2.669v-9.558h-3.341v10.132a4.959,4.959,0,0,0,5.625,5.648,6.616,6.616,0,0,0,2.912-.617,4.691,4.691,0,0,0,1.966-1.7h0.169l0.466,2.032h2.608Zm19.638-14.968a6.159,6.159,0,0,0-2.024,2.2h-0.169l-0.437-2.733h-2.594v15.5h3.313v-8.1a4.642,4.642,0,0,1,1.234-3.349,4.256,4.256,0,0,1,3.221-1.289,6.308,6.308,0,0,1,1.467.168l0.324-3.069a8.052,8.052,0,0,0-1.65-.14A4.833,4.833,0,0,0,391.378,110.141ZM422.18,115q0-5.675-5.612-5.675a6.754,6.754,0,0,0-2.876.6,4.606,4.606,0,0,0-2,1.71h-0.169l-0.465-2.032h-2.595v15.5h3.314v-7.722a6.781,6.781,0,0,1,.972-4.134,3.678,3.678,0,0,1,3.074-1.234,2.816,2.816,0,0,1,2.3.883,4.154,4.154,0,0,1,.726,2.677v9.53h3.328V115Zm26.406,10.1V114.668a5.034,5.034,0,0,0-1.516-4.05,6.78,6.78,0,0,0-4.491-1.289,12.85,12.85,0,0,0-2.848.343,11.594,11.594,0,0,0-2.777,1l1.071,2.354a17.444,17.444,0,0,1,2.115-.826,7.51,7.51,0,0,1,2.3-.351,2.857,2.857,0,0,1,2.165.736,3.122,3.122,0,0,1,.7,2.221v0.827l-2.692.084a10.387,10.387,0,0,0-5.457,1.331,4.088,4.088,0,0,0-1.79,3.616,4.6,4.6,0,0,0,1.29,3.49,4.981,4.981,0,0,0,3.588,1.233,7.223,7.223,0,0,0,2.933-.512,6.366,6.366,0,0,0,2.269-1.927h0.113l0.663,2.159h2.369Zm-9.165-2.81a2.064,2.064,0,0,1-.62-1.605,2.357,2.357,0,0,1,1.064-2.123,6.89,6.89,0,0,1,3.4-.778l2-.084v1.345a3.621,3.621,0,0,1-1.092,2.81,4.122,4.122,0,0,1-2.9,1A2.679,2.679,0,0,1,439.421,122.3Zm26.816-19h-3.313v21.807h3.313V103.3ZM211.726,76.215H196v41.771H299.641V116.7H197.289V77.5h14.437V76.215Zm265.547,41.771H493V76.215H477.273V77.5h14.438V116.7H477.273v1.282Z" transform="translate(-196 -53)"/>
</svg>
