<svg xmlns="http://www.w3.org/2000/svg" width="56" height="62" viewBox="0 0 56 62">
  <metadata><?xpacket begin="﻿" id="W5M0MpCehiHzreSzNTczkc9d"?>
<x:xmpmeta xmlns:x="adobe:ns:meta/" x:xmptk="Adobe XMP Core 5.6-c142 79.160924, 2017/07/13-01:06:39        ">
   <rdf:RDF xmlns:rdf="http://www.w3.org/1999/02/22-rdf-syntax-ns#">
      <rdf:Description rdf:about=""/>
   </rdf:RDF>
</x:xmpmeta>
                                                                                                    
                                                                                                    
                                                                                                    
                                                                                                    
                                                                                                    
                                                                                                    
                                                                                                    
                                                                                                    
                                                                                                    
                                                                                                    
                                                                                                    
                                                                                                    
                                                                                                    
                                                                                                    
                                                                                                    
                                                                                                    
                                                                                                    
                                                                                                    
                                                                                                    
                                                                                                    
                           
<?xpacket end="w"?></metadata>
<defs>
    <style>
      .cls-1 {
        fill: #fff;
        fill-rule: evenodd;
      }
    </style>
  </defs>
  <path class="cls-1" d="M1450.3,3618.74c8.66,1.28,10.44,4.1,12.08,5.67s1.59,8.74,1.59,8.74l-24.58.03,2.37-5.8-3.3-13.74c0,2.5-1.29,2.1-1.29,2.1h-2.09a1.306,1.306,0,0,1-1.47-1.66l0.02-.12s-0.01.05-.02,0.12l-2.55,13.3,2.25,5.81-25.32.04s0.44-7.25,2.07-8.82,3.3-4.39,11.96-5.67,8.04-5.87,8.32-5.73c-0.05-1.73-.22-4.17-0.22-4.17a11.5,11.5,0,0,1-4.87-5.72c-2.79-1.13-2.42-1.85-2.69-3.31,0,0-.85-5.89,1.04-5.77a1.008,1.008,0,0,0,.99-1.36c-0.1-2.25-.31-6.15-0.16-7.66s0.86-5.56,4.01-6.17a16.318,16.318,0,0,1,2.93-.45c1.05-.15.75-0.75,2.69-0.75l4.05-.65c1.94,0,3.19,2.89,4.24,3.04s1.06-.46,3.2-0.06c3.15,0.6,2.71,4.74,2.86,6.24a33.945,33.945,0,0,1-.05,6.77c-0.3,1.35.64,1.2,0.64,1.2,2.24,0,1.13,5.77,1.13,5.77-0.34,1.53-.49,1.72-2.59,3.04a13.587,13.587,0,0,1-4.92,6.14s0.02,2.9,0,3.59C1442.68,3613,1442.19,3617.53,1450.3,3618.74Zm-13.29,20.27h-1.45l-2.25-5.82,6.08-.01Z" transform="translate(-1408 -3577)"/>
</svg>
