<svg xmlns="http://www.w3.org/2000/svg" width="23.812" height="19.6" viewBox="0 0 23.812 19.6">
  <metadata><?xpacket begin="﻿" id="W5M0MpCehiHzreSzNTczkc9d"?>
<x:xmpmeta xmlns:x="adobe:ns:meta/" x:xmptk="Adobe XMP Core 5.6-c142 79.160924, 2017/07/13-01:06:39        ">
   <rdf:RDF xmlns:rdf="http://www.w3.org/1999/02/22-rdf-syntax-ns#">
      <rdf:Description rdf:about=""/>
   </rdf:RDF>
</x:xmpmeta>
                                                                                                    
                                                                                                    
                                                                                                    
                                                                                                    
                                                                                                    
                                                                                                    
                                                                                                    
                                                                                                    
                                                                                                    
                                                                                                    
                                                                                                    
                                                                                                    
                                                                                                    
                                                                                                    
                                                                                                    
                                                                                                    
                                                                                                    
                                                                                                    
                                                                                                    
                                                                                                    
                           
<?xpacket end="w"?></metadata>
<defs>
    <style>
      .cls-1 {
        fill: #fff;
        fill-rule: evenodd;
      }
    </style>
  </defs>
  <path id="slideshow" class="cls-1" d="M498.2,10129.3H480.35a1.725,1.725,0,0,1-1.7-1.7H496.5a1.725,1.725,0,0,0,1.7-1.7v-13.6a1.662,1.662,0,0,1,1.7,1.7v13.6A1.725,1.725,0,0,1,498.2,10129.3Zm-2.55-2.6H477.8a1.662,1.662,0,0,1-1.7-1.7v-13.6a1.725,1.725,0,0,1,1.7-1.7h17.85a1.725,1.725,0,0,1,1.7,1.7v13.6A1.662,1.662,0,0,1,495.65,10126.7Zm0-15.3H477.8v13.6h17.85v-13.6Zm-13.048,10.4,2.541-4.3,2.54,2.7,3.494-5.6,3.652,9.6h-16.2l2.064-4.4Zm-1.4-7.8a1.662,1.662,0,0,1,1.7,1.7,1.7,1.7,0,0,1-3.4,0A1.662,1.662,0,0,1,481.2,10114Z" transform="translate(-476.094 -10109.7)"/>
</svg>
