<!-- Generated by IcoMoon.io -->
<svg version="1.1" xmlns="http://www.w3.org/2000/svg" width="1024" height="1024" viewBox="0 0 1024 1024">
<title></title>
<g id="icomoon-ignore">
</g>
<path d="M995.52 906.56c-85.272-53.112-184.528-93.974-290.451-116.954l-6.189-1.126c55.087-74.167 97.179-161.628 120.851-256.385l1.069-5.055c24-100.16 14.72-296-81.6-418.24-53.891-66.585-135.615-108.804-227.2-108.804s-173.308 42.219-226.771 108.257l-0.429 0.548c-96.32 122.24-105.6 318.080-81.6 418.24 24.741 99.812 66.833 187.273 123.32 263.415l-1.4-1.975c-112.112 24.106-211.368 64.968-300.638 120.392l3.998-2.312c-17.237 11.682-28.415 31.176-28.415 53.28 0 35.355 28.597 64.032 63.923 64.16h896.012c35.338-0.128 63.935-28.804 63.935-64.16 0-22.104-11.178-41.598-28.19-53.137l-0.225-0.144zM648.64 748.8l-10.56 13.12c-76.48 87.68-175.68 87.68-252.16 0l-10.56-13.12c-73.597-92.519-118.082-211.061-118.082-339.993 0-22.839 1.396-45.353 4.107-67.459l-0.265 2.652c17.6-136.96 96-280 250.88-280s233.28 143.040 250.88 280c2.446 19.454 3.842 41.968 3.842 64.807 0 128.932-44.485 247.474-118.943 341.115l0.861-1.122zM64 960c79.047-48.931 171.003-86.677 269.072-108.058l5.808-1.062 79.36-17.28c25.963 19.001 58.53 30.403 93.76 30.403s67.797-11.402 94.211-30.717l-0.451 0.315 79.36 17.28c103.875 22.309 195.847 60.069 278.624 111.276l-3.744-2.156h-896z"></path>
</svg>
