<?xml version="1.0" encoding="UTF-8"?>
<svg width="61px" height="61px" viewBox="0 0 61 61" version="1.1" xmlns="http://www.w3.org/2000/svg" xmlns:xlink="http://www.w3.org/1999/xlink">
    <!-- Generator: sketchtool 52.6 (67491) - http://www.bohemiancoding.com/sketch -->
    <title>46992F8C-5823-426E-A842-252A51B1D894</title>
    <desc>Created with sketchtool.</desc>
    <g id="Mobile" stroke="none" stroke-width="1" fill="none" fill-rule="evenodd">
        <g id="Icon" transform="translate(-108.000000, -98.000000)">
            <g id="Group-28" transform="translate(108.000000, 98.000000)">
                <circle id="Oval" fill="#E4EAF7" cx="30.5" cy="30.5" r="30.5"></circle>
                <g id="Group-27" transform="translate(13.000000, 13.000000)">
                    <rect id="Rectangle" fill="#D8D8D8" opacity="0" x="0" y="0" width="35" height="35"></rect>
                    <g id="calculator" fill="#5745AA">
                        <path d="M18.0573918,30.8756984 L18.0573918,26.9870306 C16.4525809,29.2734456 13.5507893,30.2554899 10.8871898,29.4138595 C8.2238744,28.5725133 6.41299048,26.1013432 6.41299048,23.3081308 C6.41299048,20.5149185 8.2238744,18.0437484 10.8871898,17.2024022 C13.5507893,16.3607718 16.4525809,17.3428161 18.0573918,19.6292311 L18.0573918,12.3294162 C17.6716801,12.2754109 17.2825575,12.2484083 16.8931506,12.2478398 L8.74346249,12.2478398 C4.24254486,12.2478398 0.593774345,15.8966103 0.593774345,20.3975279 L0.593774345,27.3829749 C0.593774345,31.240945 3.7212513,34.3684219 7.57922133,34.3684219 L18.0573918,34.3684219 C20.0470618,34.3724012 21.9432173,33.5248018 23.2674848,32.0399395 L19.221633,32.0399395 C18.5795381,32.0379499 18.0593815,31.5177933 18.0573918,30.8756984 Z" id="Path"></path>
                        <g id="Group">
                            <path d="M12.236186,21.5617691 L13.4004272,21.5617691 C13.721901,21.5617691 13.9825477,21.8224159 13.9825477,22.1438896 L15.1467889,22.1438896 C15.1467889,21.1794682 14.3648486,20.3975279 13.4004272,20.3975279 L13.4004272,19.8154073 L12.236186,19.8154073 L12.236186,20.3975279 C11.2717646,20.3975279 10.4898242,21.1794682 10.4898242,22.1438896 C10.4898242,23.1083112 11.2717646,23.8902514 12.236186,23.8902514 L13.4004272,23.8902514 C13.721901,23.8902514 13.9825477,24.1508982 13.9825477,24.472372 C13.9825477,24.7938458 13.721901,25.0544926 13.4004272,25.0544926 L12.236186,25.0544926 C11.9147122,25.0544926 11.6540654,24.7938458 11.6540654,24.472372 L10.4898242,24.472372 C10.4898242,25.4367935 11.2717646,26.2187337 12.236186,26.2187337 L12.236186,26.8008543 L13.4004272,26.8008543 L13.4004272,26.2187337 C14.3648486,26.2187337 15.1467889,25.4367935 15.1467889,24.472372 C15.1467889,23.5079505 14.3648486,22.7260102 13.4004272,22.7260102 L12.236186,22.7260102 C11.9147122,22.7260102 11.6540654,22.4653635 11.6540654,22.1438896 C11.6540654,21.8224159 11.9147122,21.5617691 12.236186,21.5617691 Z" id="Path"></path>
                            <polygon id="Path" points="8.16134191 22.7260102 9.32558308 22.7260102 9.32558308 23.8902514 8.16134191 23.8902514"></polygon>
                            <path d="M33.1925269,10.501478 L19.221633,10.501478 C18.7907273,10.5028993 18.375739,10.6649152 18.0573918,10.955407 L18.0573918,10.501478 C19.6641925,10.4994884 20.966005,9.19767576 20.9679947,7.59087509 L20.9679947,0.605428108 C20.9679947,0.283954345 20.707348,0.023307526 20.3858741,0.023307526 C19.5973964,0.00767445946 18.8251202,0.247287588 18.1835937,0.706048597 C17.7273909,1.04685065 17.1697148,1.22449974 16.600385,1.21085629 C16.0307709,1.22449974 15.4736633,1.04315557 15.0211555,0.697521476 C13.6971722,-0.23250711 11.932335,-0.23250711 10.608636,0.697521476 C10.1564124,1.04315557 9.59987335,1.22421552 9.03111192,1.21085629 C8.46235057,1.22506825 7.9055272,1.04713488 7.45046128,0.706048597 C6.80978759,0.247856029 6.03836409,0.00824290021 5.250739,0.023307526 C4.92926524,0.023307526 4.66861842,0.283954345 4.66861842,0.605428108 L4.66861842,7.59087509 C4.67060811,9.19767576 5.97242074,10.4994884 7.57922133,10.501478 L7.57922133,11.752412 C3.25055223,12.3379434 0.0190440021,16.0296339 0.011653763,20.3975279 L0.011653763,27.3829749 C0.0164858004,31.5604291 3.40176715,34.9457104 7.57922133,34.9505425 L18.0573918,34.9505425 C20.1149948,34.9471317 22.0827784,34.1066382 23.5076663,32.6220601 L33.1925269,32.6220601 C34.1569484,32.6220601 34.9388887,31.8401199 34.9388887,30.8756984 L34.9388887,12.2478398 C34.9388887,11.2834183 34.1569484,10.501478 33.1925269,10.501478 Z M17.4752712,26.7852212 C15.9764813,28.7976303 13.3569387,29.6230591 10.9750195,28.8337285 C8.59310031,28.0441138 6.98544699,25.8173889 6.98544699,23.3081308 C6.98544699,20.7988728 8.59310031,18.5721479 10.9750195,17.7825331 C13.3569387,16.9929184 15.9764813,17.8186314 17.4752712,19.8310405 L17.4752712,26.7852212 Z M5.83285958,7.59087509 L5.83285958,1.23984859 C6.19213713,1.32284632 6.53123372,1.47661937 6.83053699,1.69235638 C7.47149497,2.15083324 8.24320262,2.3904463 9.03111192,2.37509745 C9.82271638,2.38987786 10.5972665,2.14457996 11.2362348,1.67643902 C12.1773486,0.991992557 13.4524428,0.991992557 14.3935567,1.67643902 C15.0333777,2.14514847 15.809349,2.3904463 16.6020904,2.37509745 C17.390284,2.3904463 18.1625601,2.15111746 18.8038023,1.69235638 C19.1039582,1.47690359 19.4439076,1.32284632 19.8037536,1.23928015 L19.8037536,7.59087509 C19.8037536,8.5552966 19.0218132,9.33723684 18.0573918,9.33723684 L16.9704635,9.33723684 L17.4707234,5.3345894 L16.3155779,5.19019621 L15.7971267,9.33723684 L13.4004272,9.33723684 L13.4004272,5.26239277 L12.236186,5.26239277 L12.236186,9.33723684 L9.8394864,9.33723684 L9.32103526,5.19019621 L8.16588973,5.3345894 L8.6661496,9.33723684 L7.57922133,9.33723684 C6.6147999,9.33723684 5.83285958,8.5552966 5.83285958,7.59087509 Z M8.74346249,10.501478 L16.8931506,10.501478 L16.8931506,11.6657192 L8.74346249,11.6657192 L8.74346249,10.501478 Z M18.0573918,33.7863013 L7.57922133,33.7863013 C4.04443053,33.7820378 1.18015852,30.9177658 1.17589493,27.3829749 L1.17589493,20.3975279 C1.18072696,16.2200737 4.56600832,12.8347924 8.74346249,12.8299603 L16.8931506,12.8299603 C17.0852959,12.8299603 17.2802836,12.8376348 17.4752712,12.852131 L17.4752712,18.1113972 C14.6775111,15.5981597 10.391762,15.7510801 7.78017801,18.4575997 C5.1688783,21.1641194 5.1688783,25.4521423 7.78017801,28.158662 C10.391762,30.8651816 14.6775111,31.018102 17.4752712,28.5045803 L17.4752712,30.8756984 C17.4752712,31.8401199 18.2572115,32.6220601 19.221633,32.6220601 L21.7416921,32.6220601 C20.662154,33.3792717 19.3759745,33.7857328 18.0573918,33.7863013 Z M33.7746475,30.8756984 C33.7746475,31.1971722 33.5140008,31.457819 33.1925269,31.457819 L19.221633,31.457819 C18.9001592,31.457819 18.6395124,31.1971722 18.6395124,30.8756984 L18.6395124,12.2478398 C18.6395124,11.926366 18.9001592,11.6657192 19.221633,11.6657192 L33.1925269,11.6657192 C33.5140008,11.6657192 33.7746475,11.926366 33.7746475,12.2478398 L33.7746475,30.8756984 Z" id="Shape" fill-rule="nonzero"></path>
                            <path d="M32.0282858,12.8299603 L20.3858741,12.8299603 C20.0644004,12.8299603 19.8037536,13.0906072 19.8037536,13.4120809 L19.8037536,16.9048044 C19.8037536,17.2262782 20.0644004,17.486925 20.3858741,17.486925 L32.0282858,17.486925 C32.3497596,17.486925 32.6104064,17.2262782 32.6104064,16.9048044 L32.6104064,13.4120809 C32.6104064,13.0906072 32.3497596,12.8299603 32.0282858,12.8299603 Z M31.4461652,16.3226838 L20.9679947,16.3226838 L20.9679947,13.9942015 L31.4461652,13.9942015 L31.4461652,16.3226838 Z" id="Shape" fill-rule="nonzero"></path>
                            <path d="M21.5501153,18.6511662 C20.5856939,18.6511662 19.8037536,19.4331065 19.8037536,20.3975279 C19.8037536,21.3619494 20.5856939,22.1438896 21.5501153,22.1438896 C22.5145367,22.1438896 23.296477,21.3619494 23.296477,20.3975279 C23.296477,19.4331065 22.5145367,18.6511662 21.5501153,18.6511662 Z M21.5501153,20.9796485 C21.2286415,20.9796485 20.9679947,20.7190017 20.9679947,20.3975279 C20.9679947,20.0760541 21.2286415,19.8154073 21.5501153,19.8154073 C21.8715891,19.8154073 22.1322359,20.0760541 22.1322359,20.3975279 C22.1322359,20.7190017 21.8715891,20.9796485 21.5501153,20.9796485 Z" id="Shape" fill-rule="nonzero"></path>
                            <path d="M26.20708,18.6511662 C25.2426585,18.6511662 24.4607182,19.4331065 24.4607182,20.3975279 C24.4607182,21.3619494 25.2426585,22.1438896 26.20708,22.1438896 C27.1715014,22.1438896 27.9534417,21.3619494 27.9534417,20.3975279 C27.9534417,19.4331065 27.1715014,18.6511662 26.20708,18.6511662 Z M26.20708,20.9796485 C25.8856062,20.9796485 25.6249594,20.7190017 25.6249594,20.3975279 C25.6249594,20.0760541 25.8856062,19.8154073 26.20708,19.8154073 C26.5285538,19.8154073 26.7892005,20.0760541 26.7892005,20.3975279 C26.7892005,20.7190017 26.5285538,20.9796485 26.20708,20.9796485 Z" id="Shape" fill-rule="nonzero"></path>
                            <path d="M30.8640446,18.6511662 C29.8996232,18.6511662 29.1176829,19.4331065 29.1176829,20.3975279 C29.1176829,21.3619494 29.8996232,22.1438896 30.8640446,22.1438896 C31.828466,22.1438896 32.6104064,21.3619494 32.6104064,20.3975279 C32.6104064,19.4331065 31.828466,18.6511662 30.8640446,18.6511662 Z M30.8640446,20.9796485 C30.5425709,20.9796485 30.281924,20.7190017 30.281924,20.3975279 C30.281924,20.0760541 30.5425709,19.8154073 30.8640446,19.8154073 C31.1855185,19.8154073 31.4461652,20.0760541 31.4461652,20.3975279 C31.4461652,20.7190017 31.1855185,20.9796485 30.8640446,20.9796485 Z" id="Shape" fill-rule="nonzero"></path>
                            <path d="M21.5501153,22.7260102 C20.5856939,22.7260102 19.8037536,23.5079505 19.8037536,24.472372 C19.8037536,25.4367935 20.5856939,26.2187337 21.5501153,26.2187337 C22.5145367,26.2187337 23.296477,25.4367935 23.296477,24.472372 C23.296477,23.5079505 22.5145367,22.7260102 21.5501153,22.7260102 Z M21.5501153,25.0544926 C21.2286415,25.0544926 20.9679947,24.7938458 20.9679947,24.472372 C20.9679947,24.1508982 21.2286415,23.8902514 21.5501153,23.8902514 C21.8715891,23.8902514 22.1322359,24.1508982 22.1322359,24.472372 C22.1322359,24.7938458 21.8715891,25.0544926 21.5501153,25.0544926 Z" id="Shape" fill-rule="nonzero"></path>
                            <path d="M26.20708,22.7260102 C25.2426585,22.7260102 24.4607182,23.5079505 24.4607182,24.472372 C24.4607182,25.4367935 25.2426585,26.2187337 26.20708,26.2187337 C27.1715014,26.2187337 27.9534417,25.4367935 27.9534417,24.472372 C27.9534417,23.5079505 27.1715014,22.7260102 26.20708,22.7260102 Z M26.20708,25.0544926 C25.8856062,25.0544926 25.6249594,24.7938458 25.6249594,24.472372 C25.6249594,24.1508982 25.8856062,23.8902514 26.20708,23.8902514 C26.5285538,23.8902514 26.7892005,24.1508982 26.7892005,24.472372 C26.7892005,24.7938458 26.5285538,25.0544926 26.20708,25.0544926 Z" id="Shape" fill-rule="nonzero"></path>
                            <path d="M30.8640446,22.7260102 C29.8996232,22.7260102 29.1176829,23.5079505 29.1176829,24.472372 C29.1176829,25.4367935 29.8996232,26.2187337 30.8640446,26.2187337 C31.828466,26.2187337 32.6104064,25.4367935 32.6104064,24.472372 C32.6104064,23.5079505 31.828466,22.7260102 30.8640446,22.7260102 Z M30.8640446,25.0544926 C30.5425709,25.0544926 30.281924,24.7938458 30.281924,24.472372 C30.281924,24.1508982 30.5425709,23.8902514 30.8640446,23.8902514 C31.1855185,23.8902514 31.4461652,24.1508982 31.4461652,24.472372 C31.4461652,24.7938458 31.1855185,25.0544926 30.8640446,25.0544926 Z" id="Shape" fill-rule="nonzero"></path>
                            <path d="M21.5501153,26.8008543 C20.5856939,26.8008543 19.8037536,27.5827946 19.8037536,28.547216 C19.8037536,29.5116376 20.5856939,30.2935778 21.5501153,30.2935778 C22.5145367,30.2935778 23.296477,29.5116376 23.296477,28.547216 C23.296477,27.5827946 22.5145367,26.8008543 21.5501153,26.8008543 Z M21.5501153,29.1293366 C21.2286415,29.1293366 20.9679947,28.8686899 20.9679947,28.547216 C20.9679947,28.2257423 21.2286415,27.9650955 21.5501153,27.9650955 C21.8715891,27.9650955 22.1322359,28.2257423 22.1322359,28.547216 C22.1322359,28.8686899 21.8715891,29.1293366 21.5501153,29.1293366 Z" id="Shape" fill-rule="nonzero"></path>
                            <path d="M26.20708,26.8008543 C25.2426585,26.8008543 24.4607182,27.5827946 24.4607182,28.547216 C24.4607182,29.5116376 25.2426585,30.2935778 26.20708,30.2935778 C27.1715014,30.2935778 27.9534417,29.5116376 27.9534417,28.547216 C27.9534417,27.5827946 27.1715014,26.8008543 26.20708,26.8008543 Z M26.20708,29.1293366 C25.8856062,29.1293366 25.6249594,28.8686899 25.6249594,28.547216 C25.6249594,28.2257423 25.8856062,27.9650955 26.20708,27.9650955 C26.5285538,27.9650955 26.7892005,28.2257423 26.7892005,28.547216 C26.7892005,28.8686899 26.5285538,29.1293366 26.20708,29.1293366 Z" id="Shape" fill-rule="nonzero"></path>
                            <path d="M30.8640446,26.8008543 C29.8996232,26.8008543 29.1176829,27.5827946 29.1176829,28.547216 C29.1176829,29.5116376 29.8996232,30.2935778 30.8640446,30.2935778 C31.828466,30.2935778 32.6104064,29.5116376 32.6104064,28.547216 C32.6104064,27.5827946 31.828466,26.8008543 30.8640446,26.8008543 Z M30.8640446,29.1293366 C30.5425709,29.1293366 30.281924,28.8686899 30.281924,28.547216 C30.281924,28.2257423 30.5425709,27.9650955 30.8640446,27.9650955 C31.1855185,27.9650955 31.4461652,28.2257423 31.4461652,28.547216 C31.4461652,28.8686899 31.1855185,29.1293366 30.8640446,29.1293366 Z" id="Shape" fill-rule="nonzero"></path>
                        </g>
                    </g>
                </g>
            </g>
        </g>
    </g>
</svg>