<?xml version="1.0" encoding="UTF-8"?><!DOCTYPE svg PUBLIC "-//W3C//DTD SVG 1.1//EN" "http://www.w3.org/Graphics/SVG/1.1/DTD/svg11.dtd"><svg xmlns="http://www.w3.org/2000/svg"><defs>
        <style>
            .cls-1{fill:#db4437}
        </style>
    </defs><symbol id="icon-bell" viewBox="0 0 510 510">
    <path d="M255 510c28.05 0 51-22.95 51-51H204c0 28.05 22.95 51 51 51zm165.75-153V216.75c0-79.05-53.55-142.8-127.5-160.65V38.25C293.25 17.85 275.4 0 255 0s-38.25 17.85-38.25 38.25V56.1c-73.95 17.85-127.5 81.6-127.5 160.65V357l-51 51v25.5h433.5V408l-51-51zm-51 25.5h-229.5V216.75C140.25 153 191.25 102 255 102s114.75 51 114.75 114.75V382.5z"/>
</symbol><symbol id="icon-logo" viewBox="0 0 90.23 15.49">
    
    <title>
        logo
    </title>
    <path d="M10.27 8.7V.15h.86V8.7z"/>
    <path d="M13.24 8.7V.15h.86v7.72h6.3l-.07.83z"/>
    <path d="M22.41 8.7V.15h7.17l-.07.85h-6.23v3h5.58l-.05.83h-5.53v3h6.3l-.07.83z"/>
    <path d="M31.47 8.7v-1h1v1z"/>
    <path d="M34.5 8.7V.15h7.17L41.6 1h-6.23v3H41l-.05.83h-5.58v3h6.3l-.07.83z"/>
    <path d="M43.26 8.7l3.46-4.39L43.45.15h1l2.76 3.5L50 .15h1l-3.3 4.17 3.54 4.38h-1L47.26 5l-2.94 3.7z"/>
    <path d="M52.91 8.7V.15L54 .08h2.89a10 10 0 0 1 1.5.1 3.09 3.09 0 0 1 1.2.39 2.06 2.06 0 0 1 .79.86 3.44 3.44 0 0 1 .28 1.49 3.46 3.46 0 0 1-.28 1.5 2.06 2.06 0 0 1-.79.86 3.28 3.28 0 0 1-1.19.4 11.59 11.59 0 0 1-1.51.1H55.5c-.56 0-1.15 0-1.75-.07V8.7zm.87-3.93l1.76.07h1.36a10.57 10.57 0 0 0 1.16-.06 2.54 2.54 0 0 0 .94-.26 1.53 1.53 0 0 0 .61-.6 2.22 2.22 0 0 0 .23-1.08 2.21 2.21 0 0 0-.23-1.07 1.49 1.49 0 0 0-.61-.61 2.21 2.21 0 0 0-.93-.27A10.57 10.57 0 0 0 56.9.83h-1.37l-1.75.09z"/>
    <path d="M62.45 8.7V.15h7.17l-.07.85h-6.23v3h5.58l-.05.83h-5.53v3h6.3l-.07.83z"/>
    <path d="M71.63 8.7V.15l1.12-.07H75.65a10.07 10.07 0 0 1 1.51.1 3 3 0 0 1 1.19.39 2.06 2.06 0 0 1 .79.86 3.3 3.3 0 0 1 .28 1.49A3.87 3.87 0 0 1 79.25 4a2.38 2.38 0 0 1-.42.79 1.84 1.84 0 0 1-.66.51 2.92 2.92 0 0 1-.85.27l1.91 3.08v.07l-.86.11-2-3.14-.37.01h-1.77c-.57 0-1.15 0-1.76-.07V8.7zm.86-3.93l1.76.07h1.36a10.57 10.57 0 0 0 1.16-.06 2.59 2.59 0 0 0 .94-.28 1.6 1.6 0 0 0 .61-.6 2.23 2.23 0 0 0 .22-1.08 2.21 2.21 0 0 0-.22-1.07 1.56 1.56 0 0 0-.61-.61 2.21 2.21 0 0 0-.93-.27 10.63 10.63 0 0 0-1.17-.04h-1.36l-1.76.09z"/>
    <path d="M80.72 1V.15h8.09l-.07.85h-3.49v7.7h-.86V1z"/>
    <path class="cls-1" d="M0 1V.15h8.09L8 1H4.53v7.7h-.86V1z"/>
    <path class="cls-1" d="M84 8.87v.06s.05.22 1 3.27 1.05 3.25 1.08 3.27a.16.16 0 0 0 .2 0l.62-1.27.6-1.24 1.32-.43c1.43-.46 1.39-.45 1.42-.53a.31.31 0 0 0 0-.09 21.6 21.6 0 0 0-3.06-1.56c-2.9-1.44-3-1.51-3.09-1.5zm4.49 3.43a8.81 8.81 0 0 0-1.22.42l-1.08 2.22-.92-2.83-.92-2.85L87 10.58l2.66 1.32z"/>
</symbol><symbol id="icon-mail" viewBox="0 0 1000 1000">
    <path d="M45 850c-21 0-35-14-35-35V185c0-21 14-35 35-35h910c21 0 35 14 35 35v630c0 21-14 35-35 35H45zm35-70h840V220H80v560z"/>
    <path d="M493 633c-7 0-14 0-21-7L24 213c-7-7-14-14-14-28 0-7 0-21 7-28 7 0 21-7 28-7s14 0 21 7l420 392 420-364c7-7 14-7 21-7s21 7 28 14 7 14 7 28c0 7-7 21-14 21L514 626c-7 0-14 7-21 7z"/>
</symbol><symbol id="icon-plus" viewBox="0 0 1000 1000">
    <path d="M500 10C229.4 10 10 229.4 10 500s219.4 490 490 490 490-219.4 490-490S770.6 10 500 10zm279.7 559.9H569.9v209.8H430.1V569.9H220.3V430.1h209.8V220.3h139.8v209.8h209.8v139.8z"/>
</symbol><symbol id="icon-search" viewBox="0 0 1000 1000">
    <path d="M969.4 879.8L713.6 623.9c45.7-64 73.1-141.6 73.1-223.9 0-214.7-173.6-388.3-388.3-388.3C183.6 11.7 10 185.3 10 400.1c0 214.7 173.6 388.3 388.3 388.3 82.2 0 159.9-27.4 223.9-73.1l255.9 255.8c22.8 22.8 64 22.8 91.4 0 27.4-27.4 27.4-63.9-.1-91.3zM398.3 697c-164.5 0-297-132.5-297-297s132.5-297 297-297 297 132.5 297 297-132.5 297-297 297z"/>
</symbol></svg>